<svg viewBox="0 0 91 91" fill="none" xmlns="http://www.w3.org/2000/svg">
<g clip-path="url(#clip0_3265_35695)">
<rect width="90.72" height="90.72" rx="24" fill="white"/>
<path d="M28.523 37.0781L29.7031 29.998L33.0378 24.6877L39.2562 19.3027L53.6804 18.0205L59.7706 24.239L63.9376 37.0781C69.0021 35.6854 66.5019 41.8044 66.2455 42.8302C65.989 43.8559 65.989 46.1638 64.9633 48.5357C64.1427 50.4333 62.7837 50.3521 62.2067 50.0743L60.3476 55.267C60.0698 57.9382 59.6809 63.6138 60.3476 64.9473C61.0143 66.2807 63.959 68.3236 65.348 69.1784C65.0915 69.9904 64.3607 71.9863 63.4889 73.4736C62.399 75.3327 57.591 79.6279 51.3084 80.8459C45.0259 82.064 39.8332 80.1408 35.538 77.5124C32.1018 75.4096 30.3025 70.8238 29.8324 68.7937L33.9994 65.3319V60.3956C30.9735 57.9339 28.8067 52.1471 28.1015 49.5615C27.6955 49.476 26.6686 48.9332 25.809 47.4459C24.9495 45.9586 25.4509 44.6344 25.809 44.1582C25.455 42.5062 24.9594 38.7773 25.809 37.0781C26.6586 35.3789 27.9724 36.3701 28.523 37.0781Z" fill="white"/>
<path d="M33.8314 59.495C34.247 59.4591 34.613 59.7666 34.6494 60.1821C34.7195 60.9879 34.8039 62.2201 34.8286 63.2987C34.8409 63.8356 34.8387 64.3529 34.8099 64.7654C34.7956 64.9695 34.7736 65.1701 34.737 65.3432C34.7188 65.4296 34.6939 65.5267 34.6563 65.6218C34.6227 65.7071 34.5569 65.8482 34.4309 65.9742C34.2225 66.1826 33.546 66.7137 32.8913 67.2263C32.2008 67.7671 31.4692 68.3368 31.0653 68.6733C30.7446 68.9406 30.2675 68.8976 30.0002 68.5769C29.733 68.2561 29.776 67.7791 30.0967 67.5118C30.5235 67.1561 31.283 66.5657 31.9591 66.0362C32.5534 65.5709 33.0446 65.1792 33.2634 64.9908C33.2768 64.915 33.2916 64.8059 33.3018 64.6601C33.3258 64.3168 33.3295 63.8544 33.3176 63.3341C33.2938 62.2982 33.2117 61.1003 33.1433 60.314C33.1072 59.8981 33.4155 59.5312 33.8314 59.495Z" fill="#232323"/>
<path opacity="0.2" d="M40.635 64.148C38.4228 63.4106 35.4731 61.5671 34.2748 60.7375L34.2748 62.8115L40.4899 74.0976C40.9926 75.0104 42.3809 74.6535 42.3809 73.6113V71.6534C42.3809 70.6824 42.8472 69.7704 43.6344 69.2019L54.4615 61.3828C52.8638 62.3045 49.2812 64.2955 47.7326 64.8855C45.7969 65.6229 43.4003 65.0698 40.635 64.148Z" fill="#232323"/>
<path d="M59.4152 64.397V55.0287C59.4152 54.6112 59.7537 54.2727 60.1712 54.2727C60.5887 54.2727 60.9272 54.6112 60.9272 55.0287V64.397C60.9272 64.3793 60.9241 64.419 60.9774 64.5328C61.0279 64.6406 61.111 64.7786 61.2334 64.9443C61.4783 65.2762 61.8341 65.6597 62.2522 66.0606C63.0854 66.8596 64.095 67.6573 64.7683 68.1455C65.1063 68.3906 65.1817 68.8637 64.9366 69.2017C64.6916 69.5397 64.2193 69.6149 63.8813 69.3701C63.1702 68.8545 62.103 68.0117 61.2058 67.1513C60.7588 66.7226 60.3351 66.2721 60.0177 65.8421C59.8588 65.6268 59.7146 65.4011 59.6082 65.1737C59.5046 64.9525 59.4152 64.6847 59.4152 64.397Z" fill="#232323"/>
<path d="M48.3301 80.9112C56.5331 80.5997 63.0747 74.6811 64.3207 70.8392C64.8444 69.2245 64.4548 68.1314 63.7814 67.4274C65.2072 68.5992 68.6182 70.8674 70.447 71.6698C75.1106 73.716 95.298 78.5119 97.1326 91.8138V99.7799L-6.391 98.5631C-6.52945 98.0093 -5.45648 94.8874 -0.0570583 86.8297C6.69222 76.7577 10.9495 76.6539 16.0374 74.5772C20.1077 72.9158 27.84 68.7053 31.1973 66.8077C30.1905 67.7288 29.9924 69.845 31.1973 72.3967C32.9625 76.1347 40.1271 81.2227 48.3301 80.9112Z" fill="#232323"/>
<path d="M31.5766 65.6539C31.9803 65.514 32.3904 65.5421 32.8278 65.6372C33.2358 65.7259 33.4943 66.1289 33.4056 66.5369C33.3169 66.9448 32.9148 67.2033 32.5069 67.1147C32.1863 67.045 32.0956 67.074 32.0718 67.0822C32.0248 67.0986 31.9524 67.1396 31.7095 67.3618C31.4034 67.6419 31.1472 68.1776 31.1258 69.0067C31.1047 69.8277 31.3194 70.8781 31.8828 72.0711C32.6741 73.7464 34.7618 75.853 37.7211 77.5097C40.6589 79.1543 44.364 80.3023 48.3031 80.1528C52.2318 80.0036 55.7787 78.5095 58.4983 76.5795C61.24 74.6338 63.0486 72.3126 63.6033 70.6024C64.0489 69.228 63.7012 68.4317 63.2371 67.9465C62.7713 67.4596 62.0983 67.1976 61.606 67.1177C61.194 67.0509 60.9134 66.6624 60.9799 66.2505C61.0467 65.8385 61.4352 65.5579 61.8472 65.6244C62.5578 65.7396 63.5429 66.1036 64.2894 66.8608C65.6964 68.0107 69.0177 70.2132 70.7528 70.9745C71.8926 71.4745 73.9552 72.1311 76.5882 73.0968C79.179 74.047 82.2337 75.268 85.2073 76.8502C91.1121 79.992 96.9132 84.6748 97.8831 91.7074C97.8879 91.7416 97.89 91.7762 97.89 91.8107V99.7763C97.89 99.9783 97.8093 100.173 97.6656 100.315C97.5219 100.457 97.3271 100.535 97.1252 100.532L-6.39857 99.3156C-6.74183 99.3113 -7.03967 99.0767 -7.12307 98.7437C-7.17965 98.5174 -7.15436 98.2801 -7.12307 98.0989C-7.08788 97.8953 -7.02415 97.6575 -6.93407 97.3872C-6.75345 96.8453 -6.44736 96.1162 -5.97529 95.1694C-5.02995 93.2735 -3.39307 90.4494 -0.683289 86.4055C2.73203 81.3088 5.5575 78.6739 8.22235 77.0559C9.54996 76.2499 10.8181 75.7083 12.0604 75.2407C13.3306 74.7627 14.4867 74.3916 15.7538 73.8744C19.7449 72.2454 27.3574 68.1046 30.7567 66.1855C30.9699 65.9928 31.2334 65.773 31.5766 65.6539ZM29.6423 68.5372C25.8117 70.6522 19.7833 73.8626 16.3247 75.2742C15.0479 75.7953 13.7629 76.215 12.593 76.6553C11.3954 77.106 10.2231 77.61 9.0069 78.3484C6.58405 79.8195 3.90636 82.2725 0.572773 87.2472C-2.11668 91.2607 -3.71634 94.0268 -4.62276 95.8447C-5.05938 96.7204 -5.32845 97.3643 -5.48212 97.8134L96.378 99.0114V91.8649C95.493 85.6218 90.2958 81.2701 84.4976 78.185C81.6123 76.6498 78.6306 75.4564 76.0674 74.5162C73.5467 73.5917 71.3375 72.8815 70.1454 72.3585C68.8752 71.8012 66.9184 70.5917 65.319 69.492C65.3122 69.9738 65.2261 70.4994 65.0414 71.069C64.3501 73.2006 62.2648 75.76 59.3734 77.8119C56.46 79.8795 52.6345 81.5015 48.3602 81.6638C44.0967 81.8256 40.1182 80.5846 36.9818 78.8288C33.8672 77.0851 31.4895 74.7784 30.5155 72.7158C29.8741 71.3574 29.5854 70.0735 29.6138 68.9683C29.6175 68.8225 29.6273 68.6784 29.6423 68.5372Z" fill="#232323"/>
<path d="M26.766 35.3594C28.3649 35.4218 29.1263 36.5443 29.3007 37.2415C29.402 37.6466 29.1555 38.0577 28.7505 38.1589C28.3454 38.2602 27.9353 38.0137 27.834 37.6087C27.7878 37.4239 27.4849 36.8395 26.5484 36.8704C26.5465 36.8728 26.5448 36.8762 26.5425 36.8793C26.4891 36.9506 26.4139 37.1041 26.3466 37.3803C26.2129 37.9292 26.165 38.7194 26.1704 39.6247C26.1757 40.5172 26.232 41.4623 26.2826 42.3051C26.3316 43.1197 26.3792 43.8908 26.3545 44.3595C26.3303 44.8196 26.2114 45.3891 26.1497 45.8046C26.0804 46.272 26.0514 46.6948 26.1242 47.0951C26.2125 47.5812 26.4746 48.1539 27.2897 48.7282C27.2907 48.4008 27.5027 48.1 27.833 48.0047C28.2342 47.8891 28.6536 48.1203 28.7692 48.5215C29.1327 49.7832 30.1274 52.8621 31.1917 55.0922C32.4778 57.7868 35.5801 61.7263 41.7363 63.925C44.0705 64.7585 46.4829 64.4868 48.5915 63.7675C50.7034 63.047 52.4467 61.8977 53.3854 61.0801C53.7003 60.806 54.1783 60.8392 54.4525 61.1539C54.7267 61.4688 54.6935 61.9468 54.3787 62.221C53.3047 63.1564 51.3923 64.4098 49.0798 65.1987C46.7641 65.9887 43.9829 66.3335 41.2274 65.3494C34.6587 63.0034 31.2681 58.7625 29.8274 55.7438C29.0845 54.1873 28.3848 52.263 27.8891 50.7688C25.7913 49.8543 24.8765 48.6839 24.6368 47.3658C24.5193 46.7201 24.5775 46.102 24.6545 45.5831C24.7392 45.0121 24.825 44.6488 24.8445 44.2798C24.8634 43.9193 24.8246 43.2608 24.7726 42.3957C24.7223 41.5588 24.664 40.5734 24.6584 39.6335C24.6529 38.7061 24.6981 37.7614 24.8779 37.023C24.9674 36.6559 25.1042 36.2777 25.3327 35.9726C25.5773 35.6462 25.9452 35.3858 26.4352 35.3613L26.766 35.3594Z" fill="#232323"/>
<path d="M64.4133 36.3644C65.1732 36.0151 66.2719 35.7723 67.1636 36.5366C67.7309 37.0228 67.9098 37.7205 67.9364 38.3597C67.963 39.0026 67.843 39.7099 67.6834 40.3777C67.5224 41.0514 67.307 41.7404 67.1203 42.3454C66.9276 42.9703 66.7725 43.4843 66.701 43.8702C66.6252 44.2795 66.579 44.8925 66.4795 45.713C66.3855 46.4886 66.2483 47.3875 65.9932 48.2054C65.7433 49.0067 65.3473 49.8419 64.6614 50.3779C64.0939 50.8213 63.4052 51.0014 62.6208 50.8977C61.6107 53.9448 60.2733 56.4809 59.5859 57.5737C59.3636 57.9271 58.8969 58.0341 58.5435 57.8119C58.1901 57.5897 58.0841 57.1229 58.3062 56.7695C58.9789 55.7002 60.4058 52.9879 61.3903 49.7834C61.5839 49.1532 61.7605 48.5054 61.91 47.8491C62.003 47.4422 62.4077 47.1874 62.8147 47.2801C63.2218 47.3728 63.4764 47.7786 63.3836 48.1857C63.2892 48.6002 63.1833 49.0096 63.0716 49.4132C63.3636 49.4063 63.5698 49.312 63.7301 49.1868C64.0537 48.934 64.3322 48.4535 64.5501 47.7546C64.7629 47.0721 64.8879 46.2847 64.9793 45.5309C65.0652 44.8221 65.1281 44.0617 65.2146 43.5946C65.3054 43.1041 65.4907 42.4979 65.6753 41.8995C65.866 41.2811 66.0654 40.6428 66.2127 40.0262C66.3615 39.4038 66.4443 38.857 66.4264 38.4227C66.4082 37.985 66.2945 37.7825 66.1803 37.6844C65.9813 37.5139 65.6411 37.4647 65.0453 37.7385C64.4778 37.9994 63.9155 38.4591 63.5786 38.8056C63.2875 39.105 62.8089 39.1114 62.5095 38.8204C62.2103 38.5293 62.2028 38.0507 62.4938 37.7513C62.9143 37.3188 63.6251 36.7267 64.4133 36.3644Z" fill="#232323"/>
<path d="M62.909 35.1626V40.2811L63.6413 37.6933L64.2724 37.1753C64.5321 34.5134 67.0641 31.3321 67.5186 30.2933C67.8821 29.4623 68.2327 26.6143 68.3626 25.2942C68.6439 24.6233 69.0378 22.918 68.3626 21.4637C67.5186 19.6458 64.4022 14.8414 60.7016 12.5691C57.741 10.7512 53.7114 9.99378 52.0667 9.84229C48.1713 5.81701 39.861 6.40133 36.485 8.54382C33.1089 10.6863 28.0449 14.4519 26.2919 16.7891C24.8896 18.659 24.0629 23.6711 23.8248 25.9434C23.6733 27.0688 23.6041 29.8259 24.539 31.8515C25.4739 33.8771 27.2658 34.2537 28.0449 34.1888C26.1621 32.241 26.8113 28.1508 29.9277 30.2933C33.044 32.4358 41.1595 29.7739 42.458 25.9434C43.7564 22.1129 46.7429 21.3987 49.4048 21.4637C51.5343 21.5156 53.6196 20.954 54.442 20.1749C54.442 23.1614 57.7151 24.5151 58.1695 25.2942C58.624 26.0733 59.3381 28.9299 59.7277 29.7739C60.1172 30.6179 62.909 33.15 62.909 35.1626Z" fill="#232323"/>
<path d="M62.1549 39.9042V35.1644C62.1548 34.8271 62.0343 34.4135 61.7927 33.9319C61.5541 33.4566 61.2233 32.9654 60.8624 32.4869C60.5008 32.0074 60.1303 31.5668 59.8052 31.1688C59.5132 30.8112 59.1902 30.4111 59.0433 30.0929C58.8211 29.6114 58.5241 28.6111 58.2529 27.7353C58.111 27.2771 57.9703 26.8327 57.8384 26.4566C57.7009 26.0643 57.5915 25.8021 57.5185 25.677C57.5282 25.6936 57.5078 25.6568 57.3896 25.5559C57.2816 25.4637 57.1384 25.3565 56.9525 25.2212C56.5944 24.9606 56.1073 24.6178 55.6364 24.2014C54.9219 23.5696 54.1766 22.7091 53.8537 21.5485C53.4578 21.7139 53.0225 21.8444 52.5779 21.9423C51.6196 22.1531 50.5043 22.249 49.3886 22.2218C48.1213 22.1909 46.8539 22.3491 45.772 22.9148C44.715 23.4676 43.7675 24.4437 43.1762 26.1879C42.7813 27.3528 41.8812 28.3225 40.7969 29.0809C39.7052 29.8446 38.3682 30.4368 36.9913 30.8282C35.6136 31.2198 34.1644 31.419 32.8392 31.3755C31.5279 31.3324 30.2618 31.0485 29.3172 30.399C28.6254 29.9235 28.24 29.9281 28.0837 29.9748C27.9482 30.0152 27.7708 30.1542 27.6624 30.5496C27.437 31.3728 27.7062 32.7411 28.5927 33.6681C28.794 33.8786 28.8572 34.1862 28.7541 34.4586C28.6508 34.731 28.3996 34.9197 28.1093 34.9439C27.0826 35.0294 24.9498 34.5426 23.8549 32.1709C23.3349 31.0443 23.1062 29.7486 23.0221 28.6183C22.9376 27.4832 22.9944 26.4594 23.0772 25.8443H23.0782C23.201 24.6815 23.4701 22.8412 23.8873 21.0465C24.2979 19.2805 24.8815 17.4135 25.6887 16.3372C26.6298 15.0826 28.4045 13.5045 30.3143 12.001C32.2419 10.4836 34.3729 8.9925 36.0818 7.90802C37.9371 6.73063 41.0229 6.03419 44.1054 6.1263C47.0964 6.2157 50.2719 7.0535 52.4135 9.12077C54.2549 9.32991 58.1544 10.1194 61.0987 11.9272C63.0568 13.1296 64.8263 14.9755 66.1997 16.7211C67.5745 18.4685 68.5986 20.1746 69.0505 21.1479C69.4579 22.0257 69.5328 22.9537 69.4777 23.7289C69.4272 24.4377 69.2632 25.0627 69.1036 25.4791C69.0357 26.151 68.9216 27.1482 68.7778 28.0926C68.702 28.5907 68.617 29.0819 68.5268 29.5062C68.4399 29.9148 68.3369 30.315 68.2128 30.5989C68.071 30.9226 67.79 31.3728 67.4981 31.8372C67.1902 32.3272 66.8321 32.8909 66.4803 33.5037C65.7641 34.7511 65.1394 36.0926 65.0263 37.2513C64.9856 37.6666 64.6158 37.97 64.2005 37.9295C63.9778 37.9076 63.7896 37.7897 63.6669 37.6224V39.9042C63.6669 40.3217 63.3284 40.6601 62.9109 40.6602C62.4934 40.6602 62.1549 40.3217 62.1549 39.9042ZM63.6669 36.2482C63.9579 35.0159 64.5781 33.781 65.1691 32.7517C65.5393 32.1069 65.9157 31.5137 66.2184 31.032C66.5369 30.5252 66.7422 30.188 66.8278 29.9925C66.8854 29.8608 66.9631 29.5925 67.0483 29.1922C67.1301 28.8076 67.2091 28.3479 67.2825 27.8652C67.4294 26.9006 67.5484 25.8723 67.6123 25.2222L67.632 25.111C67.6412 25.0745 67.6529 25.0384 67.6674 25.0037C67.7761 24.7444 67.9252 24.2314 67.9686 23.6216C68.0119 23.013 67.9468 22.3601 67.6792 21.7838C67.2871 20.9392 66.331 19.3334 65.0116 17.6563C63.6907 15.9774 62.0506 14.2857 60.3082 13.2158C57.4879 11.484 53.5887 10.7437 51.9991 10.5973C51.8192 10.5807 51.6513 10.4998 51.5256 10.3699C49.7709 8.55669 46.9484 7.72463 44.0601 7.6383C41.1699 7.55195 38.4126 8.21877 36.8919 9.18377C35.225 10.2416 33.1359 11.7041 31.2495 13.1892C29.3451 14.6884 27.7105 16.1622 26.8985 17.2448C26.3034 18.0383 25.7728 19.6134 25.36 21.389C24.9566 23.1241 24.6947 24.9137 24.5784 26.0245C24.5776 26.0317 24.5774 26.0389 24.5764 26.0461C24.5077 26.5564 24.4534 27.4749 24.5301 28.5061C24.6073 29.542 24.8122 30.6381 25.2271 31.537C25.545 32.2258 25.978 32.675 26.4132 32.9643C26.05 31.999 25.9784 30.9755 26.2046 30.15C26.3962 29.4507 26.8454 28.7662 27.6516 28.5258C28.437 28.2915 29.3083 28.5572 30.1745 29.1528C30.788 29.5745 31.7279 29.8264 32.8894 29.8645C34.0374 29.9022 35.3291 29.7283 36.5779 29.3733C37.8276 29.0181 39.0038 28.49 39.9307 27.8416C40.865 27.188 41.4896 26.4528 41.7439 25.7026C42.451 23.6167 43.646 22.3207 45.0721 21.5751C46.4733 20.8425 48.0305 20.6758 49.425 20.7098C50.4386 20.7345 51.4309 20.6466 52.2531 20.4657C53.1042 20.2784 53.6647 20.0149 53.9236 19.7697C54.1428 19.562 54.4651 19.5047 54.7426 19.6241C55.0201 19.7434 55.2003 20.017 55.2003 20.319C55.2005 21.4985 55.8353 22.3582 56.6385 23.0684C57.0426 23.4257 57.4589 23.7195 57.8424 23.9986C58.0269 24.1329 58.2141 24.2714 58.372 24.4061C58.5197 24.5323 58.7015 24.7037 58.8248 24.9151C58.979 25.1794 59.1285 25.5678 59.2648 25.9565C59.4068 26.3615 59.5549 26.8297 59.6969 27.2884C59.9937 28.2466 60.2492 29.0964 60.4165 29.4589C60.4644 29.5626 60.6358 29.7957 60.9766 30.213C61.2845 30.5899 61.6854 31.0669 62.0703 31.5773C62.4559 32.0888 62.8472 32.662 63.1442 33.2537C63.4379 33.8389 63.6668 34.4957 63.6669 35.1644V36.2482Z" fill="#232323"/>
<path d="M27.7443 38.9979C27.7443 37.7377 27.9885 35.7223 28.2286 33.8575C28.4751 31.9427 28.7149 30.1987 28.7395 29.3648C28.752 28.9478 29.1001 28.6193 29.5171 28.6314C29.9345 28.6437 30.2628 28.9927 30.2505 29.4101C30.223 30.3422 29.9657 32.2025 29.7278 34.0504C29.4834 35.9484 29.2563 37.8559 29.2563 38.9979C29.256 39.4152 28.9176 39.7539 28.5003 39.7539C28.0829 39.7539 27.7445 39.4152 27.7443 38.9979Z" fill="#232323"/>
<path d="M34.2702 33.3725C33.5448 33.5577 32.0615 34.3329 31.2941 34.7615C31.2125 34.8071 31.1646 34.8951 31.1695 34.9885C31.1779 35.1494 31.3353 35.2592 31.4895 35.2125C32.6616 34.8576 34.2914 34.4281 35.1469 34.4952C35.9396 34.5575 38.6817 35.1736 40.3023 35.6705C40.6512 35.7774 41.0154 35.5073 40.9962 35.1429L40.9689 34.6235C40.9592 34.4376 40.848 34.2716 40.6714 34.2126C40.1294 34.0313 39.2695 33.853 38.689 33.6594C37.8186 33.3692 35.2325 33.1269 34.2702 33.3725Z" fill="#232323"/>
<path d="M54.689 33.859C55.4019 34.0875 56.8357 34.9508 57.5759 35.4249C57.6546 35.4753 57.6972 35.5661 57.6866 35.659C57.6685 35.819 57.5047 35.9192 57.3538 35.8628C56.2237 35.4404 54.735 34.9288 53.8776 34.9442C53.0814 34.9586 50.2049 35.397 48.5299 35.7919C48.1747 35.8756 47.8273 35.5832 47.8684 35.2207L47.927 34.7038C47.948 34.5189 48.069 34.3599 48.2487 34.3116C48.8008 34.1634 49.6699 34.0372 50.261 33.879C51.1472 33.6418 53.7432 33.5558 54.689 33.859Z" fill="#232323"/>
<path d="M38.534 37.7292C38.534 38.6215 37.8922 39.3449 37.1005 39.3449C36.3088 39.3449 35.6671 38.6215 35.6671 37.7292C35.6671 36.8369 36.3088 36.1135 37.1005 36.1135C37.8922 36.1135 38.534 36.8369 38.534 37.7292Z" fill="#232323"/>
<path d="M53.519 37.9924C53.519 38.8847 52.8772 39.6081 52.0855 39.6081C51.2938 39.6081 50.652 38.8847 50.652 37.9924C50.652 37.1001 51.2938 36.3767 52.0855 36.3767C52.8772 36.3767 53.519 37.1001 53.519 37.9924Z" fill="#232323"/>
<path opacity="0.3" d="M57.7097 46.026C56.9439 46.8668 55.2725 46.6691 53.9764 45.5843C52.6804 44.4996 52.2505 42.9386 53.0163 42.0978C53.7821 41.257 55.3979 40.7308 56.694 41.8156C57.99 42.9003 58.4755 45.1852 57.7097 46.026Z" fill="#FED1D0"/>
<path opacity="0.3" d="M30.8125 45.3037C31.5181 46.081 33.0614 45.901 34.2595 44.9016C35.4575 43.9021 35.8566 42.4618 35.151 41.6845C34.4453 40.9071 32.9545 40.419 31.7564 41.4184C30.5584 42.4178 30.1068 44.5263 30.8125 45.3037Z" fill="#FED1D0"/>
<path d="M40.0687 46.2353C40.4691 45.8004 41.6242 45.0271 42.9598 45.6949C43.8186 46.1242 44.7427 46.0072 45.6737 45.6624C47.0392 45.1567 48.1456 45.8465 48.6357 46.0483C49.0217 46.2074 49.2052 46.6496 49.0462 47.0356C48.8872 47.4215 48.4458 47.6058 48.0599 47.4471C47.2693 47.1215 46.868 46.8324 46.1994 47.0799C45.0965 47.4884 43.6848 47.748 42.2835 47.0475C42.0336 46.9225 41.8138 46.9313 41.622 46.9923C41.4101 47.0598 41.2459 47.1886 41.181 47.2591C40.8984 47.5663 40.4203 47.5869 40.113 47.3044C39.8057 47.0217 39.786 46.5426 40.0687 46.2353Z" fill="#232323"/>
<path d="M27.242 42.3331C27.3366 41.9265 27.743 41.6736 28.1496 41.7681C28.5563 41.8626 28.8092 42.269 28.7147 42.6757C28.6201 43.0823 28.4773 44.0247 28.5749 44.6503C28.639 45.0627 28.3563 45.4493 27.9439 45.5136C27.5316 45.5777 27.1449 45.295 27.0806 44.8826C26.9373 43.9631 27.1357 42.7906 27.242 42.3331Z" fill="#232323"/>
<path d="M62.8617 42.3537C63.2747 42.2934 63.6586 42.5795 63.7191 42.9926C63.7929 43.4968 63.9188 44.6316 63.7063 45.5254C63.6097 45.9316 63.2019 46.1831 62.7957 46.0865C62.3897 45.9898 62.1391 45.582 62.2356 45.1759C62.3751 44.5893 62.2958 43.7095 62.2228 43.2111C62.1625 42.7981 62.4486 42.4142 62.8617 42.3537Z" fill="#232323"/>
<path d="M40.0452 53.8055H39.5553C39.3706 53.8055 39.2209 53.9552 39.2209 54.1399C39.2209 54.2622 39.2877 54.3748 39.395 54.4334L42.3303 56.0369C42.6267 56.1989 42.9591 56.2837 43.2968 56.2837H45.6235C45.9024 56.2837 46.1783 56.2259 46.4337 56.1138L49.76 54.6539C49.9304 54.5792 50.0405 54.4107 50.0405 54.2246C50.0405 53.9859 49.8611 53.7853 49.6239 53.7587L49.1118 53.7013L46.7042 52.2767C46.4731 52.14 46.1971 52.1011 45.9373 52.1687L44.6945 52.4918L43.5124 52.1716C43.2558 52.1021 42.9821 52.1368 42.7509 52.2681L40.0452 53.8055Z" fill="#FED1D0"/>
<path d="M46.3366 53.3851L48.8104 53.6647H49.9011C50.1793 53.6647 50.4049 53.8905 50.4051 54.1687C50.4051 54.4471 50.1794 54.6727 49.9011 54.6727H48.7877C48.769 54.6727 48.7502 54.6718 48.7316 54.6697L46.2992 54.3951L44.9034 54.6638C44.8448 54.6751 44.7841 54.6756 44.7252 54.6658L43.0951 54.3951L40.7316 54.6697C40.7123 54.672 40.6929 54.6727 40.6735 54.6727H39.4312C39.1529 54.6727 38.9272 54.4471 38.9272 54.1687C38.9274 53.8905 39.153 53.6647 39.4312 53.6647H40.6489L43.0469 53.3851L43.1177 53.3822C43.1411 53.3828 43.1645 53.3852 43.1876 53.3891L44.8 53.6568L46.185 53.391L46.2608 53.3822C46.2861 53.3812 46.3115 53.3823 46.3366 53.3851Z" fill="#FF9D9D"/>
</g>
<defs>
<clipPath id="clip0_3265_35695">
<rect width="90.72" height="90.72" rx="24" fill="white"/>
</clipPath>
</defs>
</svg>
