<svg viewBox="0 0 93 93" fill="none" xmlns="http://www.w3.org/2000/svg">
<g clip-path="url(#clip0_3265_35616)">
<rect width="92.664" height="92.664" rx="24" fill="white"/>
<path d="M40.0037 61.5106C23.6308 55.7017 2.11549 74.0306 -2.3506 77.9636L-12.3722 89.7943L30.5198 113.705C30.8903 113.912 31.3288 114.001 31.7485 113.939C53.5475 110.735 49.2607 64.795 40.0037 61.5106Z" fill="#232323"/>
<path d="M13.9909 65.4056C22.011 61.0381 31.7444 57.7613 40.2603 60.7825C41.6631 61.2802 42.8611 62.5359 43.8585 64.1729C44.8671 65.8285 45.7333 67.9765 46.4266 70.4278C47.814 75.3328 48.5431 81.5659 48.2922 87.7866C48.0414 94.0012 46.8099 100.271 44.2198 105.216C41.6203 110.178 37.6185 113.857 31.8594 114.704C31.2603 114.792 30.6513 114.663 30.1427 114.379L-12.7498 90.4691C-12.9515 90.3567 -13.0922 90.1594 -13.1335 89.9322C-13.1748 89.705 -13.112 89.4712 -12.9627 89.295L-2.94083 77.4641L-2.86267 77.3844C-0.617127 75.4069 5.93027 69.7953 13.9909 65.4056ZM39.7437 62.2378C31.887 59.4506 22.6767 62.4346 14.7297 66.7624C6.87471 71.04 0.462958 76.5148 -1.79787 78.5036L-11.1773 89.576L30.8944 113.031C31.1267 113.16 31.3946 113.21 31.6348 113.175C36.7752 112.419 40.4132 109.155 42.8517 104.5C45.2993 99.8269 46.5043 93.8052 46.7496 87.7239C46.9947 81.6486 46.2787 75.5803 44.9401 70.8478C44.2704 68.4802 43.4525 66.4744 42.54 64.9765C41.6163 63.4603 40.655 62.5612 39.7437 62.2378Z" fill="#232323"/>
<path d="M53.7312 58.1752L51.411 64.7588L46.7218 71.0542L43.9819 81.3411C42.888 77.9306 39.7271 70.2519 37.5785 66.4511C35.5193 62.8084 33.4172 59.6981 32.4305 59.2048L27.7973 56.116L33.2774 49.2454L33.2774 45.0528L29.8566 41.295C25.4064 36.431 25.1993 24.5709 27.4608 19.7774C29.7224 14.9839 37.6282 11.5363 43.982 11.1146C49.9818 10.7164 56.9823 13.1504 58.6855 14.4171C62.9409 17.5821 64.9487 21.4034 66.9223 25.2279L68.5953 34.237L72.4864 37.4265L72.6228 39.4812L69.1678 42.0733L70.3384 44.703L71.5931 47.2885L53.7312 58.1752Z" fill="white"/>
<path d="M55.0568 41.0862C53.5909 40.3973 53.0635 39.0569 53.5823 37.9529C54.1011 36.8489 55.4696 36.3996 56.9355 37.0884C58.4014 37.7773 59.3056 39.5647 58.8907 40.4476C58.4451 41.3957 56.5227 41.7751 55.0568 41.0862Z" fill="#FED1D0"/>
<path opacity="0.3" d="M52.633 60.498L41.1805 51.4834L44.6751 61.4679C44.746 61.6705 44.7518 61.8902 44.6917 62.0963L41.1805 74.1346L44.0844 81.5805L46.8859 70.9155L51.2549 64.8138L52.633 60.498Z" fill="#232323"/>
<path d="M47.6242 35.8941C49.7676 42.8044 55.591 50.7933 61.4774 43.32L65.115 42.0655L68.8731 41.7705C69.2597 43.2065 69.1083 44.115 69.78 44.9213C78.2484 55.0865 74.6448 67.3754 70.5264 68.4713C65.115 69.9113 43.7712 55.6445 41.9574 51.6374C40.5064 48.4317 45.3383 39.8176 46.0646 35.2124L47.6242 35.8941Z" fill="#232323"/>
<path d="M45.6929 34.5358C45.9027 34.421 46.154 34.41 46.3731 34.5057L47.9329 35.1872L48.007 35.2256C48.1756 35.3222 48.3026 35.4792 48.3607 35.6667C49.4122 39.0566 51.3419 42.6079 53.6227 44.3947C54.7457 45.2744 55.8878 45.6769 57.0247 45.5202C58.1669 45.3627 59.4724 44.6175 60.8698 42.8435L60.945 42.762C61.0248 42.6861 61.1199 42.6274 61.2248 42.5912L64.863 41.3371L64.957 41.3107C64.9889 41.304 65.0212 41.2998 65.0538 41.2972L68.7538 41.0053C70.2688 40.662 71.0174 40.1592 71.3441 39.7088C71.6387 39.3026 71.6777 38.8146 71.4245 38.202C71.1615 37.5659 70.6006 36.8654 69.8244 36.2143C69.0558 35.5695 68.1219 35.0122 67.1767 34.6427C66.7795 34.4874 66.5832 34.0391 66.7385 33.6419C66.8938 33.2448 67.3422 33.0494 67.7393 33.2046C68.8423 33.6359 69.9213 34.2795 70.817 35.0309C71.7052 35.7759 72.4608 36.6673 72.8516 37.6125C73.252 38.5814 73.2828 39.6652 72.5934 40.6154C72.04 41.3781 71.0961 41.9466 69.7881 42.3323C69.8727 42.7758 69.9256 43.1629 69.9776 43.4423C70.0625 43.8985 70.1612 44.174 70.3725 44.4278C74.7448 49.6761 76.0138 55.4931 75.6418 60.1596C75.4561 62.4883 74.8606 64.5511 74.0182 66.124C73.1912 67.6681 72.0555 68.8643 70.7239 69.2186C69.8613 69.4481 68.7851 69.3475 67.6422 69.0785C66.4778 68.8044 65.1474 68.3316 63.7291 67.7229C60.8907 66.5046 57.6224 64.7098 54.4834 62.7539C51.3424 60.7967 48.3101 58.6646 45.9418 56.7638C44.7583 55.8139 43.7303 54.9145 42.9355 54.1166C42.1606 53.3387 41.5417 52.5938 41.2534 51.9569C40.7852 50.9223 40.8609 49.5754 41.1263 48.2188C41.3983 46.8287 41.9054 45.2621 42.4663 43.6911C42.7478 42.9026 43.0462 42.104 43.3388 41.3195C43.6321 40.5328 43.9197 39.7598 44.1834 39.0143C44.7145 37.5127 45.131 36.1684 45.3006 35.0929L45.32 35.0059C45.3756 34.8068 45.5094 34.6363 45.6929 34.5358ZM46.6316 36.3044C46.3956 37.3008 46.0384 38.4013 45.6394 39.5294C45.3707 40.2891 45.0791 41.0742 44.7863 41.8593C44.4928 42.6464 44.1977 43.434 43.9206 44.2102C43.3642 45.7688 42.891 47.2448 42.6424 48.5152C42.3872 49.8194 42.403 50.7522 42.6602 51.3204C42.8255 51.6853 43.2698 52.263 44.03 53.0262C44.7708 53.7699 45.7508 54.6313 46.9078 55.56C49.2207 57.4162 52.2022 59.5127 55.3003 61.4431C58.4003 63.3747 61.5962 65.127 64.3383 66.3039C65.7103 66.8928 66.9503 67.3296 67.9959 67.5757C69.0624 67.8267 69.8366 67.8566 70.3266 67.7264C71.0543 67.5327 71.9145 66.7811 72.6568 65.3951C73.3836 64.0381 73.9315 62.1879 74.103 60.037C74.4452 55.7439 73.2816 50.3332 69.1856 45.4165C68.7256 44.8642 68.5635 44.2826 68.4596 43.7244C68.3866 43.3322 68.342 42.985 68.2666 42.5925L65.2753 42.8273L61.9357 43.979C60.4334 45.8251 58.8557 46.8265 57.2361 47.0499C55.5586 47.2812 54.0069 46.6566 52.6704 45.6096C50.1168 43.6091 48.1121 39.8922 46.9958 36.4637L46.6316 36.3044Z" fill="#232323"/>
<path d="M24.8734 31.3021C24.5487 26.41 25.3227 21.8828 27.548 18.2787C29.7864 14.6537 33.4437 12.0429 38.7106 10.9214C46.519 9.2587 53.4002 10.6439 58.6799 14.1125C63.9545 17.578 67.5816 23.0905 68.9458 29.5944C69.1385 30.5133 69.0523 31.2947 69.0141 31.9439C68.9757 32.5958 68.9721 33.2045 69.2242 33.9856C69.3551 34.3914 69.1322 34.8267 68.7264 34.9578C68.3205 35.0888 67.8852 34.8659 67.7542 34.46C67.416 33.4119 67.4295 32.5807 67.4723 31.8527C67.5154 31.1217 67.5748 30.5817 67.4342 29.9114C66.1474 23.7769 62.7402 18.6282 57.8315 15.4033C52.9276 12.1815 46.4749 10.847 39.0325 12.4317C34.1297 13.4757 30.8546 15.8632 28.8624 19.0893C26.8575 22.3362 26.1034 26.5138 26.4144 31.1998C26.5965 33.9434 27.6965 36.2553 29.1469 38.3463C30.4377 40.2073 31.9369 41.8083 33.3199 43.4212L33.904 44.114L33.9718 44.2092C34.0317 44.3091 34.069 44.4216 34.0793 44.5387L34.3273 47.38C34.4111 48.3391 34.1335 49.2956 33.5489 50.0607L27.3825 58.1313C27.1235 58.4702 26.6386 58.5346 26.2997 58.2757C25.9612 58.0168 25.8967 57.5328 26.1554 57.194L32.3218 49.1234C32.6725 48.6644 32.8386 48.0907 32.7885 47.5154L32.5617 44.9175C31.1561 43.2413 29.3452 41.3415 27.8782 39.2266C26.3328 36.9987 25.0803 34.4196 24.8734 31.3021Z" fill="#232323"/>
<path d="M51.5946 60.336C51.7137 59.9266 52.1428 59.6909 52.5523 59.81C52.9618 59.929 53.1974 60.3581 53.0784 60.7676L51.8461 65.0051C51.8225 65.0862 51.7857 65.1637 51.7372 65.233L47.4198 71.4044L44.5035 82.0627C44.3909 82.4738 43.9661 82.7156 43.5549 82.6032C43.1435 82.4907 42.9007 82.066 43.0133 81.6547L45.9654 70.8681L46.0115 70.7431C46.0302 70.7033 46.0522 70.665 46.0775 70.6288L50.3985 64.4502L51.5946 60.336Z" fill="#232323"/>
<path d="M67.8564 44.9511C68.8085 44.9512 69.539 45.6592 68.8613 46.3279C68.2155 46.9652 67.196 47.544 66.2984 47.8227C64.7339 48.3086 62.8219 48.3502 62.4565 47.1736C61.2984 43.4445 64.2632 44.8159 66.1559 44.9095C66.786 44.9407 67.3647 44.9511 67.8564 44.9511Z" fill="#FED1D0"/>
<path d="M27.3877 56.536C10.0149 56.536 -4.13333 81.0041 -7.02728 86.204L-12.5162 100.705L35.902 108.897C36.3203 108.968 36.7635 108.906 37.1384 108.707C56.6113 98.3986 37.2102 56.536 27.3877 56.536Z" fill="#232323"/>
<path d="M4.17668 68.9089C10.2748 62.111 18.3522 55.7683 27.3882 55.7681C28.8767 55.7681 30.4256 56.5509 31.9129 57.7603C33.4171 58.9833 34.9517 60.7181 36.4247 62.7964C39.3724 66.9552 42.1437 72.5858 43.9872 78.5323C45.8288 84.473 46.7646 90.7935 45.9769 96.3198C45.1864 101.866 42.6452 106.671 37.5006 109.395C36.9654 109.678 36.3484 109.76 35.7742 109.663L-12.6444 101.471C-12.872 101.433 -13.0706 101.294 -13.1855 101.093C-13.3004 100.893 -13.3194 100.652 -13.2376 100.436L-7.74848 85.9348L-7.70146 85.8335C-6.24639 83.219 -1.95222 75.7411 4.17668 68.9089ZM27.388 57.3124C19.0515 57.3127 11.3691 63.2046 5.3266 69.9405C-0.645932 76.5984 -4.85803 83.902 -6.32372 86.5323L-11.461 100.104L36.0317 108.141C36.294 108.185 36.5631 108.143 36.7777 108.029C41.3696 105.598 43.7066 101.305 44.4482 96.1024C45.1925 90.8803 44.3146 84.8023 42.5124 78.989C40.712 73.1815 38.0081 67.7018 35.1642 63.6893C33.7414 61.6819 32.2999 60.065 30.939 58.9584C29.5615 57.8384 28.3549 57.3124 27.388 57.3124Z" fill="#232323"/>
<path d="M40.7351 36.3188C41.098 36.5428 41.2108 37.0186 40.9868 37.3815L39.4624 39.8497C39.2383 40.2126 38.7625 40.3255 38.3996 40.1015C38.037 39.8774 37.925 39.402 38.1488 39.0392L39.6728 36.5696C39.8969 36.207 40.3723 36.0949 40.7351 36.3188Z" fill="#232323"/>
<path d="M38.6058 36.7219L41.5441 38.5456C41.9064 38.7704 42.0182 39.2461 41.7936 39.6084C41.5687 39.9708 41.0923 40.0823 40.7299 39.8574L37.7916 38.0337C37.4294 37.8089 37.3176 37.3333 37.5422 36.971C37.767 36.6086 38.2435 36.4971 38.6058 36.7219Z" fill="#232323"/>
<path d="M61.6615 29.058C61.8861 28.9991 62.1275 29.0442 62.317 29.1845L62.8962 29.6137C63.1396 29.7941 63.2549 30.1001 63.1913 30.3963C63.1277 30.6923 62.8971 30.9236 62.6012 30.9882L59.878 31.5826L58.0763 33.0101C57.7419 33.2747 57.2562 33.2182 56.9915 32.884C56.7267 32.5497 56.7833 32.064 57.1176 31.7992L59.0598 30.2604C59.2881 30.0682 59.5455 29.9132 59.822 29.8006L61.5668 29.09L61.6615 29.058Z" fill="#232323"/>
<path d="M62.82 34.0322C63.376 35.0793 63.3086 36.2032 62.6696 36.5425C62.0305 36.8819 61.0617 36.3082 60.5057 35.2611C59.9497 34.214 60.0171 33.0901 60.6561 32.7508C61.2952 32.4114 62.264 32.9852 62.82 34.0322Z" fill="#232323"/>
<path d="M35.5862 31.9802C36.1862 31.5916 36.8383 31.4331 37.4776 31.4222C38.7249 31.401 39.9595 31.9394 40.8703 32.468C41.239 32.6821 41.3642 33.1545 41.1501 33.5233C40.936 33.8919 40.4636 34.0171 40.0949 33.8031C39.2693 33.324 38.331 32.952 37.5043 32.966C37.1066 32.9728 36.7456 33.0683 36.4248 33.276C36.1034 33.4842 35.7754 33.8357 35.4903 34.4252C35.0828 35.268 35.0272 36.2979 35.2647 37.4043C35.5018 38.5085 36.021 39.6366 36.6864 40.6158C37.3542 41.5987 38.1393 42.3869 38.8709 42.8454C39.631 43.3216 40.1532 43.3417 40.4537 43.1902C40.8344 42.9985 41.2986 43.151 41.4906 43.5317C41.6825 43.9125 41.5289 44.3769 41.1481 44.5688C40.1238 45.0851 38.98 44.737 38.0505 44.1545C37.0926 43.5543 36.1637 42.5934 35.4094 41.4832C34.6524 40.3692 34.0404 39.0596 33.7546 37.7284C33.4693 36.3994 33.499 34.9956 34.0999 33.7529C34.4854 32.9559 34.9869 32.3682 35.5862 31.9802Z" fill="#232323"/>
<path d="M66.5256 29.1919C66.7771 29.0578 67.0817 29.0731 67.3185 29.2318L68.204 29.8248C68.4852 30.0133 68.5987 30.3537 68.5164 30.6635C68.5135 30.69 68.51 30.7166 68.5043 30.7432C68.4136 31.1599 68.0021 31.4241 67.5855 31.3335L66.7248 31.1462C66.37 31.0689 66.1164 30.7544 66.1164 30.3912L66.1171 29.8727C66.1172 29.5877 66.2741 29.3261 66.5256 29.1919Z" fill="#232323"/>
</g>
<defs>
<clipPath id="clip0_3265_35616">
<rect width="92.664" height="92.664" rx="24" fill="white"/>
</clipPath>
</defs>
</svg>
