<svg viewBox="0 0 91 91" fill="none" xmlns="http://www.w3.org/2000/svg">
<g clip-path="url(#clip0_3265_35493)">
<rect width="90.72" height="90.72" rx="24" fill="white"/>
<path d="M83.7047 79.8373C82.1024 78.9161 76.9618 76.5828 74.5919 75.5313C74.9253 75.1164 75.4922 74.1888 75.0921 73.7973C74.6919 73.4057 72.5759 72.1331 71.5679 71.5457C71.5027 71.1868 71.2938 70.3318 70.9806 69.7837C70.6673 69.2355 67.326 67.2711 65.6944 66.3574C64.585 65.4438 61.8179 63.8905 59.6251 64.9869V66.3574C60.6367 66.3248 62.6598 66.7881 62.6598 68.9026C62.6598 71.0171 62.2029 73.4383 61.9745 74.3846C61.1636 75.5513 59.0677 78.2752 57.1719 79.8373C55.2761 81.3995 48.8778 85.1183 45.9157 86.7824C44.0928 85.6127 39.645 82.4075 36.4368 78.944C32.4264 74.6147 30.1934 70.7099 30.3301 68.9026C30.4395 67.4568 31.4694 66.427 31.9707 66.0928V64.3611H29.8288C28.7716 64.3611 27.7781 65.0599 27.4135 65.4092C26.8667 65.3666 25.5907 65.3889 24.8615 65.8194C24.1324 66.2498 23.6463 67.0621 23.4944 67.4144C23.1298 67.6726 22.2275 68.4352 21.5348 69.4195C20.6689 70.65 19.5752 71.926 18.8005 72.2906C18.0258 72.6551 15.1683 73.6211 16.711 76.0319C13.0224 77.3671 5.19472 80.3881 3.39223 81.79C1.13912 83.5425 -1.5462 89.5906 -2.04691 92.4946L90.7145 96.1101C90.631 93.69 90.1637 88.0688 88.962 84.9445C87.4599 81.039 85.7075 80.9889 83.7047 79.8373Z" fill="#454545"/>
<path d="M32.1734 68.2218L30.6529 69.8008C31.686 71.8476 34.1149 76.3739 35.5652 78.1049C37.0155 79.836 42.9142 84.6353 45.6823 86.8185C47.1443 86.0193 50.9221 83.8828 54.3374 81.7307C57.7526 79.5786 60.9846 75.8437 62.1738 74.2452L62.934 70.5025L59.8345 67.403L59.2497 59.3912C59.9515 57.6134 60.7897 53.4262 61.1211 51.5548C63.1094 51.2624 65.1563 48.9817 65.7411 43.1921C66.2089 38.5605 64.4545 38.4942 63.5188 39.04L64.0451 31.73L63.5188 25.882L60.3609 21.7884C56.93 20.0534 49.9864 16.5953 49.6589 16.6421C49.3315 16.6889 41.8811 17.3243 38.1968 17.6362L31.0037 21.2036L28.2551 37.812L27.3194 38.2798C26.9101 38.9816 25.9978 40.6658 25.6235 41.7886C25.1557 43.1922 25.7989 44.4787 26.7931 48.4554C27.5884 51.6367 29.3858 52.0422 30.185 51.8473C30.341 52.8414 30.7231 55.2157 31.0037 56.7596C31.2844 58.3035 32.2903 60.093 32.7582 60.7948L32.1734 68.2218Z" fill="white"/>
<path d="M27.3409 32.4479C27.4325 33.4088 27.6842 36.8904 27.7985 38.5111L28.0836 41.5032C28.1227 41.9141 28.5102 42.1997 28.9142 42.1155C29.2634 42.0428 29.4999 41.7172 29.4677 41.362C29.3494 40.0617 29.2285 38.088 29.2285 36.2231C29.2285 33.4775 30.6585 32.9055 31.1733 31.4183C31.6881 29.9311 31.8597 23.01 32.832 22.5524C33.8044 22.0948 38.7236 21.8088 41.6408 20.8364C44.558 19.864 47.2463 19.5208 49.5915 20.0928C51.9367 20.6648 54.0531 21.8088 57.0847 23.01C59.5099 23.9709 60.612 23.8679 60.8599 23.6963V26.2131C62.4614 27.9863 61.6035 31.8759 61.6606 32.4479C61.7178 33.0199 62.1774 34.3599 62.5141 35.8085C62.7522 36.8331 62.4523 40.0203 62.2791 41.8597L62.2695 41.9625C62.2357 42.3212 62.518 42.6294 62.8783 42.6294C63.1897 42.6294 63.4497 42.3958 63.5135 42.091C63.8106 40.6708 64.58 39.1534 64.9688 38.5111C65.2357 35.9752 65.493 30.6518 65.493 29.6451C65.493 28.3867 65.9506 26.2131 65.493 25.1263C65.1269 24.2569 63.1669 22.0948 62.2326 21.1224C63.3309 20.802 64.2346 19.5208 64.6922 18.4912C64.0058 19.0861 63.1288 18.453 62.633 18.4912C61.4509 16.2604 58.7778 11.5586 57.5423 10.5976C55.9979 9.39644 54.7967 9.33928 53.1951 8.42406C51.5935 7.50885 47.7039 5.90728 46.274 6.02168C44.844 6.13608 44.272 6.87969 41.6408 6.93689C39.5358 6.98265 35.6578 8.35671 34.3994 8.83337C34.0753 10.2252 33.976 12.7369 32.832 13.286C31.6881 13.8351 28.3896 15.7874 27.3409 16.3594L30.6585 17.1756C29.5526 18.4721 27.2151 21.2139 26.7118 21.8088C26.0826 22.5524 25.2833 25.3737 25.3977 26.6893C25.5121 28.0048 27.2265 31.2467 27.3409 32.4479Z" fill="#454545"/>
<path d="M30.6467 52.6108C31.3998 53.1525 33.0639 54.3865 33.6983 54.9891C34.3325 55.5916 35.4957 57.9624 35.9978 59.0723C36.4998 57.804 37.6304 55.1241 38.1378 54.553C38.6023 54.0305 41.4717 53.1803 43.2005 52.726C43.4845 52.6514 43.7862 52.7084 44.0264 52.8776L45.3917 53.8393L46.8377 52.8648C47.0774 52.7033 47.3747 52.6519 47.6538 52.727C49.3395 53.1816 52.1979 54.031 52.9231 54.553C53.7159 55.1238 54.522 58.5433 54.8259 60.1817C55.3413 59.2435 56.5143 57.1928 57.0851 56.4952C57.6559 55.7975 59.7806 53.8001 60.7716 52.8884C60.6394 54.4476 60.2646 57.8673 59.8207 59.0723C59.2656 60.5785 57.0848 63.0357 56.3714 64.0266C55.6576 65.0178 51.4566 68.8233 50.2279 69.299C48.9991 69.7746 45.8672 70.805 42.1413 70.2105C39.1607 69.7346 36.5925 65.8896 35.6808 64.0266C34.822 62.745 32.8899 59.8882 32.0337 58.7149C31.1776 57.5415 30.7524 54.1566 30.6467 52.6108ZM45.6693 56.2176C44.9029 56.0326 43.2431 55.695 42.7358 55.8219C42.2277 55.949 39.8029 56.6676 38.6536 57.011L36.9891 59.2701C37.7819 60.1291 39.5179 61.8549 40.1204 61.8866C40.8738 61.9259 42.9344 60.7369 43.1325 60.7369C43.3309 60.7368 47.2548 60.5387 47.889 60.7369C48.5231 60.935 49.6328 62.2821 50.4652 62.2429C51.131 62.2112 52.7777 60.9089 53.5177 60.2614L51.9722 57.011C50.7963 56.6146 48.285 55.8219 47.6508 55.8219C47.0166 55.822 46.0656 56.0855 45.6693 56.2176Z" fill="#454545"/>
<path opacity="0.5" d="M59.1266 49.1657C58.4315 49.9833 56.8489 49.8506 55.5918 48.8693C54.3347 47.8881 53.8791 46.4299 54.5742 45.6123C55.2693 44.7948 56.7762 44.2466 58.0333 45.2278C59.2904 46.209 59.8217 48.3481 59.1266 49.1657Z" fill="#FED1D0"/>
<path opacity="0.5" d="M32.7422 49.6041C33.4888 50.3748 35.0595 50.1398 36.2503 49.0791C37.4411 48.0184 37.8012 46.5337 37.0545 45.7629C36.3079 44.9922 34.7686 44.5429 33.5778 45.6036C32.387 46.6643 31.9955 48.8333 32.7422 49.6041Z" fill="#FED1D0"/>
<path d="M44.8315 39.8871C45.1779 39.8871 45.6426 39.8643 46.1614 39.9432C46.7022 40.0255 47.2957 40.2126 48.012 40.6018C48.3789 40.8011 48.5145 41.2606 48.3152 41.6275C48.1158 41.9939 47.6571 42.1296 47.2905 41.9307C46.7119 41.6163 46.2845 41.4918 45.934 41.4385C45.5619 41.3819 45.2646 41.3991 44.8315 41.3991C44.3127 41.3991 43.6161 41.557 43.2132 41.657C42.8081 41.7575 42.3985 41.5107 42.2977 41.1058C42.1972 40.7005 42.4437 40.2899 42.849 40.1893C43.2363 40.0932 44.1027 39.8871 44.8315 39.8871Z" fill="#232323"/>
<path opacity="0.2" d="M36.1426 64.914C35.742 63.8325 33.9062 61.4925 33.0383 60.4578L32.3373 68.0684L30.4847 69.7207C30.9688 70.9892 32.3373 74.0167 33.9396 75.9795C35.5418 77.9422 38.546 80.8363 39.8478 82.038L42.3514 75.9795L50.5628 69.3202C47.9592 70.5719 42.3514 70.2715 40.3485 69.3202C38.3457 68.3688 36.6434 66.2659 36.1426 64.914Z" fill="#232323"/>
<path d="M53.6328 36.9264C54.4324 36.8991 55.2315 36.9112 55.9087 36.9658C56.2469 36.993 56.5645 37.032 56.8419 37.0849C57.1078 37.1356 57.3844 37.2075 57.6117 37.3211C58.1027 37.5666 58.6419 37.9297 59.0961 38.3262C59.5268 38.7021 59.9828 39.1958 60.173 39.722C60.1908 39.7711 60.2095 39.8232 60.2291 39.8775H61.3109L62.7619 39.0704C62.9212 38.8369 63.1353 38.6277 63.3624 38.462C63.6647 38.2415 64.0627 38.0461 64.5062 38.0043C64.9766 37.96 65.4809 38.094 65.8863 38.5034C66.2677 38.8885 66.494 39.4497 66.6029 40.1364C66.7395 40.9968 66.6923 42.2012 66.5183 43.4735C66.3423 44.76 66.0278 46.1756 65.594 47.4769C65.1639 48.7667 64.5986 49.9996 63.8949 50.8789C63.3665 51.5393 62.6725 52.0956 61.8396 52.2049C61.3032 55.9996 60.131 59.0603 59.2861 60.6351C58.8302 61.4848 57.9757 62.6862 57.1972 63.7112C56.423 64.7308 55.6602 65.6597 55.3673 65.9527C55.1335 66.1865 54.161 67.2126 53.0442 68.201C52.4848 68.6959 51.8718 69.1961 51.2792 69.5948C50.7086 69.9787 50.0705 70.3288 49.4738 70.4237C48.6232 70.559 46.9305 70.8266 45.1603 70.8913C44.2749 70.9236 43.3523 70.9056 42.4936 70.7899C41.6429 70.6752 40.8042 70.4583 40.1223 70.0585C37.7698 68.6794 35.8332 66.5203 35.0645 64.9831C34.9169 64.6877 34.6688 64.3036 34.3351 63.8195C34.0343 63.383 33.5892 62.76 33.2041 62.1983C32.3855 61.0044 31.477 59.5765 30.8652 58.0471C30.0574 56.0277 29.6149 53.7203 29.431 52.3653C28.6179 52.2311 27.9415 51.7124 27.4179 51.0728C26.7355 50.2392 26.2095 49.0927 25.8282 47.8953C25.4436 46.6878 25.1889 45.3749 25.0771 44.1684C24.9665 42.9751 24.9902 41.8266 25.2011 40.9692C25.4932 39.7822 25.8372 38.8409 26.2898 38.2937C26.5268 38.0073 26.8755 37.7301 27.3451 37.705C27.8142 37.6801 28.1897 37.918 28.4535 38.1746C28.475 38.1955 28.4956 38.2181 28.5145 38.2415L29.8365 39.8775H30.3445C30.3641 39.8232 30.3828 39.7711 30.4006 39.722C30.5907 39.1958 31.0478 38.7021 31.4785 38.3262C31.9325 37.9299 32.4711 37.5666 32.9619 37.3211C33.1892 37.2075 33.4658 37.1356 33.7317 37.0849C34.0092 37.0319 34.3275 36.993 34.6659 36.9658C35.3431 36.9112 36.1422 36.8991 36.9418 36.9264C37.7417 36.9537 38.5583 37.0208 39.2698 37.1262C39.9561 37.2279 40.6265 37.3765 41.0811 37.6036C41.9616 38.0439 42.8323 39.0375 43.3067 40.2772C43.7924 41.5465 43.8874 43.134 43.1266 44.7689C42.4149 46.2982 41.5758 47.2445 40.6273 47.8146C39.6874 48.3793 38.7184 48.5255 37.8651 48.5991C36.9876 48.6748 36.1894 48.6473 35.3717 48.4357C34.5566 48.2248 33.7645 47.8419 32.8832 47.2594C30.9602 45.988 30.253 43.787 30.0147 42.685C29.9144 42.221 29.9111 41.7864 29.9556 41.3895H29.4753C29.247 41.3895 29.0311 41.2866 28.8876 41.109L27.4238 39.2977C27.2153 39.5776 26.9453 40.2066 26.6688 41.3305C26.5156 41.9533 26.4796 42.9106 26.5832 44.0287C26.6856 45.1337 26.9199 46.3393 27.2693 47.4366C27.6219 48.5436 28.0748 49.4889 28.5874 50.115C29.0998 50.741 29.569 50.9381 29.9999 50.8779L30.0767 50.871C30.2556 50.8644 30.4321 50.9213 30.5738 51.0335C30.7357 51.1616 30.8381 51.3506 30.8573 51.5562C30.9543 52.5937 31.3775 55.2565 32.2689 57.4851C32.8165 58.8539 33.6469 60.1697 34.4513 61.3428C34.8776 61.9645 35.2145 62.4312 35.5804 62.9621C35.9133 63.4453 36.217 63.9065 36.4171 64.3068C37.0397 65.5521 38.7566 67.5052 40.8871 68.7542C41.3259 69.0114 41.9423 69.1901 42.6954 69.2917C43.4404 69.3921 44.271 69.4107 45.1052 69.3803C46.7745 69.3193 48.3868 69.0656 49.2366 68.9304C49.4901 68.89 49.8985 68.702 50.4356 68.3408C50.9508 67.9941 51.5075 67.541 52.0421 67.068C53.1126 66.1206 54.0283 65.1527 54.2973 64.8836C54.5068 64.6741 55.2124 63.8251 55.9933 62.7968C56.7704 61.7735 57.5589 60.6552 57.9532 59.9204C58.7583 58.4201 59.967 55.2654 60.4289 51.3406L60.4427 51.2618C60.4837 51.0806 60.5897 50.9193 60.743 50.811C60.9179 50.6873 61.1374 50.6437 61.3464 50.6909C61.713 50.7739 62.1629 50.6234 62.7147 49.9339C63.2575 49.2555 63.7542 48.2147 64.1597 46.9985C64.5613 45.7939 64.8566 44.4708 65.0211 43.2687C65.1874 42.0526 65.212 41.0188 65.1096 40.3737C65.0275 39.8561 64.8859 39.6427 64.8114 39.5675C64.7608 39.5164 64.7209 39.5035 64.648 39.5104C64.5483 39.5198 64.4038 39.5738 64.2532 39.6836C64.1 39.7954 64.0124 39.9125 63.9865 39.9652C63.9186 40.1037 63.8093 40.218 63.6744 40.293L61.873 41.295C61.7608 41.3574 61.6343 41.3895 61.5059 41.3895H60.6189C60.6635 41.7863 60.6602 42.2211 60.5599 42.685C60.3215 43.787 59.6137 45.9881 57.6904 47.2594C56.8091 47.842 56.017 48.2248 55.2019 48.4357C54.3843 48.6472 53.5859 48.6747 52.7085 48.5991C51.8553 48.5255 50.8869 48.3791 49.9473 47.8146C48.9987 47.2445 48.1588 46.2983 47.447 44.7689C46.6862 43.134 46.7822 41.5465 47.2678 40.2772C47.7423 39.0376 48.612 38.0439 49.4925 37.6036C49.9472 37.3763 50.6182 37.228 51.3048 37.1262C52.0163 37.0208 52.8328 36.9537 53.6328 36.9264ZM36.8896 38.4384C36.133 38.4126 35.3936 38.424 34.787 38.4728C34.4834 38.4973 34.2227 38.5297 34.0152 38.5693C33.796 38.6111 33.6798 38.6529 33.6382 38.6737C33.2691 38.8582 32.8364 39.1477 32.4727 39.4651C32.0856 39.803 31.8771 40.0856 31.823 40.2349C31.7474 40.444 31.6742 40.6428 31.6094 40.855C31.4599 41.3442 31.3782 41.8375 31.4923 42.3651C31.7068 43.3571 32.3009 45.0623 33.7169 45.9984C34.5053 46.5195 35.1437 46.8149 35.7507 46.9719C36.3548 47.1282 36.9714 47.1579 37.7352 47.092C38.5232 47.0241 39.2107 46.9015 39.8486 46.5181C40.4775 46.1401 41.1382 45.4593 41.7563 44.131C42.3256 42.9077 42.2504 41.7487 41.8941 40.8176C41.5266 39.8574 40.8825 39.195 40.4048 38.9562C40.1801 38.844 39.715 38.7204 39.0473 38.6215C38.4041 38.5262 37.6459 38.4642 36.8896 38.4384ZM53.684 38.4384C52.9276 38.4642 52.1696 38.5262 51.5263 38.6215C50.8582 38.7205 50.3934 38.8439 50.1688 38.9562C49.6911 39.195 49.047 39.8573 48.6794 40.8176C48.3232 41.7487 48.249 42.9077 48.8182 44.131C49.4365 45.4595 50.097 46.1402 50.726 46.5181C51.3638 46.9014 52.0505 47.0241 52.8384 47.092C53.6023 47.1579 54.2196 47.1283 54.8239 46.9719C55.4307 46.8149 56.0685 46.5194 56.8566 45.9984C58.2728 45.0623 58.8668 43.3572 59.0813 42.3651C59.1954 41.8374 59.1137 41.3443 58.9642 40.855C58.8994 40.6428 58.8262 40.444 58.7506 40.2349C58.6964 40.0856 58.4889 39.8029 58.1019 39.4651C57.738 39.1475 57.3046 38.8583 56.9354 38.6737C56.8938 38.6529 56.7784 38.6111 56.5594 38.5693C56.3519 38.5297 56.0911 38.4973 55.7876 38.4728C55.1808 38.4239 54.4408 38.4126 53.684 38.4384Z" fill="#232323"/>
<path d="M41.5058 49.7387C41.6929 49.7233 41.9991 49.7173 42.3218 49.7406C42.6281 49.7627 43.0359 49.8163 43.3751 49.9651C43.5906 50.0596 43.7901 50.1976 43.947 50.3106C44.1268 50.44 44.2603 50.5434 44.4323 50.66C44.7542 50.8783 45.0626 51.0338 45.4147 51.0735C45.7137 51.1071 45.9983 51.0143 46.3647 50.8175C46.5822 50.7007 46.6983 50.6241 46.9464 50.4858C47.1495 50.3726 47.3971 50.2448 47.669 50.1678C48.4803 49.9383 48.9158 50.0103 49.2991 50.0103C49.7162 50.0106 50.0548 50.3492 50.0551 50.7663C50.0551 51.1837 49.7164 51.5221 49.2991 51.5223C48.7783 51.5223 48.6329 51.4664 48.0804 51.6227C47.9832 51.6503 47.8604 51.7068 47.6827 51.8058C47.55 51.8798 47.2742 52.0452 47.0803 52.1494C46.6235 52.3947 46.0042 52.6621 45.2454 52.5766C44.5398 52.4971 43.9909 52.1873 43.5838 51.9112C43.3914 51.7807 43.1923 51.6301 43.0631 51.5371C42.9108 51.4275 42.8239 51.3747 42.7678 51.3501C42.6724 51.3083 42.4763 51.2677 42.2135 51.2487C41.9671 51.2309 41.7384 51.2368 41.6298 51.2457C41.2137 51.28 40.849 50.9698 40.8148 50.5537C40.7807 50.1378 41.0898 49.7729 41.5058 49.7387Z" fill="#232323"/>
<path d="M26.7767 31.8206C26.8693 31.4137 27.2743 31.1593 27.6813 31.2516C28.0885 31.3442 28.3438 31.7491 28.2513 32.1563C28.2152 32.3154 28.19 32.6565 28.1912 33.1712C28.1924 33.6644 28.2165 34.2568 28.2542 34.88C28.3296 36.1256 28.4572 37.4627 28.5515 38.3116C28.5974 38.7263 28.2988 39.1001 27.8841 39.1463C27.4691 39.1924 27.0945 38.8929 27.0484 38.4779C26.952 37.6109 26.8224 36.2483 26.7452 34.9716C26.7066 34.3336 26.6805 33.7083 26.6792 33.1741C26.6781 32.6618 26.6984 32.1649 26.7767 31.8206ZM64.5275 23.9909C64.9008 23.8042 65.3545 23.9553 65.5414 24.3285C65.6972 24.6402 65.9294 25.1603 66.1359 25.7362C66.339 26.3025 66.5363 26.9742 66.5907 27.573C66.6208 27.9048 66.5859 28.4847 66.5287 29.1303C66.4691 29.803 66.3778 30.6244 66.2728 31.4849C66.0625 33.2072 65.795 35.1074 65.6132 36.332C65.5519 36.7449 65.1678 37.03 64.7549 36.9689C64.342 36.9076 64.0569 36.5234 64.118 36.1105C64.2985 34.8946 64.5634 33.0076 64.7716 31.3018C64.8758 30.4485 64.9651 29.6454 65.0226 28.9964C65.0825 28.3207 65.1002 27.8816 65.0846 27.7099C65.0476 27.3021 64.9022 26.7723 64.7135 26.2461C64.5282 25.7295 64.32 25.2652 64.1898 25.0048C64.0031 24.6314 64.1541 24.1777 64.5275 23.9909ZM32.2843 14.4838C32.6013 14.2121 33.0786 14.2485 33.3503 14.5655C33.6221 14.8825 33.5857 15.3599 33.2686 15.6316C33.0168 15.8474 32.5048 16.3919 31.8413 17.1544C31.1909 17.9019 30.4275 18.8207 29.6865 19.7532C28.9448 20.6865 28.2304 21.6265 27.6764 22.4169C27.3991 22.8125 27.1667 23.1642 26.9923 23.4544C26.8094 23.7586 26.7188 23.9496 26.6901 24.0391C26.5449 24.4926 26.506 25.0467 26.5306 25.5836C26.5549 26.1155 26.6388 26.5783 26.7019 26.8229C26.8062 27.2272 26.5628 27.64 26.1585 27.7443C25.7543 27.8485 25.3424 27.6051 25.2381 27.2009C25.1487 26.8545 25.0496 26.2881 25.0206 25.6525C24.9917 25.0216 25.029 24.2689 25.2499 23.5784C25.3357 23.3105 25.5062 22.9919 25.6968 22.6748C25.8962 22.3432 26.1497 21.96 26.4381 21.5487C27.0154 20.725 27.7498 19.76 28.5023 18.8131C29.2555 17.8652 30.0335 16.9286 30.7004 16.1622C31.3539 15.4111 31.9354 14.7829 32.2843 14.4838ZM55.6179 19.0946C55.9784 18.8839 56.4418 19.0058 56.6525 19.3663C57.4179 20.676 59.9081 23.1499 63.6474 22.4927C64.0587 22.4204 64.4512 22.6947 64.5235 23.1059C64.5958 23.5172 64.3205 23.9087 63.9093 23.981C59.321 24.7876 56.2978 21.7557 55.3472 20.1292C55.1365 19.7687 55.2575 19.3053 55.6179 19.0946ZM56.7972 16.1011C57.1681 15.9099 57.6236 16.056 57.815 16.427C58.3669 17.4961 60.2066 19.8365 62.982 20.4993C63.3881 20.5963 63.6391 21.0047 63.5421 21.4108C63.445 21.8168 63.0366 22.0669 62.6306 21.97C59.2746 21.1684 57.1408 18.4151 56.4723 17.12C56.2808 16.7489 56.4261 16.2926 56.7972 16.1011ZM34.4351 17.1859C35.7143 16.9086 37.0238 16.9396 37.8558 17.054C38.2693 17.1109 38.5582 17.492 38.5016 17.9055C38.4447 18.3191 38.0637 18.609 37.6501 18.5522C36.9569 18.4569 35.8296 18.4308 34.756 18.6635C33.6667 18.8996 32.7833 19.3665 32.3443 20.1262C32.1354 20.4875 31.6731 20.6107 31.3117 20.4019C30.9503 20.1929 30.8262 19.7307 31.0351 19.3692C31.7859 18.07 33.1718 17.4598 34.4351 17.1859ZM56.5442 9.67906C56.924 9.506 57.372 9.67343 57.5453 10.0531C58.0358 11.1285 58.837 12.7877 59.643 14.2633C60.0465 15.002 60.4449 15.6837 60.8016 16.2192C61.1809 16.7887 61.4489 17.0912 61.5793 17.182C61.979 17.46 62.4912 17.6225 63.0027 17.7017C63.5119 17.7805 63.9644 17.7685 64.1997 17.7391C64.614 17.6873 64.9915 17.9814 65.0433 18.3957C65.095 18.8099 64.8018 19.1874 64.3877 19.2393C64.0128 19.2862 63.4182 19.2963 62.7704 19.196C62.1246 19.0959 61.3685 18.8772 60.716 18.4233C60.3201 18.1478 59.9121 17.6103 59.5436 17.057C59.1522 16.4693 58.7296 15.7448 58.3161 14.9878C57.4882 13.4722 56.6711 11.7794 56.1701 10.6812C55.9969 10.3013 56.1643 9.85234 56.5442 9.67906ZM40.05 7.09901C40.1489 6.69358 40.558 6.44518 40.9635 6.54383C41.6933 6.72136 42.8275 7.04776 43.8763 7.45733C44.4003 7.66198 44.92 7.89425 45.3627 8.14639C45.7859 8.38744 46.2208 8.69178 46.4908 9.06973C46.9472 9.70872 47.9411 11.2328 49.2431 12.9403C50.5441 14.6465 52.0811 16.4367 53.5399 17.5442C53.8722 17.7968 53.937 18.271 53.6846 18.6034C53.4321 18.9359 52.9579 19.0006 52.6254 18.7481C50.9954 17.5105 49.357 15.5825 48.0412 13.8567C46.7267 12.1329 45.6621 10.5114 45.2603 9.94878C45.1871 9.84627 44.9897 9.67419 44.6145 9.46053C44.2589 9.258 43.8134 9.05594 43.327 8.86597C42.3551 8.48636 41.2872 8.17818 40.6062 8.01251C40.2005 7.91383 39.9513 7.50471 40.05 7.09901ZM35.639 11.6212C36.4656 11.4973 37.2799 11.8108 38.0055 12.2227C38.7435 12.6417 39.518 13.2386 40.2892 13.8499C41.8807 15.1113 43.503 16.4587 45.2219 17.0934C45.6136 17.238 45.8144 17.6733 45.6698 18.065C45.5252 18.4566 45.0899 18.6565 44.6982 18.5119C42.6994 17.7738 40.8615 16.233 39.3501 15.035C38.5699 14.4166 37.8815 13.891 37.2593 13.5378C36.6248 13.1776 36.1808 13.069 35.8635 13.1165C35.0724 13.2352 33.6517 13.7961 32.115 14.5094C30.6121 15.207 29.0987 16.0012 28.1676 16.5185C27.8026 16.7213 27.3417 16.5901 27.1389 16.2252C26.9364 15.8602 27.0684 15.4002 27.4333 15.1975C28.3897 14.6661 29.9364 13.8532 31.479 13.1372C32.9881 12.4367 34.5997 11.7771 35.639 11.6212ZM52.143 7.95345C52.4648 7.6876 52.9411 7.73328 53.2072 8.05484C53.8475 8.82947 54.7126 10.175 55.2783 11.7522C55.8421 13.3241 56.1403 15.2167 55.5126 17.0215C55.3754 17.4159 54.9442 17.6243 54.5498 17.4871C54.1558 17.3499 53.9474 16.9195 54.0842 16.5254C54.5547 15.1728 54.3568 13.6615 53.8549 12.2621C53.3548 10.8682 52.5843 9.67393 52.0426 9.01855C51.7766 8.69674 51.8212 8.21948 52.143 7.95345ZM34.881 8.18084C35.5097 8.17072 36.5341 8.21343 37.6078 8.37083C38.666 8.52598 39.8531 8.80419 40.7528 9.30697C41.3498 9.64055 41.8747 10.1479 42.3593 10.6831C42.829 11.2017 43.3624 11.8655 43.8654 12.4452C44.9229 13.6637 46.1306 14.857 47.8246 15.5607C48.2097 15.721 48.392 16.1627 48.2321 16.548C48.072 16.9336 47.6294 17.1167 47.2438 16.9565C45.2201 16.1158 43.8253 14.706 42.7236 13.4364C42.1469 12.772 41.7105 12.2197 41.2381 11.698C40.7812 11.1934 40.3907 10.8367 40.0155 10.627C39.3595 10.2604 38.392 10.0141 37.3892 9.86708C36.4023 9.72237 35.4592 9.68394 34.9057 9.69284C34.4883 9.69957 34.1438 9.36691 34.1369 8.94964C34.1301 8.53217 34.4636 8.18758 34.881 8.18084ZM49.1939 7.13544C49.2727 6.72556 49.6689 6.45736 50.0788 6.53595C50.4888 6.61479 50.7581 7.01093 50.6793 7.4209C50.5899 7.88582 50.4805 8.65739 50.4489 9.431C50.4158 10.2419 50.476 10.9125 50.6301 11.2669C50.7963 11.6496 50.6208 12.0945 50.2383 12.2611C49.8554 12.4276 49.4096 12.2522 49.2431 11.8693C48.9397 11.1712 48.9043 10.1919 48.9379 9.36898C48.9731 8.50883 49.0926 7.66187 49.1939 7.13544Z" fill="#232323"/>
<path d="M40.9346 57.6094H39.9487C39.7657 57.6094 39.6174 57.7577 39.6174 57.9406C39.6174 58.0687 39.6913 58.1853 39.8071 58.2401L42.8058 59.6575C43.0752 59.7849 43.3694 59.8509 43.6673 59.8509H47.3153C47.618 59.8509 47.9169 59.7827 48.1897 59.6514L51.5803 58.0192C51.7113 57.9562 51.7945 57.8237 51.7945 57.6784C51.7945 57.4695 51.6252 57.3002 51.4163 57.3002H50.5578L47.6452 56.617C47.5017 56.5833 47.3527 56.5815 47.2085 56.6117L45.7656 56.9137L43.8353 56.6089C43.6569 56.5808 43.4741 56.6011 43.3061 56.6678L40.9346 57.6094Z" fill="#FED1D0"/>
<path d="M32.5865 36.7052C32.3251 36.9927 31.9322 37.5329 31.6528 38.0091C31.5328 38.2135 31.7059 38.4438 31.94 38.4072L32.832 38.2678C33.3678 38.0743 35.0687 37.6874 35.9794 37.6874C37.1179 37.6874 38.9707 37.7544 40.1315 37.9106C40.9662 38.023 42.0739 38.4624 42.6568 38.7069C42.7698 38.7543 42.8965 38.7561 43.0105 38.7112C43.2937 38.5996 43.3966 38.2507 43.2095 38.0106C42.5842 37.2081 41.5932 36.1129 40.6003 35.8792C39.3859 35.5935 36.5078 35.5072 35.3098 35.4998C34.6847 35.7379 32.9437 36.3123 32.5865 36.7052Z" fill="#232323"/>
<path d="M58.9951 37.198C59.2023 37.4374 59.4663 37.9493 59.6902 38.4368C59.8382 38.7588 59.5172 39.0808 59.1888 38.9477L58.7112 38.7541C58.1804 38.5475 56.4056 37.8935 55.4951 37.8711C54.357 37.8431 52.282 37.8645 51.1177 37.9921C50.2805 38.0839 49.1624 38.496 48.5735 38.726C48.4594 38.7706 48.3327 38.7693 48.2199 38.7216C47.9395 38.6031 47.845 38.2516 48.0369 38.0153C48.6751 37.2297 49.6734 36.1632 50.6712 35.9542C51.8922 35.6984 55.0205 35.6785 56.2184 35.7006C56.8374 35.954 58.6477 36.7964 58.9951 37.198Z" fill="#232323"/>
<path d="M39.4673 40.6397C39.4673 41.6666 38.7699 42.499 37.9097 42.499C37.0495 42.499 36.3521 41.6666 36.3521 40.6397C36.3521 39.6127 37.0495 38.7803 37.9097 38.7803C38.7699 38.7803 39.4673 39.6127 39.4673 40.6397Z" fill="#232323"/>
<path d="M55.0172 40.6397C55.0172 41.6666 54.3475 42.499 53.5214 42.499C52.6953 42.499 52.0256 41.6666 52.0256 40.6397C52.0256 39.6127 52.6953 38.7803 53.5214 38.7803C54.3475 38.7803 55.0172 39.6127 55.0172 40.6397Z" fill="#232323"/>
<path d="M59.3971 57.9268C59.8145 57.9153 60.1623 58.2448 60.1738 58.6621L60.411 67.2695L63.0482 69.8702C63.3455 70.1634 63.3492 70.643 63.056 70.9402C62.7629 71.2373 62.2842 71.2402 61.987 70.9471L59.1333 68.1328C58.9944 67.9958 58.9133 67.8101 58.9079 67.615L58.6628 58.7035C58.6513 58.2862 58.9798 57.9383 59.3971 57.9268ZM32.7176 59.2695C33.1341 59.2957 33.4503 59.6542 33.4244 60.0708L32.9096 68.3553C32.8988 68.5274 32.829 68.6906 32.7127 68.8179L31.2469 70.4225C30.9653 70.7307 30.4872 70.7523 30.1789 70.4707C29.8709 70.1891 29.8491 69.7108 30.1307 69.4026L31.4163 67.994L31.9153 59.9773C31.9413 59.5605 32.3009 59.2436 32.7176 59.2695Z" fill="#232323"/>
<path d="M59.8533 63.9176C60.7315 63.7756 62.0919 63.684 63.334 63.8871C64.4123 64.0634 65.7008 64.519 66.2291 65.6698C66.7911 65.9563 67.8122 66.511 68.942 67.23C70.5592 68.2592 71.5804 68.9749 72.0871 70.1782C72.1807 70.4008 72.1799 70.623 72.1658 70.7777C72.1507 70.9437 72.1115 71.1127 72.0634 71.2728C71.9671 71.5937 71.8093 71.9628 71.6185 72.3497C71.2344 73.1286 70.6715 74.0706 70.0415 75.0154C69.4099 75.9629 68.6999 76.9305 68.0167 77.7609C67.3436 78.5789 66.6613 79.3065 66.0853 79.7385C65.7513 79.9889 65.2776 79.9209 65.0271 79.5869C64.7768 79.2529 64.8448 78.7791 65.1787 78.5287C65.6041 78.2095 66.1926 77.5981 66.8492 76.8001C67.496 76.0141 68.1759 75.0881 68.7835 74.1767C69.3927 73.263 69.918 72.38 70.263 71.6804C70.4367 71.3282 70.5534 71.0442 70.6154 70.8377C70.6367 70.767 70.6476 70.7148 70.6538 70.6793C70.3474 70.0247 69.7471 69.5349 68.1299 68.5058C67.5443 68.1331 66.9901 67.8087 66.5234 67.546C66.477 68.7719 66.0667 70.156 65.3097 71.2915C64.9289 71.8626 64.1282 73.0976 62.9452 74.6187C61.0386 77.0701 58.1147 80.298 54.2748 82.7733C51.1047 84.8168 48.3405 86.4175 46.4215 87.4707C46.4141 87.4753 46.4064 87.4792 46.3988 87.4835C45.3823 88.0411 44.6057 88.445 44.1328 88.6756C43.7575 88.8586 43.3048 88.7024 43.1218 88.3271C42.939 87.9519 43.0951 87.4991 43.4703 87.3162C43.7437 87.1829 44.1282 86.985 44.6112 86.7295C41.9413 84.7444 37.4826 81.2383 35.1395 78.7511C33.4646 76.9731 31.9485 74.8143 30.9038 72.8409C30.3815 71.8543 29.9673 70.8962 29.7127 70.0414C29.4653 69.2108 29.3387 68.38 29.4961 67.6976C29.7168 66.7416 30.1995 66.116 30.7916 65.7672C31.3579 65.4337 31.9589 65.3918 32.3784 65.4729C32.7881 65.5522 33.0569 65.9491 32.9779 66.3588C32.8986 66.7687 32.5017 67.0365 32.0919 66.9573C31.994 66.9384 31.7737 66.9427 31.5584 67.0696C31.3686 67.1814 31.1086 67.4323 30.9687 68.0382C30.901 68.3322 30.9367 68.8537 31.1617 69.6092C31.3796 70.341 31.748 71.2047 32.2396 72.1332C33.2226 73.99 34.6607 76.037 36.2401 77.7136C38.66 80.2825 43.5366 84.0706 46.0809 85.9331C47.9426 84.9003 50.52 83.3949 53.4558 81.5025C57.0141 79.2087 59.7695 76.2112 61.6202 73.8558C61.6906 73.2002 61.8127 72.3238 61.9185 71.4855C62.0406 70.5174 62.1399 69.596 62.14 68.9733C62.14 68.366 61.7632 67.9602 61.1812 67.6651C60.8957 67.5204 60.5951 67.423 60.3494 67.3629C60.0833 67.2978 59.9415 67.2901 59.9743 67.2901C59.5568 67.2901 59.2183 66.9516 59.2183 66.5341C59.2183 66.1165 59.5568 65.7781 59.9743 65.7781C60.1241 65.7781 60.4055 65.8201 60.7087 65.8942C61.0328 65.9735 61.4486 66.1058 61.8643 66.3165C62.6846 66.7322 63.652 67.5461 63.652 68.9733C63.6519 69.619 63.5624 70.4832 63.459 71.3339C63.7088 70.9663 63.9082 70.668 64.0516 70.4529C64.9503 69.1049 65.1826 67.3839 64.907 66.4317L64.8755 66.3411C64.6893 65.8981 64.1203 65.5479 63.0899 65.3794C62.0565 65.2104 60.8683 65.2848 60.0944 65.4099C59.6823 65.4764 59.2938 65.1959 59.2272 64.7838C59.1608 64.3718 59.4413 63.9843 59.8533 63.9176Z" fill="#232323"/>
<path d="M70.6068 71.2522C70.7835 70.874 71.2336 70.7105 71.6119 70.887C72.1288 71.1283 72.9359 71.5345 73.6909 71.9757C74.0683 72.1963 74.4428 72.4314 74.7648 72.6638C75.0739 72.8869 75.3851 73.1429 75.5937 73.411C75.8999 73.8047 75.8468 74.2609 75.762 74.5509C75.6737 74.8526 75.5038 75.1556 75.3171 75.4329C74.938 75.9958 74.3641 76.6354 73.7509 77.2549C72.5155 78.5032 71.0015 79.7876 70.2141 80.4227C69.8553 80.7119 69.1596 81.1524 68.3201 81.6541C67.4638 82.1659 66.4099 82.7685 65.3001 83.3905C63.0791 84.6354 60.6176 85.9656 59.0286 86.8103C58.66 87.0059 58.2027 86.8658 58.0068 86.4972C57.8109 86.1286 57.9512 85.6714 58.3199 85.4755C59.902 84.6344 62.3524 83.3102 64.5608 82.0725C65.6654 81.4534 66.7062 80.8573 67.5454 80.3557C68.4011 79.8443 69.003 79.4567 69.2651 79.2453C70.0298 78.6287 71.4956 77.3835 72.676 76.1908C73.2706 75.5901 73.7646 75.0313 74.063 74.5883C74.1728 74.4251 74.2392 74.2995 74.2776 74.2113C74.1864 74.1258 74.0559 74.0174 73.8799 73.8903C73.6111 73.6964 73.2816 73.4877 72.928 73.281C72.2212 72.8679 71.4564 72.4833 70.972 72.2573C70.5938 72.0807 70.4303 71.6305 70.6068 71.2522Z" fill="#232323"/>
<path d="M57.7101 84.7423C57.7101 85.5166 57.0825 86.1443 56.3082 86.1443C55.5339 86.1443 54.9062 85.5166 54.9062 84.7423C54.9062 83.968 55.5339 83.3403 56.3082 83.3403C57.0825 83.3403 57.7101 83.968 57.7101 84.7423Z" fill="#232323"/>
<path d="M36.5793 83.639C36.5793 84.4133 35.9516 85.041 35.1773 85.041C34.403 85.041 33.7753 84.4133 33.7753 83.639C33.7753 82.8647 34.403 82.2371 35.1773 82.2371C35.9516 82.2371 36.5793 82.8647 36.5793 83.639Z" fill="#232323"/>
<path d="M55.5137 94.2059V85.0434C55.5137 84.6258 55.8521 84.2874 56.2697 84.2874C56.6872 84.2874 57.0257 84.6258 57.0257 85.0434V94.2059C57.0257 94.6234 56.6872 94.9619 56.2697 94.9619C55.8521 94.9619 55.5137 94.6234 55.5137 94.2059Z" fill="#232323"/>
<path d="M34.4233 92.5047V83.3422C34.4233 82.9247 34.7618 82.5862 35.1793 82.5862C35.5969 82.5862 35.9353 82.9247 35.9353 83.3422V92.5047C35.9353 92.9223 35.5969 93.2607 35.1793 93.2607C34.7618 93.2607 34.4233 92.9223 34.4233 92.5047Z" fill="#232323"/>
<path d="M73.9048 75.2242C74.0741 74.8427 74.5204 74.6703 74.902 74.8394C77.2548 75.8832 82.4402 78.2356 84.0852 79.1814C84.5556 79.4519 85.0018 79.6525 85.4939 79.8912C85.973 80.1235 86.4779 80.384 86.9734 80.7486C87.9926 81.4985 88.8821 82.6197 89.6716 84.6723C90.3057 86.321 90.7321 88.5805 91.0113 90.6917C91.2922 92.8162 91.4315 94.8508 91.474 96.0831C91.4883 96.5004 91.1618 96.8504 90.7445 96.8647C90.3273 96.8791 89.9774 96.5526 89.9629 96.1353C89.922 94.9476 89.7861 92.9617 89.5121 90.8896C89.2363 88.8041 88.8275 86.6903 88.26 85.2147C87.5475 83.3623 86.8097 82.5056 86.0766 81.9662C85.6963 81.6864 85.2936 81.4743 84.8344 81.2516C84.3877 81.0349 83.8632 80.7969 83.3322 80.4916C81.7728 79.595 76.6771 77.2806 74.2897 76.2214C73.9082 76.0521 73.7358 75.6058 73.9048 75.2242Z" fill="#232323"/>
<path d="M16.4562 75.3214C16.8488 75.1794 17.2818 75.3826 17.4239 75.7752C17.5657 76.1675 17.3633 76.6006 16.9711 76.7428C15.1347 77.4076 12.2664 78.4929 9.63648 79.5847C8.32119 80.1308 7.07229 80.6756 6.04449 81.1686C4.99736 81.6708 4.23742 82.0923 3.85819 82.3872C2.84248 83.1774 1.82627 84.4959 0.996615 86.0038C0.169726 87.5067 -0.434002 89.1295 -0.666979 90.4807C-0.737941 90.892 -1.12885 91.1676 -1.54012 91.097C-1.95153 91.026 -2.22818 90.6352 -2.15732 90.2238C-1.88962 88.6711 -1.21625 86.8892 -0.328354 85.2754C0.556724 83.6667 1.69274 82.1555 2.92993 81.1932C3.45188 80.7872 4.34727 80.3053 5.38988 79.8052C6.45191 79.2958 7.7288 78.7391 9.05668 78.1879C11.7134 77.0849 14.6041 75.9918 16.4562 75.3214Z" fill="#232323"/>
<path d="M29.3038 63.7084C29.8791 63.3754 30.5753 63.3392 31.1131 63.3747C31.6721 63.4116 32.1969 63.5368 32.5257 63.6464C32.9214 63.7786 33.1351 64.2063 33.0031 64.6022C32.871 64.9982 32.4433 65.2125 32.0473 65.0806C31.8254 65.0066 31.4283 64.9111 31.0137 64.8837C30.5777 64.855 30.2465 64.9101 30.0608 65.0176C29.642 65.26 29.0127 65.6094 28.4238 65.9321C27.9442 66.1949 27.4864 66.4421 27.1835 66.6054C26.9262 66.8053 25.9816 68.0254 27.4532 70.9317C29.0039 73.994 31.9782 77.4241 33.2777 78.7565C33.5692 79.0554 33.5638 79.5341 33.2649 79.8256C32.9661 80.117 32.4874 80.1105 32.1959 79.8118C30.8584 78.4405 27.7575 74.8803 26.1036 71.6139C24.8811 69.1993 24.9759 67.3936 25.5396 66.2934C25.4361 66.3155 25.3494 66.3389 25.2816 66.3613C25.2499 66.3931 25.2019 66.4504 25.1409 66.5414C25.0172 66.7259 24.8781 66.9907 24.7383 67.3161C24.4963 67.8791 24.278 68.5602 24.1408 69.1776C24.0723 69.4856 24.0271 69.7668 24.0069 70.0005C23.9856 70.2461 23.9966 70.3918 24.0108 70.4543C24.0827 70.7707 24.3319 71.2914 24.6713 71.8728C24.997 72.4306 25.3581 72.9657 25.5878 73.2824C25.8329 73.6205 25.7575 74.0936 25.4195 74.3387C25.0816 74.5833 24.6093 74.5079 24.3642 74.1703C24.1099 73.8195 23.7195 73.2427 23.3651 72.6357C23.0244 72.0522 22.6646 71.3538 22.5362 70.789C22.4711 70.502 22.4734 70.1748 22.4998 69.8696C22.5142 69.7036 22.5379 69.5291 22.5677 69.3498C22.2256 69.7677 21.7408 70.3528 21.2388 70.9258C20.5893 71.6673 19.8475 72.4715 19.3715 72.8286C19.1323 73.008 18.7097 73.2366 18.4206 73.4114C18.078 73.6184 17.7677 73.8323 17.5415 74.068C17.3205 74.2983 17.2257 74.501 17.2147 74.695C17.2039 74.8885 17.2685 75.2162 17.6586 75.7119C18.5137 76.798 20.3545 78.348 22.4526 79.86C24.5336 81.3598 26.7827 82.7623 28.3962 83.5642C31.0526 84.8844 32.9147 85.7795 33.51 86.0606C33.8876 86.2389 34.0496 86.6901 33.8713 87.0676C33.693 87.445 33.2418 87.6061 32.8643 87.4279C32.2573 87.1413 30.3863 86.2409 27.7239 84.9177C26.0127 84.0673 23.6906 82.6159 21.5686 81.0865C19.4634 79.5694 17.4681 77.9142 16.4705 76.647C15.9347 75.9663 15.668 75.2861 15.7056 74.6113C15.7433 73.937 16.0774 73.4107 16.4508 73.0216C16.8191 72.6378 17.2687 72.3411 17.638 72.1179C18.0608 71.8624 18.3025 71.7398 18.4639 71.6188C18.789 71.3748 19.424 70.7023 20.1009 69.9296C20.7558 69.182 21.3873 68.4146 21.6818 68.0465C22.1665 67.4407 22.9704 66.8344 23.4409 66.5129C23.5776 66.2151 23.7268 65.9345 23.8848 65.6988C24.0528 65.4483 24.3241 65.1016 24.7107 64.9566L24.88 64.9005C25.2997 64.7748 25.8789 64.6935 26.391 64.6376C26.9177 64.5802 27.4535 64.5435 27.844 64.5235C28.3863 64.2257 28.9353 63.9217 29.3038 63.7084Z" fill="#232323"/>
<path d="M30.4303 22.067C30.7622 21.8138 31.2372 21.8778 31.4905 22.2097C31.7437 22.5416 31.6796 23.0166 31.3478 23.2699C30.9968 23.5377 30.4384 23.9838 29.9155 24.4442C29.3691 24.9254 28.9385 25.356 28.7726 25.6048C28.7398 25.6543 28.6703 25.8132 28.6004 26.1305C28.5352 26.4265 28.4833 26.7929 28.4448 27.1965C28.3681 28.0031 28.3507 28.9025 28.369 29.5728C28.3802 29.99 28.0509 30.3371 27.6337 30.3485C27.2165 30.3599 26.8687 30.0313 26.857 29.6142C26.8373 28.8927 26.8562 27.9306 26.9397 27.0528C26.9815 26.6146 27.0408 26.1828 27.1238 25.8056C27.2021 25.4501 27.3187 25.06 27.5146 24.7661C27.8063 24.3286 28.3857 23.7765 28.9164 23.3092C29.4706 22.8212 30.0568 22.352 30.4303 22.067Z" fill="#232323"/>
<path d="M28.8113 43.5126C29.2239 43.4491 29.61 43.732 29.6736 44.1445C29.7183 44.4348 29.7993 44.91 29.9 45.4419L30.1845 45.4951C30.595 45.5715 30.8663 45.9666 30.7899 46.3771C30.7335 46.6794 30.5038 46.9039 30.2229 46.9717C30.2576 47.115 30.2927 47.2537 30.3282 47.3851C30.4372 47.7882 30.1988 48.2035 29.7957 48.3124C29.3927 48.4212 28.9774 48.1828 28.8684 47.7798C28.7819 47.4596 28.6998 47.1032 28.6213 46.7423L28.3034 46.6832C27.8929 46.6069 27.6216 46.2117 27.698 45.8012C27.7579 45.4799 28.0132 45.2463 28.3181 45.1958C28.2587 44.8607 28.21 44.5741 28.1794 44.3749C28.1158 43.9623 28.3988 43.5762 28.8113 43.5126Z" fill="#232323"/>
<path d="M62.5989 43.1837C62.1863 43.1202 61.8002 43.4031 61.7366 43.8157C61.6919 44.1059 61.6109 44.5811 61.5102 45.1131L61.2257 45.1662C60.8152 45.2426 60.5439 45.6378 60.6203 46.0482C60.6767 46.3506 60.9065 46.5751 61.1873 46.6428C61.1526 46.7861 61.1175 46.9248 61.082 47.0562C60.9731 47.4593 61.2115 47.8746 61.6145 47.9835C62.0175 48.0923 62.4329 47.8539 62.5418 47.451C62.6283 47.1308 62.7104 46.7743 62.7889 46.4134L63.1068 46.3544C63.5173 46.278 63.7886 45.8829 63.7122 45.4724C63.6523 45.151 63.397 44.9175 63.0921 44.867C63.1515 44.5319 63.2002 44.2452 63.2309 44.046C63.2944 43.6334 63.0115 43.2473 62.5989 43.1837Z" fill="#232323"/>
<path d="M30.5698 70.0975C29.9073 67.6284 31.4481 66.4088 32.3013 66.1077V68.2155L30.5698 70.0975Z" fill="#232323"/>
<path d="M62.6719 70.1345L59.4726 67.6127L59.9996 66.8223C60.5014 66.7094 61.6557 66.7094 62.2579 67.6127C62.8601 68.5161 62.7849 69.6703 62.6719 70.1345Z" fill="#232323"/>
</g>
<defs>
<clipPath id="clip0_3265_35493">
<rect width="90.72" height="90.72" rx="24" fill="white"/>
</clipPath>
</defs>
</svg>
