<svg viewBox="0 0 91 91" fill="none" xmlns="http://www.w3.org/2000/svg">
<g clip-path="url(#clip0_3265_35671)">
<rect width="90.72" height="90.72" rx="24" transform="matrix(-1 0 0 1 90.72 0)" fill="white"/>
<path d="M30.2796 31.8583L32.2228 22.0381L33.5375 20.0317C35.2772 18.7797 38.8464 16.2756 39.2055 16.2756H47.0621L58.2859 21.7172L59.1264 28.0586L62.7753 29.0126L63.5049 37.9355C64.7395 36.4203 65.7496 37.2621 66.2547 39.0579C66.7598 40.8537 65.8619 45.6799 64.6834 47.0267C63.7406 48.1042 62.3825 47.8872 61.8213 47.644C61.9111 50.0234 60.3997 53.6113 59.6327 55.1078L59.1264 64.389L60.047 66.9464L55.4438 83.8248L47.0557 89.8601C44.4643 86.1093 38.8723 77.9736 37.2356 75.4367C35.5989 72.8998 34.4395 68.7195 34.0645 66.9464V58.5583L32.8369 56.001C32.6322 54.8416 32.0592 51.8479 31.4047 49.1473C30.5866 45.7716 29.5634 40.6569 30.2796 37.5881C30.8526 35.1331 30.5184 32.7453 30.2796 31.8583Z" fill="white"/>
<path d="M34.8875 33.4419C36.0409 33.4419 37.789 33.6655 38.8863 33.885C39.2704 33.9618 39.6621 33.6138 39.5954 33.2278L39.4479 32.3744C39.3651 31.8951 38.9519 31.5428 38.4655 31.5442C36.7701 31.5489 34.2409 31.6152 33.3408 31.8602C32.2743 32.1505 31.7445 32.5851 31.4814 33.1301L31.1657 34.8603C31.1301 35.0551 31.325 35.1427 31.4217 34.9699C31.822 34.2546 32.1701 33.4419 34.8875 33.4419Z" fill="#232323"/>
<path d="M51.0684 33.5843C49.7328 33.5843 48.2054 33.9087 47.1811 34.1994C46.7956 34.3088 46.4062 33.9664 46.4902 33.5746L46.7143 32.5288C46.813 32.068 47.2173 31.7367 47.6885 31.7366C49.7042 31.736 52.9581 31.8025 54.0446 32.0983C55.2926 32.438 55.9125 32.9465 56.2203 33.5843L56.6862 34.9908C56.7531 35.1929 56.4847 35.3659 56.3176 35.234C55.3095 34.4379 53.6589 33.5843 51.0684 33.5843Z" fill="#232323"/>
<path d="M40.2748 51.8142C38.9977 51.9208 37.1643 52.9167 36.2998 53.2721L36.9329 54.3026C36.8996 54.7322 37.5538 56.1891 38.1158 57.1617C38.8782 58.4813 43.518 58.8484 45.6315 58.0459C46.8067 57.5998 48.1398 55.7245 48.2063 55.0136L49.603 54.3026C47.907 53.4732 44.3653 51.8142 43.7668 51.8142C43.1682 51.8142 42.2869 52.1105 41.9211 52.2587L40.2748 51.8142Z" fill="#FED1D0"/>
<path d="M35.9351 53.1737C36.0863 52.9402 36.3985 52.873 36.632 53.0241C36.9205 53.2109 37.3617 53.4614 37.7975 53.6737C38.2529 53.8956 38.6333 54.0409 38.8252 54.0685C39.1257 54.1116 39.7788 54.1138 40.4652 54.101C41.1156 54.0888 41.7926 54.0636 42.0451 54.0636C42.3271 54.0636 43.1377 54.1427 43.9351 54.222C44.7596 54.304 45.6054 54.3898 46.0161 54.414C46.1246 54.4203 46.3089 54.4036 46.5664 54.3589C46.8153 54.3156 47.1008 54.2528 47.3991 54.1817C47.9749 54.0445 48.6302 53.8692 49.0519 53.7988C49.3265 53.7529 49.5868 53.9386 49.6327 54.2132C49.6784 54.4877 49.4927 54.7472 49.2183 54.793C48.8418 54.8558 48.2619 55.0121 47.6324 55.1621C47.3284 55.2346 47.0188 55.3035 46.7386 55.3521C46.4672 55.3992 46.1876 55.4335 45.957 55.42C45.5198 55.3943 44.6437 55.3056 43.8347 55.2251C42.9986 55.142 42.262 55.0716 42.0451 55.0716C41.7984 55.0716 41.1794 55.096 40.4839 55.109C39.8238 55.1213 39.0798 55.1239 38.6815 55.0666C38.3147 55.0139 37.805 54.7978 37.3565 54.5794C36.8887 54.3515 36.4114 54.0822 36.0847 53.8706C35.8512 53.7194 35.7841 53.4073 35.9351 53.1737Z" fill="#FBACAA"/>
<path d="M47.1062 61.6796C45.0553 60.6196 40.0421 60.5523 37.8645 60.994L35.1355 59.8381C35.6041 60.9965 37.0042 63.5779 38.8566 64.6364C41.1721 65.9595 44.7281 65.7114 48.0359 64.6364C50.6822 63.7763 52.7773 61.8498 53.4941 60.994C52.3915 60.5811 50.3663 60.257 49.7709 60.3231C49.1755 60.3893 47.685 61.3219 47.1062 61.6796Z" fill="#8B8B8B"/>
<path opacity="0.2" d="M57.2708 58.9932L59.7303 54.9888L58.8871 65.4586L59.7303 68.1285L57.9737 74.0304L49.8234 73.1873L42.4457 65.4586L48.9098 64.7559L53.4769 61.2429C54.5543 60.7979 56.8213 59.725 57.2708 58.9932Z" fill="#232323"/>
<path d="M52.0128 37.4264C52.0128 38.5138 51.3557 39.3953 50.5452 39.3953C49.7346 39.3953 49.0775 38.5138 49.0775 37.4264C49.0775 36.339 49.7346 35.4575 50.5452 35.4575C51.3557 35.4575 52.0128 36.339 52.0128 37.4264Z" fill="#232323"/>
<path d="M5.54237 80.6545C4.36242 81.6651 0.509801 89.5963 -1.26901 93.4356L90.7245 97.0863C89.0859 92.9196 85.57 84.3616 84.615 83.4628C83.4212 82.3392 75.1347 77.3533 72.6067 75.7381C70.0786 74.123 60.1068 66.6792 60.1068 67.3814C60.1068 68.0837 56.104 83.0414 55.472 83.8841C54.9663 84.5583 49.8774 88.4253 47.3962 90.2745C46.8812 89.0807 45.0507 85.7802 41.8485 82.1285C37.8457 77.5639 34.4047 69.3491 33.9834 67.3814C33.6463 65.8073 33.8429 63.4957 33.9834 62.5366C31.9469 64.0818 27.27 67.6076 24.8542 69.3491C21.8346 71.5261 7.01731 79.3912 5.54237 80.6545Z" fill="#232323"/>
<path d="M41.2214 36.5548C41.3349 36.1531 41.7529 35.9196 42.1546 36.033C42.5564 36.1466 42.7898 36.5644 42.6763 36.9662C42.2745 38.3882 41.735 39.789 41.1751 41.1872C40.6113 42.5953 40.029 43.9956 39.5164 45.4653C39.4497 45.6567 39.4538 45.7948 39.48 45.8975C39.5074 46.0041 39.5727 46.1241 39.7025 46.2528C39.9769 46.5247 40.4808 46.7754 41.1613 46.9271C41.827 47.0755 42.5846 47.1116 43.2886 47.0226C44.0017 46.9324 44.596 46.7222 44.9837 46.4349C45.3191 46.1863 45.7923 46.257 46.0409 46.5924C46.2894 46.9278 46.2196 47.401 45.8844 47.6496C45.2173 48.1441 44.3443 48.4133 43.4786 48.5228C42.6038 48.6334 41.6701 48.5897 40.8316 48.4027C40.0081 48.219 39.194 47.8785 38.6374 47.3268C38.3517 47.0436 38.1227 46.692 38.0153 46.2735C37.907 45.8513 37.9355 45.4089 38.0891 44.9682C38.6163 43.4564 39.2172 42.0092 39.7714 40.6251C40.3296 39.2311 40.843 37.8939 41.2214 36.5548Z" fill="#232323"/>
<path opacity="0.5" d="M55.6371 40.1982C56.5414 40.813 56.6073 42.293 55.7841 43.5039C54.961 44.7148 53.3566 45.264 52.4054 44.7253C51.0974 43.9845 51.0148 42.5863 51.838 41.3755C52.6611 40.1646 54.7327 39.5834 55.6371 40.1982Z" fill="#FED1D0"/>
<path d="M36.6883 37.3752C36.6883 38.4344 36.0483 39.293 35.2589 39.293C34.4694 39.293 33.8294 38.4344 33.8294 37.3752C33.8294 36.3161 34.4694 35.4575 35.2589 35.4575C36.0483 35.4575 36.6883 36.3161 36.6883 37.3752Z" fill="#232323"/>
<path opacity="0.5" d="M32.4073 40.6305C31.8796 40.2718 30.9545 40.3217 30.1118 40.665V45.3595C30.9754 45.327 31.9649 44.8027 32.554 43.9361C33.377 42.7254 33.3114 41.2455 32.4073 40.6305Z" fill="#FED1D0"/>
<path d="M30.7029 21.9688C30.2272 24.1088 30.2323 29.6479 30.2943 32.1499C31.0003 28.7562 32.5162 21.8796 32.9323 21.5226C33.4525 21.0763 37.029 19.5258 39.9547 19.2561C42.7423 18.9991 44.6363 18.3024 45.6767 18.0671C46.7666 18.4634 49.6952 18.9095 52.439 20.2227C54.3661 21.145 57.3807 21.709 58.4954 21.9688C58.7183 23.7149 57.9752 26.7615 58.1238 27.9505C58.2724 29.1395 61.5793 29.3995 62.0251 30.8858C62.3818 32.0747 62.9169 36.6573 63.1398 38.7999C63.8582 35.5302 65.3989 28.4038 65.815 26.0555C66.2312 23.7073 66.3352 20.5441 66.3352 19.2561C65.9884 19.1075 65.2057 18.6616 64.849 18.0671C64.4923 17.4726 64.7003 16.5809 64.849 16.2093L62.7311 15.7263L63.1398 14.6488L61.3192 14.4259L61.0591 12.5681H58.4954C58.0495 11.7507 56.2289 9.93039 54.4083 10.4502C52.9518 10.8661 52.6372 9.73175 52.6619 9.11261C52.0179 9.3852 50.4326 9.89317 49.2436 9.74425C48.0547 9.59534 47.0143 8.88949 46.6427 8.55518L44.8964 9.93039C44.1905 9.59647 41.218 9.22444 40.3635 9.93039C39.6798 10.4952 39.4593 11.0822 39.4346 11.3052C39.224 11.2182 38.684 11.037 38.2084 11.0072C37.7328 10.9775 36.6231 11.4157 36.1277 11.6385C36.2466 13.6003 34.4433 13.9178 33.5268 13.8314L32.9323 16.4706L31.6319 16.6925V18.512C30.8293 19.047 30.2818 19.8754 30.1084 20.2227L30.7029 21.9688Z" fill="#232323"/>
<path d="M60.9731 76.0626C60.973 74.1701 60.525 70.963 60.2161 68.7596C59.1574 72.8488 57.2237 80.4872 56.3574 83.4228C56.3719 83.4096 56.3871 83.3985 56.3997 83.3864C56.4317 83.3557 56.4546 83.331 56.4706 83.3126C56.4838 83.2972 56.4893 83.2884 56.4903 83.287C57.1777 82.2015 57.757 80.7213 57.957 80.1212L57.9924 80.0326C58.0881 79.8335 58.2677 79.6843 58.4846 79.628C58.7325 79.5639 58.9957 79.6303 59.1845 79.8033L60.9731 81.4423V76.0626ZM29.9486 36.4986C29.9486 35.3119 29.6844 33.1924 29.5479 32.2619C29.5435 32.2318 29.5408 32.2008 29.5401 32.1703C29.5088 30.9091 29.4922 28.8858 29.543 26.9059C29.5902 25.0684 29.6998 23.2002 29.925 22.0254L29.3944 20.4681C29.3294 20.277 29.3436 20.0679 29.4337 19.8873C29.6202 19.5139 30.1222 18.7408 30.8778 18.1322V16.694C30.878 16.3259 31.143 16.0109 31.5059 15.9488L32.3071 15.812L32.7905 13.667C32.8741 13.296 33.221 13.0446 33.5996 13.0804C33.9604 13.1144 34.4701 13.0605 34.8429 12.848C35.0172 12.7487 35.1498 12.6221 35.2386 12.4602C35.3268 12.2992 35.3969 12.0569 35.3745 11.6865C35.3554 11.3728 35.5328 11.08 35.8194 10.9512C36.085 10.8317 36.5096 10.6563 36.9367 10.5131C37.1501 10.4416 37.3752 10.375 37.5873 10.3271C37.7855 10.2823 38.0284 10.24 38.2567 10.2542C38.507 10.2699 38.7636 10.3182 38.995 10.3753C39.1878 10.0439 39.4774 9.68537 39.8839 9.34958C40.2624 9.03696 40.7803 8.9041 41.2266 8.83967C41.7003 8.77128 42.226 8.76278 42.7248 8.7875C43.2263 8.81237 43.7231 8.87141 44.1462 8.94796C44.355 8.98573 44.5636 9.03139 44.7536 9.0838L46.177 7.96358L46.2902 7.88877C46.5661 7.74239 46.9103 7.78004 47.1495 7.99508C47.4497 8.26518 48.3525 8.87254 49.3388 8.99619C49.806 9.0547 50.4005 8.98587 50.9906 8.85149C51.571 8.71928 52.0862 8.53793 52.3687 8.41836C52.6071 8.31747 52.8803 8.34598 53.0932 8.49317C53.3061 8.64046 53.4294 8.88615 53.419 9.14483C53.4107 9.35237 53.4694 9.57633 53.5618 9.68722C53.5948 9.72684 53.6333 9.75557 53.6996 9.77188C53.7747 9.79034 53.9303 9.80336 54.2026 9.72561C55.4161 9.37923 56.5609 9.82893 57.388 10.3802C58.0249 10.8048 58.5603 11.3464 58.905 11.8145H61.0607L61.1985 11.8263C61.5132 11.8844 61.7641 12.1383 61.8098 12.4651L61.989 13.7478L63.2332 13.9003C63.4636 13.9286 63.6684 14.061 63.7884 14.2596C63.9085 14.4584 63.9308 14.702 63.8485 14.9192L63.7471 15.184L65.0189 15.4744C65.2343 15.5236 65.4173 15.6645 65.52 15.8602C65.6226 16.056 65.6345 16.287 65.5524 16.4922C65.5038 16.6138 65.4343 16.8541 65.4146 17.1133C65.3942 17.3831 65.4354 17.5738 65.4993 17.6803C65.6029 17.8529 65.796 18.0423 66.0397 18.2178C66.277 18.3887 66.5105 18.5103 66.6343 18.5633C66.9122 18.6825 67.093 18.9559 67.093 19.2583C67.093 20.5616 66.989 23.7762 66.5614 26.1893C66.2219 28.105 65.1435 33.1491 64.3653 36.7329C64.5924 36.6495 64.8405 36.5979 65.1016 36.6C65.5447 36.6037 65.9722 36.7662 66.3321 37.1021C66.5184 37.276 66.6338 37.4986 66.7081 37.6809C66.7876 37.876 66.8488 38.0982 66.8981 38.3296C66.9969 38.7934 67.0588 39.3629 67.0831 39.9804C67.1318 41.2165 67.0354 42.7269 66.7425 44.1197C66.4563 45.4812 65.9543 46.868 65.0957 47.7225C64.6484 48.1676 64.0851 48.4863 63.4065 48.5484C63.0548 48.5806 62.6978 48.5391 62.3365 48.4352C62.2209 49.2603 62.0707 50.3115 61.8591 51.3381C61.5746 52.7176 61.1458 54.2425 60.4229 55.2598L59.9139 63.7018C60.4337 64.4246 61.247 65.8288 61.5401 67.3716C63.0555 68.4484 65.3179 70.0284 67.4828 71.4833C69.7931 73.0359 71.933 74.4059 72.9559 74.8991C74.8802 75.8269 80.2123 79.2942 83.599 81.5476C84.6851 82.2703 85.531 83.2928 86.0471 84.4859L89.834 93.241C89.9998 93.6242 89.8235 94.0694 89.4403 94.2352C89.0571 94.4008 88.6128 94.2245 88.447 93.8414L84.6592 85.0864C84.2571 84.157 83.6004 83.365 82.7613 82.8066C79.3282 80.5224 74.105 77.1321 72.2993 76.2615C71.1591 75.7117 68.922 74.2726 66.6392 72.7384C64.9673 71.6148 63.2394 70.418 61.8374 69.4329C62.1313 71.5563 62.4851 74.3119 62.4851 76.0626V83.161C62.485 83.4606 62.3085 83.7323 62.0343 83.853C61.7599 83.9737 61.4392 83.9207 61.2182 83.7181L58.9857 81.6716C58.6808 82.4109 58.255 83.3271 57.768 84.0961C57.5993 84.3625 57.3171 84.6075 57.0484 84.8137C56.7592 85.0357 56.4 85.2762 56.001 85.5264C55.2028 86.0271 54.1904 86.6002 53.1513 87.1871C51.4477 88.1492 49.7044 89.1346 48.5365 89.9561L47.75 90.5585C47.4254 90.8064 46.9623 90.7515 46.7046 90.4345C46.4469 90.1175 46.4881 89.6534 46.7971 89.3862C47.043 89.1737 47.3382 88.9494 47.6693 88.7168L54.8336 83.2387C55.679 80.4483 57.8342 71.9045 58.8951 67.8274L58.4216 66.3173C58.3987 66.2442 58.3872 66.1676 58.3872 66.0909V63.9322C58.3872 63.9171 58.3872 63.902 58.3882 63.8869L58.9266 54.9419C58.9361 54.7847 58.9948 54.6342 59.094 54.5117C59.6557 53.8178 60.0721 52.5146 60.3776 51.0329C60.6784 49.574 60.8358 48.1551 60.983 47.2293L61.0027 47.1378C61.0626 46.9302 61.21 46.7565 61.4082 46.6633C61.6348 46.5569 61.8996 46.5692 62.115 46.6968C62.6236 46.998 62.9991 47.067 63.2687 47.0423C63.5305 47.0183 63.7803 46.8986 64.0296 46.6505C64.5642 46.1183 64.992 45.0978 65.263 43.8086C65.5275 42.5507 65.6164 41.1662 65.5721 40.0404C65.55 39.4771 65.4949 38.9982 65.4195 38.6446C65.3818 38.4675 65.3424 38.3381 65.3073 38.2518C65.2941 38.2193 65.2821 38.1994 65.2758 38.1878C65.2015 38.1259 65.1438 38.1125 65.0888 38.112C65.0082 38.1115 64.881 38.14 64.7108 38.2361C64.3598 38.4343 64.0032 38.8195 63.7963 39.1791C63.6327 39.4631 63.3048 39.6094 62.9842 39.5413C62.6636 39.4732 62.4236 39.2059 62.3896 38.8798C62.2787 37.8135 62.0897 36.1394 61.8847 34.586C61.6755 33.0017 61.4598 31.6286 61.3029 31.1053C61.265 30.9789 61.1435 30.809 60.8284 30.5973C60.5167 30.3879 60.1166 30.2031 59.658 29.9998C59.231 29.8105 58.7262 29.5937 58.3291 29.3413C57.9534 29.1024 57.4569 28.6989 57.3752 28.0458C57.3269 27.659 57.3543 27.1727 57.3998 26.6903C57.4465 26.1961 57.5204 25.6321 57.5888 25.0779C57.7019 24.1624 57.7944 23.2809 57.7798 22.5756C56.4234 22.2496 53.9388 21.6178 52.1669 20.9298C51.3212 20.6014 49.9327 20.1696 48.5907 19.7633C47.4239 19.41 46.2789 19.0694 45.6375 18.8527C44.5198 19.1087 42.2805 19.6368 40.0807 20.0035C38.6844 20.2362 37.0997 20.6786 35.7958 21.1207C35.1456 21.3412 34.575 21.5587 34.141 21.7448C33.9236 21.8381 33.7471 21.9203 33.6154 21.989C33.5655 22.0149 33.528 22.0381 33.4992 22.0549C33.4837 22.0921 33.4633 22.1402 33.4411 22.2016C33.3675 22.4055 33.2764 22.6964 33.1724 23.0639C32.9652 23.7962 32.7176 24.7836 32.4587 25.8743C31.9543 27.9998 31.4149 30.4882 31.0619 32.1802C31.2035 33.1742 31.4606 35.2497 31.4606 36.4986C31.4605 37.2579 31.2832 38.146 31.1505 39.1043C31.0118 40.1059 30.8905 41.3431 30.9556 42.9817C30.9902 43.8533 31.1614 44.7274 31.37 45.6405C31.8131 47.58 32.2736 50.0221 32.6763 52.0439C32.8788 53.0609 33.0664 53.9704 33.2315 54.6692C33.3141 55.0189 33.388 55.3065 33.4539 55.5237C33.5253 55.7589 33.5674 55.8447 33.5691 55.8485C34.0701 56.65 34.9363 58.1109 35.721 59.4277C36.5253 60.7776 37.2131 61.9218 37.3924 62.1652C37.7223 62.6129 37.9103 63.0127 38.4349 63.4735C38.9279 63.9064 39.7294 64.3789 41.1626 64.6724C42.5995 64.9667 44.1358 64.9433 45.4958 64.7364C46.8676 64.5277 47.9917 64.1425 48.6212 63.7648C49.3277 63.3409 49.9178 62.897 50.6185 62.3848C51.3146 61.8759 52.0951 61.3192 53.1395 60.7162C53.501 60.5075 53.9633 60.6314 54.1721 60.9928C54.3808 61.3544 54.2571 61.8167 53.8955 62.0255C52.9211 62.588 52.1914 63.1075 51.5103 63.6054C50.8339 64.0999 50.1793 64.5936 49.3998 65.0613C48.5431 65.5753 47.2087 66.0057 45.7232 66.2317C44.2259 66.4595 42.5051 66.4902 40.8584 66.1529C39.2083 65.8149 38.1561 65.2413 37.4367 64.6094C36.7489 64.0052 36.3651 63.3203 36.1747 63.062C35.9377 62.7401 35.1928 61.4957 34.4216 60.2014C33.6303 58.8734 32.7773 57.4336 32.2875 56.6498C32.1695 56.461 32.0794 56.1984 32.0079 55.9627C31.9288 55.702 31.8456 55.3797 31.7598 55.0167C31.588 54.2894 31.3955 53.3568 31.1928 52.3392C30.785 50.2918 30.3322 47.8891 29.8954 45.9772C29.6829 45.0468 29.485 44.0598 29.4446 43.0418C29.375 41.2898 29.5062 39.96 29.6533 38.8976C29.8063 37.7923 29.9485 37.1191 29.9486 36.4986ZM45.3659 10.5259C45.1405 10.7034 44.8337 10.7381 44.5744 10.6155C44.4924 10.5768 44.2569 10.505 43.8775 10.4363C43.5182 10.3713 43.0863 10.3192 42.65 10.2975C42.2106 10.2758 41.7882 10.286 41.4421 10.3359C41.0693 10.3898 40.8955 10.4748 40.8466 10.5151C40.5737 10.7405 40.4055 10.9607 40.3062 11.1303C40.1991 11.313 40.1845 11.4131 40.1871 11.3902C40.1608 11.6263 40.0253 11.8372 39.8209 11.9582C39.6165 12.0789 39.367 12.097 39.1476 12.0064C38.9739 11.9347 38.5215 11.7857 38.1632 11.7633C38.1636 11.7633 38.1438 11.7635 38.0982 11.7692C38.0523 11.7749 37.9931 11.7854 37.921 11.8017C37.7758 11.8345 37.6023 11.8852 37.417 11.9473C37.2313 12.0096 37.0434 12.0787 36.8737 12.1462C36.8363 12.5312 36.7327 12.8786 36.5646 13.1857C36.3201 13.632 35.9679 13.9479 35.592 14.1622C35.1193 14.4316 34.5947 14.5504 34.1332 14.5874L33.6715 16.6389C33.6041 16.9376 33.3631 17.1661 33.0612 17.2177L32.3898 17.3319V18.5141C32.3898 18.7668 32.2633 19.0029 32.0532 19.1431C31.5481 19.4798 31.1536 19.9727 30.9359 20.3067L31.4202 21.7271C31.4649 21.8583 31.4729 21.9994 31.4429 22.1346C31.3014 22.7711 31.202 23.765 31.1357 24.9194C31.3444 24.0583 31.5428 23.2731 31.7185 22.6524C31.826 22.2725 31.9271 21.9414 32.0187 21.6877C32.0641 21.5621 32.1124 21.4412 32.1624 21.3373C32.1955 21.2688 32.2834 21.0865 32.442 20.9504L32.5503 20.8668C32.6648 20.7853 32.7952 20.7114 32.9165 20.6482C33.0927 20.5564 33.3067 20.4573 33.5455 20.3549C34.0239 20.1498 34.6328 19.9193 35.3105 19.6895C36.6631 19.2307 38.33 18.7625 39.8317 18.5121C42.123 18.1303 44.4586 17.57 45.5115 17.3319L45.6188 17.3151C45.7262 17.3067 45.8348 17.3214 45.9368 17.3585C46.4559 17.5472 47.6723 17.9056 49.0287 18.3163C50.3564 18.7182 51.8041 19.1667 52.7142 19.5201C54.165 20.0835 56.1589 20.6194 57.5377 20.9623L58.6687 21.2349L58.7799 21.2694C59.0308 21.3705 59.2114 21.6006 59.2465 21.8748C59.3723 22.86 59.2254 24.1582 59.089 25.263C59.0181 25.8372 58.9489 26.3672 58.905 26.8331C58.8611 27.298 58.85 27.6332 58.8735 27.842C58.8829 27.8578 58.9339 27.9343 59.1402 28.0655C59.4188 28.2426 59.7973 28.4076 60.2713 28.6177C60.7136 28.8138 61.2338 29.0478 61.672 29.3422C62.1066 29.6343 62.5659 30.0539 62.7509 30.6702C62.9434 31.3118 63.1626 32.7402 63.3602 34.2208C64.0488 31.0174 64.802 27.4491 65.0721 25.9255C65.4343 23.8812 65.5547 21.1731 65.5761 19.715C65.4419 19.6369 65.2983 19.5471 65.1557 19.4443C64.8323 19.2113 64.455 18.8799 64.2019 18.458C63.9092 17.9701 63.8759 17.4167 63.9075 16.9992C63.9133 16.9236 63.9231 16.8494 63.9331 16.7767L62.5649 16.4656C62.3518 16.417 62.1701 16.2782 62.0668 16.0857C61.9635 15.8931 61.9481 15.6649 62.0254 15.4606L62.0924 15.2834L61.2291 15.1781C60.8892 15.1364 60.62 14.8714 60.5725 14.5323L60.4032 13.3265H58.4974C58.2208 13.3265 57.9654 13.1746 57.833 12.9317C57.6758 12.6439 57.1993 12.0715 56.5493 11.6383C55.8997 11.2053 55.2238 11.0063 54.617 11.1795C54.1613 11.3096 53.7309 11.3362 53.3383 11.2396C52.9368 11.1408 52.6247 10.9252 52.4002 10.6558C52.2608 10.4886 52.1608 10.3043 52.0862 10.1194C51.8512 10.1914 51.5947 10.2649 51.3262 10.3261C50.6656 10.4765 49.8723 10.5867 49.1508 10.4964C48.1372 10.3693 47.2378 9.90624 46.6524 9.51102L45.3659 10.5259Z" fill="#232323"/>
<path d="M62.5891 41.5657C62.6865 41.1597 63.0947 40.9093 63.5007 41.0066C63.9066 41.1039 64.1571 41.5121 64.0598 41.9181L63.9426 42.4044C64.3138 42.4524 64.601 42.7693 64.6012 43.1535C64.6012 43.5709 64.2625 43.9092 63.8452 43.9095H63.5814L63.3904 44.7068C63.2928 45.1126 62.8848 45.3623 62.4789 45.265C62.0732 45.1674 61.8234 44.7593 61.9207 44.3534L62.0271 43.9095H62.0241C61.6066 43.9095 61.2681 43.571 61.2681 43.1535C61.2683 42.7361 61.6067 42.3975 62.0241 42.3975H62.3893L62.5891 41.5657Z" fill="#232323"/>
<path d="M33.1505 57.9318C33.1505 57.5143 33.489 57.1758 33.9065 57.1758C34.3239 57.176 34.6625 57.5144 34.6625 57.9318V62.3487C34.6625 62.3567 34.6618 62.3652 34.6615 62.3733L34.5208 66.7843C35.2214 69.051 36.2767 72.8963 39.043 76.4676C40.1357 77.8783 41.9709 80.4572 43.6794 82.9772C45.166 85.1699 46.588 87.365 47.3393 88.7171L47.6189 89.2428L47.6257 89.2566L53.3686 101.364C53.5474 101.742 53.3865 102.192 53.0093 102.371C52.6321 102.55 52.1812 102.389 52.0023 102.012L46.285 89.9584C44.822 87.7932 42.8298 85.6068 40.9842 83.8208C39.3468 82.2365 37.862 81.0023 37.0053 80.3923L28.329 84.003C28.1173 84.0909 27.8766 84.0777 27.6754 83.9675C27.4744 83.8573 27.3343 83.6617 27.2945 83.436C26.9246 81.3375 27.2324 77.6687 27.7049 74.3423C28.1792 71.0041 28.8497 67.8098 29.2859 66.6258C29.2889 66.6176 29.2917 66.6093 29.2947 66.6012C28.1096 67.4878 26.9419 68.3903 26.0069 69.1694C25.165 69.8709 23.8871 70.6502 22.3854 71.4876C20.874 72.3304 19.081 73.2623 17.1899 74.2606C13.3889 76.2671 9.16666 78.5572 5.76323 81.0616C5.67595 81.1259 5.50164 81.3125 5.25037 81.6818C5.01203 82.0321 4.74211 82.4902 4.45204 83.0333C3.8724 84.1188 3.23482 85.5015 2.63587 86.9462C2.03739 88.3899 1.48227 89.883 1.06481 91.1869C0.640916 92.5109 0.379512 93.5785 0.332433 94.1991C0.30088 94.6154 -0.0623763 94.9276 -0.478692 94.8961C-0.895025 94.8645 -1.20718 94.5013 -1.17563 94.0849C-1.11396 93.2714 -0.80121 92.0554 -0.375333 90.7253C0.0570279 89.3749 0.627538 87.8425 1.23904 86.3674C1.85018 84.8933 2.50852 83.4634 3.11821 82.3216C3.42264 81.7516 3.72063 81.2423 4.00021 80.8313C4.26699 80.4392 4.56093 80.0695 4.86745 79.844C8.37366 77.264 12.6908 74.9262 16.4841 72.9238C18.39 71.9177 20.1578 70.9992 21.6491 70.1676C23.15 69.3306 24.3166 68.61 25.0393 68.0078C26.9667 66.4017 29.8344 64.3029 31.8669 62.8576C32.3378 62.3943 32.7893 62.0165 33.1505 61.7472V57.9318ZM32.8493 64.0142C32.7069 64.1567 32.5623 64.3083 32.4181 64.468C31.7193 65.2425 31.0647 66.1701 30.7043 67.1485C30.3294 68.1663 29.6763 71.2171 29.2022 74.5549C28.7996 77.3886 28.5495 80.2867 28.6765 82.2193L36.8025 78.8399L36.8901 78.8094C37.0959 78.7521 37.3181 78.7843 37.5005 78.9009C38.2299 79.3683 39.534 80.4128 41.0206 81.7793C39.7873 80.0078 38.6194 78.3911 37.847 77.3939C34.8338 73.5038 33.7227 69.3054 33.0393 67.1121C33.0142 67.0316 33.0031 66.9473 33.0058 66.863L33.1023 63.837C33.02 63.8953 32.9349 63.9534 32.8493 64.0142Z" fill="#232323"/>
<path d="M39.8953 49.2488C38.6227 49.7496 36.6773 50.5964 35.5478 51.3272C35.3481 51.4564 35.2142 51.6621 35.1585 51.8934L35.11 52.0948C35.0022 52.5428 35.4977 52.8816 35.8787 52.6225C36.0749 52.489 36.2618 52.3637 36.4036 52.2724C36.763 52.0411 38.571 51.5161 39.7198 51.1642C39.8903 51.112 40.0711 51.105 40.2449 51.1449L41.7332 51.4861C41.8745 51.5185 42.0211 51.52 42.1631 51.4906L43.9569 51.1187C44.0677 51.0957 44.1804 51.0899 44.2909 51.1144C45.3763 51.3553 48.2811 52.6645 49.7769 53.5588C49.8977 53.631 50.0416 53.6523 50.1773 53.6153L50.5338 53.518C50.9543 53.4033 51.0361 52.8525 50.6635 52.6262C49.8242 52.1163 48.8227 51.5204 48.3805 51.2256C47.6507 50.7391 46.4404 49.9482 44.5201 49.2366C44.3303 49.1663 44.1229 49.1585 43.9273 49.2102L42.2029 49.6662L40.5145 49.2151C40.3095 49.1603 40.0928 49.171 39.8953 49.2488Z" fill="#232323"/>
</g>
<defs>
<clipPath id="clip0_3265_35671">
<rect width="90.72" height="90.72" rx="24" transform="matrix(-1 0 0 1 90.72 0)" fill="white"/>
</clipPath>
</defs>
</svg>
