<svg viewBox="0 0 90 90" fill="none" xmlns="http://www.w3.org/2000/svg">
<g clip-path="url(#clip0_3440_650)">
<rect width="90" height="90" rx="24" transform="matrix(-1 0 0 1 90 0)" fill="white"/>
<path d="M29.4529 48.7973C29.9915 51.7893 31.7218 55.5294 32.5197 57.0254L31.9705 63.5849L31.3016 69.5019C33.1539 72.4518 39.1224 78.3722 48.1779 78.4545C57.2335 78.5369 61.727 71.6628 62.8418 68.2156L62.07 62.5558L58.9829 61.1152L58.6742 56.433L59.7547 54.1691L61.4526 49.7957C65.26 50.4131 66.5463 44.6505 67.5754 39.3208C68.3986 35.0571 65.4144 35.1289 63.8194 35.6978L63.202 32.4049L56.7704 19.1817L36.0418 18.1438L26.7347 30.216L25.8917 35.1056C25.4084 35.0157 24.2596 34.9438 23.5312 35.3755C22.6208 35.915 22.4183 37.2976 22.587 39.3208C22.7556 41.3441 23.4638 44.6488 25.4533 47.2454C27.045 49.3226 28.7829 49.1455 29.4529 48.7973Z" fill="white"/>
<path d="M66.72 60.838C65.0082 58.0801 61.5291 55.2905 60.0036 54.2405L59.0062 56.2073V61.359L61.7802 62.1515C61.7802 62.1515 62.1433 64.4043 62.5594 65.7714C62.9754 67.1384 63.0349 69.4565 62.9754 71.1802C62.916 72.9039 61.965 73.5577 61.3706 74.687C60.7762 75.8163 57.0317 81.1657 56.3184 82.83C55.7478 84.1614 53.1088 89.4077 51.8606 91.8645L96.8639 93.8711C96.2948 90.3562 95.7793 83.206 94.6545 80.3137C93.2717 76.7579 87.5172 73.8821 84.2706 72.2597L84.1099 72.1793C81.539 70.8939 73.197 67.4928 69.3474 65.953L66.72 60.838Z" fill="#454545"/>
<path d="M27.3129 59.5898C28.2639 58.3535 30.4433 56.0632 31.4141 55.0726L32.1381 56.7621C32.2962 58.1371 32.5176 61.3522 32.1381 63.2131C31.6637 65.5392 30.9921 72.3453 31.4141 74.2837C31.8361 76.2221 33.4299 80.0128 35.6698 83.1574C37.4618 85.673 39.5754 90.6383 40.4082 92.8064L1.89817 91.8645L-6.86377 93.4099C-6.03164 90.0417 -3.96321 82.6635 -2.34651 80.0958C-0.325626 76.8862 3.835 73.7954 5.14263 72.7256C6.45026 71.6557 12.2157 68.4461 14.8904 67.6139C17.0302 66.9482 22.0427 65.2364 24.2815 64.4637L27.3129 59.5898Z" fill="#454545"/>
<path d="M28.0394 31.8271L29.2406 32.3643C29.209 34.1242 29.2406 37.5081 29.2406 38.7012C29.2407 41.018 29.9023 43.5561 30.4105 45.3896C30.6465 46.241 34.0359 50.8072 35.6273 53.0098C36.0067 51.9243 36.8602 49.5824 37.2396 48.8994C37.7138 48.0458 42.2037 46.9709 42.7728 46.7812C43.2282 46.6295 45.8084 47.1391 47.0414 47.4131C48.3273 47.2023 51.0754 46.7812 51.7835 46.7812C52.6692 46.7817 56.5258 49.3739 57.0316 49.7217C57.4363 50.0001 57.9171 51.5239 58.1068 52.251C58.6759 51.0285 59.9467 48.3489 60.4779 47.4131C61.1416 46.243 61.4118 43.4968 61.7279 42.0742C62.044 40.6517 62.2483 36.6391 62.2484 36.1318V32.9502L63.639 33.0596V36C63.2491 37.8651 62.4692 41.8799 62.4691 43.0186C62.4691 44.4413 62.0898 48.1725 61.6156 49.7217C61.1413 51.2708 60.3829 53.1363 60.0667 53.7686C59.8138 54.2745 59.2445 55.3283 58.9915 55.792C58.591 56.4139 57.714 57.7267 57.4105 58.0049C57.0307 58.3532 55.4824 60.2816 55.1664 60.8506C54.8501 61.42 53.3638 64.5174 50.2025 65.4658C47.0409 66.4143 43.2469 65.7194 42.1087 65.2451C40.9706 64.7709 38.1248 62.0519 37.2396 61.4512C36.3542 60.8503 33.8253 58.5736 32.9085 57.1826C31.9918 55.7916 30.8532 53.6106 30.4105 52.0615C30.0564 50.8222 29.483 48.4459 29.2406 47.4131C29.1879 46.475 29.0446 44.3913 28.8929 43.5566C28.7032 42.5133 28.071 39.7938 28.0394 39.1299C28.0261 38.8525 27.7358 37.1827 27.4232 35.4092L26.0785 34.6689L26.7025 31.2529L28.0394 31.8271ZM43.848 50.1006C42.9312 49.9741 41.0026 50.1007 39.8011 50.6064C38.8728 50.9973 38.1255 50.9866 37.7777 52.5674C37.7776 54.1171 37.5567 58.9721 38.9476 60.3125C40.6863 61.988 42.3932 62.2103 44.0687 62.1787C45.7442 62.1471 46.7562 61.5148 48.2103 61.5146C49.6646 61.5146 51.5941 62.4947 52.6058 61.5146C53.6175 60.5346 54.8183 58.6689 55.1029 56.6455C55.3874 54.6222 55.577 51.7141 55.1029 51.3027C54.6287 50.8918 52.9219 50.3852 51.9417 50.3535C51.1577 50.3282 48.2426 50.5116 46.9779 50.6064C46.177 50.48 44.5816 50.2018 43.848 50.1006Z" fill="#454545"/>
<path d="M27.3487 35.5096C26.0136 34.842 23.2099 34.1848 22.6758 36.896C22.0082 40.2851 24.7286 51.2725 29.4215 48.4655" stroke="#232323" stroke-width="1.5" stroke-linecap="round" stroke-linejoin="round"/>
<path d="M63.3348 36.1466C65.2519 35.325 68.4086 34.883 67.5048 39.7715C66.375 45.8822 64.4237 50.247 61.5995 49.7849" stroke="#232323" stroke-width="1.5" stroke-linecap="round" stroke-linejoin="round"/>
<path d="M29.3502 46.8833C29.3648 47.9067 29.7011 50.6728 30.9292 53.5499C32.4643 57.1463 34.3941 58.9884 36.1484 60.4796C37.9028 61.9708 40.008 64.2954 42.1133 65.2164C44.2185 66.1375 48.9115 66.1375 51.1483 65.2164C53.3851 64.2954 54.5254 61.4884 55.6219 60.2603C56.7184 59.0323 58.9552 56.1814 60.0079 53.9885C61.0605 51.7955 61.8061 49.5149 62.0692 47.3657" stroke="#232323" stroke-width="1.5" stroke-linecap="round" stroke-linejoin="round"/>
<path d="M42.1133 44.6024C42.6295 44.3858 43.9242 44.0592 44.9729 44.4857C46.2837 45.0187 46.1297 45.1847 47.2917 45.1847C48.4537 45.1847 48.9485 44.6024 49.712 44.4857C50.3227 44.3923 51.3973 44.5255 51.7718 44.6024" stroke="#232323" stroke-width="1.5" stroke-linecap="round" stroke-linejoin="round"/>
<path d="M31.9967 55.792C32.0784 57.5252 32.2329 61.3164 32.1978 62.6154C32.1627 63.9143 31.8028 67.0915 31.6273 68.5177C31.4433 70.4688 31.2597 74.8168 31.9967 76.5993C32.9181 78.8275 38.7416 87.7403 40.1596 91.3864" stroke="#232323" stroke-width="1.5" stroke-linecap="round" stroke-linejoin="round"/>
<path d="M58.9875 55.8833C58.9262 57.6751 58.8403 61.7299 58.9875 63.615C59.1348 65.5 59.2453 67.174 59.2821 67.7754" stroke="#232323" stroke-width="1.5" stroke-linecap="round" stroke-linejoin="round"/>
<path d="M60.0035 54.2405C61.5291 55.2905 65.0081 58.0801 66.72 60.838C68.4318 63.5959 73.7732 75.2219 76.23 80.6902C75.1403 80.611 72.5924 80.1909 71.1184 79.1448C69.6443 78.0987 69.1173 77.124 69.038 76.7673M69.038 76.7673C67.9285 78.4712 65.6025 81.9146 65.1746 82.0573C64.7466 82.1999 64.0453 82.3148 63.7481 82.3545L64.2236 84.1376C63.1933 85.366 60.9783 87.9059 60.3601 88.2388C59.742 88.5716 57.0911 91.4682 55.8429 92.8749M69.038 76.7673C68.4635 74.5285 67.2549 69.8488 67.0171 69.0404M51.8606 91.8645C53.1088 89.4077 55.7478 84.1614 56.3184 82.83C57.0316 81.1657 60.7762 75.8163 61.3706 74.687C61.9649 73.5577 62.9159 72.9039 62.9754 71.1802C63.0348 69.4565 62.9754 67.1384 62.5593 65.7714C62.1433 64.4043 61.791 60.9609 61.2561 60.01" stroke="#232323" stroke-width="1.5" stroke-linecap="round" stroke-linejoin="round"/>
<path d="M58.9062 61.416C59.5414 61.416 61.17 62.0325 61.8785 62.4737" stroke="#232323" stroke-width="1.5" stroke-linecap="round" stroke-linejoin="round"/>
<path d="M31.414 55.0728C30.4432 56.0634 28.2639 58.3537 27.3128 59.59C26.1241 61.1353 23.9249 64.8205 23.5088 66.1281C23.1759 67.1742 23.3701 77.8571 23.5088 83.0678C24.341 82.8697 26.2668 82.3427 27.3128 81.8196C28.3589 81.2966 28.977 80.3733 29.1553 79.9771M29.1553 79.9771C28.6403 79.1846 27.5507 77.4569 27.3128 76.8863C27.075 76.3157 26.976 75.6976 26.9561 75.4598M29.1553 79.9771L31.414 82.1168V84.7321C32.7811 86.3171 36.0026 90.1766 37.9521 92.9345" stroke="#232323" stroke-width="1.5" stroke-linecap="round" stroke-linejoin="round"/>
<path d="M24.2815 64.4639C22.0427 65.2365 17.0301 66.9483 14.8904 67.614C12.2156 68.4462 6.4502 71.6558 5.14257 72.7257C3.83494 73.7956 -0.325688 76.8863 -2.34657 80.096C-3.96327 82.6637 -6.0317 90.0419 -6.86383 93.41" stroke="#232323" stroke-width="1.5" stroke-linecap="round" stroke-linejoin="round"/>
<path d="M69.3474 65.9531C73.197 67.493 81.5389 70.894 84.1098 72.1794C87.3235 73.7863 93.2485 76.6986 94.6545 80.3139C95.7792 83.2061 96.2947 90.3563 96.8638 93.8712" stroke="#232323" stroke-width="1.5" stroke-linecap="round" stroke-linejoin="round"/>
<path d="M28.7141 32.0759C27.5406 31.546 27.3418 30.3093 27.3892 29.7572C28.7614 27.5017 32.6228 22.4889 37.0898 20.4826C42.6735 17.9746 44.2824 18.4478 49.0617 18.5424C53.841 18.637 58.1471 21.9495 60.6077 24.3628C62.5762 26.2934 63.4154 30.5932 63.5889 32.5018C63.2419 32.7857 62.3775 33.2873 61.6961 33.0223C60.8443 32.691 60.4658 29.7572 59.9453 28.7162C59.4247 27.6752 57.248 23.9369 52.4687 21.9495C47.6894 19.962 43.7619 20.5772 39.8343 21.9495C35.9068 23.3217 32.8783 27.7698 32.3105 28.7162C31.7426 29.6626 30.181 32.7384 28.7141 32.0759Z" fill="#454545"/>
<path d="M26.0844 39.9666L26.7463 42.7187M25.5967 41.3601H27.0225" stroke="#232323" stroke-width="1.5" stroke-linecap="round" stroke-linejoin="round"/>
<path d="M64.473 40.7827L63.8255 43.4752M64.9501 42.146H63.627" stroke="#232323" stroke-width="1.5" stroke-linecap="round" stroke-linejoin="round"/>
<path d="M28.0877 21.1369C27.2315 22.4925 27.5883 23.0633 27.3028 24.9897C27.1281 26.1688 26.6638 29.846 26.3062 32.7227C26.4973 31.1787 28.5723 27.9717 29.586 26.5612C30.0227 26.0102 30.4791 25.4863 30.9536 24.9897C34.8232 20.9395 39.8943 18.7034 45.2871 18.3538C51.3411 17.9614 57.6196 20.9603 59.8559 23.4806C60.6255 24.3479 61.2388 25.4218 61.7386 26.5612C62.748 28.8622 63.2942 31.43 63.7285 33.1002C63.5963 31.4613 63.476 29.5333 63.476 28.0576V20.2807C63.476 19.0412 62.8168 17.4599 61.8872 15.9407C60.5694 13.7872 58.7083 11.7586 57.4114 11.0056C55.1997 9.72133 51.4183 9.0079 49.1352 8.15178C46.852 7.29566 44.3549 7.36696 41.715 8.15178C39.0752 8.9366 37.9336 9.00787 35.7932 9.79269C33.6528 10.5775 30.2281 13.2888 29.586 15.2865C28.9439 17.2842 28.9439 19.7813 28.0877 21.1369Z" fill="#454545" stroke="#232323" stroke-width="1.5" stroke-linecap="round" stroke-linejoin="round"/>
<path d="M26.0187 35.0497C26.0969 34.413 26.1965 33.6056 26.3063 32.7227M29.586 15.2865C28.9439 17.2842 28.9439 19.7813 28.0877 21.1369C27.2316 22.4925 27.5883 23.0633 27.3029 24.9897C27.1281 26.1688 26.6638 29.846 26.3063 32.7227M29.586 15.2865C30.2281 13.2888 33.6528 10.5775 35.7932 9.79269C37.9337 9.00787 39.0752 8.9366 41.7151 8.15178C44.3549 7.36696 46.8521 7.29566 49.1352 8.15178C51.4183 9.0079 55.1997 9.72133 57.4115 11.0056C58.7084 11.7586 60.5695 13.7872 61.8872 15.9407M29.586 15.2865C29.7522 16.2177 30.0662 18.3003 29.9927 19.1805C29.9008 20.2807 29.9016 21.2964 29.9016 21.8478C29.9016 22.2888 30.4978 24.1253 30.9537 24.9897M63.9754 35.7631C63.9091 35.1467 63.8162 34.187 63.7286 33.1002M63.7286 33.1002C63.5964 31.4613 63.476 29.5333 63.476 28.0576C63.476 24.9897 63.476 23.2773 63.476 20.2807C63.476 19.0412 62.8168 17.4599 61.8872 15.9407M63.7286 33.1002C63.2943 31.43 62.748 28.8622 61.7387 26.5612M26.3063 32.7227C26.4973 31.1787 28.5724 27.9717 29.586 26.5612C30.0228 26.0102 30.4792 25.4863 30.9537 24.9897M30.9537 24.9897C34.8232 20.9395 39.8943 18.7034 45.2871 18.3538C51.3411 17.9614 57.6197 20.9603 59.856 23.4806C60.6255 24.3479 61.2389 25.4218 61.7387 26.5612M61.8872 15.9407C62.1259 17.0513 62.5316 19.5296 62.2452 20.5588C61.8872 21.8452 61.5901 24.156 61.7387 26.5612" stroke="#232323" stroke-width="1.5" stroke-linecap="round" stroke-linejoin="round"/>
<ellipse cx="54.193" cy="35.3871" rx="1.49054" ry="1.83563" fill="#232323"/>
<ellipse cx="38.053" cy="34.9203" rx="1.49054" ry="1.83563" fill="#232323"/>
<path d="M27.5029 29.6885C27.3955 30.1376 27.2572 31.4698 28.5005 32.2139C29.8832 33.0414 31.7812 29.6068 34.0367 26.6483C36.2922 23.6898 40.2173 20.9363 46.3979 20.8192C52.5786 20.702 56.3551 24.3286 58.5227 26.6483C60.588 28.8586 60.8503 31.549 61.3483 32.5449C61.8462 33.5408 63.1531 33.034 63.5924 32.0087" stroke="#232323" stroke-width="1.5" stroke-linecap="round" stroke-linejoin="round"/>
<path d="M45.9353 56.9932C44.9265 56.9031 43.8899 56.658 43.1751 56.452C42.8381 56.3549 42.4892 56.6037 42.4892 56.9544C42.4892 57.135 42.5853 57.3005 42.7353 57.4011C43.7663 58.0932 45.4689 59.6884 45.9353 60.1548C46.4411 60.6607 47.6426 60.6923 47.9904 60.1548C48.2558 59.7445 49.9436 58.1883 50.8667 57.36C50.9492 57.2859 51.0032 57.1862 51.0204 57.0766C51.0781 56.7071 50.7047 56.4037 50.3446 56.5046C49.1309 56.8447 47.3432 57.1189 45.9353 56.9932Z" fill="#454545"/>
<path d="M38.5056 51.9979C38.8639 52.0612 39.707 52.1497 40.2129 51.9979C40.8451 51.8082 41.6988 51.4604 42.8053 51.3656C43.9119 51.2707 46.0302 51.587 46.8522 51.9979C47.6004 51.7871 49.2613 51.3656 49.9189 51.3656C50.7409 51.3656 51.7843 51.6185 52.1637 51.6817C52.5431 51.7449 53.4547 51.8417 54.4666 51.6817" stroke="#FED1D0" stroke-linecap="round" stroke-linejoin="round"/>
<path d="M43.6334 53.7239C42.2168 53.4024 40.5332 52.5582 39.8685 52.1763H39.0355C39.0355 52.3675 39.348 52.9811 40.598 53.9061C42.1605 55.0624 44.1605 55.8749 46.598 56.1249C49.0355 56.3749 51.0714 54.901 51.9143 54.2785C52.7342 53.6729 53.7647 52.5235 54.1605 51.9233H53.3952C52.6611 52.4442 50.8803 53.5334 49.6304 53.7239C48.0679 53.9619 45.4042 54.1257 43.6334 53.7239Z" fill="#FED1D0"/>
<path opacity="0.4" d="M33.5571 30.8167C32.3576 31.4164 31.0269 31.4415 30.5114 31.3791C31.4486 30.0359 33.5102 27.1526 34.2599 26.3654C35.197 25.3814 38.5706 21.4924 44.6619 20.8833C50.7531 20.2742 54.0799 22.4296 57.5941 25.6626C60.4054 28.249 61.1707 31.1448 61.202 32.2693C58.6249 31.7539 56.657 29.3174 54.0799 26.9746C51.5028 24.6319 47.395 23.4944 43.2094 24.7255C40.0232 25.6627 35.0565 30.0671 33.5571 30.8167Z" fill="#232323"/>
<path d="M53.3302 29.6922C52.9261 29.8269 51.6097 30.3498 50.814 30.6699C50.6587 30.7324 50.5456 30.8686 50.5119 31.0326L50.3141 31.9969C50.2505 32.3069 50.486 32.5931 50.8023 32.5794C52.272 32.5154 55.2032 32.3173 56.5633 32.5974C57.5659 32.8038 58.8026 33.6295 59.68 34.2918C59.9731 34.513 60.4018 34.367 60.4877 34.01L60.5937 33.5697C60.6271 33.4309 60.5998 33.285 60.5206 33.1661C59.9996 32.3842 59.1358 30.9772 58.2032 30.77C56.9381 30.4889 53.8925 29.5049 53.3302 29.6922Z" fill="#232323"/>
<path d="M40.1169 29.1302C40.6658 29.2593 42.1581 29.8845 43.1202 30.3049C43.3571 30.4085 43.4733 30.6764 43.3898 30.9211L43.0158 32.0164C42.9379 32.2445 42.7087 32.3845 42.47 32.3509C40.2186 32.0342 36.1365 31.5661 35.0096 31.8478C34.1099 32.0727 33.2243 32.6631 32.6532 33.1288C32.4087 33.3282 32.035 33.2896 31.8599 33.0271L31.6281 32.6794C31.5189 32.5155 31.5152 32.3026 31.6254 32.1393C32.023 31.5499 32.6866 30.6814 33.1354 30.4891C33.7913 30.208 39.3203 28.9428 40.1169 29.1302Z" fill="#232323"/>
<path d="M40.5011 77.3051C36.7244 75.3468 32.9826 71.3021 31.5838 69.5245C31.4516 70.4445 31.2664 72.6948 31.5838 74.3354C31.9806 76.3863 32.3776 76.9817 33.3699 79.0325C34.1638 80.6731 38.8608 89.066 41.1101 93.0574L51.6288 93.3882C52.6652 90.9845 54.9101 85.7671 55.5981 84.1264C56.4581 82.0756 59.6336 77.1801 60.3613 76.1216C60.9434 75.2749 62.284 72.9021 62.8815 71.8215V67.4263C59.7343 79.753 45.222 79.753 40.5011 77.3051Z" fill="#232323"/>
<path d="M31.5839 69.5245C32.9826 71.3021 36.7244 75.3468 40.5011 77.3051C45.222 79.753 59.7343 79.753 62.8816 67.4263" stroke="#232323" stroke-width="1.5" stroke-linecap="round" stroke-linejoin="round"/>
<path opacity="0.5" d="M37.5997 39.5103C38.4969 40.1203 38.5622 41.5885 37.7456 42.7898C36.929 43.991 35.3373 44.5359 34.3936 44.0015C33.0961 43.2666 33.0141 41.8795 33.8308 40.6782C34.6474 39.477 36.7025 38.9004 37.5997 39.5103Z" fill="#FED1D0"/>
<path opacity="0.5" d="M55.7113 39.5402C54.7422 40.0277 54.4856 41.4749 55.1383 42.7725C55.7911 44.0701 57.298 44.8182 58.3033 44.4116C59.6858 43.8525 59.9482 42.488 59.2954 41.1904C58.6427 39.8927 56.6805 39.0527 55.7113 39.5402Z" fill="#FED1D0"/>
<path opacity="0.23" d="M39.2884 69.6312L52.1511 65.064C50.0073 65.3747 45.4588 65.9774 44.4149 65.9028C43.1099 65.8096 41.9915 65.064 40.0341 63.6658C38.4682 62.5472 33.9756 58.7257 31.925 56.9548V64.4115V69.6312L36.1194 74.0119L39.2884 69.6312Z" fill="#232323"/>
</g>
<defs>
<clipPath id="clip0_3440_650">
<rect width="90" height="90" rx="24" transform="matrix(-1 0 0 1 90 0)" fill="white"/>
</clipPath>
</defs>
</svg>
