<svg viewBox="0 0 91 91" fill="none" xmlns="http://www.w3.org/2000/svg">
<g clip-path="url(#clip0_3265_35557)">
<rect width="90.72" height="90.72" rx="24" fill="white"/>
<path d="M23.9638 47.614C25.8875 51.9317 29.2541 52.2631 30.6969 51.889L32.5672 55.3624L34.4376 64.6605L33.1016 65.4621C32.7097 66.9939 32.1611 70.6669 33.1016 73.1036C34.2772 76.1496 35.6132 77.8596 40.9035 82.6689C45.1357 86.5164 51.8225 87.3002 54.6369 87.2111C55.4207 86.8549 57.7042 84.9454 60.5685 80.1574C63.4327 75.3694 62.1894 69.363 61.2097 66.9583L59.7135 65.8361L58.5913 60.7061C59.4641 60.4211 61.4341 59.445 62.3319 57.8205C63.4541 55.7899 63.1869 50.6599 63.2403 48.6827C63.2938 46.7055 63.2403 40.1862 62.8663 38.6899C62.4922 37.1937 61.5303 35.3768 61.2097 34.2012C60.9532 33.2607 60.8535 30.4962 60.8356 29.2315L59.7135 26.7733L59.0188 23.2465L58.0035 19.8799L55.385 18.8112L49.9344 15.498L38.6057 16.9943L28.4526 22.6587L25.6204 40.8274C22.5744 40.8809 21.5591 42.2168 23.9638 47.614Z" fill="white"/>
<path d="M24.08 68.4524C26.4874 67.6863 31.5943 65.3592 34.0337 64.2649C33.3895 65.2042 32.2188 67.8766 32.6894 71.0513C33.2775 75.0197 39.159 81.7414 42.772 83.842C45.6623 85.5224 52.0424 86.6147 54.8711 86.9508C56.4956 85.4664 60.0973 81.4894 61.5089 77.4563C63.2733 72.415 61.4561 67.217 59.508 64.6907C62.1069 66.1498 67.8246 69.3825 69.9038 70.6409C72.5028 72.214 84.8137 78.985 86.3867 80.6264C87.6452 81.9396 88.9629 92.1166 89.4644 97.0409L-5.94489 94.3052C-2.43401 89.1529 5.01179 78.2327 6.70795 75.7705C8.40412 73.3083 11.4271 71.5985 12.7266 71.0513C13.9577 70.7777 21.0706 69.4099 24.08 68.4524Z" fill="#232323"/>
<path d="M58.8503 64.3229C59.0547 63.9588 59.5159 63.8291 59.88 64.0335C62.4747 65.4902 68.2042 68.7294 70.2966 69.9958C71.5921 70.7799 75.2873 72.8468 78.9119 74.9561C80.7136 76.0046 82.4903 77.0593 83.9174 77.9565C84.6304 78.4047 85.2621 78.8176 85.769 79.1732C86.2615 79.5186 86.6815 79.8414 86.9345 80.1054C87.2046 80.3873 87.406 80.8152 87.5675 81.2394C87.7394 81.6909 87.9049 82.2466 88.0626 82.8685C88.3786 84.1144 88.6813 85.6878 88.9574 87.3582C89.5101 90.7021 89.9666 94.4936 90.2184 96.9657C90.2607 97.381 89.9583 97.7521 89.5431 97.7946C89.1277 97.8369 88.7566 97.5347 88.7143 97.1193C88.4645 94.6672 88.0112 90.908 87.4651 87.6043C87.1918 85.951 86.8975 84.426 86.5969 83.2406C86.4463 82.647 86.2979 82.1534 86.1549 81.7778C86.0019 81.3761 85.8874 81.1985 85.8428 81.1518C85.7026 81.0054 85.3928 80.7567 84.9008 80.4115C84.4233 80.0765 83.815 79.679 83.1122 79.2371C81.7073 78.3539 79.9484 77.3094 78.1509 76.2633C74.5772 74.1836 70.8175 72.0782 69.514 71.2893C67.4478 70.0387 61.7428 66.8129 59.1397 65.3515C58.7757 65.1472 58.6462 64.6869 58.8503 64.3229ZM33.7261 63.5767C34.107 63.406 34.5544 63.5768 34.7252 63.9577C34.8958 64.3385 34.7259 64.7859 34.3453 64.9568C31.9349 66.0381 26.7711 68.392 24.3105 69.1749C21.3123 70.1288 14.3167 71.4822 12.9597 71.7766C11.6918 72.3244 8.88608 73.9455 7.33204 76.2013C5.63711 78.6617 -1.80659 89.5798 -5.31817 94.7332C-5.55321 95.078 -6.02353 95.1668 -6.36849 94.932C-6.7134 94.697 -6.80311 94.2267 -6.56832 93.8817C-3.05841 88.7308 4.38867 77.809 6.0868 75.3439C7.89925 72.713 11.0723 70.9299 12.435 70.3561L12.564 70.3148C13.8535 70.0282 20.8859 68.6777 23.8528 67.7337C26.2073 66.9845 31.2578 64.684 33.7261 63.5767Z" fill="#232323"/>
<path opacity="0.5" d="M47.3974 44.9228C46.7449 46.1751 44.6758 46.468 42.7758 45.5772C40.8759 44.6863 39.8646 42.9489 40.5171 41.6966C41.1695 40.4443 42.9422 39.3 44.8421 40.1909C46.7421 41.0817 48.0498 43.6705 47.3974 44.9228Z" fill="#FED1D0"/>
<path d="M39.5309 35.3721C39.9432 35.3071 40.33 35.5889 40.3952 36.0011C40.4603 36.4135 40.1786 36.8013 39.7662 36.8664C38.2177 37.1109 35.6392 37.5476 33.2555 38.0211C32.0633 38.2579 30.927 38.5032 29.9953 38.7357C29.0382 38.9746 28.3689 39.1833 28.061 39.3372C26.6317 40.0518 25.9831 40.9475 25.4268 41.5038C25.1316 41.7987 24.653 41.7987 24.3578 41.5038C24.0625 41.2085 24.0625 40.729 24.3578 40.4338C24.7838 40.0076 25.6713 38.8424 27.3847 37.9856C27.8627 37.7466 28.6891 37.5026 29.6291 37.268C30.5945 37.0271 31.7577 36.7776 32.9612 36.5386C35.3698 36.0602 37.969 35.6187 39.5309 35.3721Z" fill="#232323"/>
<path d="M25.8328 40.1827C26.7858 40.1879 27.6653 40.3614 28.2052 40.5282C28.604 40.6516 28.8275 41.0754 28.7042 41.4742C28.5809 41.8731 28.1571 42.0966 27.7582 41.9733C27.3488 41.8468 26.6176 41.699 25.8249 41.6947C25.0233 41.6904 24.2494 41.8331 23.677 42.1987C23.5891 42.2551 23.3892 42.5217 23.4378 43.3455C23.4824 44.0995 23.7287 45.0712 24.1348 46.091C24.5383 47.1043 25.0841 48.1248 25.697 48.9762C26.3186 49.8396 26.9678 50.4712 27.5574 50.7815C29.5162 51.8124 31.3104 50.8178 31.9576 50.185C32.2561 49.8932 32.7348 49.8993 33.0266 50.1978C33.3184 50.4963 33.3133 50.9749 33.0148 51.2668C32.1085 52.1528 29.6156 53.5734 26.8526 52.1193C25.9669 51.6529 25.1534 50.8092 24.4695 49.8591C23.7768 48.8969 23.1733 47.7658 22.7291 46.6501C22.2873 45.5405 21.9861 44.4043 21.9288 43.4351C21.8757 42.5367 22.0189 41.4632 22.863 40.924C23.7816 40.3371 24.8889 40.1776 25.8328 40.1827Z" fill="#232323"/>
<path d="M27.0345 44.3453C27.3758 44.105 27.8473 44.1872 28.0878 44.5284L28.6607 45.3415L29.1824 45.1544C29.5754 45.0135 30.0081 45.2183 30.1491 45.6112C30.29 46.0041 30.0861 46.4367 29.6933 46.5779L29.5644 46.6231L29.8479 47.0257C30.0883 47.367 30.0069 47.8385 29.6657 48.079C29.3245 48.3195 28.853 48.2381 28.6125 47.8969L28.0878 47.1527L27.6232 47.3201C27.2302 47.4609 26.7975 47.2572 26.6565 46.8643C26.5155 46.4713 26.7203 46.0387 27.1133 45.8977L27.1851 45.8711L26.8514 45.3986C26.6113 45.0573 26.6934 44.5857 27.0345 44.3453Z" fill="#232323"/>
<path d="M30.316 51.304C30.6837 51.1064 31.143 51.2445 31.3407 51.6121L33.2041 55.0821L33.2563 55.2031C33.6977 56.5449 34.3033 58.7482 34.6945 61.0277C35.0803 63.2755 35.2813 65.7231 34.8234 67.4862C34.7185 67.8903 34.3052 68.1325 33.9011 68.0276C33.4973 67.9224 33.2548 67.5101 33.3597 67.1062C33.7301 65.6799 33.5864 63.5108 33.2041 61.2836C32.8332 59.1222 32.2588 57.0241 31.8388 55.7367L30.0079 52.3288C29.8103 51.961 29.9483 51.5017 30.316 51.304Z" fill="#232323"/>
<path d="M44.8725 30.3206C46.4728 30.0952 48.2033 30.2575 49.4469 30.8945C52.0491 32.2273 52.858 35.8137 51.2414 38.9713C50.4 40.6146 49.2502 41.7425 47.8148 42.2591C46.3845 42.7737 44.7885 42.6396 43.1331 41.9933C41.3496 41.2969 40.3299 39.894 39.7715 38.6533C39.4913 38.0308 39.3201 37.433 39.2212 36.9533C39.1374 36.5464 39.0969 36.167 39.108 35.9148H39.107C39.107 35.5222 39.2639 34.9002 39.4988 34.2945C39.7427 33.6657 40.1154 32.9371 40.624 32.3454C41.624 31.1822 43.2775 30.5452 44.8725 30.3206ZM48.7578 32.2401C47.8787 31.7898 46.4888 31.6199 45.0832 31.8178C43.6724 32.0165 42.4341 32.5588 41.7698 33.3318C41.4103 33.7502 41.1155 34.3096 40.9094 34.8408C40.6943 35.3953 40.619 35.8068 40.619 35.9148C40.619 35.9408 40.6168 35.9667 40.6141 35.9925C40.6155 35.9796 40.6123 36.0317 40.6259 36.1678C40.6383 36.2909 40.6618 36.4546 40.7017 36.6481C40.7817 37.0361 40.9225 37.5253 41.1506 38.0322C41.6089 39.0504 42.3893 40.0794 43.6834 40.5846C45.1053 41.1398 46.3115 41.1933 47.3029 40.8366C48.2895 40.4816 49.1814 39.6774 49.8958 38.2822C51.2525 35.632 50.4011 33.0818 48.7578 32.2401Z" fill="#232323"/>
<path d="M60.5752 28.2934C59.2334 28.2085 57.7102 28.448 56.6839 29.2476C55.6858 30.0254 55.0913 31.365 54.9054 32.7939C54.7171 34.2418 54.931 35.8886 55.6676 37.3885C55.8516 37.7632 56.3044 37.918 56.6791 37.7341C57.0538 37.5501 57.2085 37.0973 57.0247 36.7226C56.4269 35.5056 56.2525 34.1603 56.4048 32.989C56.5596 31.799 57.0345 30.8915 57.6136 30.4403C58.2241 29.9647 59.3117 29.7281 60.4801 29.8021C61.6594 29.8768 62.6392 30.2492 63.0658 30.6852C63.6196 31.2514 63.9039 31.7403 64.0575 32.1188C64.2104 32.4958 64.2464 32.7928 64.2704 33.0198C64.2727 33.0413 64.2761 33.0629 64.2802 33.0841C64.2801 33.0836 64.2891 33.1488 64.2928 33.2976C64.2962 33.4337 64.294 33.6137 64.2822 33.8253C64.2585 34.2492 64.1966 34.7847 64.0653 35.3429C63.7949 36.4922 63.2723 37.5786 62.3718 38.1289C61.6299 38.5821 60.9038 38.9052 60.2462 38.9878C59.6263 39.0655 59.0676 38.9329 58.5556 38.4447C58.2534 38.1565 57.7745 38.1683 57.4863 38.4704C57.1985 38.7726 57.2101 39.2507 57.512 39.5387C58.3955 40.3812 59.4259 40.6148 60.4343 40.4883C61.4047 40.3665 62.3469 39.9159 63.1594 39.4197C64.579 38.5525 65.2346 36.9752 65.5371 35.6893C65.6922 35.0302 65.765 34.4051 65.7927 33.9093C65.8167 33.4797 65.8072 33.0951 65.7731 32.8612L65.7741 32.8611C65.745 32.5862 65.691 32.1234 65.4585 31.5502C65.2263 30.978 64.8292 30.3254 64.1469 29.6278C63.337 28.7999 61.9061 28.3776 60.5752 28.2934Z" fill="#232323"/>
<path d="M66.0285 31.9676C66.446 31.9676 66.7845 32.306 66.7845 32.7236C66.7843 33.1409 66.4459 33.4796 66.0285 33.4796H64.862L61.0535 34.585C60.8252 34.6511 60.579 34.6066 60.389 34.4639C60.199 34.3212 60.0869 34.0972 60.0868 33.8595V29.419L58.9479 27.5024C58.8766 27.3823 58.8394 27.2444 58.8416 27.1047C58.8455 26.8369 58.7799 26.1443 58.6693 25.3575C58.5624 24.5968 58.426 23.8404 58.309 23.4133L57.2597 20.8087C57.1036 20.4214 57.2908 19.9814 57.678 19.8253C58.0653 19.6692 58.5053 19.8564 58.6614 20.2436L59.7305 22.8965L59.757 22.9733C59.9055 23.4997 60.056 24.3603 60.1665 25.1468C60.2576 25.7948 60.3281 26.4604 60.3467 26.8961L61.4935 28.8264C61.5627 28.9432 61.5988 29.0765 61.5988 29.2123V32.8515L64.546 31.9971L64.6504 31.9744C64.6855 31.9695 64.7211 31.9676 64.7567 31.9676H66.0285Z" fill="#232323"/>
<path d="M53.4426 32.0999C53.8981 32.0219 54.4028 32.0635 54.808 32.1264C55.2246 32.1912 55.605 32.2903 55.8406 32.3656C56.2382 32.4929 56.4579 32.9179 56.3308 33.3156C56.2035 33.7132 55.7775 33.9321 55.3799 33.8048C55.2154 33.7522 54.9118 33.6728 54.5766 33.6207C54.2298 33.5669 53.9141 33.5531 53.6976 33.5902C53.4837 33.6269 53.0954 33.7829 52.6345 34.0145C52.1979 34.2338 51.7742 34.4802 51.5231 34.6376C51.1694 34.8593 50.7025 34.753 50.4806 34.3994C50.2589 34.0456 50.3662 33.5787 50.7199 33.3569C51.0049 33.1783 51.4698 32.9068 51.9552 32.6629C52.4163 32.4313 52.9843 32.1784 53.4426 32.0999Z" fill="#232323"/>
<path d="M53.6529 33.9729C53.9797 33.7131 54.4552 33.7673 54.7151 34.094C55.7881 35.4432 57.9294 37.8309 58.7087 38.5916C59.4772 39.342 60.2714 40.8684 59.822 42.473C59.3545 44.1423 57.6619 45.5117 54.2672 46.1713C53.8576 46.2506 53.461 45.9833 53.3812 45.5738C53.3016 45.1639 53.5699 44.7665 53.9797 44.6869C57.1542 44.0699 58.1284 42.914 58.3661 42.0655C58.6218 41.1524 58.1599 40.1688 57.6525 39.6735C56.8186 38.8594 54.6352 36.4224 53.5319 35.0351C53.272 34.7083 53.3262 34.2328 53.6529 33.9729Z" fill="#232323"/>
<path d="M40.7145 32.4273C40.9486 32.2936 41.7623 31.8913 42.222 31.7242C42.5842 31.3202 44.0955 30.7948 44.9493 30.6571C47.0222 30.3227 49.0432 31.3202 49.7954 31.7242L50.133 30.2607C50.182 30.0484 50.0903 29.8272 49.8971 29.7266C47.6311 28.5465 43.8729 28.3533 42.3581 29.1107C41.1751 29.7023 39.5505 31.4813 38.5788 32.6681C38.4583 32.8154 38.459 33.0263 38.5779 33.1748C38.7344 33.3705 39.0442 33.3946 39.2543 33.258C39.7559 32.9319 40.5397 32.5272 40.7145 32.4273Z" fill="#232323"/>
<path d="M55.6411 29.3744C55.6204 29.6638 55.9768 30.7092 56.2093 31.0279C57.4487 29.8827 58.0301 29.8347 58.777 29.8347C59.4281 29.8347 59.8845 30.2577 60.1941 30.7108C60.4596 31.0994 61.0274 31.1261 61.2376 30.7049C61.2864 30.6071 61.3064 30.4969 61.2912 30.3886C61.0225 28.4757 60.0282 27.3736 59.5008 27.4489C58.9582 27.5264 55.667 29.0127 55.6411 29.3744Z" fill="#232323"/>
<path opacity="0.2" d="M38.9814 59.1091C38.0042 57.9792 36.2589 54.8172 35.3178 52.921C35.1977 52.679 34.9521 52.5247 34.6819 52.5247C34.1858 52.5247 33.8457 53.0243 34.0276 53.4858L38.3535 64.4615C38.5212 64.887 38.7601 65.2809 39.06 65.6263L48.2719 76.2371C48.5754 76.5867 49.1501 76.3765 49.1565 75.9136L49.2434 69.5669C49.2522 68.9206 49.468 68.2942 49.8589 67.7794L54.7522 61.3362C53.4956 61.2406 50.4881 60.6514 48.8163 60.5858C46.7265 60.5039 45.0869 60.8711 43.7347 60.8301C42.3825 60.7891 40.2927 60.6252 38.9814 59.1091Z" fill="#232323"/>
<path d="M62.4441 49.7159C62.4441 48.8884 62.5314 47.2425 62.5731 45.5934C62.6159 43.8964 62.6133 42.1591 62.452 40.9973C62.1941 39.1407 61.4051 37.2679 60.9754 36.4515C60.781 36.082 60.9229 35.6242 61.2924 35.4297C61.6617 35.2356 62.1187 35.3775 62.3132 35.7467C62.7955 36.663 63.66 38.7071 63.9492 40.7896C64.1298 42.09 64.1267 43.9434 64.0841 45.6318C64.0402 47.3677 63.9561 48.9019 63.9561 49.7159C63.9561 50.501 64.0077 52.0881 63.9384 53.6652C63.9035 54.4591 63.8381 55.2741 63.7159 56.014C63.5958 56.7415 63.4119 57.4542 63.1135 58.0083C62.6164 58.9314 62.0911 59.7311 61.2235 60.3767C60.365 61.0155 59.237 61.4556 57.6157 61.808C55.9174 62.1771 54.1512 62.0543 52.3356 61.9153C50.4933 61.7742 48.548 61.6096 46.3437 61.8218C45.9281 61.8618 45.5588 61.5572 45.5188 61.1416C45.479 60.7262 45.7827 60.3568 46.198 60.3167C48.553 60.0899 50.6273 60.2676 52.4507 60.4072C54.3008 60.5489 55.8472 60.6452 57.2948 60.3304C58.8191 59.9991 59.7089 59.6192 60.3208 59.164C60.9236 58.7154 61.3222 58.1466 61.7826 57.2917C61.963 56.9567 62.1129 56.438 62.2236 55.7679C62.3322 55.1101 62.3949 54.3603 62.4284 53.5983C62.4958 52.0636 62.4441 50.5723 62.4441 49.7159Z" fill="#232323"/>
<path d="M58.366 60.2688C58.7704 60.1655 59.1819 60.4097 59.2854 60.8141C59.5373 61.7988 60.1382 64.2375 60.5247 66.115C60.7282 67.1034 60.8466 68.5214 60.9155 69.6587C60.9503 70.2344 60.9733 70.751 60.9873 71.1235C60.9943 71.3096 60.999 71.4602 61.0021 71.5645C61.0037 71.6167 61.0053 71.6578 61.006 71.6856C61.0064 71.6992 61.0069 71.7098 61.007 71.7171V71.7289L61.0051 71.8067C60.9751 72.1885 60.6599 72.4934 60.2688 72.5026C59.8514 72.5123 59.5049 72.1816 59.495 71.7643V71.7545C59.4949 71.748 59.4944 71.7378 59.494 71.7249C59.4934 71.6988 59.4926 71.6599 59.4911 71.6098C59.4881 71.509 59.4832 71.3625 59.4763 71.1806C59.4626 70.8165 59.4404 70.3118 59.4064 69.7503C59.3376 68.6133 59.2227 67.292 59.0432 66.4202C58.6638 64.5772 58.0703 62.1643 57.8206 61.1882C57.7173 60.7838 57.9616 60.3722 58.366 60.2688Z" fill="#232323"/>
<path d="M58.9685 64.5871C59.2163 64.2512 59.6897 64.18 60.0257 64.4276C61.5772 65.571 62.3856 67.8163 62.7426 70.0277C63.1067 72.2834 63.0398 74.7402 62.6412 76.5521C62.2336 78.4046 60.8514 81.0479 59.3534 83.2213C58.5973 84.3182 57.7869 85.331 57.0195 86.0917C56.6361 86.4717 56.2496 86.8034 55.8727 87.0515C55.5068 87.2923 55.0914 87.4945 54.6599 87.5378C53.5397 87.6498 51.144 87.5893 48.3757 86.9038C45.6004 86.2166 42.3951 84.8871 39.7102 82.417C37.1069 80.022 35.074 77.6101 33.7045 75.3837C32.3468 73.1763 31.5916 71.0706 31.6698 69.3111C31.7892 66.6276 33.0928 65.3336 34.0678 65.0605C34.4697 64.9481 34.8863 65.1824 34.999 65.5842C35.1116 65.9863 34.8773 66.4038 34.4753 66.5164C34.3104 66.5626 33.2795 67.1375 33.1799 69.378C33.1213 70.6962 33.6996 72.4898 34.9921 74.5913C36.2728 76.6735 38.207 78.9808 40.733 81.3047C43.1776 83.5537 46.1282 84.7897 48.7389 85.4361C51.3563 86.0842 53.5777 86.1258 54.5093 86.0327C54.5906 86.0244 54.7649 85.9701 55.0409 85.7885C55.3065 85.6137 55.6152 85.3549 55.9553 85.0178C56.6347 84.3444 57.3853 83.4126 58.1082 82.3639C59.5679 80.246 60.8188 77.7944 61.1637 76.2273C61.5174 74.6196 61.5872 72.3561 61.2503 70.2689C60.9063 68.1376 60.1761 66.416 59.129 65.6443C58.7928 65.3966 58.7208 64.9232 58.9685 64.5871Z" fill="#232323"/>
<path d="M56.4818 48.063C55.0054 48.93 52.4893 50.9202 51.7625 51.4106L52.0212 52.0719L56.0096 51.8309C56.2039 51.8191 56.3906 51.7514 56.5472 51.6359L58.2167 50.4044L60.5142 50.7975C60.7044 50.8301 60.8966 50.7511 61.0089 50.5942L61.9684 49.2545L61.8391 48.9382C61.6055 48.2932 60.853 47.8977 60.3001 47.6452C60.0361 47.5247 59.7313 47.5235 59.4648 47.6383L58.2167 48.1764L57.1444 47.9598C56.9175 47.9139 56.6815 47.9458 56.4818 48.063Z" fill="#FED1D0"/>
<path d="M59.6077 48.5686C59.8838 48.5267 60.1954 48.5659 60.4375 48.6119C60.6095 48.6446 60.7723 48.6888 60.9051 48.728L61.3776 48.5843C61.6439 48.5038 61.9249 48.6548 62.0056 48.921C62.0861 49.1874 61.9354 49.4695 61.6689 49.55L61.0507 49.736C60.9492 49.7666 60.8409 49.7648 60.7407 49.7301C60.6373 49.6944 60.4503 49.6404 60.2495 49.6022C60.0378 49.5619 59.8626 49.5501 59.7592 49.5657C59.4187 49.6173 58.9834 49.7351 58.6134 49.8522C58.5826 49.8619 58.5501 49.8692 58.5179 49.8729L56.811 50.0678C56.271 50.2229 55.6025 50.5288 54.9329 50.875C54.2541 51.2258 53.6102 51.5988 53.1295 51.8672C53.0882 51.8902 53.0436 51.9067 52.9976 51.9174L52.0063 52.1478C51.7352 52.2106 51.4638 52.0419 51.4009 51.7707C51.3381 51.4998 51.507 51.2294 51.7779 51.1663L52.7003 50.9517C53.1601 50.694 53.8021 50.325 54.4692 49.9802C55.163 49.6215 55.9214 49.2687 56.5718 49.0873C56.5973 49.0802 56.6234 49.0756 56.6496 49.0726L58.3555 48.8777C58.735 48.7591 59.206 48.6295 59.6077 48.5686Z" fill="#FF9D9D"/>
<path d="M22.3656 37.5814C23.0135 38.2833 24.2553 40.011 24.7952 40.8884C27.3341 40.0219 29.3693 41.1374 30.2515 42.2357L31.0552 40.6503C30.7153 38.951 29.9165 36.5895 29.8874 35.1621C29.8583 33.7347 31.1376 31.7878 31.6717 31.3023C31.4168 30.3434 31.4678 27.1949 31.6717 25.6218C32.4728 21.6891 34.1478 23.5098 34.5137 23.2913C34.8796 23.0729 37.2429 20.2498 41.4669 20.6215C44.8461 20.9189 47.8757 18.7791 48.9681 17.672C49.0045 18.6916 51.3482 20.6215 53.3674 20.0101C54.9827 19.521 57.1036 20.2139 57.9622 20.6215C63.2939 19.0018 60.6996 13.2852 58.9449 11.8679C57.5411 10.7341 55.1654 10.7206 54.1531 10.8556L53.6807 9.30331H51.3186C49.1049 7.68355 45.9869 8.31347 44.7046 8.8309C43.8407 7.26514 41.4651 8.49344 40.3853 9.30331C39.0895 7.89953 35.931 9.3933 34.5137 10.3157C32.408 9.07385 28.9121 12.1379 27.4273 13.8251L24.7952 15.3774L23.5129 17.672C22.2531 18.3469 19.585 20.2501 18.9911 22.4638C18.3972 24.6774 19.0136 27.4355 19.396 28.5378H18.2487C18.3027 30.9134 19.621 33.577 20.2734 34.6119L19.7335 35.7592C20.3409 36.5016 21.5557 36.7041 22.3656 37.5814Z" fill="#232323"/>
<path d="M42.4417 7.44601C42.9279 7.32248 43.4782 7.2645 44.0068 7.39974C44.3671 7.49198 44.6951 7.67123 44.9695 7.94115C45.6795 7.72061 46.6276 7.52855 47.6519 7.51196C48.8978 7.4918 50.3195 7.72904 51.556 8.54949H53.6822L53.8053 8.55934C54.0856 8.60533 54.3209 8.8066 54.4057 9.08499L54.7001 10.0536C55.2179 10.0302 55.8526 10.045 56.5113 10.1393C57.4709 10.2766 58.5696 10.5936 59.4221 11.2821C59.9633 11.7193 60.5125 12.434 60.9499 13.2519C61.3914 14.0777 61.7508 15.0676 61.8644 16.0869C61.9781 17.1085 61.8478 18.1991 61.259 19.165C60.6646 20.1398 59.6568 20.8998 58.1838 21.3473C58.0038 21.402 57.8093 21.3867 57.6394 21.306C57.2641 21.1279 56.5799 20.8735 55.8065 20.7233C55.0233 20.5711 54.2285 20.5424 53.5887 20.7361C52.2904 21.1292 50.967 20.6918 50.0213 20.0933C49.5392 19.7881 49.1162 19.4179 48.8027 19.0331C48.7709 18.994 48.7393 18.9535 48.7082 18.912C48.1035 19.392 47.3181 19.9152 46.4057 20.3561C45.009 21.0311 43.2678 21.5411 41.4022 21.3769C39.4818 21.208 37.991 21.7628 36.9292 22.3888C36.3963 22.703 35.9707 23.0352 35.6534 23.3063C35.4937 23.4427 35.3637 23.5615 35.2528 23.6616C35.1756 23.7312 35.0298 23.8666 34.9033 23.9422C34.5667 24.1431 34.217 24.0485 34.1325 24.0268C34.007 23.9945 33.8554 23.9365 33.7772 23.9087C33.5606 23.8318 33.4364 23.8065 33.3421 23.8171C33.298 23.8221 33.185 23.8379 33.0192 24.0701C32.8338 24.3298 32.6102 24.8286 32.4207 25.7465C32.326 26.492 32.2635 27.6252 32.2573 28.6987C32.2542 29.239 32.2652 29.754 32.2918 30.187C32.3192 30.635 32.3608 30.9481 32.404 31.1104C32.4764 31.3831 32.3912 31.6735 32.1825 31.8634C32.0074 32.0226 31.6018 32.545 31.2385 33.2337C30.8737 33.9251 30.6345 34.6295 30.6449 35.1483C30.6575 35.7642 30.8418 36.6329 31.0898 37.623C31.3275 38.5718 31.624 39.6313 31.7986 40.5043C31.8318 40.6704 31.8083 40.8433 31.7317 40.9945L30.9274 42.5793C30.8113 42.8084 30.5873 42.9632 30.3319 42.9898C30.0765 43.0164 29.8253 42.9113 29.6645 42.7112C28.9537 41.8265 27.2389 40.8557 25.0409 41.6058C24.7067 41.7196 24.338 41.5875 24.1529 41.2868C23.628 40.4338 22.4154 38.7502 21.8121 38.0965C21.5079 37.7669 21.1159 37.5497 20.623 37.2903C20.1805 37.0574 19.5703 36.7533 19.1504 36.24C18.9659 36.0146 18.9271 35.7032 19.0509 35.4397L19.4201 34.6531C19.0915 34.0808 18.6849 33.2712 18.3323 32.3497C17.8987 31.2162 17.5244 29.8653 17.4946 28.5569C17.49 28.3535 17.568 28.157 17.7102 28.0116C17.8525 27.8661 18.0472 27.7842 18.2506 27.7842H18.3963C18.2717 27.2689 18.154 26.66 18.0784 26.0064C17.9449 24.8525 17.9313 23.504 18.2625 22.2697C18.6135 20.9612 19.5501 19.8139 20.4891 18.9396C21.3518 18.1363 22.2845 17.501 22.9589 17.1175L24.1372 15.0109L24.1913 14.9263C24.251 14.8465 24.3265 14.7794 24.4128 14.7284L26.9466 13.2331C27.7291 12.3603 28.9865 11.1734 30.3407 10.3322C31.0425 9.8963 31.8067 9.52956 32.5703 9.36554C33.1925 9.23195 33.8483 9.2268 34.4662 9.45905C35.2147 9.01196 36.2507 8.50058 37.2944 8.21087C37.907 8.04085 38.5644 7.93494 39.1873 7.9884C39.6101 8.02472 40.0341 8.13951 40.4148 8.36738C40.9783 8.00628 41.7061 7.63288 42.4417 7.44601ZM43.6318 8.86449C43.4382 8.81498 43.1643 8.8217 42.8137 8.91076C42.1089 9.08985 41.3363 9.53851 40.8411 9.9099C40.531 10.1425 40.0951 10.103 39.8321 9.81835C39.6698 9.64257 39.4263 9.52616 39.0574 9.49449C38.6794 9.46212 38.2149 9.52454 37.6989 9.66774C36.6666 9.95427 35.594 10.5179 34.9279 10.9514C34.6873 11.1079 34.3788 11.1149 34.1316 10.9691C33.8164 10.7832 33.4112 10.7315 32.8873 10.8441C32.3569 10.9581 31.759 11.2301 31.1381 11.6158C29.8967 12.387 28.7072 13.5197 27.9969 14.3268C27.9442 14.3867 27.8817 14.4378 27.8129 14.4784L25.3568 15.9264L24.1746 18.0428C24.1041 18.1689 23.9988 18.2719 23.8714 18.3401C23.293 18.65 22.366 19.2581 21.5197 20.046C20.6614 20.8453 19.9662 21.7564 19.7233 22.6615C19.4605 23.6409 19.4586 24.779 19.5805 25.8331C19.7019 26.8823 19.939 27.7933 20.1121 28.2921C20.1923 28.5232 20.1555 28.7789 20.0137 28.9782C19.8719 29.1773 19.6428 29.296 19.3984 29.2962H19.0706C19.1847 30.1375 19.4382 31.0077 19.7449 31.8093C20.1451 32.8554 20.6148 33.736 20.9144 34.2112C21.0519 34.4293 21.0694 34.7023 20.9596 34.9357L20.6584 35.5735C20.8283 35.6865 21.0458 35.8041 21.3278 35.9525C21.7966 36.1992 22.4178 36.523 22.9235 37.0708C23.5059 37.7018 24.4961 39.0556 25.1265 40.0062C27.1703 39.5028 28.9069 40.114 30.0385 40.9876L30.26 40.5505C30.093 39.7815 29.8518 38.9028 29.6231 37.9902C29.3796 37.018 29.1505 35.9912 29.1339 35.1798C29.1153 34.2712 29.5007 33.2879 29.9017 32.5279C30.1995 31.9634 30.552 31.437 30.8605 31.069C30.8255 30.8284 30.7998 30.5578 30.7827 30.2796C30.7535 29.8034 30.7421 29.253 30.7453 28.6898C30.7518 27.5686 30.8162 26.355 30.9235 25.527L30.9323 25.4729C31.1422 24.4426 31.4253 23.7012 31.7887 23.1921C32.1729 22.6539 32.652 22.3738 33.1728 22.315C33.6431 22.2619 34.0577 22.4042 34.2832 22.4843C34.2874 22.4858 34.2918 22.4868 34.2959 22.4882C34.3949 22.3988 34.5219 22.2838 34.671 22.1565C35.0316 21.8485 35.5299 21.4578 36.1613 21.0855C37.4286 20.3384 39.2317 19.6681 41.535 19.8708C43.0485 20.004 44.5122 19.592 45.7482 18.9947C46.9857 18.3966 47.9454 17.6358 48.4316 17.1431L48.5162 17.0693C48.7232 16.9139 48.9987 16.874 49.2447 16.9698C49.5257 17.0795 49.7143 17.3456 49.725 17.6471C49.7248 17.6399 49.7264 17.6776 49.7684 17.7652C49.8087 17.8493 49.8758 17.9564 49.9751 18.0782C50.1743 18.3227 50.4701 18.5874 50.8305 18.8155C51.5706 19.284 52.4299 19.5073 53.1507 19.289C54.126 18.9938 55.1994 19.0659 56.0949 19.2398C56.8392 19.3844 57.515 19.6124 58.0007 19.8157C59.034 19.4535 59.6315 18.9311 59.9684 18.3785C60.3378 17.7727 60.4489 17.0412 60.3612 16.2542C60.2733 15.4651 59.9886 14.6595 59.617 13.9645C59.2413 13.2618 58.8082 12.73 58.4722 12.4584C57.9209 12.0132 57.129 11.7556 56.2967 11.6365C55.4744 11.5188 54.6975 11.548 54.2551 11.607C53.8882 11.6559 53.54 11.4315 53.4322 11.0774L53.1231 10.0615H51.3207C51.1602 10.0615 51.0034 10.0106 50.8738 9.9158C49.9437 9.23524 48.7924 9.00592 47.6766 9.02396C46.56 9.04203 45.5512 9.30711 44.9892 9.53387C44.6347 9.67687 44.2289 9.53293 44.0442 9.1982C43.9317 8.99425 43.796 8.90653 43.6318 8.86449Z" fill="#232323"/>
<path d="M47.1509 34.9076C47.3226 35.9916 46.806 36.9742 45.997 37.1023C45.188 37.2305 44.3931 36.4556 44.2214 35.3716C44.0497 34.2877 44.5663 33.3051 45.3753 33.1769C46.1843 33.0488 46.9792 33.8237 47.1509 34.9076Z" fill="#232323"/>
<path d="M59.7457 32.6835C59.9148 33.7511 59.4858 34.7062 58.7876 34.8168C58.0894 34.9274 57.3863 34.1516 57.2172 33.084C57.0481 32.0164 57.477 31.0612 58.1753 30.9506C58.8735 30.8401 59.5766 31.6159 59.7457 32.6835Z" fill="#232323"/>
</g>
<defs>
<clipPath id="clip0_3265_35557">
<rect width="90.72" height="90.72" rx="24" fill="white"/>
</clipPath>
</defs>
</svg>
