<svg width="90" height="90" viewBox="0 0 90 90" fill="none" xmlns="http://www.w3.org/2000/svg">
<g clip-path="url(#clip0_5001_613)">
<rect width="90" height="90" rx="24" transform="matrix(-1 0 0 1 90 0)" fill="white"/>
<path d="M64.0487 47.3381C63.665 45.1317 62.6097 44.6041 60.835 45.1317L57.2479 45.4457C55.7749 45.7802 52.0912 46.4273 49.1403 46.3392C45.4516 46.2291 42.3135 43.7517 39.4507 43.2562C36.5879 42.7607 33.2296 44.3573 31.1375 45.2397C29.4638 45.9456 28.1833 45.5338 27.7522 45.2397C27.5443 46.231 27.0967 48.2302 26.8281 50.0721C26.4923 52.3744 26.8761 55.588 29.1305 57.3148C30.9339 58.6961 32.9516 60.8642 33.7351 61.7755C37.9272 60.5591 45.9538 60.7224 51.4525 61.0387L55.4715 57.3148L56.758 55.2043C59.2522 57.9383 62.274 53.4776 63.3772 52.0866C64.4804 50.6956 64.4324 49.5444 64.0487 47.3381Z" fill="white"/>
<path d="M35.2788 53.8525C34.6192 51.8737 33.8498 50.4447 33.5475 49.9776C34.9216 49.6203 37.9231 48.9226 40.9571 49.1864C44.7497 49.5162 44.5045 50.54 48.3054 50.7195C47.1237 53.3853 43.9687 58.7829 40.8028 59.0467C36.8453 59.3765 36.1033 56.3259 35.2788 53.8525Z" fill="#FF9D9D"/>
<path d="M48.3054 50.7195C47.1237 53.3853 43.9687 58.7829 40.8028 59.0467C36.8453 59.3765 36.1033 56.3259 35.2788 53.8525C34.6192 51.8737 33.8498 50.4447 33.5475 49.9776C34.9216 49.6203 37.9231 48.9226 40.9571 49.1864C44.7497 49.5162 45.7007 50.54 49.5017 50.7195" stroke="black" stroke-width="1.5" stroke-linecap="round" stroke-linejoin="round"/>
<path d="M39.0555 61.268C33.055 61.7809 28.0718 62.4683 26.3303 62.7479L27.6234 68.2828C27.0889 68.438 25.5025 68.6553 23.4334 68.2828C20.847 67.8172 19.8642 66.3688 15.519 69.0587C12.0429 71.2106 3.07194 85.4456 -0.979004 92.2942L87.2559 97C85.3343 91.0393 80.8089 78.3178 78.0795 75.1178C74.6677 71.1178 70.3148 68.2828 66.4325 69.0587C63.3266 69.6794 60.9815 69.3173 60.1972 69.0587L59.8502 68.231L63.316 62.7479C56.9017 60.5753 46.5561 60.627 39.0555 61.268Z" fill="#454545"/>
<path opacity="0.5" d="M31.4716 45.4146C32.3688 46.0246 32.4342 47.4928 31.6176 48.6941C30.8009 49.8953 29.2092 50.4402 28.2656 49.9058C26.968 49.1709 26.8861 47.7838 27.7027 46.5825C28.5193 45.3813 30.5744 44.8047 31.4716 45.4146Z" fill="#FED1D0"/>
<path opacity="0.5" d="M55.1458 45.7113C56.043 46.3212 56.1084 47.7895 55.2917 48.9907C54.4751 50.192 52.8834 50.7369 51.9398 50.2024C50.6422 49.4675 50.5603 48.0804 51.3769 46.8792C52.1935 45.6779 54.2486 45.1013 55.1458 45.7113Z" fill="#FED1D0"/>
<path d="M22.8951 36.5942C26.0799 36.7861 27.3238 35.8747 27.5477 35.3951V33.8261C28.3038 32.6019 31.8422 30.0653 39.9462 29.7129C50.0762 29.2725 54.5906 31.7838 56.0771 32.805C57.5636 33.8261 63.6746 39.1823 64.8858 42.8709L64.5763 44.0287C66.1111 45.4101 68.1257 45.6275 68.9411 45.5636C67.176 44.1054 66.9265 41.5025 67.0225 40.3834C70.1689 41.381 73.2259 40.4153 74.3611 39.8078C71.2913 38.7334 69.6605 37.0258 69.2288 36.3064C73.4114 35.7308 74.9686 33.7323 75.2244 32.805C72.3465 34.2247 70.0283 33.3965 69.2288 32.805C74.4858 30.4259 75.8 26.0579 75.8 24.1713C71.464 24.3248 68.6852 23.3719 67.8379 22.8763C71.253 20.0368 70.5399 16.3851 69.7565 14.9142C67.1088 16.8327 62.3539 16.7048 60.3074 16.4011C61.1516 14.3673 63.5051 12.0043 64.5763 11.077C56.6717 9.35027 51.37 11.7964 49.7072 13.2354C49.8991 11.5854 51.5459 8.39096 52.3453 7C41.9466 7 38.5155 12.2761 38.0998 14.9142C36.3347 11.8828 36.1812 8.37498 36.3251 7C31.874 10.1465 30.6653 16.2732 30.6173 18.9432C28.4685 17.8688 25.9488 14.6903 24.9575 13.2354C23.9598 18.1086 25.7569 21.885 26.7801 23.1641C22.943 23.2024 20.5768 22.2527 19.8733 21.773C19.8733 27.4904 23.2628 29.7831 24.9575 30.2148C23.6529 31.2125 21.0244 31.3979 19.8733 31.366C22.4058 33.8218 23.9982 34.0499 24.9575 33.8261C24.3052 34.5935 23.6305 35.9706 22.8951 36.5942Z" fill="white"/>
<path d="M27.5477 35.3951C27.3238 35.8747 26.0799 36.7861 22.8951 36.5942C23.6305 35.9706 24.3052 34.5935 24.9575 33.8261C23.9982 34.0499 22.4058 33.8218 19.8733 31.366C21.0244 31.3979 23.6529 31.2125 24.9575 30.2148C23.2628 29.7831 19.8733 27.4904 19.8733 21.773C20.5768 22.2527 22.943 23.2024 26.7801 23.1641C25.7569 21.885 23.9598 18.1086 24.9575 13.2354C25.9488 14.6903 28.4685 17.8688 30.6173 18.9432C30.6653 16.2732 31.874 10.1465 36.3251 7C36.1812 8.37498 36.3347 11.8828 38.0998 14.9142C38.5155 12.2761 41.9466 7 52.3453 7C51.5459 8.39096 49.8991 11.5854 49.7072 13.2354C51.37 11.7964 56.6717 9.35027 64.5763 11.077C63.5051 12.0043 61.1516 14.3673 60.3074 16.4011C62.3539 16.7048 67.1088 16.8327 69.7565 14.9142C70.5399 16.3851 71.253 20.0368 67.8379 22.8763C68.6852 23.3719 71.464 24.3248 75.8 24.1713C75.8 26.0579 74.4858 30.4259 69.2288 32.805C70.0283 33.3965 72.3465 34.2247 75.2244 32.805C74.9686 33.7323 73.4114 35.7308 69.2288 36.3064C69.6605 37.0258 71.2913 38.7334 74.3611 39.8078C73.2259 40.4153 70.169 41.381 67.0225 40.3834C66.9265 41.5025 67.176 44.1054 68.9411 45.5636C68.1257 45.6275 66.1111 45.4101 64.5763 44.0287" stroke="black" stroke-width="1.5" stroke-linecap="round" stroke-linejoin="round"/>
<path d="M27.9313 37.5053C27.9696 39.5774 27.7554 42.9732 27.6435 44.4121C27.6435 44.8758 28.0848 45.8032 29.8499 45.8032C32.0563 45.8032 35.7495 43.405 38.4356 43.1172C41.1216 42.8294 46.1579 46.139 48.3642 46.4747C50.5706 46.8105 56.9979 45.1317 59.9237 45.0837C60.1724 45.0797 60.7519 45.0799 60.973 45.0837C61.5294 44.9398 62.8371 44.8343 63.617 45.5634C64.1926 43.2611 65.2957 44.4121 64.912 42.7814C64.5283 41.1507 58.8685 33.9079 55.3671 32.0373C51.8657 30.1666 44.7669 29.1115 37.0926 29.783C30.9531 30.3202 27.8194 32.7568 27.02 33.9079C27.3078 34.2437 27.893 35.4332 27.9313 37.5053Z" fill="black"/>
<path d="M55.4715 57.1301L55.8019 61.4794L51.3424 60.9839L55.4715 57.1301Z" fill="#B4B4B4"/>
<path d="M56.0341 56.6501L56.3127 61.1548" stroke="black" stroke-width="1.5" stroke-linecap="round" stroke-linejoin="round"/>
<path d="M63.617 45.5634C64.1926 43.2611 65.2957 44.4121 64.912 42.7814C64.5283 41.1507 58.8685 33.9079 55.3671 32.0373C51.8657 30.1666 44.7669 29.1115 37.0926 29.783C30.9531 30.3202 27.8194 32.7568 27.02 33.9079C27.3078 34.2437 27.893 35.4332 27.9313 37.5053C27.9696 39.5774 27.7554 42.9732 27.6435 44.4121C27.6435 44.8758 28.0848 45.8032 29.8499 45.8032C32.0563 45.8032 35.7495 43.405 38.4356 43.1172C41.1216 42.8294 46.1579 46.139 48.3642 46.4747C50.5706 46.8105 56.9979 45.1317 59.9237 45.0837C60.1724 45.0797 60.7519 45.0799 60.973 45.0837" stroke="black" stroke-width="1.5" stroke-linecap="round" stroke-linejoin="round"/>
<path d="M61.0142 49.7947L60.0789 51.7593M59.9036 50.6395L61.3843 50.7377" stroke="black" stroke-width="1.5" stroke-linecap="round" stroke-linejoin="round"/>
<path d="M57.2479 45.4457L57.7652 49.7302C58.101 48.643 59.4153 45.5538 60.835 45.1317C62.6097 44.6041 63.665 45.1317 64.0487 47.3381C64.4324 49.5444 64.4803 50.6956 63.3772 52.0866C62.274 53.4776 59.2522 57.9383 56.758 55.2043C56.0546 56.6592 53.9585 59.912 50.8504 60.8713M33.7351 61.7755C32.9516 60.8642 30.9339 58.6961 29.1305 57.3148C26.8761 55.588 26.4923 52.3744 26.8281 50.0721C27.0967 48.2302 27.5443 46.231 27.7522 45.2397" stroke="black" stroke-width="1.5" stroke-linecap="round" stroke-linejoin="round"/>
<path d="M36.6261 29.8118C35.742 28.6202 33.9739 25.3607 33.9739 21.8551M48.2152 29.8118C48.9648 27.813 51.2711 23.3196 54.4999 21.3362M57.0945 33.0983C58.5551 32.1373 62.2606 30.5037 65.3971 31.6569M58.6512 34.5397C59.9197 34.386 63.0447 34.5974 65.3971 36.6731" stroke="black" stroke-width="1.5" stroke-linecap="round" stroke-linejoin="round"/>
<path opacity="0.2" d="M33.5563 21.9412C32.4955 24.9393 33.4264 28.868 34.1567 30.3287L36.6261 29.8117C34.412 26.8135 33.4986 23.2865 33.5563 21.9412Z" fill="black"/>
<path opacity="0.2" d="M54.1982 21.1292C49.3247 21.6377 46.576 26.9915 45.8108 29.6049L48.1946 29.9227C48.9574 26.8008 52.5149 22.7596 54.1982 21.1292Z" fill="black"/>
<path opacity="0.2" d="M65.2697 31.3529C63.1508 29.0785 57.8887 30.8055 55.5226 31.9532L57.1118 33.2246C59.3296 31.1622 63.4745 31.1174 65.2697 31.3529Z" fill="black"/>
<path opacity="0.2" d="M65.1107 36.9152C63.0094 34.1783 59.984 34.2959 58.542 34.4961L60.7316 36.668C61.8475 36.2019 64.1395 36.7681 65.1107 36.9152Z" fill="black"/>
<path d="M39.0555 61.268C33.055 61.7809 28.0718 62.4683 26.3303 62.7479C27.1235 66.6275 28.9995 74.4488 30.1582 74.6971C31.6066 75.0074 44.1248 76.3524 47.3837 75.7316C49.9908 75.235 57.2638 72.7314 60.5744 71.5416C60.3674 69.845 60.0054 68.6276 59.8502 68.231L63.316 62.7479C56.9017 60.5753 46.5561 60.627 39.0555 61.268Z" stroke="black" stroke-width="1.5" stroke-linecap="round" stroke-linejoin="round"/>
<path d="M27.6234 68.2829C27.0889 68.4381 25.5025 68.6554 23.4334 68.2829C20.847 67.8174 19.8642 66.369 15.519 69.0588C12.0429 71.2107 3.07194 85.4458 -0.979004 92.2943M60.1972 69.0588C60.9815 69.3175 63.3266 69.6796 66.4325 69.0588C70.3148 68.2829 74.6677 71.1179 78.0795 75.1179C80.8089 78.3179 85.3343 91.0394 87.2559 97.0001" stroke="black" stroke-width="1.5" stroke-linecap="round" stroke-linejoin="round"/>
<path d="M64.5 87C63.8749 88.5852 62.8134 91.4159 62.224 94.8988M12.1907 85.1198C12.5026 86.3923 12.9636 88.5056 13.2537 90.4125M13.4633 94.028C13.6051 93.2951 13.4827 91.9181 13.2537 90.4125M14.7359 84.3831C14.3059 85.6565 13.4075 88.6453 13.2537 90.4125" stroke="black" stroke-width="1.5" stroke-linecap="round" stroke-linejoin="round"/>
<path d="M33.9024 79.8197C32.6537 78.9628 30.7805 76.2495 30 75C31.3008 75.2082 34.2927 75.6783 35.8536 75.8925C37.4146 76.1067 43.7683 75.6247 46.5 75.8925C42.9878 77.2016 35.1512 80.6765 33.9024 79.8197Z" fill="black"/>
<path opacity="0.2" d="M48.431 31.837C44.5426 31.327 42.2956 32.7931 41.6582 33.5899L44.9251 35.8211C48.0486 34.1 53.2916 34.679 55.5226 35.1836C54.7789 34.2806 52.3195 32.3469 48.431 31.837Z" fill="white"/>
<path opacity="0.2" d="M33.189 32.6475C35.4523 32.3506 36.7602 33.204 37.1312 33.6678L35.4969 35.8745C33.6788 34.8727 30.3599 34.3017 29.0612 34.5954C29.4941 34.0698 30.9257 32.9443 33.189 32.6475Z" fill="white"/>
</g>
<defs>
<clipPath id="clip0_5001_613">
<rect width="90" height="90" rx="24" transform="matrix(-1 0 0 1 90 0)" fill="white"/>
</clipPath>
</defs>
</svg>
