<svg viewBox="0 0 92 92" fill="none" xmlns="http://www.w3.org/2000/svg">
<g clip-path="url(#clip0_3267_2370)">
<rect width="91.368" height="91.368" rx="24" fill="white"/>
<path d="M64.3683 44.6375L59.899 36.7578L61.0751 34.2873L55.9588 31.935L50.6073 26.4651H36.9051L27.3194 30.5231L27.7631 36.0893C27.92 37.7751 26.7784 41.6383 26.9666 42.344C27.1548 43.0496 28.3388 45.1079 28.9072 46.0488C28.9465 48.2639 29.0719 52.8823 29.2601 53.635C29.4953 54.576 30.1422 56.2814 30.6715 57.2811C31.2008 58.2808 31.6712 60.4567 31.9652 61.7505C32.2593 63.0443 33.6119 65.4554 35.2585 67.5725C36.5758 69.2661 37.6892 69.4151 38.0813 69.2779V71.8654L38.4929 76.5112C38.1401 76.6877 37.2462 77.4522 36.4934 79.0988C35.5525 81.1571 35.2585 86.7438 38.0813 89.3313C40.904 91.9189 46.0791 90.978 53.2537 89.3313C60.4282 87.6847 63.7802 83.2153 65.6621 81.4511C67.5439 79.6869 67.6027 77.2169 66.5442 75.9232C65.6974 74.8882 64.3487 74.7078 63.7802 74.747C62.7217 71.885 60.5929 65.6436 60.5458 63.5735C60.4988 61.5035 61.624 57.4967 62.1924 55.7521C62.7218 55.8893 64.2628 55.7756 66.1916 54.2231C68.6028 52.2825 68.8966 48.5776 67.8969 46.0488C67.0971 44.0259 65.2112 44.265 64.3683 44.6375Z" fill="white"/>
<path d="M66.8152 40.304C66.8898 41.8765 66.4222 44.111 66.2039 44.8761L64.4275 44.5648C63.3691 44.5648 62.687 45.6028 62.3074 46.4217C62.1618 46.7357 61.8569 46.9529 61.5107 46.9529C61.0529 46.9529 60.6822 46.5828 60.664 46.1254C60.5581 43.4647 59.9728 39.0895 58.7545 37.1537C56.4696 37.0413 53.4733 34.3959 52.49 33.3503C46.729 37.713 43.6075 31.9544 42.4214 28.552L41.5878 31.9855C39.7871 31.7918 39.0798 30.2365 38.7828 29.1145C37.9213 31.1747 39.1874 33.9582 39.6868 35.1911C37.8888 35.4533 36.2879 34.8257 35.7884 34.4824C33.1664 32.7968 31.6116 31.6725 29.4518 31.6725C29.6765 32.6464 30.77 35.1241 31.0041 35.5455C28.8524 34.8621 29.3076 35.0504 28.1512 36.0267L27.5954 39.5096C25.8759 39.2981 24.7269 38.6459 23.9614 37.806C22.4475 36.145 22.4339 33.7501 22.4753 32.5787C22.0071 32.0324 21.2018 29.9473 21.7262 25.9768C22.2506 22.0064 25.7216 20.3273 27.3916 19.9841C27.4072 19.5784 27.8411 18.2601 29.4518 17.1358C31.0624 16.0115 33.8283 16.2438 35.1862 16.5093C35.8729 15.7289 37.8139 14.0745 39.6868 13.7374C41.5597 13.4003 43.531 14.1566 44.327 14.5624C45.0387 12.9517 48.1701 12.2899 49.0129 12.0869C48.9379 13.6227 49.1841 15.1874 49.8708 15.7498C51.5096 14.4867 52.5237 14.6401 53.6942 15.4829C54.1029 15.7772 54.5775 16.2077 54.9197 17.1358C56.3749 15.6379 60.9022 17.1056 62.3116 17.7298C61.525 17.9545 59.9303 19.0953 59.9303 20.6544C61.6415 19.5136 64.1114 20.1554 65.6722 21.5289C65.3756 22.1534 65.0104 23.8382 65.3475 24.3626C65.7689 25.0182 68.5972 30.221 68.8782 31.6725C69.1029 32.8337 67.5333 38.01 66.8152 40.304Z" fill="#929292"/>
<path d="M65.324 43.72C64.2466 43.7476 63.3438 44.3086 62.8098 44.8195C62.5059 45.1102 62.4953 45.5923 62.786 45.8962C63.0767 46.1998 63.5589 46.2106 63.8626 45.92C64.2199 45.5782 64.7794 45.2578 65.3626 45.2428C65.8833 45.2295 66.5869 45.4547 67.3137 46.5346C67.7093 47.1224 67.883 47.9909 67.7827 49.0161C67.6832 50.0313 67.3204 51.1273 66.7387 52.0974C65.5654 54.0543 63.6514 55.3107 61.398 54.7177C60.9914 54.6107 60.5751 54.8544 60.4681 55.261C60.3613 55.6675 60.6038 56.084 61.0104 56.1909C64.1622 57.0204 66.6721 55.1693 68.0444 52.8806C68.7354 51.7281 69.1759 50.4162 69.2985 49.1639C69.4201 47.9215 69.234 46.6616 68.5768 45.685C67.6193 44.2622 66.4639 43.691 65.324 43.72Z" fill="#232323"/>
<path d="M64.5626 48.1476C64.1838 47.965 63.7282 48.1244 63.5455 48.5031L63.1045 49.4181L62.5235 49.3187C62.1091 49.2478 61.7152 49.5263 61.6442 49.9407C61.5733 50.3551 61.8518 50.749 62.2662 50.82L62.4169 50.8453L62.202 51.2896C62.0196 51.6682 62.1782 52.1228 62.5567 52.3055C62.9354 52.4882 63.3909 52.3297 63.5736 51.951L63.9789 51.1124L64.7437 51.2433C65.1581 51.3141 65.5511 51.0356 65.622 50.6212C65.6929 50.2067 65.4144 49.8138 64.9999 49.7429L64.6665 49.6852L64.9171 49.1646C65.0997 48.7858 64.9413 48.3303 64.5626 48.1476Z" fill="#232323"/>
<path d="M62.6431 55.2233C62.2572 55.0565 61.8087 55.2341 61.6417 55.6199C60.9994 57.1043 59.6855 60.8682 59.6312 64.029C59.6027 65.6907 60.2955 68.1744 61.1659 70.5981C62.0491 73.0574 63.1622 75.5792 64.0628 77.3694C64.2517 77.745 64.7093 77.8964 65.0849 77.7075C65.4605 77.5185 65.6119 77.061 65.423 76.6853C64.5483 74.9466 63.4606 72.4813 62.5994 70.0835C61.7256 67.6503 61.1308 65.4061 61.154 64.0548C61.2033 61.1895 62.4261 57.6425 63.0396 56.2247C63.2066 55.8387 63.029 55.3904 62.6431 55.2233Z" fill="#232323"/>
<path d="M64.8229 81.3608C68.4625 77.134 67.6385 75.445 63.7366 73.6279C64.3786 73.7721 65.3066 74.0201 67.1271 74.7586C70.1021 75.9653 71.7586 76.4097 75.2331 77.8238L86.9942 83.0047C89.5546 84.1325 91.5359 86.267 92.4705 88.904L99.1249 107.681L16.2951 106.533L10.584 101.533C11.8199 98.8684 12.7511 89.8577 16.2951 86.9685C18.8597 84.8778 26.8462 80.6923 33.0814 77.8079C35.4625 76.7064 36.1351 76.5969 38.5172 75.6606C33.365 79.898 35.83 88.2738 40.2985 89.3909C45.8841 90.7873 58.3841 88.8382 64.8229 81.3608Z" fill="#232323"/>
<path d="M63.9016 72.887C63.5223 72.8019 63.1398 73.0158 63.0143 73.3837C62.8889 73.7518 63.0613 74.1554 63.4138 74.3196C64.3676 74.7638 65.0796 75.1772 65.5721 75.5926C66.0568 76.0014 66.2855 76.375 66.3603 76.7436C66.436 77.117 66.3789 77.6083 66.049 78.2981C65.717 78.9922 65.135 79.8319 64.2446 80.8659C61.1573 84.4512 56.5786 86.7473 52.0414 87.9703C47.4939 89.196 43.1102 89.3115 40.4816 88.6543C38.6425 88.1946 37.0451 86.1533 36.5457 83.5536C36.0555 81.001 36.6844 78.1539 38.9994 76.2499C39.2885 76.0119 39.3617 75.5991 39.1719 75.2763C38.9821 74.9535 38.5856 74.8171 38.237 74.9541C35.9287 75.8614 35.1617 76.0076 32.7605 77.1183C29.6299 78.5665 26.0597 80.3408 22.9486 82.0169C19.8585 83.6817 17.1589 85.2824 15.8124 86.3801C14.7987 87.2064 14.0168 88.4293 13.3904 89.7677C12.7601 91.1146 12.2596 92.64 11.8399 94.1299C11.4207 95.6177 11.0719 97.1067 10.7592 98.3562C10.4384 99.6381 10.1645 100.626 9.89174 101.214C9.74963 101.521 9.82676 101.885 10.0811 102.108L15.7916 107.107C15.9277 107.227 16.1025 107.293 16.2833 107.296L99.1124 108.444C99.3614 108.447 99.5967 108.329 99.7419 108.127C99.887 107.924 99.9241 107.663 99.8411 107.429L93.1867 88.6514C92.1821 85.8166 90.0521 83.5218 87.2998 82.3093L75.5387 77.1283C75.5322 77.1254 75.5254 77.123 75.5189 77.1203C73.7668 76.4073 72.472 75.9381 71.2489 75.4984C70.0274 75.0593 68.8832 74.6516 67.4122 74.0549C65.5587 73.3031 64.5901 73.0416 63.9016 72.887ZM67.6332 75.7799C68.7734 76.2268 69.7371 76.5738 70.7334 76.932C71.9509 77.3697 73.2224 77.8301 74.9449 78.5311L86.6861 83.7033C89.0542 84.7466 90.8868 86.7209 91.7512 89.16L98.0407 106.905L16.5847 105.776L11.4919 101.318C11.7505 100.612 11.992 99.7027 12.2364 98.726C12.5566 97.4465 12.8941 96.0023 13.3052 94.5433C13.7156 93.0865 14.19 91.6513 14.7695 90.4131C15.3529 89.1664 16.016 88.179 16.7741 87.5608C17.9922 86.5678 20.5684 85.0299 23.6713 83.3583C26.7532 81.6979 30.2945 79.9365 33.399 78.5004C34.5772 77.9553 35.3117 77.6638 36.0569 77.389C34.8863 79.4044 34.6477 81.7433 35.0507 83.8411C35.6128 86.7677 37.4826 89.4741 40.1118 90.1315C43.0687 90.8708 47.7285 90.7096 52.437 89.4405C57.1557 88.1687 62.0473 85.7512 65.3986 81.8592C66.3279 80.78 67.0078 79.8235 67.4231 78.9554C67.8403 78.083 68.0154 77.2455 67.8523 76.4412C67.8051 76.2081 67.7298 75.9885 67.6332 75.7799Z" fill="#232323"/>
<path opacity="0.5" d="M52.2946 51.419C51.5181 52.6105 49.4154 52.7019 47.598 51.6232C45.7806 50.5445 44.9368 48.7041 45.7132 47.5126C46.4896 46.3211 48.3784 45.3473 50.1958 46.426C52.0132 47.5048 53.071 50.2275 52.2946 51.419Z" fill="#FED1D0"/>
<path d="M37.9569 68.6497C37.5381 68.6868 37.2289 69.0567 37.2659 69.4756C37.3338 70.2438 37.4026 71.3997 37.604 73.0387C37.692 73.7553 37.9376 75.3372 38.1582 76.7237C38.269 77.4204 38.3739 78.0733 38.4516 78.5519C38.4904 78.7909 38.5226 78.9869 38.5448 79.1229C38.5559 79.191 38.5647 79.2445 38.5706 79.2806C38.5735 79.2983 38.576 79.3119 38.5775 79.3212C38.5783 79.3259 38.5791 79.3298 38.5795 79.3321V79.3361C38.6478 79.7508 39.0392 80.0315 39.4539 79.9637C39.8688 79.8955 40.1505 79.5041 40.0825 79.0892V79.0882C40.0824 79.0877 40.0817 79.0864 40.0815 79.0853C40.0811 79.083 40.0812 79.0796 40.0805 79.0754C40.079 79.0662 40.0765 79.0524 40.0736 79.0347C40.0677 78.9989 40.0589 78.9457 40.0478 78.8781C40.0256 78.7425 39.9934 78.5468 39.9546 78.308C39.8771 77.8305 39.7726 77.1794 39.6621 76.4848C39.44 75.0883 39.1989 73.537 39.1149 72.8533C38.9176 71.248 38.8545 70.1525 38.7828 69.3407C38.7456 68.9221 38.3757 68.6127 37.9569 68.6497Z" fill="#232323"/>
<path d="M34.4821 41.5359C35.1566 41.4011 35.9883 41.4206 36.7731 41.89C37.1339 42.1059 37.2512 42.5731 37.0355 42.9339C36.8197 43.2946 36.3525 43.4128 35.9917 43.1973C35.6203 42.9752 35.2 42.9448 34.7801 43.0288C34.3515 43.1145 33.9824 43.3088 33.7968 43.4432C33.4561 43.6897 32.9805 43.6134 32.7339 43.2728C32.4875 42.9321 32.5637 42.4565 32.9044 42.21C33.2474 41.9617 33.8164 41.6691 34.4821 41.5359Z" fill="#232323"/>
<path d="M32.1899 50.1664C30.4879 51.6614 28.1246 51.1848 26.3783 50.8561C25.2207 50.6383 23.9711 46.3531 23.4564 43.9521L22.5553 42.9383L23.3818 42.9383C24.2078 42.6411 26.114 41.229 28.3109 41.1673C32.0729 41.0617 33.3523 41.4302 33.6042 44.8524C32.8052 47.6041 32.6032 47.6519 32.1899 50.1664Z" fill="url(#paint0_linear_3267_2370)"/>
<path d="M28.2893 40.406C29.2351 40.3795 30.0649 40.3814 30.7736 40.4607C31.4823 40.5401 32.1282 40.7035 32.6732 41.0396C33.827 41.7514 34.234 43.039 34.3634 44.7971C34.37 44.8872 34.3605 44.9778 34.3354 45.0646C33.5135 47.8953 33.3443 47.8347 32.9407 50.2898C32.9309 50.3494 32.9143 50.4079 32.8908 50.4635C32.6429 51.0493 32.4445 51.5969 32.3296 52.0904C32.2136 52.5894 32.1952 52.9815 32.2599 53.2765C32.3187 53.5446 32.4491 53.7547 32.7054 53.9266C32.985 54.1141 33.4591 54.2838 34.2442 54.3452C35.6409 54.4543 36.52 54.2603 37.0804 54.1026C37.4851 53.9888 37.906 54.2251 38.0199 54.6299C38.1335 55.0345 37.8971 55.4544 37.4925 55.5683C36.7984 55.7637 35.7377 55.9887 34.1263 55.8629C33.1948 55.7901 32.4332 55.5773 31.8571 55.1909C31.2577 54.7889 30.9114 54.2337 30.7729 53.6027C30.6404 52.9986 30.704 52.3571 30.846 51.7463C30.8469 51.7424 30.8472 51.738 30.8481 51.7342C30.339 51.8789 29.8226 51.9429 29.3206 51.956C28.2028 51.9851 27.0921 51.7654 26.2369 51.6045C25.8861 51.5384 25.6095 51.3362 25.4084 51.1396C25.2016 50.9373 25.0187 50.6855 24.8564 50.4207C24.5314 49.8903 24.2304 49.2075 23.9627 48.4894C23.4533 47.123 23.0227 45.5177 22.7555 44.3116L21.9859 43.4448C21.7868 43.2208 21.7375 42.9004 21.8601 42.627C21.9828 42.3536 22.2549 42.1774 22.5546 42.1772L23.2336 42.1769C23.373 42.1152 23.5651 42.0161 23.8335 41.8733C24.1589 41.7002 24.5615 41.4837 25.0102 41.2747C25.9046 40.8582 27.0405 40.4411 28.2893 40.406ZM28.3319 41.9288C27.3839 41.9555 26.4679 42.2757 25.6536 42.6549C25.248 42.8437 24.8817 43.0402 24.5488 43.2173C24.4991 43.2438 24.4478 43.2685 24.3974 43.2951L27.8359 43.699C28.2535 43.748 28.5524 44.126 28.5035 44.5436C28.4546 44.9612 28.0766 45.2601 27.659 45.2112L24.4432 44.8346C24.6923 45.8337 25.0217 46.9696 25.3898 47.9569C25.6434 48.6372 25.904 49.2161 26.1548 49.6253C26.2804 49.8302 26.3885 49.9681 26.4734 50.0512C26.5121 50.089 26.5374 50.1069 26.5487 50.1142C27.4308 50.2803 28.3647 50.4579 29.2801 50.434C30.1022 50.4126 30.8527 50.2267 31.4885 49.7525C31.8751 47.4939 32.117 47.2173 32.8327 44.7726C32.7009 43.2111 32.3495 42.6284 31.8739 42.3351C31.5973 42.1645 31.2018 42.0412 30.6047 41.9742C30.0078 41.9074 29.2668 41.9026 28.3319 41.9288Z" fill="#232323"/>
<path d="M39.0617 49.3114C37.9735 48.3569 36.87 46.0961 36.4108 44.0841C36.0677 42.5809 36.5489 41.5617 37.0378 41.1405C39.4623 39.0621 46.1063 39.0313 48.6198 40.0462C48.7959 41.6909 49.6098 48.3308 46.6403 49.3217C45.0433 49.8546 40.1499 50.2658 39.0617 49.3114Z" fill="url(#paint1_linear_3267_2370)"/>
<path d="M42.7478 38.6749C44.929 38.5403 47.1928 38.7443 48.6282 39.239L48.9049 39.3414L48.9983 39.3867C49.2081 39.507 49.3501 39.7222 49.3763 39.9668C49.4629 40.7763 49.7201 42.9164 49.5685 44.9857C49.4929 46.0187 49.3129 47.0889 48.9266 47.9877C48.5381 48.8914 47.9015 49.7042 46.8805 50.0449C45.9804 50.3452 44.2733 50.5849 42.6838 50.636C41.88 50.6618 41.0702 50.6408 40.3762 50.5457C40.0293 50.4981 39.6948 50.4304 39.3968 50.3327C39.1064 50.2375 38.8032 50.0987 38.5594 49.8849C37.9086 49.3141 37.3073 48.4108 36.8191 47.4372C36.3241 46.45 35.9123 45.3238 35.6683 44.2547C35.2748 42.5303 35.7992 41.2031 36.5406 40.5644L36.5415 40.5633C37.2665 39.9419 38.2558 39.5112 39.3121 39.2171C40.3784 38.9202 41.5696 38.7477 42.7478 38.6749ZM42.8415 40.194C41.7418 40.2619 40.6606 40.4234 39.721 40.685C38.7719 40.9492 38.0208 41.3004 37.5335 41.7176C37.2972 41.9212 36.8599 42.6336 37.1523 43.9155C37.3675 44.8584 37.7365 45.8696 38.1801 46.7543C38.6305 47.6525 39.1263 48.3565 39.5636 48.7401C39.5921 48.7649 39.6799 48.823 39.8711 48.8857C40.055 48.946 40.2941 48.9978 40.5837 49.0375C41.163 49.1169 41.8808 49.139 42.6357 49.1148C44.1639 49.0656 45.7023 48.8327 46.3992 48.6002C46.8627 48.4453 47.2389 48.0572 47.5273 47.3861C47.818 46.71 47.9799 45.8313 48.0499 44.875C48.1676 43.268 48.0159 41.5953 47.9121 40.6078C46.7317 40.2553 44.8145 40.0723 42.8415 40.194Z" fill="#232323"/>
<path d="M48.5866 39.319L50.7194 39.3191L50.8619 39.3324L63.2352 41.6908L63.3639 41.7265C63.4878 41.7737 63.5983 41.8531 63.6831 41.957L65.4058 44.0661C65.6718 44.3917 65.6239 44.8719 65.2983 45.1379C64.9727 45.404 64.4925 45.3551 64.2265 45.0294L62.6784 43.1346L50.9759 40.9041L49.6098 42.2939C49.315 42.5937 48.8333 42.5983 48.5334 42.3037C48.2335 42.0089 48.2287 41.5262 48.5235 41.2264L48.9018 40.8408L48.5872 40.8414C48.1668 40.8414 47.8259 40.5008 47.8257 40.0804C47.8257 39.66 48.1662 39.3191 48.5866 39.319Z" fill="#232323"/>
<path d="M28.0728 35.8126C27.656 35.7573 27.2726 36.0501 27.2172 36.467C27.1112 37.2655 26.9201 38.699 26.7781 40.0558C26.7071 40.7336 26.648 41.4006 26.6174 41.9643C26.5884 42.4998 26.5796 43.0249 26.6422 43.3691C26.6542 43.4349 26.675 43.4991 26.7037 43.5595L28.2295 46.7716C28.2142 48.3303 28.2239 51.5483 28.396 53.1265C28.5178 54.2428 28.9255 55.2723 29.319 56.1484C29.736 57.0766 30.0948 57.7566 30.2638 58.3602C30.3551 58.6862 30.4522 59.073 30.5593 59.5003C30.6652 59.9232 30.7794 60.3815 30.9033 60.8337C31.145 61.7162 31.443 62.6622 31.8233 63.3172C32.5421 64.555 33.1484 65.2048 34.4496 67.7379C34.4564 67.7511 34.4638 67.7647 34.4714 67.7775C34.8554 68.4281 35.3307 68.9094 35.9079 69.2468C36.4776 69.5798 37.1072 69.7495 37.7688 69.8367C38.4255 69.9232 39.1472 69.9326 39.9112 69.923C40.6966 69.913 41.5058 69.8833 42.4383 69.8833C42.9087 69.8833 43.4492 69.7461 43.9581 69.574C44.4828 69.3965 45.0436 69.1581 45.5781 68.9107C46.6379 68.4203 47.6753 67.8528 48.1448 67.614C48.5195 67.4234 48.6692 66.9656 48.4789 66.5908C48.2884 66.2161 47.8296 66.0663 47.4548 66.2567C46.9244 66.5265 45.9667 67.053 44.9386 67.5287C44.4294 67.7644 43.923 67.9774 43.4704 68.1305C43.0019 68.2889 42.6531 68.3605 42.4383 68.3605C41.5022 68.3605 40.6251 68.3909 39.8924 68.4002C39.1384 68.4097 38.5094 68.3981 37.9681 68.3268C37.4315 68.2561 37.0152 68.1303 36.6763 67.9322C36.3485 67.7406 36.0553 67.4589 35.7919 67.0171C34.5029 64.5115 33.7194 63.549 33.1409 62.5528C32.8716 62.0891 32.6162 61.3207 32.3726 60.4312C32.2538 59.9978 32.143 59.5556 32.0365 59.1305C31.9311 58.7096 31.8283 58.3003 31.7301 57.9497C31.5202 57.2 31.0651 56.3165 30.709 55.5238C30.3295 54.679 30.0047 53.8295 29.9099 52.961C29.7426 51.4267 29.7341 48.1048 29.7523 46.61C29.7536 46.4941 29.7276 46.3796 29.6779 46.2749L28.1323 43.0172C28.1156 42.8427 28.1127 42.5181 28.1383 42.0466C28.1668 41.5195 28.2231 40.8812 28.2929 40.2145C28.4325 38.8817 28.6208 37.4683 28.7272 36.6672C28.7824 36.2506 28.4894 35.8682 28.0728 35.8126Z" fill="#232323"/>
<path d="M61.9875 16.4568C59.9772 15.9351 58.5506 16.1202 57.6153 16.7909C56.6783 17.4628 56.4221 18.487 56.4643 19.2149C56.4887 19.6346 56.8486 19.955 57.2684 19.9307C57.6881 19.9063 58.0085 19.5464 57.9842 19.1266C57.9643 18.7839 58.0903 18.3251 58.5027 18.0291C58.9172 17.7319 59.8085 17.4639 61.6048 17.93C62.0117 18.0356 62.427 17.7916 62.5327 17.3847C62.6383 16.9778 62.3944 16.5625 61.9875 16.4568Z" fill="#232323"/>
<path d="M65.7639 24.3519C65.5898 23.9693 65.1384 23.8002 64.7556 23.9742C64.3729 24.1483 64.2039 24.5997 64.3779 24.9825C65.0775 26.5217 66.6221 30.0839 67.8369 31.8301C67.8581 31.8607 67.9068 31.9599 67.9301 32.186C67.9527 32.4052 67.9458 32.6898 67.9063 33.0386C67.8273 33.7372 67.6284 34.5944 67.3749 35.5172C67.1221 36.4375 66.8267 37.3828 66.56 38.2683C66.2986 39.1363 66.0594 39.9649 65.9423 40.6001C65.8662 41.0136 66.1396 41.4111 66.5531 41.4874C66.9666 41.5636 67.3642 41.2893 67.4404 40.8757C67.5396 40.3371 67.7529 39.5888 68.0183 38.7075C68.2787 37.8432 68.5848 36.8649 68.8442 35.9207C69.1029 34.979 69.3275 34.0296 69.4202 33.2102C69.4666 32.8 69.4827 32.3972 69.445 32.0304C69.408 31.6709 69.3129 31.2854 69.0871 30.9607C67.9746 29.3617 66.5063 25.9853 65.7639 24.3519Z" fill="#232323"/>
<path d="M51.6104 14.1534C50.9138 14.2263 50.2057 14.5378 49.4878 15.0962C49.1559 15.3544 49.0958 15.833 49.354 16.1649C49.6122 16.4967 50.0909 16.5559 50.4227 16.2978C50.9766 15.867 51.423 15.7035 51.7691 15.6673C52.1081 15.6318 52.4146 15.7119 52.7099 15.8814C53.3425 16.2446 53.8709 16.9886 54.2862 17.7224C54.4934 18.0884 54.9573 18.2171 55.3233 18.0099C55.6892 17.8028 55.8179 17.3389 55.6108 16.9729C55.1817 16.2148 54.4852 15.1447 53.4683 14.5608C52.9388 14.2568 52.3142 14.0797 51.6104 14.1534Z" fill="#232323"/>
<path d="M48.579 11.4021C46.9714 11.3189 44.1137 12.727 42.6851 17.6034C42.567 18.0069 42.7981 18.43 43.2016 18.5482C43.6049 18.6661 44.0281 18.4349 44.1464 18.0317C45.4509 13.5792 47.8297 12.8885 48.4997 12.9229C48.9197 12.9447 49.278 12.6221 49.2998 12.2022C49.3215 11.7823 48.9988 11.424 48.579 11.4021Z" fill="#232323"/>
<path d="M41.2811 13.355C40.5992 13.2295 39.6323 13.167 38.5399 13.5368C37.4422 13.9084 36.283 14.6948 35.183 16.1599C34.9306 16.496 34.9983 16.9732 35.3341 17.2257C35.6704 17.4782 36.1485 17.4107 36.401 17.0744C37.343 15.8196 38.2608 15.2393 39.0289 14.9793C39.802 14.7177 40.4904 14.7583 41.0063 14.8533C41.4197 14.9291 41.8164 14.6555 41.8925 14.2421C41.9686 13.8286 41.6947 13.4311 41.2811 13.355Z" fill="#232323"/>
<path d="M42.0749 59.4164L42.1745 59.3955C42.323 59.3644 42.4736 59.439 42.5388 59.5761C42.6177 59.742 42.5459 59.9412 42.3866 60.0328C41.7346 60.4077 40.7881 61.1233 39.881 61.6395C38.3938 62.4856 36.1035 62.8959 34.9323 62.4856C34.187 62.2246 33.2588 61.2473 32.8463 60.5949C32.7331 60.4158 32.7827 60.1896 32.9379 60.0454L33.4907 59.5318C33.7326 59.3071 34.0687 59.214 34.3917 59.2824L35.8356 59.5877L37.0961 59.0545C37.4273 58.9144 37.7898 58.8648 38.1464 58.9107L42.0749 59.4164Z" fill="#FED1D0"/>
<path d="M30.7996 24.3007C30.7378 23.8848 30.35 23.5975 29.9341 23.6592C28.8729 23.8167 27.2416 24.2487 25.7365 25.0452C24.2449 25.8346 22.7506 27.0519 22.1922 28.8393C21.5583 30.8686 21.6069 32.83 21.9464 34.417C22.2794 35.9733 22.9142 37.2665 23.5584 37.9107C23.8556 38.2078 24.3377 38.2076 24.635 37.9107C24.9324 37.6133 24.9324 37.1304 24.635 36.833C24.2779 36.4756 23.7356 35.5007 23.4354 34.0977C23.1418 32.7249 23.1019 31.0342 23.6456 29.2934C24.0296 28.0644 25.1077 27.1011 26.4483 26.3915C27.7752 25.6893 29.2364 25.3029 30.1582 25.1662C30.574 25.1043 30.8613 24.7165 30.7996 24.3007Z" fill="#232323"/>
<path d="M30.2204 31.1919C30.2205 30.4548 30.4951 29.5493 30.8846 28.6717C31.2681 27.808 31.7282 27.047 32.0257 26.6235C32.2674 26.2794 32.1844 25.8054 31.8403 25.5637C31.4962 25.322 31.0222 25.405 30.7805 25.7491C30.4303 26.2477 29.919 27.0937 29.4927 28.0541C29.0724 29.0009 28.6977 30.138 28.6976 31.1919C28.6974 33.2431 29.8467 34.9305 30.4424 35.5491C30.7341 35.8516 31.2153 35.8604 31.5181 35.5689C31.821 35.2773 31.8306 34.7952 31.5389 34.4923C31.1137 34.0506 30.2202 32.7223 30.2204 31.1919Z" fill="#232323"/>
<path d="M41.2514 22.5914C40.8318 22.6164 40.512 22.9769 40.5366 23.3965C40.6196 24.797 41.0099 27.0225 41.9117 29.2239C42.8108 31.4189 44.2553 33.6779 46.5019 35.0207C46.8628 35.2364 47.3301 35.1189 47.5458 34.758C47.7616 34.397 47.644 33.9298 47.2831 33.714C45.4304 32.6067 44.1551 30.6834 43.3205 28.646C42.4887 26.6152 42.1306 24.5576 42.0564 23.3072C42.0315 22.8875 41.6712 22.5666 41.2514 22.5914Z" fill="#232323"/>
<path d="M49.9025 23.6509C49.482 23.6482 49.1389 23.9869 49.1361 24.4073C49.1258 25.967 49.4408 28.4173 50.418 30.7801C51.3961 33.1451 53.0732 35.5017 55.835 36.7147C56.2199 36.8837 56.6691 36.7088 56.8383 36.324C57.0074 35.9391 56.8325 35.4899 56.4477 35.3207C54.1679 34.3196 52.713 32.3457 51.8248 30.1981C50.9358 28.0485 50.6497 25.8033 50.6589 24.4173C50.6616 23.9968 50.3229 23.6537 49.9025 23.6509Z" fill="#232323"/>
<path d="M54.0218 22.7142C53.6699 22.484 53.1982 22.5833 52.968 22.9353C52.7379 23.2872 52.8362 23.759 53.1881 23.9891C54.0565 24.5572 56.4049 26.8256 57.9577 30.9815C58.1049 31.3754 58.5433 31.5758 58.9372 31.4286C59.331 31.2814 59.5304 30.8429 59.3834 30.4491C57.7318 26.029 55.1955 23.4818 54.0218 22.7142Z" fill="#232323"/>
<path d="M61.906 28.6333C61.6357 28.3114 61.1554 28.27 60.8333 28.5401C60.5113 28.8104 60.469 29.2907 60.7391 29.6128C61.625 30.6689 63.6539 33.3093 64.1872 37.2665C64.2434 37.6832 64.6271 37.976 65.0438 37.9198C65.4603 37.8634 65.7523 37.4798 65.6962 37.0632C65.1064 32.6868 62.8656 29.7773 61.906 28.6333Z" fill="#232323"/>
<path d="M43.3288 59.0497C43.2006 58.8005 42.8943 58.702 42.645 58.8301L41.6657 59.3338L38.4954 59.4517C38.4548 59.4532 38.4142 59.4599 38.3751 59.471L35.8786 60.18L34.0266 59.6794L33.9636 59.6669C33.9007 59.6581 33.8365 59.6609 33.7745 59.6759L33.035 59.8542C32.7626 59.9201 32.5951 60.1948 32.661 60.4673C32.7269 60.7398 33.0017 60.9073 33.2741 60.8413L33.8857 60.6926L35.7497 61.1967C35.8386 61.2208 35.9329 61.2207 36.0215 61.1955L38.5926 60.464L41.8174 60.344C41.8916 60.3412 41.9645 60.3225 42.0306 60.2885L43.1092 59.7335C43.3584 59.6052 43.4569 59.2989 43.3288 59.0497Z" fill="#FF9D9D"/>
<path d="M32.9537 18.5669C32.8675 18.1553 32.4631 17.8908 32.0515 17.977C31.6403 18.0633 31.3767 18.4669 31.4626 18.8782C31.8771 20.8568 32.6388 22.062 33.7002 22.826C34.7089 23.5519 35.9247 23.8165 36.9887 24.092C37.2168 24.151 37.4597 24.1013 37.646 23.9572C37.8322 23.813 37.9413 23.5908 37.9415 23.3554C37.9415 22.1947 38.4242 21.5119 38.9914 21.0672C39.593 20.5956 40.3116 20.3768 40.7749 20.2473C41.1796 20.134 41.4164 19.7143 41.3033 19.3094C41.1901 18.9045 40.7694 18.6678 40.3645 18.781C39.8862 18.9147 38.9102 19.1963 38.0525 19.8686C37.3432 20.4246 36.7307 21.2377 36.5089 22.3927C35.7473 22.186 35.1255 21.9747 34.5905 21.5897C33.9191 21.1065 33.3136 20.2846 32.9537 18.5669Z" fill="#232323"/>
<path d="M39.2234 27.7756C38.831 27.6246 38.39 27.8204 38.2389 28.2128C37.975 28.8985 37.7089 30.0314 37.7204 31.2921C37.732 32.5562 38.0243 34.0108 38.9468 35.2667C39.1958 35.6054 39.6727 35.6782 40.0116 35.4293C40.3503 35.1803 40.423 34.7033 40.1741 34.3645C39.4974 33.4431 39.2529 32.3337 39.2432 31.2782C39.2336 30.2196 39.4617 29.2769 39.6606 28.7601C39.8116 28.3676 39.6158 27.9267 39.2234 27.7756Z" fill="#232323"/>
<path d="M33.1524 29.021C32.7354 28.9662 32.3526 29.2594 32.2978 29.6763C32.1291 30.96 32.6996 33.5946 35.8549 34.8386C36.2461 34.9928 36.6882 34.8005 36.8424 34.4093C36.9965 34.0182 36.8051 33.5761 36.4141 33.4218C34.0113 32.4747 33.7148 30.5812 33.8077 29.8746C33.8624 29.4578 33.5691 29.0759 33.1524 29.021Z" fill="#232323"/>
<path d="M30.5958 16.5524C30.3408 16.2181 29.8624 16.1537 29.5281 16.4087C28.9902 16.8188 28.2389 17.576 27.6444 18.566C27.0481 19.559 26.579 20.8402 26.7036 22.2718C26.7402 22.6905 27.1096 23.0003 27.5284 22.9638C27.9471 22.9272 28.2569 22.5578 28.2204 22.139C28.1321 21.1227 28.4621 20.1629 28.9501 19.3502C29.4399 18.5345 30.0586 17.9202 30.4521 17.6202C30.7864 17.3652 30.8508 16.8868 30.5958 16.5524Z" fill="#232323"/>
<path d="M28.2051 20.0479C28.1153 19.6371 27.7098 19.3771 27.299 19.467C26.4911 19.6436 25.2736 20.1118 24.1354 20.9521C22.9903 21.7975 21.8876 23.0493 21.4051 24.7987C21.2933 25.2041 21.5311 25.6228 21.9365 25.7346C22.3418 25.8464 22.7605 25.6086 22.8724 25.2032C23.2415 23.8652 24.091 22.8768 25.0396 22.1765C25.9949 21.4712 27.0127 21.0878 27.6242 20.9541C28.035 20.8642 28.2949 20.4587 28.2051 20.0479Z" fill="#232323"/>
<path d="M57.1719 31.5359C56.9387 31.186 56.466 31.0915 56.1161 31.3247C55.7662 31.5579 55.6717 32.0307 55.9049 32.3805C56.3153 32.9963 57.0519 33.9603 57.9551 34.8938C58.8494 35.8179 59.9605 36.7676 61.1217 37.29C61.5051 37.4625 61.9554 37.2917 62.128 36.9083C62.3005 36.5248 62.1297 36.0746 61.7463 35.902C60.8456 35.4968 59.8944 34.7079 59.0496 33.8349C58.2139 32.9713 57.5343 32.0795 57.1719 31.5359Z" fill="#232323"/>
<path opacity="0.2" d="M44.1249 68.7354C41.1787 69.8227 39.9712 69.3097 38.8268 69.2857C38.6396 69.7248 38.3774 71.389 38.8268 74.5332C39.138 76.7106 41.1353 78.0404 42.6276 79.3708C43.297 79.9676 44.7276 79.8429 45.0878 79.0216L47.4801 73.5665L54.8986 66.8101C55.4659 66.2935 55.9728 65.7142 56.4096 65.0833L57.63 63.3207C57.8389 63.0188 57.8687 62.6277 57.7078 62.2978L57.5671 62.0092C57.3692 61.6036 56.7396 61.6251 56.4949 62.0043C54.1632 65.6175 47.3148 67.2978 44.1249 68.7354Z" fill="#232323"/>
</g>
<defs>
<linearGradient id="paint0_linear_3267_2370" x1="29.1421" y1="41.0982" x2="30.2037" y2="55.5184" gradientUnits="userSpaceOnUse">
<stop stop-color="#232323"/>
<stop offset="1" stop-color="#232323"/>
</linearGradient>
<linearGradient id="paint1_linear_3267_2370" x1="42.4122" y1="39.4584" x2="42.891" y2="49.8644" gradientUnits="userSpaceOnUse">
<stop stop-color="#232323"/>
<stop offset="1" stop-color="#232323"/>
</linearGradient>
<clipPath id="clip0_3267_2370">
<rect width="91.368" height="91.368" rx="24" fill="white"/>
</clipPath>
</defs>
</svg>
