<svg viewBox="0 0 93 93" fill="none" xmlns="http://www.w3.org/2000/svg">
<g clip-path="url(#clip0_3265_35588)">
<rect width="92.664" height="92.664" rx="24" transform="matrix(-1 0 0 1 92.664 0)" fill="white"/>
<path d="M29.0582 56.8892C27.8364 59.394 26.1054 61.7511 25.3926 62.6165C26.0036 64.9329 27.4545 70.0849 28.3709 72.162C29.5163 74.7583 37.0763 81.4783 47.92 78.8056C56.5949 76.6674 56.8291 69.7183 55.8618 66.5111C59.2472 64.0674 65.7891 57.7598 64.8727 52.0783C63.7272 44.9765 65.8654 43.9838 66.0181 41.082C66.1403 38.7605 64.8981 37.0092 64.2618 36.4238C64.6283 35.0187 64.1091 33.9038 63.8036 33.522L64.8727 27.7183C64.1854 26.2165 62.6581 22.7547 62.0472 20.922C61.2836 18.6311 59.5272 14.8892 56.7781 12.8274C54.0291 10.7656 51.28 9.16198 45.2472 10.4602C40.4211 11.4987 36.4654 13.8456 35.0909 14.8892C33.64 19.6492 30.0356 29.5816 27.2254 31.2311C23.7127 33.2929 24.3236 34.5147 24.4 36.4238C24.4611 37.9511 25.6982 41.1838 26.3091 42.6092C26.2836 43.2456 26.4312 44.9613 27.2254 46.7329C28.0196 48.5045 29.2363 48.4892 29.7454 48.2602L30.1272 51.3911C30.28 52.1802 30.28 54.3845 29.0582 56.8892Z" fill="white"/>
<path d="M35.3233 77.6084C28.354 73.5006 26.6914 67.3806 26.4145 63.6883C26.271 61.7742 26.8054 60.3434 27.4884 59.5426C24.9046 61.2074 18.5663 64.0857 12.7829 66.7105C5.55381 69.9914 -4.73353 75.9352 -8.07874 100.905L87.5904 94.9385C85.3965 89.1199 80.4283 76.2524 77.7956 73.6197C75.1629 70.987 67.1599 67.658 63.4875 66.3226C61.0837 68.5961 57.9013 67.258 55.9512 66.8103C57.7433 79.3549 42.2926 81.7161 35.3233 77.6084Z" fill="#232323"/>
<path d="M25.5963 31.7431C26.171 31.4942 26.7681 31.4831 27.3056 31.5822C28.3539 31.7757 29.3211 32.4141 29.8916 32.9175C30.2113 33.1996 30.2419 33.6876 29.96 34.0074C29.6779 34.3271 29.1899 34.3577 28.8701 34.0758C28.4138 33.6732 27.6951 33.2241 27.025 33.1005C26.7036 33.0412 26.4334 33.0644 26.2106 33.1608C25.9963 33.2536 25.7529 33.4453 25.5319 33.8596C25.2671 34.3561 25.1643 35.0724 25.2192 35.9751C25.2733 36.8647 25.4747 37.8513 25.733 38.8256C25.9907 39.7974 26.2973 40.7277 26.5535 41.5133C26.6801 41.9015 26.7966 42.2613 26.8853 42.565C26.9697 42.8542 27.0465 43.1501 27.0693 43.3895C27.1032 43.7455 27.1285 44.2726 27.2402 44.8796C27.3521 45.4877 27.5363 46.0778 27.8354 46.5134C28.1143 46.9195 28.4839 47.1852 29.05 47.2273C29.664 47.273 30.6079 47.0623 32.0091 46.239C32.3767 46.023 32.8497 46.1461 33.0659 46.5134C33.282 46.8811 33.1591 47.3551 32.7914 47.5712C31.2635 48.469 29.9956 48.8466 28.9354 48.7677C27.8275 48.6853 27.0612 48.1135 26.5625 47.3872C26.084 46.6904 25.8487 45.8533 25.7209 45.1591C25.593 44.464 25.5584 43.8133 25.5319 43.5352C25.5244 43.4574 25.487 43.2889 25.4022 42.9983C25.3215 42.7218 25.2126 42.3848 25.0845 41.9919C24.8311 41.2147 24.5107 40.242 24.2399 39.2208C23.9698 38.202 23.7408 37.1041 23.6778 36.0686C23.6157 35.0464 23.7097 33.996 24.1695 33.1337C24.5282 32.461 25.013 31.9957 25.5963 31.7431Z" fill="#232323"/>
<path d="M30.7925 45.4293C30.2532 46.1884 29.2648 46.4122 28.5851 45.9292C27.9053 45.4461 27.7914 44.4392 28.3308 43.6801C28.8702 42.921 29.8585 42.6972 30.5383 43.1803C31.2181 43.6633 31.3319 44.6702 30.7925 45.4293Z" fill="#232323"/>
<path d="M28.009 36.2752C28.4217 36.1691 28.8426 36.4176 28.9491 36.8302L29.2005 37.8045H29.7686C30.195 37.8045 30.5408 38.1503 30.5408 38.5767C30.5405 39.003 30.1949 39.3489 29.7686 39.3489H29.5987L29.7555 39.9593C29.8619 40.3721 29.6141 40.7927 29.2015 40.8994C28.7885 41.0059 28.3669 40.7573 28.2604 40.3444L28.004 39.3489H27.3544C26.9281 39.3489 26.5825 39.003 26.5822 38.5767C26.5822 38.1503 26.928 37.8045 27.3544 37.8045H27.6058L27.454 37.2163C27.3475 36.8034 27.596 36.3817 28.009 36.2752Z" fill="#232323"/>
<path d="M29.6799 47.352C30.1009 47.2858 30.4961 47.5735 30.5627 47.9945C30.6859 48.7749 30.8513 50.024 30.9498 51.2482C31.0452 52.4334 31.0897 53.7207 30.9156 54.5039C30.7519 55.2403 30.2194 56.6564 29.5583 58.0894C28.8957 59.5255 28.0533 61.0891 27.2326 62.0922C26.9625 62.4223 26.4768 62.4708 26.1467 62.2008C25.8167 61.9307 25.7681 61.4449 26.0381 61.1149C26.7302 60.2689 27.5065 58.851 28.1566 57.4419C28.8079 56.0303 29.282 54.7376 29.4084 54.1691C29.5243 53.6477 29.5084 52.5886 29.4105 51.3719C29.3157 50.1945 29.1558 48.9855 29.0374 48.2358C28.9709 47.8146 29.2587 47.4185 29.6799 47.352Z" fill="#232323"/>
<path d="M58.8122 27.0116C59.1255 26.7225 59.6139 26.7416 59.9031 27.0548C60.6447 27.8582 61.7295 29.1337 62.7164 30.4302C63.6845 31.7019 64.6252 33.08 65.0079 34.0639C65.2971 34.808 65.2551 35.5511 64.9455 36.2227C64.6454 36.8735 64.1135 37.4192 63.4755 37.8576C62.2029 38.7321 60.3487 39.2931 58.3496 39.4201C57.924 39.4471 57.5572 39.1238 57.5302 38.6981C57.5033 38.2728 57.8258 37.9059 58.2511 37.8787C60.057 37.764 61.6194 37.259 62.6008 36.5846C63.0898 36.2485 63.3941 35.8988 63.5429 35.5762C63.682 35.2744 63.7014 34.9659 63.568 34.623C63.2741 33.8675 62.4642 32.648 61.4877 31.3653C60.5298 30.1069 59.4759 28.8695 58.7679 28.1025C58.4789 27.7891 58.4989 27.3008 58.8122 27.0116ZM48.119 9.04989C52.1454 9.14353 54.7279 10.1627 56.4684 11.3695C58.1509 12.5362 59.0851 13.9525 59.5331 14.4241C59.7334 14.6351 59.9634 14.967 60.1967 15.3351C60.4394 15.7181 60.7171 16.1905 61.0131 16.7176C61.6057 17.7728 62.2866 19.0715 62.9386 20.3604C63.591 21.65 64.2179 22.937 64.7012 23.9721C64.9426 24.4892 65.15 24.947 65.3075 25.3123C65.4573 25.6599 65.5821 25.969 65.6363 26.164C65.7024 26.402 65.7069 26.705 65.7036 26.9221C65.6999 27.1696 65.6822 27.4338 65.6614 27.6521C65.621 28.0766 65.2434 28.3882 64.8188 28.3479C64.3946 28.3074 64.083 27.9305 64.1231 27.5063C64.1412 27.3156 64.1563 27.0939 64.1592 26.899C64.1607 26.8016 64.1595 26.7184 64.1552 26.6536C64.1504 26.5813 64.144 26.562 64.1482 26.5772C64.1267 26.5001 64.0453 26.2868 63.8888 25.9237C63.7396 25.5776 63.5394 25.1351 63.3016 24.6256C62.8261 23.6072 62.2072 22.3344 61.5611 21.0572C60.9146 19.7792 60.2444 18.5023 59.6668 17.4737C59.3778 16.9591 59.1151 16.5126 58.8926 16.1616C58.6607 15.7956 58.4995 15.5789 58.413 15.4879C57.7134 14.7515 57.1072 13.6914 55.5886 12.6384C54.128 11.6257 51.8485 10.6819 48.0838 10.5943C44.3793 10.5081 40.0059 11.9815 36.2183 14.1607C32.4154 16.3487 29.3703 19.1502 28.2007 21.573C26.2609 25.5914 26.3172 30.3426 26.605 32.2611C26.668 32.6827 26.3771 33.0757 25.9555 33.1389C25.5338 33.202 25.1409 32.911 25.0777 32.4894C24.7616 30.3812 24.6915 25.29 26.8101 20.9013C28.1772 18.0696 31.5351 15.0727 35.4481 12.8214C39.3761 10.5615 44.0323 8.95498 48.119 9.04989Z" fill="#232323"/>
<path d="M62.2655 24.9206C61.7333 25.2767 61.0442 25.8072 60.5728 26.1892C60.4697 26.2727 60.4108 26.3985 60.4108 26.5312C60.4108 26.7918 60.6333 26.9965 60.8934 26.9815C61.7578 26.9315 62.9824 26.9154 63.3296 27.117C63.7492 27.3606 64.4295 27.9179 64.7171 28.1661L64.9407 26.6721L64.3367 24.9206C63.934 24.7193 63.0292 24.4096 62.2655 24.9206Z" fill="#232323"/>
<path d="M47.4368 24.3314C48.7488 24.3116 52.0204 24.9839 54.0598 25.4039C54.4954 25.4936 54.8744 25.0009 54.6908 24.5958C54.3089 23.753 53.8207 22.7941 53.0156 22.5102C51.8282 22.0916 45.9537 20.8507 44.622 22.0916C43.6311 23.0149 42.6601 24.9841 41.8311 26.5213C41.721 26.7253 41.7485 26.9763 41.9016 27.1503C42.1198 27.3982 42.5052 27.399 42.736 27.1627C44.0481 25.8195 46.0029 24.3532 47.4368 24.3314Z" fill="#232323"/>
<path d="M27.7526 58.4535C28.1368 58.2685 28.5982 58.4303 28.7832 58.8145C28.9682 59.1987 28.8073 59.66 28.4232 59.8451C28.3141 59.8976 28.0001 60.0701 27.6661 60.2855C27.3121 60.5138 27.0399 60.724 26.9362 60.8455C26.8483 60.9486 26.8323 61.0089 26.8256 61.0537C26.8153 61.1221 26.8182 61.2327 26.8638 61.4589C26.9482 61.8775 27.1784 62.6361 27.2549 63.6558C27.5199 67.1897 29.0355 73.005 35.7169 76.9431C38.979 78.8658 44.3392 79.304 48.6593 77.7284C50.8014 76.947 52.6341 75.69 53.8274 73.9337C55.0125 72.1894 55.6118 69.8877 55.1878 66.9196C55.1276 66.4975 55.4213 66.1062 55.8434 66.0458C56.2656 65.9855 56.6568 66.2792 56.7171 66.7014C57.1891 70.0054 56.5299 72.7033 55.1044 74.8014C53.687 76.8875 51.5567 78.3157 49.1892 79.1793C44.4896 80.8934 38.6398 80.4584 34.9326 78.2733C27.6757 73.9959 26.0033 67.6223 25.7145 63.7715C25.6492 62.9011 25.4789 62.3795 25.3606 61.8108C24.1688 62.4522 22.7098 63.1401 21.0833 63.872C18.6999 64.9444 16.0147 66.0932 13.1039 67.4143C9.53556 69.0338 5.28811 71.2753 1.50686 76.1478C-2.28052 81.0281 -5.65198 88.6164 -7.3121 101.008C-7.36898 101.43 -7.7573 101.727 -8.17982 101.671C-8.60238 101.614 -8.8988 101.225 -8.84243 100.803C-7.15737 88.2251 -3.71257 80.3558 0.287226 75.2016C4.29323 70.0396 8.80469 67.669 12.4655 66.0076C15.3378 64.704 18.1428 63.5014 20.4499 62.4633C22.7533 61.4269 24.6179 60.5269 25.8553 59.7415C26.1262 59.4625 26.5182 59.1883 26.8296 58.9874C27.1989 58.7493 27.5692 58.5419 27.7526 58.4535Z" fill="#232323"/>
<path d="M31.1228 34.9591C30.4915 34.0726 29.1894 33.2012 28.5163 32.826L25.9023 32.2716C25.8759 29.8425 26.0449 24.4379 26.932 22.2518C28.041 19.5191 29.4271 17.7766 34.0607 14.6875C38.6944 11.5984 42.2191 10.2518 48.2785 9.89541C53.126 9.61026 56.7141 12.1528 57.9022 13.4598C56.9517 13.2617 54.4646 12.7231 52.1201 12.1528C49.1894 11.44 47.8428 11.1231 44.5557 11.836C42.2346 12.3394 39.136 13.7951 37.4331 14.7653C37.0661 14.9743 36.8848 15.3953 36.9578 15.8113C37.369 18.1551 37.9183 22.0302 37.5459 23.0043C37.031 24.3508 34.8132 25.9349 34.3776 27.1627C34.0493 28.0877 34.0232 31.9075 34.0544 33.7384C34.0577 33.9323 33.9531 34.1116 33.7822 34.2034L31.9314 35.1978C31.655 35.3464 31.3048 35.2147 31.1228 34.9591Z" fill="#232323"/>
<path d="M51.0129 28.2357C51.0129 29.4182 50.3443 30.3769 49.5196 30.3769C48.6949 30.3769 48.0264 29.4182 48.0264 28.2357C48.0264 27.0531 48.6949 26.0945 49.5196 26.0945C50.3443 26.0945 51.0129 27.0531 51.0129 28.2357Z" fill="#232323"/>
<path d="M64.389 30.1544C64.389 31.3369 63.877 32.2956 63.2454 32.2956C62.6138 32.2956 62.1018 31.3369 62.1018 30.1544C62.1018 28.9718 62.6138 28.0132 63.2454 28.0132C63.877 28.0132 64.389 28.9718 64.389 30.1544Z" fill="#232323"/>
<path opacity="0.2" d="M37.1241 71.2129L53.9503 66.3795C51.594 66.7389 44.8314 66.3061 39.6553 61.5134C34.4793 56.7208 33.0255 49.9312 32.9456 47.1355H31.9239L32.5033 58.7131C32.5468 59.5822 32.8644 60.4152 33.4107 61.0926L35.5821 63.785C35.7297 63.9681 35.8102 64.1962 35.8102 64.4314V70.2234C35.8102 70.908 36.466 71.402 37.1241 71.2129Z" fill="#232323"/>
<path d="M62.8188 66.2754C62.9444 65.8679 63.3765 65.6391 63.784 65.7646C65.5001 66.2935 68.2747 67.2821 71.0505 68.5377C73.807 69.7845 76.6477 71.331 78.4317 72.9959C79.3954 73.8954 80.4454 75.7062 81.4984 77.9066C82.5697 80.1454 83.6984 82.9078 84.7943 85.8187C86.9868 91.6427 89.0662 98.1125 90.3113 102.294C90.4328 102.703 90.2001 103.133 89.7915 103.255C89.3827 103.376 88.953 103.143 88.8312 102.735C87.5933 98.5771 85.5257 92.1435 83.3494 86.3626C82.2609 83.4713 81.15 80.7553 80.1058 78.5733C79.0432 76.3528 78.1008 74.7997 77.378 74.1251C75.7887 72.6418 73.1439 71.1801 70.4141 69.9453C67.7036 68.7193 64.9907 67.7526 63.3295 67.2406C62.9221 67.115 62.6933 66.6829 62.8188 66.2754Z" fill="#232323"/>
<path d="M53.9624 44.4626L52.3517 44.586C52.201 44.5976 52.0749 44.7046 52.0389 44.8513C51.9962 45.0252 52.0907 45.2028 52.2588 45.2645C54.1942 45.975 57.7994 47.4352 59.1386 47.5995C60.2274 47.7331 61.8494 47.7034 62.9818 47.6498C63.4754 47.6264 63.874 47.2448 63.9124 46.7522C63.9844 45.8293 64.0172 44.7198 63.8312 44.4626C63.6186 44.1685 62.8842 43.502 62.3892 43.0705C62.2447 42.9446 62.0419 42.912 61.8642 42.9837L61.2147 43.2457L59.8103 42.8995C59.7242 42.8783 59.6341 42.8796 59.5487 42.9035L53.9624 44.4626Z" fill="#FED1D0"/>
<path d="M55.3572 40.159C56.0125 39.968 56.8292 40.0212 57.5159 40.1178C58.2311 40.2185 58.9337 40.3866 59.4112 40.5059C59.8248 40.6093 60.0764 41.0284 59.9733 41.442C59.8699 41.8556 59.4508 42.1072 59.0372 42.0041C58.5681 41.8868 57.9309 41.7358 57.3007 41.6471C56.6426 41.5546 56.1076 41.5485 55.7895 41.6411C55.2899 41.7868 54.3369 42.2915 53.3593 42.8668C52.4138 43.4231 51.5425 43.9865 51.2478 44.1829C51.1408 44.2543 50.9741 44.4394 50.7903 44.7229C50.6189 44.9873 50.4807 45.261 50.4113 45.4207C50.2412 45.8116 49.7867 45.9907 49.3957 45.8208C49.0046 45.6508 48.8255 45.1954 48.9956 44.8043C49.0952 44.5752 49.272 44.2252 49.4943 43.8823C49.7044 43.5582 50.0115 43.1511 50.3911 42.8979C50.7059 42.6881 51.6019 42.1087 52.576 41.5355C53.519 40.9807 54.6398 40.3683 55.3572 40.159ZM62.3009 40.1389C62.431 40.1598 62.5327 40.2041 62.5764 40.2234C62.6643 40.2621 62.753 40.3109 62.8358 40.3622C63.0032 40.4657 63.1928 40.6071 63.3858 40.7774C63.7694 41.1159 64.211 41.6104 64.52 42.2283C64.7106 42.6096 64.5563 43.0731 64.1751 43.2639C63.7937 43.4547 63.3292 43.3005 63.1385 42.9191C62.9404 42.523 62.6414 42.1803 62.3643 41.9357C62.2393 41.8255 62.1275 41.7442 62.0455 41.6914C61.9705 41.7098 61.8694 41.7419 61.7509 41.7909C61.6647 41.8266 61.5881 41.8633 61.5337 41.8905C61.5071 41.9038 61.4865 41.9147 61.4734 41.9216C61.4669 41.9251 61.4618 41.9273 61.4593 41.9287H61.4583C61.0862 42.1364 60.6167 42.004 60.4086 41.6321C60.2007 41.2599 60.3333 40.7895 60.7052 40.5813H60.7062V40.5803H60.7073C60.708 40.5799 60.7093 40.5789 60.7103 40.5783C60.7126 40.5771 60.7158 40.5752 60.7193 40.5733C60.7263 40.5695 60.7359 40.5644 60.7475 40.5582C60.7708 40.5458 60.8034 40.5288 60.843 40.509C60.9215 40.4696 61.0318 40.4171 61.1597 40.3642C61.3878 40.2697 61.7774 40.1279 62.1612 40.1279L62.3009 40.1389Z" fill="#232323"/>
<path d="M32.6439 45.6865C32.6439 43.0746 31.7849 36.1933 31.6551 34.4074L33.2639 33.7373C34.2381 39.972 35.0918 40.7398 37.9631 44.2737C39.8627 46.6117 42.8826 47.6833 43.5158 48.6574C44.149 49.6316 46.5806 53.7425 49.4544 54.1809C52.3282 54.6192 55.4942 55.5447 58.027 53.2554C60.0533 51.424 60.0318 49.2628 59.5448 48.4348H61.8852V49.4704C61.8852 49.8243 61.9764 50.1723 62.1501 50.4808L62.4374 50.9908C62.8239 51.6773 63.8069 51.6929 64.2151 51.0191L64.6552 50.2926V51.0441C66.2625 54.0641 68.5031 56.9865 67.6264 60.4935C66.7496 64.0005 64.7526 66.5821 60.7585 66.8743C56.7644 67.1666 42.5904 65.6079 38.7911 61.3216C34.9919 57.0353 32.6439 52.9438 32.6439 45.6865Z" fill="#232323"/>
<path d="M63.7523 35.8667C64.0921 35.6093 64.5766 35.6757 64.8342 36.0155C66.0359 37.6008 66.6214 38.9946 66.7697 40.2585C66.9191 41.532 66.6147 42.5946 66.1795 43.4921C65.6341 44.6172 65.4472 46.3769 65.4294 47.149V50.8492C66.1769 52.2307 67.1437 53.7655 67.7852 55.2883C68.4742 56.9238 68.8706 58.7099 68.3774 60.6826C67.9182 62.5195 67.1489 64.184 65.912 65.4345C64.6613 66.6989 62.983 67.488 60.8163 67.6465C58.725 67.7995 54.1085 67.4708 49.5541 66.5747C47.269 66.1251 44.9696 65.5267 42.9883 64.7608C41.0267 64.0025 39.288 63.0471 38.2144 61.8359C36.2874 59.6618 34.6926 57.4967 33.5852 54.9253C32.4755 52.3486 31.8729 49.4047 31.8729 45.6881C31.8729 44.4293 31.6636 42.0985 31.4315 39.8171C31.2028 37.5698 30.9525 35.3723 30.8865 34.465C30.8625 34.1337 31.0534 33.8236 31.3601 33.6959L32.9689 33.0262L33.0523 32.9971C33.2491 32.9405 33.4617 32.9642 33.6425 33.0654C33.8492 33.1812 33.9919 33.3854 34.0286 33.6194C34.5132 36.7206 34.9567 38.3756 35.5971 39.6794C36.243 40.9941 37.1019 41.9889 38.5643 43.7887C39.4309 44.8553 40.5707 45.6529 41.631 46.3276C42.1411 46.6522 42.6707 46.9712 43.0849 47.2536C43.4841 47.5258 43.913 47.8509 44.1647 48.2379C44.4963 48.748 45.2271 49.9624 46.229 51.1156C47.2558 52.2975 48.4254 53.2441 49.5722 53.4191C51.0854 53.65 52.4813 53.9701 53.8705 53.9701C55.2067 53.9701 56.4261 53.665 57.5113 52.6841C59.3256 51.0441 59.1438 49.2753 58.8808 48.8282C58.7403 48.5894 58.7382 48.2934 58.8758 48.0529C59.0133 47.8125 59.2694 47.6648 59.5464 47.6648H61.8871C62.3135 47.665 62.6593 48.0107 62.6593 48.437V49.4717C62.6593 49.6929 62.7157 49.9113 62.8242 50.1041L63.1118 50.6139C63.2085 50.7853 63.4541 50.7892 63.5562 50.6209L63.885 50.078V47.1339C63.9019 46.3064 64.0923 44.2574 64.7899 42.8185C65.1341 42.1087 65.3416 41.3446 65.2354 40.4385C65.1279 39.5228 64.6909 38.3831 63.6035 36.9485C63.3458 36.6087 63.4124 36.1243 63.7523 35.8667ZM33.4173 45.6881C33.4173 49.2285 33.9899 51.9592 35.0039 54.314C36.0204 56.6742 37.4985 58.6991 39.3707 60.8113C40.1967 61.7432 41.6553 62.5897 43.5444 63.32C45.4139 64.0427 47.6203 64.6202 49.8527 65.0594C54.3333 65.9411 58.8009 66.2453 60.7037 66.1061C62.5309 65.9724 63.8486 65.3246 64.8141 64.3486C65.7934 63.3584 66.4618 61.9777 66.8793 60.3076C67.2626 58.7736 66.9764 57.3448 66.3625 55.8876C65.8078 54.5708 65.0488 53.3562 64.3003 52.0075C63.4742 52.5313 62.2989 52.3167 61.7665 51.372L61.4789 50.8612C61.2402 50.4372 61.1149 49.9583 61.1149 49.4717V49.2092H60.569C60.7124 50.5292 60.2098 52.3265 58.546 53.8304C57.0987 55.1383 55.4686 55.5145 53.8705 55.5145C52.3253 55.5145 50.7004 55.154 49.3399 54.9464C47.6129 54.683 46.1292 53.3546 45.0636 52.1281C43.9732 50.873 43.1714 49.5448 42.8697 49.0805C42.8048 48.9807 42.6192 48.806 42.2151 48.5305C41.8258 48.2651 41.3626 47.9878 40.8015 47.6306C39.7186 46.9416 38.3987 46.0334 37.3658 44.762C35.9568 43.028 34.953 41.8714 34.2106 40.3601C33.5434 39.0017 33.0975 37.3849 32.6612 34.826L32.4752 34.9034C32.5744 35.961 32.7741 37.7575 32.9678 39.6613C33.1976 41.9197 33.4173 44.3349 33.4173 45.6881Z" fill="#232323"/>
<path d="M52.9957 66.0189C53.2628 65.6865 53.7491 65.6333 54.0817 65.9003C54.4142 66.1673 54.4673 66.6537 54.2003 66.9862L52.5654 69.0223C52.2983 69.3546 51.812 69.4069 51.4795 69.1399C51.1473 68.8729 51.0941 68.3874 51.3609 68.055L52.9957 66.0189Z" fill="#232323"/>
<path d="M60.1428 44.2605C60.9896 44.2605 61.9603 44.4006 62.7781 44.8738L63.4618 45.1584C63.7243 45.2675 63.8485 45.5685 63.7393 45.831C63.6301 46.0934 63.3291 46.2176 63.0667 46.1085L62.3528 45.8119L62.3196 45.7979L62.2874 45.7798C61.6855 45.4224 60.9089 45.2901 60.1428 45.2901C59.382 45.2901 58.687 45.4201 58.2947 45.5344L58.1962 45.5626L55.8162 45.3042L54.0436 45.5576L53.9863 45.5535L52.1141 45.4037C51.8308 45.381 51.6198 45.1321 51.6425 44.8487C51.6654 44.5654 51.9133 44.3544 52.1966 44.3771L54.0134 44.5229L55.7388 44.2766L55.8032 44.2675L55.8665 44.2746L58.1168 44.5189C58.6027 44.3892 59.3412 44.2605 60.1428 44.2605Z" fill="#FF9D9D"/>
<path opacity="0.5" d="M44.4172 36.3507C43.695 35.4021 44.2148 33.7161 45.5783 32.5848C46.9417 31.4536 48.6324 31.3054 49.3546 32.254C50.0768 33.2025 50.3139 34.968 48.9505 36.0993C47.587 37.2305 45.1394 37.2992 44.4172 36.3507Z" fill="#FED1D0"/>
</g>
<defs>
<clipPath id="clip0_3265_35588">
<rect width="92.664" height="92.664" rx="24" transform="matrix(-1 0 0 1 92.664 0)" fill="white"/>
</clipPath>
</defs>
</svg>
