<svg viewBox="0 0 91 91" fill="none" xmlns="http://www.w3.org/2000/svg">
<g clip-path="url(#clip0_3265_35752)">
<rect width="90.72" height="90.72" rx="24" transform="matrix(-1 0 0 1 90.72 0)" fill="white"/>
<path d="M36.286 49.5664C36.8703 52.0007 38.8014 55.4493 39.694 56.8694V61.3123C39.2693 61.1368 38.3408 60.8911 38.0249 61.3123C37.6301 61.8387 36.286 64.9971 37.0379 68.2872C37.7898 71.5772 39.694 73.6829 44.7366 75.7885C49.7793 77.8941 53.9488 78.4863 59.7393 75.7885C65.5298 73.0907 65.7272 68.2214 65.2008 64.9971C64.7797 62.4177 63.6654 60.3252 63.1609 59.6014C64.0164 58.3293 65.9246 55.4296 66.7142 54.0083C67.7012 52.2317 68.7841 46.3096 69.2804 43.0195C69.6775 40.3875 69.115 36.7125 68.7841 35.2039L70.0013 26.5621L67.9321 22.5455L64.8892 17.19L56.4908 13.4168L46.2667 12.6865L42.9804 17.19L34.7038 22.5455V34.1085C34.298 35.0011 33.4379 37.1514 33.2432 38.612C33.0484 40.0726 34.1358 42.3041 34.7038 43.2372C34.9878 44.3327 35.7018 47.1321 36.286 49.5664Z" fill="white"/>
<path opacity="0.3" d="M62.4824 43.8245C63.2964 44.6311 64.9683 44.3459 66.2166 43.1874C67.4648 42.0289 67.8169 40.4358 67.0028 39.6292C66.1888 38.8226 64.5356 38.3764 63.2873 39.5349C62.039 40.6934 61.6683 43.0178 62.4824 43.8245Z" fill="#FED1D0"/>
<path opacity="0.3" d="M43.5147 43.0777C42.76 44.0508 40.939 43.9803 39.4472 42.9203C37.9555 41.8603 37.3579 40.2122 38.1126 39.2391C38.8673 38.266 40.5664 37.5598 42.0582 38.6198C43.5499 39.6798 44.2694 42.1046 43.5147 43.0777Z" fill="#FED1D0"/>
<path d="M32.4776 33.7101C33.4879 34.1142 34.3804 34.7878 34.7004 35.0741L35.606 34.3453C35.4945 31.9704 35.4201 27.0209 36.0139 26.222C36.6077 25.4231 38.3157 23.4928 39.0954 22.6276L40.063 19.8686L42.2196 18.6018C43.3841 18.4335 46.0869 17.7234 47.5822 16.2295C48.6702 16.3156 51.1194 16.3253 52.212 15.6757C53.3047 15.0261 55.6765 15.7743 56.7257 16.2295C57.6296 16.0954 59.9189 16.2314 61.845 17.8479C63.7712 19.4644 64.8042 20.4618 65.08 20.7585C65.6003 21.7293 66.7797 23.7895 67.3342 24.2635C67.5868 24.485 68.2738 25.1868 69.0013 26.222V33.7101C69.8904 34.1142 71.0893 32.0262 71.5776 30.9317L70.4157 30.5781C70.7525 30.2413 71.4564 29.4869 71.5776 29.1636C71.7292 28.7595 72.3354 26.2337 72.0323 25.2233C71.7898 24.4151 70.8535 24.0446 70.4157 23.9604L70.8704 22.0408C70.6683 21.5861 70.1934 20.5152 69.9106 19.8686C69.6277 19.222 68.0751 18.252 67.3342 17.8479V16.9891L65.6166 15.6757C65.4146 15.4568 64.8589 14.8876 64.2527 14.3623C63.6465 13.8369 61.6427 12.5942 60.7165 12.0385C60.5145 11.5333 59.9386 10.523 59.2515 10.523C58.5645 10.523 57.2814 11.5333 56.7257 12.0385V10.523C56.4731 10.2367 55.7255 9.54295 54.7556 9.05799C53.5432 8.45179 51.4215 8.1992 50.9668 8.40127C50.6031 8.56292 49.8049 9.31057 49.4513 9.66419C49.064 9.54631 48.148 9.38129 47.5822 9.66419C47.0164 9.94708 46.3361 10.6914 46.0667 11.0281C44.8543 10.2704 41.7223 11.8364 41.2171 12.8973C40.712 13.9581 41.9243 14.7159 39.0954 15.6757C36.8323 16.4435 36.0981 18.3867 36.0139 19.2624C34.8419 19.2624 34.2795 20.7779 34.1448 21.5356C33.5891 21.8892 32.3766 22.9299 31.9726 24.2635C31.5685 25.5972 32.1409 27.2777 32.4776 27.9512C32.2924 28.0859 31.8614 28.517 31.6189 29.1636C31.3764 29.8102 32.0904 32.464 32.4776 33.7101Z" fill="#232323"/>
<path d="M47.9894 28.5558C48.1955 28.8077 48.4749 29.3963 48.7014 29.926C48.847 30.2665 48.5756 30.6311 48.2062 30.6053C45.8855 30.4432 42.1394 30.2903 41.0453 30.6654C40.098 30.9902 39.0032 31.9608 38.282 32.7113C38.0544 32.9481 37.6406 32.8471 37.5645 32.5275C37.5418 32.4322 37.5548 32.332 37.6018 32.246C38.3204 30.9326 39.7745 28.5059 40.386 28.336C41.1771 28.1163 47.5939 28.0723 47.9894 28.5558Z" fill="#232323"/>
<path d="M58.1426 28.301C57.9581 28.5374 57.7092 29.084 57.5048 29.5829C57.3653 29.9232 57.6385 30.2821 58.0054 30.2556C60.1256 30.1024 63.4865 29.9623 64.4748 30.3174C65.3315 30.6253 66.3206 31.5404 66.9783 32.2552C67.1883 32.4834 67.5824 32.3895 67.6511 32.0872C67.6704 32.0023 67.6592 31.9134 67.619 31.8362C66.9651 30.5827 65.6348 28.2537 65.076 28.091C64.3546 27.881 58.5033 27.8389 58.1426 28.301Z" fill="#232323"/>
<path opacity="0.2" d="M45.5761 62.9864C43.9163 61.7634 40.7352 58.0362 39.3521 56.3254V60.3657H38.5876C37.8597 62.3676 36.8236 64.7117 37.173 66.3714C37.5224 68.0312 37.3865 69.1013 38.5876 70.4117H48.2551C48.5756 70.4117 48.8915 70.3352 49.1766 70.1888L56.6049 66.3714C51.0359 67.791 47.6509 64.5151 45.5761 62.9864Z" fill="#232323"/>
<path d="M46.1482 35.7077C46.1482 36.8523 45.3168 37.7802 44.2911 37.7802C43.2654 37.7802 42.4339 36.8523 42.4339 35.7077C42.4339 34.5631 43.2654 33.6353 44.2911 33.6353C45.3168 33.6353 46.1482 34.5631 46.1482 35.7077Z" fill="#232323"/>
<path d="M63.629 35.7077C63.629 36.8523 62.7975 37.7802 61.7719 37.7802C60.7462 37.7802 59.9147 36.8523 59.9147 35.7077C59.9147 34.5631 60.7462 33.6353 61.7719 33.6353C62.7975 33.6353 63.629 34.5631 63.629 35.7077Z" fill="#232323"/>
<path d="M57.3013 43.5827C57.9129 43.5527 58.3688 43.6873 58.6194 43.7598C59.0203 43.8761 59.2513 44.295 59.1352 44.696C59.0191 45.0969 58.6 45.3277 58.1991 45.2118C57.9772 45.1476 57.7237 45.0767 57.3762 45.0937C57.0309 45.1106 56.5435 45.2179 55.9016 45.5977C55.098 46.073 54.4233 46.3057 53.8216 46.3753C53.2126 46.4457 52.7365 46.342 52.3677 46.2405C51.9458 46.1243 51.615 45.9391 51.337 45.7906C51.0547 45.6398 50.7694 45.4922 50.3536 45.3595C49.7822 45.177 48.9989 45.2836 48.6831 45.3693C48.2803 45.4785 47.8653 45.2405 47.7559 44.8377C47.6465 44.4348 47.8845 44.0188 48.2874 43.9095C48.728 43.79 49.8425 43.6094 50.8133 43.9193C51.3615 44.0943 51.7428 44.2934 52.0487 44.4568C52.359 44.6225 52.5391 44.7192 52.7693 44.7826C53.0524 44.8606 53.3138 44.9117 53.6473 44.8732C53.9883 44.8337 54.4612 44.693 55.1318 44.2963C55.9641 43.804 56.6874 43.6128 57.3013 43.5827Z" fill="#232323"/>
<path d="M68.7222 40.4136C68.7222 39.5352 68.5477 38.0188 68.3619 36.3698C68.1808 34.7624 67.9908 33.0403 67.9908 31.8545V26.8352C67.0685 26.1334 66.6935 25.2668 66.6127 24.6075C66.3955 24.4231 66.1996 24.2021 66.0299 23.9834C65.7515 23.6244 65.4841 23.1981 65.2415 22.7677C64.8126 22.0072 64.4358 21.184 64.1872 20.5824C63.5343 20.1562 62.3665 19.3763 61.7341 18.8814C61.3232 18.5598 60.4986 17.9362 59.5567 17.4482C58.5788 16.9415 57.6456 16.6724 56.954 16.829C55.7864 17.0933 54.7221 16.8094 53.8995 16.6223C53.0247 16.4232 52.3978 16.3231 51.7614 16.575C50.438 17.0987 48.9376 17.0468 48.0326 16.9146C47.712 17.2616 47.31 17.5402 46.9065 17.7612C46.3347 18.0743 45.686 18.3168 45.0795 18.5014C44.4695 18.6871 43.8801 18.8201 43.4169 18.907C43.0698 18.9721 42.754 19.0176 42.5487 19.034C42.5107 19.0539 42.4541 19.0853 42.3794 19.1334C42.2016 19.2478 41.9719 19.415 41.7159 19.6118C41.2678 19.9564 40.7766 20.3659 40.4165 20.6749C40.1728 21.3253 39.6903 22.5252 39.2579 23.2461C38.9432 23.7706 38.273 24.5472 37.7282 25.1922C37.4413 25.5319 37.1767 25.849 36.9712 26.1166C36.8688 26.2499 36.7878 26.3626 36.729 26.4532C36.6738 26.5385 36.6549 26.5789 36.6523 26.5841C36.6257 26.6596 36.5719 26.9042 36.5135 27.3165C36.4584 27.7053 36.4065 28.1878 36.3688 28.6966C36.2913 29.7405 36.2816 30.7982 36.3904 31.3889C36.514 32.0598 36.4641 33.1341 36.3816 34.1491C36.2965 35.1947 36.1633 36.3059 36.0794 37.0855C36.0758 37.1181 36.0703 37.151 36.0626 37.1829C35.9849 37.5039 35.8771 38.2841 35.8146 39.1842C35.7522 40.0826 35.7416 41.0121 35.8293 41.6412C35.9481 42.4922 36.4706 45.1275 37.0736 47.7768C37.3738 49.0961 37.6915 50.4067 37.9841 51.4869C38.2842 52.5947 38.5395 53.3861 38.7076 53.7224C38.9123 54.1317 39.5259 55.0579 40.4362 56.2572C40.536 56.3886 40.5898 56.5498 40.5898 56.7149V62.1851C40.5898 62.6026 40.2513 62.9411 39.8338 62.9411C39.4164 62.9409 39.0778 62.6025 39.0778 62.1851V56.963C38.2447 55.8531 37.6133 54.915 37.3551 54.3987C37.1076 53.9037 36.8168 52.9615 36.5243 51.8816C36.2243 50.7741 35.9026 49.4421 35.6 48.1124C34.9971 45.4636 34.4598 42.7727 34.3311 41.8508C34.221 41.0617 34.2412 40.0042 34.3055 39.0788C34.3667 38.1984 34.4766 37.3573 34.5801 36.8935C34.6668 36.0918 34.7926 35.0336 34.8745 34.027C34.9599 32.9766 34.9842 32.1035 34.903 31.6625C34.7559 30.8635 34.7828 29.6353 34.8607 28.5854C34.9006 28.0475 34.9559 27.5309 35.0162 27.1049C35.0732 26.7029 35.1436 26.316 35.2269 26.0801C35.3283 25.7931 35.5663 25.4633 35.7722 25.1952C36.0022 24.8958 36.2889 24.5537 36.5735 24.2167C37.1716 23.5085 37.7275 22.8584 37.9615 22.4685C38.3588 21.8061 38.8618 20.5397 39.0689 19.9672L39.1073 19.8786C39.1511 19.7933 39.2107 19.7165 39.2835 19.6532C39.6624 19.3239 40.2528 18.8297 40.7935 18.4138C41.0624 18.2071 41.3315 18.0106 41.5613 17.8626C41.6752 17.7893 41.7937 17.7179 41.9069 17.6628C41.9849 17.6247 42.183 17.5299 42.4128 17.5299L42.6166 17.5072C42.7507 17.4891 42.9287 17.4599 43.1383 17.4206C43.5585 17.3418 44.092 17.2217 44.6385 17.0554C45.1885 16.888 45.7312 16.68 46.18 16.4343C46.6415 16.1816 46.9325 15.9271 47.0699 15.6999L47.1408 15.6015C47.3223 15.388 47.6106 15.2896 47.8899 15.3554C48.4833 15.4956 50.0017 15.6456 51.2053 15.1693C52.3244 14.7263 53.3809 14.9545 54.2342 15.1487C55.1397 15.3547 55.8497 15.5279 56.6203 15.3534C57.8669 15.0713 59.2192 15.57 60.2527 16.1055C61.3224 16.6598 62.236 17.3536 62.6663 17.6903C63.3085 18.1929 64.6191 19.0628 65.207 19.4425C65.3394 19.528 65.4414 19.6533 65.4994 19.7998C65.7215 20.3609 66.1141 21.2373 66.5586 22.0255C66.7809 22.4198 67.0081 22.7765 67.225 23.0561C67.4545 23.352 67.6228 23.4959 67.7122 23.5434C67.9864 23.6893 68.1432 23.9879 68.108 24.2965C68.0928 24.4288 68.1618 25.19 69.1445 25.7986C69.367 25.9363 69.5027 26.1798 69.5028 26.4414V31.8545C69.5028 32.9363 69.6795 34.5619 69.8641 36.2005C70.044 37.7975 70.2342 39.4268 70.2342 40.4136C70.2342 41.4122 69.9505 43.8454 69.5954 46.2175C69.2415 48.5813 68.7943 51.0426 68.4377 52.0726C68.0885 53.0815 67.4436 54.4221 66.7781 55.6468C66.1143 56.8683 65.3943 58.0385 64.8782 58.6935C64.6616 58.9685 64.3208 59.4717 63.8712 60.1336C63.431 60.7817 62.9042 61.5557 62.3385 62.3327C61.7736 63.1087 61.1608 63.8989 60.547 64.5801C59.9422 65.2513 59.2966 65.8614 58.6599 66.2328C57.5339 66.8897 56.1604 67.4941 54.4783 67.6247C52.7908 67.7558 50.8555 67.4057 48.6114 66.2525C46.8995 65.3728 45.0162 63.7145 43.3155 61.9528C43.0255 61.6524 43.0339 61.1737 43.3342 60.8837C43.6346 60.5938 44.1132 60.6021 44.4032 60.9024C46.0777 62.637 47.82 64.146 49.3025 64.9079C51.3335 65.9515 52.9908 66.2241 54.3612 66.1176C55.7369 66.0108 56.8865 65.5166 57.898 64.9266C58.3301 64.6745 58.8508 64.2041 59.4238 63.5681C59.9879 62.9421 60.5656 62.1987 61.1159 61.4428C61.6654 60.6881 62.1792 59.9322 62.6201 59.2831C63.0514 58.6481 63.4322 58.0859 63.6911 57.7573C64.1259 57.2054 64.7963 56.1258 65.4492 54.9243C66.1002 53.7262 66.6993 52.4703 67.0084 51.5774C67.3102 50.7055 67.7408 48.393 68.1001 45.9931C68.4581 43.6017 68.7222 41.2806 68.7222 40.4136Z" fill="#232323"/>
<path d="M32.9261 63.6878C35.9038 61.6445 38.4846 59.9712 39.2778 59.4441C35.9464 65.4082 36.9714 69.2642 40.3027 72.7934C43.6341 76.3226 53.3109 80.0954 61.4013 74.7405C67.8737 70.4566 64.8123 64.0378 64.3628 61.6445L84.3408 68.0723C89.2585 69.5327 96.3997 77.136 98.9378 81.6387C100.968 85.2409 102.885 103.563 103.519 112.731L61.798 116.869L4.84779 111.757L0.420197 88.0731C4.84779 70.5466 31.1109 64.9333 32.9261 63.6878Z" fill="#232323"/>
<path d="M38.861 58.8111C39.1516 58.618 39.537 58.649 39.7932 58.8859C40.0492 59.1229 40.1098 59.5046 39.9398 59.8093C38.3216 62.7064 37.8129 64.9994 38.0439 66.9391C38.2745 68.8741 39.2551 70.5773 40.8543 72.2714C42.3911 73.8994 45.4887 75.6614 49.2077 76.3527C52.904 77.0396 57.1369 76.6547 60.9858 74.1073C63.9815 72.1245 64.7348 69.7039 64.7234 67.4844C64.7176 66.3505 64.5102 65.2553 64.2677 64.2764C64.1462 63.7863 64.019 63.3352 63.9035 62.9169C63.7907 62.5088 63.6849 62.1164 63.6219 61.781C63.5728 61.5191 63.6652 61.2504 63.8651 61.0742C64.0649 60.8981 64.3429 60.84 64.5965 60.9216L84.5743 67.3496H84.5733C87.2156 68.1399 90.3342 70.5151 93.0606 73.1702C95.8119 75.8495 98.2831 78.9323 99.5979 81.2647C100.174 82.286 100.692 84.2242 101.164 86.5754C101.644 88.9663 102.097 91.8995 102.504 94.9957C103.318 101.19 103.957 108.078 104.276 112.675C104.304 113.083 104.002 113.44 103.595 113.48L61.8747 117.618C61.8274 117.622 61.7792 117.623 61.7319 117.619L4.78192 112.508C4.44478 112.477 4.16894 112.226 4.10664 111.894L-0.32108 88.2095C-0.341175 88.102 -0.338021 87.9906 -0.311236 87.8846C1.98589 78.7919 9.91586 72.8737 17.311 69.0988C21.0271 67.202 24.6542 65.823 27.456 64.8424C28.8513 64.3541 30.0601 63.9587 30.9476 63.6562C31.3966 63.5031 31.7619 63.3741 32.0392 63.2664C32.1774 63.2127 32.2868 63.1671 32.37 63.1286C32.4112 63.1095 32.4431 63.0939 32.4665 63.0813C32.4877 63.0699 32.4979 63.0629 32.4999 63.0616C35.4836 61.0143 38.0765 59.3324 38.861 58.8111ZM37.4218 61.5703C36.2943 62.3167 34.8776 63.2633 33.3554 64.3079C33.16 64.4419 32.8729 64.5648 32.5866 64.676C32.2777 64.7959 31.8872 64.9327 31.4358 65.0865C30.5224 65.3978 29.3462 65.7828 27.9551 66.2697C25.1838 67.2396 21.6279 68.5926 17.9981 70.4454C10.7466 74.147 3.37824 79.7516 1.19584 88.0982L5.48771 111.052L61.7979 116.106L102.712 112.047C102.381 107.497 101.772 101.032 101.005 95.1936C100.599 92.1132 100.152 89.2167 99.6815 86.8727C99.2032 84.4892 98.7203 82.7867 98.2808 82.0069C97.0574 79.8366 94.6896 76.866 92.0064 74.253C89.3036 71.6209 86.3995 69.4684 84.1274 68.7936C84.122 68.792 84.1161 68.7905 84.1107 68.7887L65.4332 62.7791C65.5285 63.123 65.6345 63.5059 65.7354 63.9131C65.991 64.9447 66.2287 66.1712 66.2354 67.4766C66.249 70.1358 65.2971 73.0672 61.8205 75.3683C57.5792 78.1755 52.9285 78.582 48.9311 77.8391C44.9563 77.1003 41.5494 75.2102 39.7548 73.309C38.0228 71.4741 36.8247 69.4844 36.5428 67.1182C36.3409 65.4242 36.6179 63.5991 37.4218 61.5703Z" fill="#232323"/>
<path d="M35.2512 34.33C35.6658 34.3793 35.9621 34.755 35.9127 35.1696C35.8633 35.5841 35.4876 35.8804 35.0731 35.8311C35.0397 35.8272 34.8333 35.831 34.5966 36.089C34.3583 36.3489 34.0548 36.9115 33.9794 38.0568C33.8856 39.4832 34.2049 40.8513 34.6616 41.9667C35.1252 43.099 35.6988 43.8974 36.0417 44.2091C36.3506 44.49 36.3737 44.9682 36.0929 45.2772C35.8121 45.586 35.3338 45.609 35.0248 45.3284C34.4607 44.8156 33.7772 43.7992 33.2618 42.5406C32.7394 41.265 32.3581 39.6641 32.4704 37.9574C32.5599 36.5967 32.9366 35.6614 33.4813 35.0673C34.0276 34.4715 34.7075 34.2654 35.2512 34.33Z" fill="#232323"/>
<path d="M51.5944 7.57957C51.9178 7.58502 52.2983 7.62026 52.6929 7.68096C53.471 7.80066 54.3905 8.0317 55.0948 8.38381C56.1653 8.91904 56.988 9.6781 57.2939 10.0248C57.4086 10.1547 57.4725 10.3198 57.48 10.4923C57.4944 10.4827 57.5088 10.4724 57.5233 10.4628C57.7805 10.2923 58.0588 10.127 58.3334 10.0021C58.5929 9.8841 58.9197 9.76886 59.2528 9.76882C59.9599 9.76882 60.4713 10.2672 60.755 10.6183C60.9931 10.913 61.1824 11.243 61.3131 11.5181C61.7764 11.7986 62.4105 12.189 63.0151 12.5782C63.6974 13.0175 64.3983 13.4885 64.7496 13.7929C65.3364 14.3016 65.8745 14.847 66.1218 15.11L67.7952 16.3907C67.982 16.5338 68.0915 16.7559 68.0915 16.9912V17.4105C68.4391 17.6155 68.8529 17.8768 69.2393 18.1567C69.5129 18.3548 69.7864 18.5723 70.017 18.7926C70.233 18.9991 70.4724 19.265 70.6046 19.5673C70.8866 20.2117 71.3604 21.2813 71.5624 21.7359C71.6296 21.887 71.6458 22.0563 71.6077 22.2172L71.3104 23.4703C71.4413 23.5312 71.5755 23.6013 71.7062 23.6849C72.1151 23.9466 72.5663 24.3708 72.7575 25.0079C72.8703 25.384 72.8843 25.8334 72.8667 26.2423C72.8484 26.6677 72.7922 27.1229 72.723 27.5447C72.5876 28.37 72.3886 29.1596 72.2869 29.4307C72.2184 29.6136 72.0991 29.7911 72.0054 29.92C71.9376 30.0132 71.8606 30.109 71.7819 30.2045L71.7987 30.2104C72.0061 30.2735 72.1773 30.4226 72.2672 30.6199C72.3571 30.8171 72.3575 31.044 72.2692 31.242C72.0109 31.8209 71.5608 32.6757 71.0387 33.3485C70.7812 33.6805 70.4694 34.0163 70.1174 34.2404C69.7634 34.4656 69.2404 34.65 68.69 34.3999C68.3099 34.2271 68.1412 33.7789 68.314 33.3988C68.4761 33.0423 68.8811 32.8723 69.2442 32.9952C69.2581 32.9885 69.2792 32.9812 69.3053 32.9646C69.4433 32.8767 69.6293 32.6976 69.8437 32.4213C70.0805 32.116 70.3053 31.7483 70.5003 31.3946L70.1971 31.303C69.9431 31.2257 69.7477 31.0211 69.6833 30.7636C69.6189 30.506 69.6944 30.2328 69.8821 30.045C70.0404 29.8866 70.288 29.6282 70.5062 29.3746C70.6154 29.2477 70.7102 29.1295 70.7818 29.0311C70.8647 28.917 70.8794 28.8789 70.8714 28.9002C70.9213 28.767 71.1009 28.0915 71.2307 27.3005C71.2941 26.9141 71.3419 26.5223 71.3567 26.1774C71.3722 25.8162 71.3481 25.571 71.3094 25.442C71.258 25.2711 71.1202 25.1053 70.8911 24.9587C70.6618 24.812 70.4097 24.7309 70.2739 24.7047C70.0718 24.6658 69.8945 24.5458 69.7827 24.373C69.6708 24.2001 69.6339 23.9887 69.6813 23.7883L70.077 22.1149C69.8448 21.5916 69.4622 20.728 69.2196 20.1737C69.2196 20.1737 69.2156 20.1655 69.2058 20.15C69.1955 20.1338 69.1801 20.1121 69.1586 20.0851C69.1146 20.0298 69.0527 19.9627 68.9716 19.8852C68.8084 19.7293 68.5947 19.5568 68.3524 19.3812C67.8679 19.0304 67.3224 18.7034 66.9733 18.513C66.7306 18.3805 66.5795 18.1261 66.5795 17.8496V17.3643L65.1591 16.2785C65.1245 16.2521 65.0921 16.2219 65.0626 16.1899C64.8752 15.9869 64.3397 15.4389 63.7593 14.9358C63.5044 14.7149 62.8997 14.3014 62.1971 13.8491C61.5127 13.4084 60.7866 12.9632 60.3287 12.6885C60.1872 12.6035 60.077 12.4746 60.0157 12.3213C59.9355 12.1207 59.7763 11.8117 59.5796 11.5683C59.3536 11.2886 59.2334 11.2809 59.2528 11.2808C59.2496 11.2811 59.2246 11.2834 59.1741 11.2976C59.1186 11.3132 59.0468 11.3386 58.9595 11.3783C58.7831 11.4585 58.5776 11.5778 58.359 11.7228C57.9216 12.0129 57.4919 12.3671 57.2358 12.5999C57.0145 12.8011 56.6953 12.8526 56.4218 12.7318C56.1482 12.6108 55.9711 12.3398 55.9709 12.0408V10.8339C55.6655 10.5425 55.1035 10.0788 54.4186 9.73634C53.9105 9.48233 53.163 9.28286 52.4636 9.17524C52.1197 9.12234 51.8088 9.09561 51.5688 9.09157C51.4484 9.08955 51.3566 9.09357 51.2932 9.10043C51.2758 9.10231 51.2629 9.10387 51.2538 9.10535C51.2453 9.11031 51.2342 9.11716 51.2203 9.12603C51.1829 9.14989 51.1361 9.18293 51.0805 9.22446C50.9691 9.3078 50.8392 9.41476 50.7025 9.53356C50.4294 9.77092 50.154 10.0338 49.9869 10.201C49.7895 10.3981 49.4997 10.4701 49.2329 10.389C49.0905 10.3457 48.8236 10.2877 48.5408 10.2709C48.2402 10.253 48.028 10.2886 47.9217 10.3417C47.743 10.4311 47.4979 10.6242 47.2385 10.8733C46.9896 11.1122 46.7744 11.3577 46.6587 11.5023C46.4191 11.8019 45.9928 11.874 45.6675 11.6706C45.5776 11.6146 45.3603 11.5556 44.9607 11.6037C44.58 11.6495 44.1302 11.7817 43.677 11.9768C43.2264 12.1707 42.8013 12.414 42.4692 12.6599C42.1152 12.9221 41.9465 13.129 41.9012 13.224C41.8456 13.3407 41.8287 13.4562 41.8274 13.6512C41.8264 13.8067 41.8486 14.1757 41.7615 14.5145C41.5432 15.3633 40.7809 15.9048 39.3399 16.3937C37.4294 17.0419 36.8314 18.6749 36.7677 19.337C36.7303 19.7243 36.4049 20.0199 36.0157 20.0201C35.8015 20.0201 35.5683 20.15 35.3276 20.5251C35.0911 20.8936 34.9454 21.3613 34.8905 21.6699C34.8534 21.8783 34.7305 22.0613 34.5519 22.1749C34.3327 22.3144 33.9433 22.6186 33.5655 23.0392C33.1869 23.4608 32.8565 23.9591 32.6973 24.4842C32.546 24.9839 32.5681 25.5982 32.6904 26.2079C32.8113 26.81 33.0153 27.3349 33.1551 27.6146C33.3203 27.9451 33.2226 28.3471 32.9237 28.5645C32.8451 28.6217 32.5133 28.9373 32.3282 29.4307C32.3421 29.3936 32.3295 29.4061 32.3272 29.5115C32.3252 29.6045 32.3324 29.7317 32.3498 29.8924C32.3846 30.2133 32.456 30.6153 32.5516 31.053C32.7108 31.7818 32.9265 32.566 33.1029 33.1595C34.0677 33.6047 34.8773 34.2186 35.2055 34.5121C35.5167 34.7905 35.5439 35.269 35.2656 35.5801C34.9872 35.8913 34.5087 35.9176 34.1975 35.6392C33.9236 35.3942 33.1051 34.7764 32.1982 34.4136C31.9868 34.329 31.8248 34.1537 31.7572 33.9362C31.5592 33.299 31.2776 32.3019 31.0751 31.3749C30.9742 30.9128 30.8887 30.4522 30.8457 30.0548C30.8242 29.8563 30.8123 29.6596 30.8162 29.479C30.8198 29.3108 30.8381 29.099 30.9127 28.9002C31.0878 28.4332 31.3422 28.0532 31.581 27.775C31.443 27.4176 31.3032 26.9799 31.208 26.5052C31.061 25.7728 30.9977 24.8801 31.2503 24.0462C31.4951 23.2381 31.9731 22.5496 32.4404 22.0292C32.7961 21.6332 33.1668 21.3101 33.472 21.0842C33.578 20.6694 33.7652 20.1608 34.0558 19.7081C34.3335 19.2754 34.7642 18.8112 35.3719 18.6105C35.6811 17.4365 36.6439 15.7112 38.8536 14.9614C40.2415 14.4905 40.2876 14.1727 40.2967 14.1375C40.3231 14.0347 40.3133 13.9552 40.3154 13.6404C40.3173 13.365 40.3391 12.9877 40.5359 12.5743C40.7433 12.1388 41.1555 11.7511 41.5685 11.4452C42.0036 11.1229 42.5327 10.8232 43.0795 10.5878C43.6239 10.3536 44.2163 10.1703 44.7795 10.1025C45.1169 10.0619 45.487 10.0573 45.8427 10.137C45.9486 10.0228 46.0665 9.90225 46.1911 9.7826C46.4806 9.50468 46.8584 9.18376 47.2454 8.99018C47.7047 8.76052 48.234 8.73743 48.6294 8.76082C48.8398 8.77328 49.0431 8.80079 49.224 8.83465C49.3723 8.69436 49.5413 8.53937 49.7113 8.39168C49.8636 8.25932 50.0235 8.12692 50.1749 8.01368C50.3154 7.90857 50.4893 7.78885 50.6612 7.71246C50.8246 7.63983 50.9993 7.61152 51.1307 7.59729C51.2751 7.58168 51.4331 7.57686 51.5944 7.57957Z" fill="#232323"/>
<path d="M69.0445 33.0032C69.3944 32.7759 69.8622 32.8751 70.0899 33.2247C70.1306 33.2873 70.6145 33.9197 70.9975 34.5851C71.4019 35.2878 71.8355 36.2392 71.908 37.2548C71.9795 38.2557 71.6785 39.6044 71.2879 40.8024C70.8934 42.0121 70.3593 43.2123 69.8694 43.9269C69.6333 44.2709 69.1633 44.3586 68.8191 44.1227C68.4747 43.8866 68.387 43.4158 68.6232 43.0714C68.9969 42.5263 69.477 41.4798 69.8507 40.3339C70.2282 39.1759 70.4497 38.0584 70.4 37.3621C70.3512 36.6804 70.0455 35.9645 69.6863 35.3402C69.3058 34.679 69.0013 34.3238 68.823 34.0496C68.5954 33.6996 68.6944 33.2308 69.0445 33.0032Z" fill="#232323"/>
<path d="M21.4958 44.3183C21.498 45.4217 21.2637 49.4154 21.1463 51.2743L21.4363 53.9489C20.1031 52.4151 19.0083 52.3338 17.9 52.8514C17.0134 53.2655 15.7602 54.657 15.2445 55.3011C13.494 56.2224 11.8491 58.4688 11.4996 60.428C11.2199 61.9953 10.1502 66.352 10.3254 68.8176L-2.13795 80.2847L-6.63063 91.1123L10.3255 90.0053L24.0865 76.2232C26.052 74.7942 30.2231 71.2182 31.1834 68.3458C32.1437 65.4735 32.3007 62.4322 32.2592 61.2706L33.8444 56.1627C36.6327 52.1748 42.3519 43.7952 42.922 42.1802C43.6347 40.1614 41.5563 39.0857 40.6838 39.6764C40.0082 40.1338 33.4136 47.738 29.888 51.8463C29.6738 52.0959 29.3517 52.2252 29.0243 52.1931L27.5312 52.0465C27.0509 51.9993 26.6718 51.6222 26.6262 51.1417C26.0633 45.2211 24.9849 34.4415 24.6148 32.8804C24.1297 30.8345 21.4443 30.6042 20.9213 31.7341C20.3983 32.8641 21.4931 42.9391 21.4958 44.3183Z" fill="white"/>
<path d="M22.9436 30.3804C23.9667 30.6012 25.0295 31.3484 25.3522 32.7089C25.4566 33.1494 25.5984 34.1648 25.7584 35.4715C25.9211 36.7999 26.1085 38.4835 26.3018 40.2999C26.6884 43.9337 27.0985 48.1115 27.38 51.0733C27.3911 51.1904 27.4831 51.2849 27.6064 51.2971L29.0996 51.4441C29.1817 51.4522 29.2627 51.4193 29.3163 51.3568C31.0801 49.3015 33.612 46.3711 35.7884 43.8964C36.8762 42.6594 37.8779 41.5334 38.651 40.6868C39.0371 40.2639 39.37 39.9069 39.6296 39.6392C39.8617 39.3998 40.0981 39.1648 40.2616 39.0541C40.683 38.7688 41.1867 38.7211 41.6232 38.7913C42.0672 38.8627 42.5107 39.0642 42.881 39.3713C43.6538 40.0121 44.1033 41.1143 43.637 42.4351C43.4623 42.9301 42.9479 43.8299 42.301 44.8837C41.6346 45.9692 40.774 47.3012 39.8474 48.7016C38.0234 51.4581 35.9312 54.5002 34.5341 56.5L33.0181 61.385C33.0455 62.6976 32.8622 65.7159 31.9019 68.5884C31.3633 70.1993 29.9724 71.9159 28.5527 73.359C27.1331 74.802 25.591 76.0625 24.5784 76.8029L13.5411 87.4629C13.2407 87.7529 12.7618 87.7447 12.4718 87.4444C12.182 87.1441 12.191 86.6654 12.4913 86.3754L23.5625 75.6826L23.6433 75.6149C24.5973 74.9214 26.0995 73.6969 27.4748 72.2989C28.872 70.8787 30.0467 69.3708 30.4684 68.1095C31.3932 65.3434 31.5445 62.3963 31.5053 61.301C31.5023 61.216 31.5138 61.1309 31.539 61.0496L33.1241 55.9418C33.1473 55.8673 33.1815 55.7963 33.2263 55.7324C34.6179 53.742 36.7409 50.6561 38.5858 47.8679C39.5086 46.4733 40.3592 45.1577 41.0126 44.0933C41.6855 42.9972 42.1008 42.2442 42.2111 41.9318C42.4575 41.2339 42.2225 40.7884 41.9161 40.5343C41.7471 40.3943 41.5521 40.3117 41.3835 40.2845C41.2072 40.2562 41.1237 40.2955 41.109 40.3055C41.1237 40.2955 41.0988 40.3128 41.0121 40.395C40.9367 40.4666 40.8373 40.5653 40.7151 40.6914C40.4709 40.9431 40.1495 41.2877 39.7673 41.7062C39.0037 42.5424 38.0093 43.6603 36.9235 44.8949C34.7526 47.3634 32.2246 50.2886 30.463 52.3414C30.0882 52.7781 29.5248 53.0047 28.9522 52.9485L27.459 52.8016C26.6219 52.7194 25.9553 52.0602 25.8751 51.2165C25.5939 48.2578 25.1837 44.086 24.7979 40.4598C24.6049 38.6465 24.4187 36.9719 24.2575 35.6551C24.0937 34.3172 23.9618 33.3989 23.8811 33.0584C23.7187 32.3732 23.1955 31.9815 22.6241 31.8582C22.3361 31.7961 22.0715 31.8123 21.8806 31.8727C21.7003 31.9298 21.6349 32.0069 21.613 32.0474C21.6102 32.0583 21.6011 32.0936 21.5905 32.1631C21.5749 32.2657 21.5616 32.4059 21.5523 32.5851C21.5337 32.943 21.5328 33.4124 21.5471 33.9667C21.5758 35.073 21.6631 36.467 21.7673 37.8805C21.8713 39.2925 21.9913 40.7115 22.0864 41.8704C22.1796 43.0063 22.2531 43.936 22.2539 44.3198C22.2561 45.4545 22.0185 49.481 21.902 51.3254C21.8756 51.742 21.517 52.0584 21.1004 52.0321C20.6838 52.0058 20.3677 51.6469 20.3937 51.2304C20.512 49.3574 20.7437 45.3965 20.7417 44.3236C20.7411 44.0176 20.6757 43.1703 20.5792 41.9943C20.4846 40.841 20.3635 39.4119 20.2589 37.9916C20.1544 36.5728 20.066 35.1496 20.0363 34.006C20.0216 33.4353 20.0205 32.9208 20.0421 32.5061C20.0529 32.2992 20.0696 32.1057 20.0953 31.9361C20.1191 31.7799 20.1587 31.5888 20.2371 31.4194L20.3385 31.2324C20.5983 30.8175 21.0098 30.5625 21.424 30.4314C21.8987 30.2811 22.4343 30.2705 22.9436 30.3804ZM19.7722 51.9013C20.5544 52.1004 21.2855 52.624 22.0087 53.456C22.5843 54.1182 23.2524 55.0835 23.7988 56.1698C24.1908 56.9489 24.5308 57.8174 24.7234 58.7005C25.3321 58.5829 25.9152 58.7125 26.4181 58.9255C26.998 59.1711 27.5341 59.5527 27.9829 59.9079C28.2101 60.0877 28.4265 60.2702 28.619 60.432C28.8159 60.5976 28.9837 60.738 29.1328 60.8523C30.3113 61.7554 30.8055 62.633 31.0849 63.1639C31.2793 63.5333 31.1375 63.9904 30.768 64.1849C30.3986 64.379 29.9414 64.2373 29.747 63.868C29.5206 63.4378 29.1501 62.7714 28.2128 62.053C28.0315 61.9141 27.8369 61.7503 27.6455 61.5894C27.4495 61.4245 27.2512 61.2571 27.0449 61.0938C26.6265 60.7626 26.2178 60.4823 25.8284 60.3174C25.4452 60.155 25.146 60.1316 24.8957 60.2145C24.6455 60.2973 24.3015 60.5337 23.9283 61.1861C23.5918 61.775 23.7208 62.7452 24.557 63.8198C25.3633 64.8561 26.6873 65.7713 28.1991 66.1158C28.606 66.2087 28.8611 66.6142 28.7685 67.0212C28.6757 67.4283 28.2701 67.6832 27.8631 67.5906C26.9131 67.3741 26.0271 66.9777 25.2527 66.4702C25.0216 66.9366 24.736 67.3155 24.387 67.5858C23.8253 68.0207 23.1674 68.1267 22.5398 67.9484C22.4481 67.9223 22.3618 67.879 22.2865 67.8214L22.2145 67.7578L22.2136 67.7575L22.212 67.756C22.2104 67.7544 22.2079 67.7515 22.205 67.7486C22.1991 67.7428 22.1907 67.7341 22.1799 67.7233C22.1581 67.7015 22.1266 67.6696 22.0873 67.6297C22.0087 67.5498 21.8979 67.4363 21.7682 67.2997C21.7023 67.2304 21.6329 67.1532 21.5582 67.0728C21.2361 67.3068 20.85 67.4294 20.5222 67.4985C19.8257 67.6452 19.0681 67.6211 18.7875 67.6084C18.6729 67.6033 18.5609 67.572 18.4602 67.5172C17.5721 67.0339 16.7987 66.1557 16.1474 65.305C15.8142 64.8697 15.4947 64.4163 15.1963 63.9925C14.894 63.5631 14.6162 63.1674 14.3519 62.8244C14.0972 62.4938 14.1586 62.0191 14.4892 61.7642C14.8198 61.5094 15.2945 61.571 15.5494 61.9015C15.8378 62.2757 16.1364 62.7004 16.4332 63.122C16.7339 63.5491 17.0359 63.9785 17.3479 64.386C17.9355 65.1538 18.5 65.7621 19.0422 66.1033C19.3462 66.11 19.8099 66.1038 20.2102 66.0195C20.3766 65.9845 20.4965 65.9401 20.5789 65.901C20.3576 65.5527 20.2236 65.2065 20.1245 64.8478C20.06 64.6143 20.0089 64.3715 19.9595 64.1339C19.9091 63.8907 19.8588 63.6429 19.7913 63.3674C19.5292 62.2972 18.9969 60.7409 17.2727 58.1621C17.1772 58.0193 17.1066 57.9094 17.0511 57.8233C16.9934 57.7339 16.9595 57.6809 16.9286 57.6368C16.8825 57.571 16.8419 57.5197 16.7038 57.3846C16.4055 57.0927 16.4003 56.6147 16.6921 56.3163C16.984 56.0179 17.4622 56.0121 17.7607 56.3037C18.1505 56.6849 18.1979 56.8248 18.5301 57.3217C20.342 60.0315 20.951 61.7489 21.2593 63.0077C21.3344 63.3141 21.3909 63.5892 21.4402 63.8266C21.4906 64.0697 21.5324 64.2664 21.582 64.4457C21.675 64.7825 21.7904 65.0399 22.0192 65.3152C22.3029 65.6566 22.6176 65.9992 22.8642 66.2588C22.9606 66.3602 23.0464 66.4475 23.114 66.5167C23.2311 66.5184 23.3434 66.4818 23.4614 66.3905C23.6308 66.2592 23.8428 65.9905 24.033 65.4918C23.7884 65.2533 23.5636 65.0049 23.3639 64.7483C22.3835 63.4882 21.8233 61.8214 22.6165 60.4348C22.8323 60.0575 23.0716 59.7392 23.3307 59.4783C23.2116 58.6237 22.8812 57.7103 22.448 56.8493C21.9566 55.8724 21.3579 55.0124 20.8671 54.4478C20.2572 53.7463 19.7743 53.4621 19.3989 53.3665C19.0399 53.2752 18.6723 53.3289 18.2219 53.5392C17.9048 53.6873 17.4476 54.0574 16.9644 54.5322C16.5001 54.9885 16.078 55.4746 15.8362 55.7765C15.7712 55.8577 15.6897 55.9252 15.5977 55.9736C14.8489 56.3679 14.0825 57.0711 13.4586 57.9246C12.8346 58.7782 12.3955 59.7245 12.2458 60.564C12.1736 60.9685 12.0507 61.5505 11.9158 62.2086C11.7792 62.8743 11.6263 63.6348 11.488 64.4207C11.2075 66.0139 11.0007 67.6373 11.081 68.7675C11.0972 68.9969 11.0084 69.2212 10.8393 69.3769L-1.62467 80.8445C-1.93193 81.127 -2.41029 81.1067 -2.69293 80.7995C-2.97531 80.4922 -2.95508 80.0138 -2.64793 79.7312L9.55573 68.5014C9.5224 67.2173 9.74351 65.6074 9.99858 64.1584C10.1407 63.351 10.297 62.5735 10.4342 61.9045C10.5729 61.2281 10.6896 60.6781 10.7573 60.2989C10.957 59.1793 11.5144 58.0222 12.2379 57.0325C12.9275 56.0891 13.8063 55.2456 14.7545 54.7121C15.0336 54.3729 15.4486 53.902 15.9045 53.4539C16.3985 52.9685 17.0126 52.4358 17.5821 52.1698C18.2397 51.8628 18.9737 51.698 19.7722 51.9013ZM20.0254 68.4317C20.2402 68.0738 20.7045 67.9577 21.0624 68.1722C21.4204 68.387 21.5365 68.8513 21.3219 69.2092C20.9937 69.7563 20.7719 70.1724 20.7192 70.6599C20.669 71.1247 20.7657 71.7596 21.3255 72.7147C21.5367 73.0749 21.4162 73.5382 21.056 73.7493C20.6959 73.9603 20.2325 73.8398 20.0213 73.4798C19.3493 72.3333 19.1207 71.3734 19.2154 70.4973C19.3076 69.644 19.7014 68.9718 20.0254 68.4317Z" fill="#232323"/>
<path d="M48.5307 49.4127C47.6592 49.6741 45.8074 50.9014 44.9904 51.4824V51.9725C46.0798 51.8091 48.3673 51.4824 48.803 51.4824C49.3477 51.4824 51.5808 52.2993 52.779 52.2993C53.9772 52.2993 55.7843 51.8636 56.5468 51.9725C57.1568 52.0597 59.0425 53.1345 59.914 53.4976H61.0577C60.6946 52.8258 59.8595 51.3952 59.4238 51.0466C58.8791 50.6109 56.1014 49.4127 55.1755 49.4127C54.4348 49.4127 53.2692 49.921 52.779 50.1752L51.3084 49.4127C50.7456 49.3037 49.4022 49.1512 48.5307 49.4127Z" fill="#FED1D0"/>
<path d="M49.3728 53.7322C47.6803 52.9222 46.1922 52.0574 45.6316 51.5059L45.279 51.654C45.6136 53.2921 46.7778 56.0297 48.427 56.5434C50.4884 57.1854 56.1286 58.1982 57.6746 57.408C58.9115 56.7758 60.0525 54.3129 60.4684 53.1604H60.0073C59.3021 53.5638 57.539 54.4347 56.1286 54.6915C54.3655 55.0126 51.4885 54.7447 49.3728 53.7322Z" fill="#FED1D0"/>
<path d="M47.6591 64.8944C46.1976 63.8151 44.2957 61.7089 43.5274 60.7908C44.8297 61.4934 46.9856 62.8774 48.0245 62.9269C49.0635 62.9764 50.7228 62.3366 53.0838 62.6458C55.4448 62.955 57.5809 63.7139 58.9019 63.5733C59.9588 63.4609 61.2161 62.4022 61.7126 61.8869C61.3941 62.2992 60.6052 63.3204 59.9981 64.1074C59.2392 65.0911 57.3279 66.6089 55.1356 66.9462C52.9432 67.2835 49.4861 66.2435 47.6591 64.8944Z" fill="#232323"/>
<path d="M54.8036 46.7975C55.4726 46.5573 56.2206 46.5777 56.8797 46.892C57.4729 47.1748 58.2319 47.5566 58.7382 47.8763C59.0142 48.0507 59.3542 48.2779 59.696 48.5063C60.0426 48.738 60.3947 48.9731 60.7079 49.1728C61.157 49.459 61.5451 49.8645 61.7907 50.3717L62.0191 50.8442C62.2011 51.2199 62.0443 51.6722 61.6687 51.8542C61.293 52.0361 60.8408 51.8792 60.6587 51.5038L60.4294 51.0303C60.319 50.8025 60.1345 50.6003 59.8948 50.4475C59.5653 50.2375 59.1995 49.9927 58.8563 49.7634C58.5085 49.5309 58.186 49.3158 57.93 49.1541C57.5063 48.8865 56.8192 48.5387 56.229 48.2573C55.9513 48.1249 55.6225 48.1093 55.3145 48.2199L54.2928 48.5871C53.9 48.7278 53.4673 48.5239 53.3261 48.1313C53.1851 47.7384 53.3891 47.3048 53.7819 47.1636L54.8036 46.7975ZM49.6199 46.6902C50.2001 46.524 50.8147 46.5575 51.3711 46.7738L52.3919 47.1705C52.7809 47.3218 52.9741 47.76 52.8231 48.149C52.6718 48.5381 52.2328 48.7315 51.8436 48.5802L50.8228 48.1835C50.5683 48.0845 50.2926 48.0707 50.0363 48.1441C49.303 48.3541 48.395 48.6234 47.6187 48.8745C47.2299 49.0003 46.8801 49.1198 46.6048 49.223C46.4672 49.2745 46.3538 49.3203 46.2662 49.3588C46.2225 49.378 46.1882 49.3942 46.1628 49.407C46.1404 49.4184 46.1301 49.4247 46.1284 49.4257C45.939 49.5475 45.6966 49.7566 45.4629 49.9927C45.2293 50.2288 45.0476 50.4471 44.9688 50.5627C44.7334 50.9074 44.2633 50.9967 43.9184 50.7615C43.5735 50.5263 43.4843 50.0552 43.7196 49.7102C43.8693 49.4907 44.1195 49.1999 44.388 48.9286C44.6565 48.6573 44.9879 48.3613 45.3103 48.1539C45.4987 48.0328 45.7931 47.9128 46.0742 47.8074C46.3802 47.6928 46.7543 47.5653 47.1531 47.4363C47.9521 47.1779 48.8781 46.9026 49.6199 46.6902Z" fill="#454545"/>
<path opacity="0.1" d="M11.1296 72.2372L10.8293 68.2527L-13.0511 90.6544L-3.31611 92.412L10.2848 75.0244C10.9039 74.233 11.2051 73.2391 11.1296 72.2372Z" fill="#232323"/>
</g>
<defs>
<clipPath id="clip0_3265_35752">
<rect width="90.72" height="90.72" rx="24" transform="matrix(-1 0 0 1 90.72 0)" fill="white"/>
</clipPath>
</defs>
</svg>
