<svg  viewBox="0 0 85 23" fill="none" xmlns="http://www.w3.org/2000/svg">
<g clip-path="url(#clip0_3267_2001)">
<path d="M41.0708 17.8704H43.5315L46.3192 10.3345H46.3501L49.1222 17.8704H51.6142L54.3552 6.92609H51.9256L50.0724 14.4933H50.0411L47.3936 6.92609H45.2913L42.6435 14.4933H42.6125L40.7747 6.92609H38.3297L41.0708 17.8704Z" fill="#B4B4B4"/>
<path d="M55.0532 17.8705H57.3583V13.4459C57.3583 12.242 58.2615 11.4133 59.6008 11.4133C60.94 11.4133 61.75 12.1794 61.75 13.4459V17.8705H64.0548V13.1331C64.0548 10.8974 62.4664 9.34954 60.099 9.34954C59.0089 9.34954 58.0747 9.70915 57.3892 10.3658H57.3583V6.6748H55.0532V17.8705Z" fill="#B4B4B4"/>
<path d="M69.5348 18.105C72.2602 18.105 74.1913 16.1976 74.1913 13.7273C74.1913 11.257 72.2602 9.34955 69.5348 9.34955C66.825 9.34955 64.8783 11.257 64.8783 13.7273C64.8783 16.1976 66.825 18.105 69.5348 18.105ZM69.5348 16.0725C68.102 16.0725 67.1831 15.0719 67.1831 13.7273C67.1831 12.3827 68.102 11.3821 69.5348 11.3821C70.9676 11.3821 71.8866 12.3827 71.8866 13.7273C71.8866 15.0719 70.9676 16.0725 69.5348 16.0725Z" fill="#B4B4B4"/>
<path d="M75.0516 20.9575H77.3563V17.2295H77.3877C77.9172 17.7454 78.9451 18.105 79.9729 18.105C82.4179 18.105 84.24 16.2289 84.24 13.7273C84.24 11.2414 82.4022 9.34955 79.9572 9.34955C78.8981 9.34955 77.9325 9.66226 77.2941 10.3189H77.2631V9.5841H75.0516V20.9575ZM79.6145 16.0725C78.3375 16.0725 77.3563 15.2439 77.3563 14.2433V13.1957C77.3563 12.2264 78.3842 11.3977 79.5992 11.3977C80.985 11.3977 81.9353 12.3358 81.9353 13.7273C81.9353 15.1188 80.9694 16.0725 79.6145 16.0725Z" fill="#B4B4B4"/>
<path fill-rule="evenodd" clip-rule="evenodd" d="M9.8449 5.76986L4.92254 10.7333L0.00964355 5.76028C2.40371 3.34626 6.70083 2.5996 9.8449 5.76986Z" fill="#B4B4B4"/>
<path fill-rule="evenodd" clip-rule="evenodd" d="M10.8292 16.6894L21.1662 6.26621C18.6427 3.72174 14.7839 2.77485 11.0743 6.51544L5.9068 11.726L10.8292 16.6894Z" fill="#B4B4B4"/>
<path fill-rule="evenodd" clip-rule="evenodd" d="M22.1411 17.1952L32.9798 6.26621C30.6963 3.96372 26.4302 2.94358 22.6523 6.75304L11.8136 17.682C14.2748 20.1637 18.5471 20.8192 22.1411 17.1952Z" fill="#B4B4B4"/>
</g>
<defs>
<clipPath id="clip0_3267_2001">
<rect width="84.24" height="22.68" fill="white"/>
</clipPath>
</defs>
</svg>
