<svg  viewBox="0 0 81 26" fill="none" xmlns="http://www.w3.org/2000/svg">
<g clip-path="url(#clip0_3267_2044)">
<mask id="mask0_3267_2044" style="mask-type:luminance" maskUnits="userSpaceOnUse" x="0" y="0" width="81" height="26">
<path d="M80.19 0H0V25.11H80.19V0Z" fill="white"/>
</mask>
<g mask="url(#mask0_3267_2044)">
<mask id="mask1_3267_2044" style="mask-type:luminance" maskUnits="userSpaceOnUse" x="0" y="0" width="81" height="26">
<path d="M80.19 0H0V25.11H80.19V0Z" fill="white"/>
</mask>
<g mask="url(#mask1_3267_2044)">
<path d="M2.45715 19.7479C3.51113 21.2235 4.86314 22.4582 6.42446 23.3709C7.98579 24.2837 9.7212 24.854 11.5169 25.0445C10.593 23.6452 9.25012 22.3579 7.57365 21.3778C5.89717 20.3978 4.12176 19.8624 2.45715 19.7479Z" fill="url(#paint0_linear_3267_2044)"/>
<path d="M9.82648 17.4754C6.59658 15.5867 3.10071 15.1054 0.599304 15.9557C0.840783 16.759 1.15925 17.5367 1.55022 18.278C3.72352 18.2273 6.09637 18.8214 8.30433 20.1122C10.5123 21.4029 12.201 23.1843 13.2344 25.11C14.0683 25.0842 14.8978 24.9773 15.7113 24.7908C15.2056 22.183 13.0555 19.3644 9.82648 17.4754Z" fill="url(#paint1_linear_3267_2044)"/>
<path d="M25.218 9.80931C24.8073 8.12811 24.0643 6.54746 23.0332 5.16172C22.0022 3.77595 20.7042 2.61354 19.2169 1.74385C17.7296 0.874169 16.0835 0.315056 14.3767 0.0998981C12.67 -0.115259 10.9377 0.0179533 9.2832 0.491579C12.0472 0.832032 15.1151 1.87636 18.1239 3.63563C21.1327 5.39491 23.5559 7.55975 25.218 9.80931Z" fill="url(#paint2_linear_3267_2044)"/>
<path d="M21.1965 15.9749C19.7818 13.6101 17.3582 11.3457 14.3727 9.59998C11.3871 7.85433 8.23289 6.85725 5.49345 6.79128C3.08338 6.73383 1.27458 7.439 0.532114 8.72547C0.527885 8.73312 0.521966 8.74035 0.517315 8.74801C0.450508 8.9893 0.393006 9.23105 0.340576 9.4736C1.37733 9.06167 2.57855 8.83228 3.91424 8.80675C6.88454 8.75058 10.2087 9.70682 13.2763 11.5006C16.3438 13.2943 18.8177 15.7281 20.2401 18.3521C20.8777 19.5344 21.2756 20.6983 21.4333 21.8103C21.6168 21.6452 21.7969 21.4745 21.9715 21.297C21.9762 21.289 21.9791 21.2804 21.9838 21.2719C22.7262 19.9842 22.4392 18.0538 21.1965 15.9749Z" fill="url(#paint3_linear_3267_2044)"/>
<path d="M12.1012 13.5347C7.52931 10.8613 2.47706 10.4425 0.0475464 12.3082C0.0523186 12.8921 0.0966758 13.4751 0.180311 14.053C0.894988 13.8349 1.63156 13.6976 2.37643 13.6436C5.09135 13.4381 8.08446 14.1994 10.8006 15.7884C13.5168 17.3775 15.658 19.6185 16.8258 22.0923C17.1486 22.77 17.3948 23.4821 17.5598 24.215C18.1002 24.0018 18.6255 23.752 19.1323 23.4673C19.539 20.4186 16.6744 16.2085 12.1012 13.5347Z" fill="url(#paint4_linear_3267_2044)"/>
<path d="M23.548 12.0167C22.1172 9.65442 19.6725 7.38361 16.6658 5.62648C13.6592 3.86931 10.4927 2.85648 7.74437 2.7752C5.6493 2.71434 4.02652 3.22545 3.18512 4.19105C6.67885 3.59526 11.2872 4.59661 15.7538 7.20829C20.2204 9.81996 23.3688 13.3538 24.5839 16.7035C25.0004 15.4902 24.6381 13.8181 23.548 12.0167Z" fill="url(#paint5_linear_3267_2044)"/>
<path d="M36.4283 7.77527H38.5611V14.9378C38.5611 15.5998 38.4132 16.175 38.1176 16.6632C37.8254 17.1514 37.4182 17.5276 36.8967 17.7917C36.3751 18.0559 35.7687 18.188 35.0778 18.188C34.4631 18.188 33.905 18.0793 33.4034 17.862C32.905 17.6413 32.5097 17.3069 32.2171 16.8588C31.9249 16.4074 31.7803 15.8406 31.7838 15.1585H33.9314C33.9383 15.4293 33.9929 15.6617 34.096 15.8557C34.2023 16.0463 34.3469 16.1934 34.5296 16.297C34.7155 16.3974 34.935 16.4475 35.1874 16.4475C35.4533 16.4475 35.6775 16.3907 35.8601 16.277C36.0461 16.1599 36.1874 15.9894 36.2837 15.7654C36.3802 15.5413 36.4283 15.2655 36.4283 14.9378V7.77527Z" fill="#B4B4B4"/>
<path d="M45.2138 14.7673V10.3434H47.3368V18.0476H45.2988V16.6482H45.2189C45.046 17.0996 44.7588 17.4624 44.3567 17.7366C43.9581 18.0108 43.4713 18.1479 42.8966 18.1479C42.3849 18.1479 41.9349 18.0309 41.5462 17.7968C41.1574 17.5627 40.8536 17.23 40.6341 16.7987C40.4182 16.3673 40.3086 15.8507 40.3053 15.2488V10.3434H42.4283V14.8676C42.4315 15.3224 42.5527 15.6818 42.7921 15.946C43.0312 16.2102 43.3519 16.3422 43.7538 16.3422C44.0095 16.3422 44.2489 16.2837 44.4713 16.1667C44.6941 16.0463 44.8735 15.8691 45.0095 15.635C45.1491 15.401 45.2174 15.1117 45.2138 14.7673Z" fill="#B4B4B4"/>
<path d="M49.0351 20.9368V10.3435H51.1281V11.6376H51.2228C51.3158 11.4303 51.4503 11.2196 51.6264 11.0056C51.8058 10.7883 52.0384 10.6077 52.3241 10.4639C52.6131 10.3168 52.9718 10.2432 53.4004 10.2432C53.9588 10.2432 54.4735 10.3904 54.9454 10.6846C55.417 10.9755 55.7942 11.4153 56.0767 12.0038C56.3588 12.5889 56.5002 13.3229 56.5002 14.2057C56.5002 15.0651 56.3624 15.7907 56.0865 16.3825C55.8141 16.971 55.442 17.4175 54.9703 17.7217C54.5017 18.0227 53.9769 18.1731 53.3954 18.1731C52.9834 18.1731 52.633 18.1046 52.344 17.9675C52.0583 17.8304 51.8239 17.6582 51.6413 17.4509C51.4586 17.2402 51.319 17.0279 51.2228 16.8139H51.158V20.9368H49.0351ZM51.1132 14.1957C51.1132 14.6538 51.1762 15.0533 51.3024 15.3944C51.4286 15.7355 51.6116 16.0013 51.8507 16.1919C52.0897 16.3792 52.3805 16.4728 52.7226 16.4728C53.0684 16.4728 53.3606 16.3775 53.5997 16.1869C53.8391 15.993 54.0199 15.7255 54.1429 15.3844C54.2691 15.04 54.3324 14.6437 54.3324 14.1957C54.3324 13.7509 54.2709 13.3597 54.1479 13.022C54.025 12.6842 53.8441 12.4201 53.6047 12.2295C53.3657 12.0389 53.0716 11.9436 52.7226 11.9436C52.3772 11.9436 52.085 12.0355 51.8456 12.2194C51.6098 12.4033 51.4286 12.6642 51.3024 13.0019C51.1762 13.3396 51.1132 13.7376 51.1132 14.1957Z" fill="#B4B4B4"/>
<path d="M57.9154 18.0476V10.3434H60.0383V18.0476H57.9154ZM58.9819 9.35033C58.6662 9.35033 58.3956 9.24499 58.1696 9.03433C57.9468 8.82033 57.8358 8.56451 57.8358 8.26692C57.8358 7.97266 57.9468 7.72018 58.1696 7.50953C58.3956 7.29552 58.6662 7.18854 58.9819 7.18854C59.2976 7.18854 59.5667 7.29552 59.7891 7.50953C60.0151 7.72018 60.128 7.97266 60.128 8.26692C60.128 8.56451 60.0151 8.82033 59.7891 9.03433C59.5667 9.24499 59.2976 9.35033 58.9819 9.35033Z" fill="#B4B4B4"/>
<path d="M65.8102 10.3434V11.9484H61.2008V10.3434H65.8102ZM62.2471 8.49756H64.3701V15.6801C64.3701 15.8774 64.4001 16.0312 64.4598 16.1416C64.5198 16.2486 64.6026 16.3238 64.709 16.3673C64.8186 16.4108 64.9448 16.4325 65.0876 16.4325C65.1874 16.4325 65.2872 16.4241 65.3867 16.4074C65.4865 16.3874 65.5628 16.3723 65.616 16.3623L65.9498 17.9523C65.8435 17.9857 65.6941 18.0241 65.5014 18.0676C65.3086 18.1144 65.0746 18.1429 64.7987 18.1529C64.2872 18.1729 63.8388 18.1044 63.4533 17.9473C63.0713 17.7901 62.7737 17.546 62.5611 17.2149C62.3487 16.8839 62.2439 16.4659 62.2471 15.961V8.49756Z" fill="#B4B4B4"/>
<path d="M70.5993 18.1982C69.812 18.1982 69.1342 18.0377 68.5661 17.7167C68.0015 17.3924 67.5661 16.9343 67.2604 16.3424C66.9548 15.7472 66.8019 15.0433 66.8019 14.2308C66.8019 13.4383 66.9548 12.7427 67.2604 12.1442C67.5661 11.5457 67.9964 11.0792 68.5512 10.7448C69.1093 10.4104 69.7639 10.2432 70.5147 10.2432C71.0196 10.2432 71.4897 10.3252 71.9248 10.489C72.3635 10.6495 72.7454 10.8919 73.0713 11.2163C73.4 11.5406 73.6558 11.9486 73.8387 12.4401C74.0214 12.9283 74.1125 13.5001 74.1125 14.1555V14.7424H67.6492V13.4182H72.1143C72.1143 13.1106 72.0478 12.838 71.915 12.6006C71.782 12.3632 71.5978 12.1777 71.3617 12.0439C71.1292 11.9068 70.8586 11.8382 70.5494 11.8382C70.2272 11.8382 69.9415 11.9135 69.6923 12.064C69.4467 12.2111 69.2539 12.41 69.1143 12.6608C68.9747 12.9083 68.9035 13.1841 68.9002 13.4884V14.7474C68.9002 15.1286 68.9697 15.4579 69.1093 15.7355C69.2521 16.013 69.4532 16.227 69.7122 16.3775C69.9715 16.528 70.2789 16.6032 70.6344 16.6032C70.8702 16.6032 71.0861 16.5698 71.2821 16.5029C71.4781 16.436 71.6459 16.3357 71.7855 16.2019C71.9248 16.0682 72.0312 15.9044 72.1042 15.7104L74.0677 15.8408C73.9682 16.3157 73.7639 16.7303 73.455 17.0847C73.1491 17.4358 72.7538 17.71 72.2688 17.9073C71.787 18.1012 71.2307 18.1982 70.5993 18.1982Z" fill="#B4B4B4"/>
<path d="M75.4981 18.0475V10.3433H77.5563V11.6875H77.6359C77.7755 11.2094 78.0098 10.8482 78.3386 10.6041C78.6677 10.3567 79.0464 10.233 79.4749 10.233C79.5813 10.233 79.6959 10.2397 79.8189 10.253C79.9415 10.2664 80.0496 10.2848 80.1426 10.3082V12.2042C80.0431 12.1741 79.905 12.1473 79.7292 12.1239C79.553 12.1005 79.3918 12.0888 79.2457 12.0888C78.9332 12.0888 78.6543 12.1574 78.4084 12.2944C78.1658 12.4282 77.9733 12.6155 77.8304 12.8562C77.6909 13.097 77.6211 13.3745 77.6211 13.6888V18.0475H75.4981Z" fill="#B4B4B4"/>
</g>
</g>
</g>
<defs>
<linearGradient id="paint0_linear_3267_2044" x1="16.8095" y1="5.10046" x2="5.13281" y2="25.0443" gradientUnits="userSpaceOnUse">
<stop offset="0.0001" stop-color="#B4B4B4"/>
<stop offset="1" stop-color="#B4B4B4"/>
</linearGradient>
<linearGradient id="paint1_linear_3267_2044" x1="16.8095" y1="5.10044" x2="5.1329" y2="25.0443" gradientUnits="userSpaceOnUse">
<stop offset="0.0001" stop-color="#B4B4B4"/>
<stop offset="1" stop-color="#B4B4B4"/>
</linearGradient>
<linearGradient id="paint2_linear_3267_2044" x1="16.8095" y1="5.10047" x2="5.13286" y2="25.0443" gradientUnits="userSpaceOnUse">
<stop offset="0.0001" stop-color="#B4B4B4"/>
<stop offset="1" stop-color="#B4B4B4"/>
</linearGradient>
<linearGradient id="paint3_linear_3267_2044" x1="16.8095" y1="5.10048" x2="5.13282" y2="25.0443" gradientUnits="userSpaceOnUse">
<stop offset="0.0001" stop-color="#B4B4B4"/>
<stop offset="1" stop-color="#B4B4B4"/>
</linearGradient>
<linearGradient id="paint4_linear_3267_2044" x1="16.8095" y1="5.10043" x2="5.13283" y2="25.0443" gradientUnits="userSpaceOnUse">
<stop offset="0.0001" stop-color="#B4B4B4"/>
<stop offset="1" stop-color="#B4B4B4"/>
</linearGradient>
<linearGradient id="paint5_linear_3267_2044" x1="16.8094" y1="5.10042" x2="5.13275" y2="25.0443" gradientUnits="userSpaceOnUse">
<stop offset="0.0001" stop-color="#B4B4B4"/>
<stop offset="1" stop-color="#B4B4B4"/>
</linearGradient>
<clipPath id="clip0_3267_2044">
<rect width="80.19" height="25.11" fill="white"/>
</clipPath>
</defs>
</svg>
