<svg viewBox="0 0 99 18" fill="none" xmlns="http://www.w3.org/2000/svg">
<path d="M14.068 1.71753V16.2826L9.53299 13.6836L5.62832 15.4884L7.39181 12.4593L9.53299 8.78105L4.79578 10.9711L6.10352e-05 8.22431L9.53299 3.81521L14.068 1.71753Z" fill="#B4B4B4"/>
<path d="M24.5884 15.2977C23.4471 15.2977 22.467 15.1054 21.6482 14.7209C20.8295 14.3363 20.1906 13.7966 19.7316 13.1019C19.2726 12.4072 19.012 11.5884 18.95 10.6456L21.7971 10.5153C21.8715 11.0364 22.0204 11.483 22.2437 11.8552C22.4794 12.2149 22.7896 12.4878 23.1741 12.6739C23.5711 12.86 24.055 12.9531 24.6256 12.9531C25.097 12.9531 25.494 12.8972 25.8166 12.7856C26.1515 12.6739 26.4058 12.5065 26.5795 12.2832C26.7532 12.0474 26.84 11.7621 26.84 11.4272C26.84 11.117 26.7656 10.8503 26.6167 10.627C26.4679 10.3913 26.1825 10.1804 25.7607 9.9943C25.3389 9.79581 24.7187 9.60352 23.8999 9.41743C22.771 9.15691 21.8591 8.86538 21.1644 8.54283C20.4821 8.22028 19.9859 7.8171 19.6757 7.33327C19.3656 6.83705 19.2105 6.21676 19.2105 5.47242C19.2105 4.67845 19.4028 3.98374 19.7874 3.38826C20.1844 2.79279 20.755 2.32757 21.4994 1.99262C22.2437 1.65767 23.1307 1.49019 24.1604 1.49019C25.2521 1.49019 26.1763 1.68248 26.9331 2.06705C27.6898 2.45163 28.2791 2.97887 28.7009 3.64878C29.1351 4.31869 29.3956 5.08784 29.4824 5.95624L26.6539 6.10511C26.6167 5.6461 26.4927 5.24912 26.2818 4.91416C26.0709 4.5668 25.7855 4.30008 25.4258 4.11399C25.066 3.92791 24.6318 3.83487 24.1232 3.83487C23.4781 3.83487 22.9695 3.97753 22.5973 4.26286C22.2375 4.54819 22.0576 4.92037 22.0576 5.37938C22.0576 5.70192 22.1383 5.97485 22.2995 6.19815C22.4732 6.40905 22.7524 6.59514 23.1369 6.75641C23.5339 6.91768 24.0922 7.07276 24.8117 7.22162C26.0399 7.46974 27.0075 7.78608 27.7146 8.17066C28.4342 8.54283 28.9428 8.98944 29.2405 9.51048C29.5383 10.0315 29.6871 10.627 29.6871 11.2969C29.6871 12.1157 29.4762 12.829 29.0545 13.4369C28.6451 14.0324 28.0558 14.4914 27.2866 14.8139C26.5299 15.1365 25.6305 15.2977 24.5884 15.2977ZM31.0277 15V5.02581H33.819V15H31.0277ZM30.9719 3.79765V1.56462H33.8562V3.79765H30.9719ZM39.0756 15.2233C38.232 15.2233 37.5001 15.0124 36.8798 14.5906C36.2719 14.1564 35.8005 13.5547 35.4655 12.7856C35.143 12.004 34.9817 11.0798 34.9817 10.0129C34.9817 8.94602 35.1492 8.02799 35.4841 7.25884C35.8191 6.47728 36.2905 5.8756 36.8984 5.45381C37.5187 5.01961 38.2444 4.80251 39.0756 4.80251C39.7827 4.80251 40.3906 4.95138 40.8992 5.24912C41.4203 5.53445 41.8111 5.93143 42.0716 6.44006V1.78793H44.8629V15H42.2018L42.146 13.5299C41.8731 14.0634 41.4637 14.479 40.9178 14.7767C40.3844 15.0744 39.7703 15.2233 39.0756 15.2233ZM39.9874 13.0833C40.434 13.0833 40.8124 12.9655 41.1225 12.7298C41.4327 12.494 41.6684 12.1529 41.8297 11.7063C41.9909 11.2473 42.0716 10.6828 42.0716 10.0129C42.0716 9.33059 41.9909 8.76613 41.8297 8.31953C41.6684 7.86052 41.4327 7.51936 41.1225 7.29606C40.8124 7.06035 40.434 6.9425 39.9874 6.9425C39.3299 6.9425 38.8089 7.22162 38.4243 7.77988C38.0397 8.32573 37.8474 9.07007 37.8474 10.0129C37.8474 10.9433 38.0397 11.6877 38.4243 12.2459C38.8213 12.8042 39.3423 13.0833 39.9874 13.0833ZM51.0599 15.2233C50.0427 15.2233 49.1557 15.0124 48.3989 14.5906C47.6546 14.1564 47.0715 13.5485 46.6497 12.767C46.2403 11.9854 46.0356 11.0674 46.0356 10.0129C46.0356 8.95842 46.2403 8.0466 46.6497 7.27745C47.0715 6.49589 47.6546 5.88801 48.3989 5.45381C49.1433 5.01961 50.0241 4.80251 51.0413 4.80251C52.0338 4.80251 52.896 5.01961 53.6279 5.45381C54.3599 5.88801 54.9243 6.5083 55.3213 7.31467C55.7307 8.12104 55.9354 9.08248 55.9354 10.199V10.7572H48.92C48.9572 11.5512 49.1681 12.1405 49.5526 12.5251C49.9496 12.9096 50.4707 13.1019 51.1158 13.1019C51.5872 13.1019 51.978 13.0027 52.2881 12.8042C52.6107 12.6057 52.8402 12.3018 52.9766 11.8924L55.7865 12.0598C55.526 13.0523 54.9739 13.8277 54.1304 14.3859C53.2868 14.9442 52.2633 15.2233 51.0599 15.2233ZM48.92 9.04526H53.0697C53.0324 8.31333 52.8278 7.76747 52.4556 7.40771C52.0958 7.04794 51.6244 6.86806 51.0413 6.86806C50.4583 6.86806 49.9744 7.06035 49.5899 7.44493C49.2177 7.8171 48.9944 8.35054 48.92 9.04526ZM62.6618 15.2977C61.5205 15.2977 60.5404 15.1054 59.7216 14.7209C58.9029 14.3363 58.264 13.7966 57.805 13.1019C57.3459 12.4072 57.0854 11.5884 57.0234 10.6456L59.8705 10.5153C59.9449 11.0364 60.0938 11.483 60.3171 11.8552C60.5528 12.2149 60.863 12.4878 61.2475 12.6739C61.6445 12.86 62.1283 12.9531 62.699 12.9531C63.1704 12.9531 63.5674 12.8972 63.89 12.7856C64.2249 12.6739 64.4792 12.5065 64.6529 12.2832C64.8266 12.0474 64.9134 11.7621 64.9134 11.4272C64.9134 11.117 64.839 10.8503 64.6901 10.627C64.5413 10.3913 64.2559 10.1804 63.8341 9.9943C63.4123 9.79581 62.7921 9.60352 61.9733 9.41743C60.8444 9.15691 59.9325 8.86538 59.2378 8.54283C58.5555 8.22028 58.0593 7.8171 57.7491 7.33327C57.439 6.83705 57.2839 6.21676 57.2839 5.47242C57.2839 4.67845 57.4762 3.98374 57.8608 3.38826C58.2578 2.79279 58.8284 2.32757 59.5728 1.99262C60.3171 1.65767 61.2041 1.49019 62.2338 1.49019C63.3255 1.49019 64.2497 1.68248 65.0065 2.06705C65.7632 2.45163 66.3525 2.97887 66.7743 3.64878C67.2085 4.31869 67.469 5.08784 67.5558 5.95624L64.7273 6.10511C64.6901 5.6461 64.5661 5.24912 64.3552 4.91416C64.1443 4.5668 63.8589 4.30008 63.4992 4.11399C63.1394 3.92791 62.7052 3.83487 62.1966 3.83487C61.5515 3.83487 61.0428 3.97753 60.6707 4.26286C60.3109 4.54819 60.131 4.92037 60.131 5.37938C60.131 5.70192 60.2117 5.97485 60.3729 6.19815C60.5466 6.40905 60.8257 6.59514 61.2103 6.75641C61.6073 6.91768 62.1656 7.07276 62.8851 7.22162C64.1133 7.46974 65.0809 7.78608 65.788 8.17066C66.5076 8.54283 67.0162 8.98944 67.3139 9.51048C67.6117 10.0315 67.7605 10.627 67.7605 11.2969C67.7605 12.1157 67.5496 12.829 67.1278 13.4369C66.7185 14.0324 66.1292 14.4914 65.36 14.8139C64.6033 15.1365 63.7039 15.2977 62.6618 15.2977ZM69.1011 15V1.78793H71.8924V7.35188H71.5202C71.6194 6.76882 71.8117 6.2912 72.0971 5.91902C72.3948 5.54685 72.7608 5.26773 73.195 5.08164C73.6416 4.89555 74.1254 4.80251 74.6464 4.80251C75.3908 4.80251 76.0111 4.96379 76.5073 5.28633C77.0035 5.60888 77.3757 6.05549 77.6238 6.62615C77.8843 7.19681 78.0146 7.84811 78.0146 8.58005V15H75.2233V9.24996C75.2233 8.50561 75.1054 7.94736 74.8697 7.57519C74.6464 7.20302 74.2619 7.01693 73.716 7.01693C73.1453 7.01693 72.6987 7.20922 72.3762 7.59379C72.0536 7.97837 71.8924 8.55524 71.8924 9.32439V15H69.1011ZM79.7552 15V5.02581H82.5465V15H79.7552ZM79.6994 3.79765V1.56462H82.5837V3.79765H79.6994ZM84.9829 15V4.89555C84.9829 3.9031 85.2496 3.14015 85.7831 2.6067C86.3165 2.06085 87.1477 1.78793 88.2766 1.78793H90.398V3.87208H88.8721C88.4875 3.87208 88.2084 3.97133 88.0347 4.16982C87.861 4.35591 87.7742 4.64124 87.7742 5.02581V15H84.9829ZM83.5314 7.48214V5.39799H90.2491V7.48214H83.5314ZM95.2724 15C94.2427 15 93.486 14.7643 93.0022 14.2929C92.5183 13.8091 92.2764 13.0461 92.2764 12.004V2.68114H95.0677V11.6691C95.0677 12.1529 95.167 12.4816 95.3655 12.6553C95.5764 12.829 95.8865 12.9158 96.2959 12.9158H97.6915V15H95.2724ZM90.6761 7.10997V5.02581H97.6915V7.10997H90.6761Z" fill="#B4B4B4"/>
</svg>
