<svg  viewBox="0 0 93 15" fill="none" xmlns="http://www.w3.org/2000/svg">
<path fill-rule="evenodd" clip-rule="evenodd" d="M0.141846 13.5289L0.148689 14.7588H6.91669V0H0.148689L0.141846 1.2299C3.20352 1.2299 5.68489 3.70745 5.68489 6.76443V7.99432C5.68489 11.0513 3.20352 13.5289 0.141846 13.5289Z" fill="#B4B4B4"/>
<path fill-rule="evenodd" clip-rule="evenodd" d="M0.141846 7.37938C0.141846 9.27686 0.859017 11.0069 2.03743 12.3147C2.22562 12.219 2.40765 12.1131 2.58215 11.9963C1.45028 10.7875 0.75774 9.16408 0.75774 7.37938C0.75774 5.59398 1.45028 3.97052 2.58284 2.7618C2.40765 2.64564 2.22562 2.53974 2.03743 2.44407C0.859017 3.75187 0.141846 5.48192 0.141846 7.37938Z" fill="#B4B4B4"/>
<path fill-rule="evenodd" clip-rule="evenodd" d="M14.9233 13.5289L14.9165 14.7588H8.14848V0H14.9165L14.9233 1.2299C11.8616 1.2299 9.38027 3.70745 9.38027 6.76443V7.99432C9.38027 11.0513 11.8616 13.5289 14.9233 13.5289Z" fill="#B4B4B4"/>
<path fill-rule="evenodd" clip-rule="evenodd" d="M14.9233 7.37938C14.9233 9.27686 14.2061 11.0069 13.0277 12.3147C12.8395 12.219 12.6575 12.1131 12.483 11.9963C13.6148 10.7875 14.3074 9.16408 14.3074 7.37938C14.3074 5.59466 13.6148 3.97052 12.4823 2.7618C12.6575 2.64564 12.8395 2.53974 13.0277 2.44407C14.2061 3.75187 14.9233 5.48192 14.9233 7.37938Z" fill="#B4B4B4"/>
<path fill-rule="evenodd" clip-rule="evenodd" d="M25.5092 12.5622C26.3639 13.047 27.3371 13.2829 28.4285 13.2829C29.5726 13.2829 30.5721 13.0339 31.4137 12.5359C32.2684 12.0249 32.9128 11.3172 33.3599 10.4262C33.8202 9.52193 34.0437 8.49983 34.0437 7.34661C34.0437 6.16727 33.8071 5.1451 33.3336 4.26712C32.8602 3.37602 32.2027 2.69459 31.3479 2.20973C30.4932 1.72487 29.52 1.47589 28.4154 1.47589C27.2845 1.47589 26.285 1.72487 25.4303 2.22284C24.5887 2.7208 23.9443 3.41533 23.484 4.30642C23.0369 5.18441 22.8134 6.19346 22.8134 7.34661C22.8134 8.52602 23.05 9.57439 23.5235 10.4785C23.9969 11.3697 24.6544 12.0642 25.5092 12.5622ZM30.5326 11.291C29.9277 11.658 29.2307 11.8414 28.4154 11.8414C27.6132 11.8414 26.9163 11.658 26.3245 11.291C25.7196 10.9241 25.2593 10.4 24.9306 9.71853C24.615 9.0502 24.4571 8.25083 24.4571 7.33352C24.4571 6.4293 24.615 5.64307 24.9306 4.98785C25.2593 4.31953 25.7196 3.80846 26.3245 3.45465C26.9294 3.08773 27.6264 2.90426 28.4154 2.90426C29.2176 2.90426 29.9277 3.08773 30.5326 3.45465C31.1375 3.80846 31.5978 4.31953 31.9266 4.98785C32.2553 5.65617 32.4131 6.4293 32.4131 7.33352C32.4131 8.25083 32.2553 9.03711 31.9266 9.71853C31.611 10.4 31.1507 10.911 30.5326 11.291ZM42.3153 13.2829C41.3553 13.2829 40.5006 13.1257 39.751 12.8243C39.0015 12.5228 38.3965 12.0904 37.9626 11.54C37.5286 10.9896 37.2919 10.3475 37.2393 9.61368H38.8963C38.9883 10.2951 39.3302 10.8455 39.9483 11.2648C40.5532 11.6711 41.3553 11.8677 42.3285 11.8677C43.1438 11.8677 43.7751 11.7103 44.1958 11.409C44.6298 11.0945 44.8534 10.662 44.8534 10.0986C44.8534 9.75783 44.7613 9.48264 44.5904 9.24674C44.4194 9.02401 44.1827 8.82741 43.9066 8.69636C43.6304 8.53912 43.2884 8.40808 42.8545 8.29013L40.9083 7.68736L40.7768 7.66116C40.7373 7.6349 40.6847 7.6218 40.6453 7.60871C40.1061 7.43837 39.6195 7.25493 39.1855 7.05833C38.7648 6.86179 38.4097 6.56034 38.0941 6.16727C37.7785 5.76101 37.6207 5.23683 37.6207 4.59472C37.6207 3.99192 37.7785 3.44154 38.0941 2.98289C38.4228 2.49803 38.8831 2.13111 39.488 1.86902C40.0929 1.60694 40.7899 1.47589 41.5789 1.47589C42.46 1.47589 43.2358 1.62004 43.8934 1.92144C44.5641 2.20973 45.0769 2.65528 45.4451 3.23187C45.8265 3.79536 46.05 4.47678 46.1026 5.28925H44.4588C44.4062 4.5423 44.1169 3.95261 43.6041 3.54638C43.1044 3.12704 42.4074 2.90426 41.5132 2.90426C40.8162 2.90426 40.2507 3.04841 39.8299 3.34981C39.4091 3.6381 39.2118 4.01813 39.2118 4.5292C39.2118 4.85681 39.2907 5.11889 39.4617 5.32856C39.6327 5.53823 39.8431 5.69549 40.1061 5.81343C40.3691 5.91826 40.711 6.0493 41.1318 6.19346C41.1844 6.20656 41.237 6.21966 41.2764 6.21966C41.329 6.23276 41.3816 6.24586 41.4343 6.27205L43.2358 6.82243C43.9066 7.04523 44.4588 7.25493 44.906 7.47766C45.3531 7.68736 45.7213 8.00184 46.0238 8.42118C46.3262 8.84051 46.484 9.37779 46.484 10.033C46.484 10.7013 46.313 11.291 45.9712 11.7759C45.6424 12.2607 45.169 12.6408 44.5509 12.9029C43.9066 13.1518 43.1701 13.2829 42.3153 13.2829ZM52.7699 3.11393V13.0864H54.361V3.11393H58.2799V1.65935H48.8642V3.11393H52.7699ZM61.7514 13.0864V1.65935H63.3558V13.0864H61.7514ZM69.6681 12.7587C70.3782 13.1126 71.2066 13.2829 72.1532 13.2829C73.1134 13.2829 73.9418 13.1126 74.639 12.7587C75.3362 12.4049 75.8751 11.92 76.2434 11.3041C76.6117 10.7013 76.7958 10.0199 76.7958 9.25984V1.65935H75.1914V9.23364C75.1914 9.78402 75.0596 10.2427 74.7837 10.6358C74.5207 11.0289 74.1524 11.3304 73.6924 11.5269C73.2317 11.7234 72.7192 11.8152 72.1532 11.8152C71.5878 11.8152 71.0619 11.7234 70.6018 11.5269C70.1417 11.3173 69.7734 11.0158 69.5104 10.6358C69.2475 10.2427 69.1157 9.77092 69.1157 9.23364V1.65935H67.5248V9.25984C67.5248 10.0068 67.709 10.6882 68.0637 11.3041C68.432 11.9069 68.9709 12.3918 69.6681 12.7587ZM80.9642 1.65935V13.0864H82.5686V4.43747L86.0669 13.0864H87.5395L91.0772 4.42436V13.0864H92.6681V1.65935H90.6695L86.8165 11.1862L82.9369 1.65935H80.9642Z" fill="#B4B4B4"/>
</svg>
