<svg  viewBox="0 0 60 16" fill="none" xmlns="http://www.w3.org/2000/svg">
<g clip-path="url(#clip0_3267_2066)">
<path d="M37.9017 -6.10352e-05C38.6937 -6.10352e-05 39.4859 -6.10352e-05 40.3021 -6.10352e-05C40.3085 2.9929 40.3151 5.98586 40.3219 9.06952C40.5644 8.83476 40.5644 8.83476 40.8001 8.59467C40.8366 8.55754 40.8744 8.52295 40.9134 8.48855C40.9844 8.42571 41.0497 8.35845 41.1154 8.28977C41.1914 8.21022 41.2685 8.13461 41.3511 8.06214C41.4068 8.01025 41.4593 7.95519 41.5122 7.8999C41.5883 7.82034 41.6653 7.74473 41.7477 7.67226C41.8037 7.62037 41.8561 7.56531 41.9088 7.51005C41.9849 7.43047 42.0622 7.35486 42.1445 7.28239C42.2005 7.23052 42.253 7.17544 42.3057 7.12017C42.3696 7.0532 42.4334 6.98745 42.5029 6.92653C42.5766 6.86164 42.6443 6.79124 42.7124 6.72004C42.792 6.63683 42.8724 6.55713 42.9585 6.48141C43.0254 6.41961 43.0875 6.35303 43.1504 6.28712C43.216 6.21875 43.2837 6.15469 43.3546 6.09229C43.4106 6.0404 43.4631 5.98531 43.5158 5.93004C43.5918 5.85049 43.6689 5.77486 43.7515 5.70241C43.8072 5.65052 43.8597 5.59543 43.9127 5.54017C43.9884 5.46064 44.0657 5.38503 44.1481 5.31261C44.2147 5.25076 44.2771 5.18454 44.3397 5.11825C44.3584 5.09845 44.3774 5.07894 44.3969 5.05976C44.4284 5.02834 44.4284 5.02834 44.4532 4.99482C44.5082 4.93169 44.5518 4.90665 44.6336 4.89295C44.7203 4.88888 44.806 4.88883 44.8926 4.8901C44.9258 4.89012 44.959 4.89012 44.9922 4.89005C45.0825 4.89002 45.1724 4.89072 45.2624 4.8916C45.3564 4.89235 45.4507 4.89243 45.5447 4.89259C45.7229 4.89295 45.901 4.89396 46.0792 4.89521C46.2822 4.89658 46.4851 4.89726 46.6879 4.89788C47.1053 4.89915 47.5224 4.90133 47.9398 4.90408C47.9208 4.9271 47.9018 4.95009 47.8828 4.97308C47.8668 4.9923 47.8668 4.9923 47.8508 5.01192C47.7713 5.10673 47.6838 5.19357 47.5913 5.27471C47.508 5.34855 47.4317 5.42886 47.3544 5.50939C47.2692 5.59852 47.1838 5.68505 47.0911 5.76588C47.0242 5.8282 46.9616 5.8947 46.8982 5.96082C46.8128 6.04994 46.7277 6.13648 46.6347 6.21733C46.568 6.27962 46.5052 6.34615 46.4421 6.41224C46.3567 6.50139 46.2713 6.5879 46.1785 6.66875C46.1116 6.73105 46.049 6.79757 45.9857 6.86369C45.9002 6.95281 45.8151 7.03935 45.7221 7.12017C45.6554 7.18249 45.5926 7.249 45.5295 7.31511C45.4441 7.40423 45.3587 7.49077 45.2659 7.57159C45.199 7.63391 45.1364 7.70042 45.0731 7.76653C44.9877 7.85566 44.9025 7.94219 44.8095 8.02301C44.7429 8.08534 44.68 8.15184 44.6169 8.21795C44.5315 8.30708 44.4461 8.39361 44.3534 8.47446C44.2865 8.53676 44.2239 8.60326 44.1605 8.66937C44.0049 8.83203 44.0049 8.83203 43.9324 8.89511C43.8795 8.94215 43.8288 8.99062 43.7796 9.04163C43.7596 9.06231 43.7596 9.06231 43.7391 9.08343C43.6884 9.1361 43.6377 9.18885 43.587 9.24173C43.5569 9.27336 43.5264 9.30483 43.496 9.33626C43.5049 9.34627 43.5138 9.35626 43.5231 9.36656C43.6151 9.47165 43.701 9.58041 43.7852 9.69232C43.8561 9.78669 43.9286 9.87974 44.0019 9.97237C44.0819 10.0737 44.161 10.1757 44.2386 10.2789C44.3202 10.3868 44.4035 10.4928 44.4879 10.5982C44.5814 10.715 44.6732 10.8329 44.7634 10.9525C44.8744 11.0995 44.9889 11.2437 45.103 11.3882C45.2355 11.5562 45.3673 11.7245 45.4965 11.8954C45.6081 12.0426 45.7226 12.1872 45.8369 12.3321C45.9694 12.5 46.1015 12.6683 46.2305 12.8392C46.3105 12.9451 46.3926 13.0495 46.475 13.1537C46.5439 13.2412 46.6116 13.3294 46.6788 13.4183C46.7718 13.5416 46.8676 13.6621 46.9639 13.7825C47.045 13.8839 47.124 13.9866 47.2021 14.0904C47.2746 14.1862 47.3491 14.2801 47.4238 14.3738C47.5285 14.5044 47.6309 14.6365 47.7317 14.7703C47.7908 14.8486 47.8516 14.9253 47.9127 15.0019C47.9398 15.0406 47.9398 15.0407 47.9398 15.0817C47.5541 15.0899 47.1681 15.096 46.7824 15.0998C46.6032 15.1016 46.4241 15.104 46.2449 15.108C46.0888 15.1115 45.9324 15.1137 45.7763 15.1145C45.6935 15.115 45.6108 15.116 45.5282 15.1186C44.9862 15.1347 44.9862 15.1347 44.844 15.0068C44.7816 14.9362 44.734 14.8607 44.6902 14.7766C44.6529 14.7083 44.6055 14.6496 44.5574 14.5892C44.5399 14.5661 44.5224 14.5429 44.5049 14.5197C44.4281 14.4186 44.3485 14.3197 44.2692 14.2207C44.1967 14.1298 44.1248 14.0383 44.0538 13.946C43.9973 13.8728 43.94 13.8001 43.8828 13.7274C43.8006 13.623 43.719 13.5184 43.6379 13.4132C43.5809 13.3398 43.5237 13.2669 43.4661 13.1939C43.384 13.0896 43.3024 12.9849 43.2213 12.8797C43.1646 12.8063 43.107 12.7334 43.0498 12.6604C42.9676 12.556 42.8858 12.4514 42.8047 12.3462C42.7479 12.2728 42.6904 12.1999 42.6331 12.1269C42.5508 12.0224 42.4692 11.9177 42.3878 11.8124C42.3435 11.755 42.2986 11.698 42.2535 11.641C42.1395 11.4962 42.0269 11.3505 41.9157 11.2033C41.8741 11.1484 41.8321 11.0938 41.79 11.0394C41.7036 11.0734 41.6493 11.1402 41.5865 11.2074C41.5051 11.2934 41.423 11.3758 41.3341 11.4538C41.2723 11.5109 41.2147 11.5724 41.1564 11.6335C41.0928 11.6997 41.0272 11.7612 40.9585 11.8217C40.9063 11.8701 40.8571 11.9214 40.808 11.973C40.7469 12.0369 40.6856 12.0994 40.6194 12.1577C40.608 12.1686 40.5964 12.1794 40.5845 12.1907C40.5401 12.2295 40.5401 12.2295 40.4856 12.2649C40.3954 12.3343 40.3348 12.3962 40.3092 12.5124C40.2905 12.6771 40.2933 12.8429 40.2958 13.0085C40.2966 13.0815 40.2961 13.1545 40.2958 13.2275C40.2956 13.3654 40.2963 13.5033 40.2973 13.6413C40.2989 13.8279 40.2986 14.0145 40.2983 14.2011C40.2983 14.4947 40.3004 14.7881 40.3021 15.0817C39.51 15.0817 38.7178 15.0817 37.9017 15.0817C37.9017 10.1047 37.9017 5.12774 37.9017 -6.10352e-05Z" fill="#B4B4B4"/>
<path d="M26.216 4.86372C26.2327 4.86813 26.2497 4.87254 26.2669 4.87709C26.8779 5.042 27.4131 5.35451 27.8825 5.78709C27.8979 5.80131 27.9134 5.8155 27.9291 5.83014C28.3703 6.2615 28.6293 6.83817 28.7355 7.44916C28.7393 7.47171 28.7434 7.49423 28.7474 7.51745C28.7578 7.61727 28.7553 7.71813 28.7553 7.81851C27.9631 7.81851 27.1711 7.81851 26.3548 7.81851C26.3222 7.71019 26.2895 7.60183 26.2558 7.49021C26.0875 7.15352 25.8062 6.97737 25.4625 6.86136C24.9919 6.71422 24.4666 6.76155 24.0293 6.99022C23.819 7.11069 23.6778 7.24691 23.6051 7.48979C23.5703 7.67752 23.6032 7.84106 23.7009 8.00183C23.7838 8.11348 23.8972 8.18081 24.014 8.24941C24.0324 8.26031 24.0507 8.27121 24.0696 8.28244C24.2243 8.36791 24.3858 8.43257 24.5495 8.49671C24.5619 8.50156 24.5743 8.50644 24.5871 8.51145C24.8638 8.61972 25.1436 8.71788 25.4243 8.81466C25.5657 8.86347 25.7068 8.91282 25.848 8.96214C25.8619 8.96694 25.8756 8.97174 25.8896 8.97667C27.6359 9.5864 27.6359 9.58639 28.2791 10.1782C28.2956 10.1929 28.3118 10.2076 28.3288 10.2227C28.3792 10.2687 28.4286 10.3155 28.4775 10.3629C28.5039 10.3881 28.5039 10.3882 28.5307 10.4139C28.8533 10.7337 29.0604 11.1142 29.1917 11.5531C29.198 11.5741 29.2043 11.5952 29.2109 11.6169C29.3883 12.2774 29.2971 13.011 28.9735 13.605C28.5335 14.3985 27.7395 14.8305 26.9152 15.0754C25.4656 15.4815 23.7107 15.377 22.3858 14.6168C21.7202 14.2206 21.2318 13.6007 20.9986 12.8458C20.9945 12.8324 20.9903 12.8191 20.9861 12.8053C20.9065 12.5413 20.8597 12.2603 20.8597 11.984C21.6519 11.984 22.444 11.984 23.2602 11.984C23.2896 12.0652 23.2896 12.0652 23.3197 12.1481C23.49 12.5675 23.7914 12.8153 24.1925 12.9894C24.8258 13.2369 25.6668 13.2793 26.2958 12.9961C26.5039 12.8957 26.659 12.7888 26.7715 12.579C26.7783 12.5669 26.7852 12.5547 26.792 12.5422C26.8609 12.3921 26.8541 12.1823 26.8158 12.024C26.7973 11.9741 26.7765 11.9282 26.7517 11.8814C26.7357 11.8502 26.7357 11.8502 26.7195 11.8185C26.4925 11.5281 26.1701 11.3927 25.8399 11.2637C25.8275 11.2589 25.8153 11.2541 25.8029 11.2492C25.4945 11.1289 25.1812 11.025 24.8674 10.9215C24.7332 10.8772 24.5991 10.8326 24.465 10.7881C24.4504 10.7832 24.4359 10.7784 24.4209 10.7734C24.2133 10.7044 24.0059 10.6349 23.799 10.5639C23.7713 10.5545 23.7436 10.545 23.7159 10.5356C22.9977 10.2912 22.2217 9.91483 21.7326 9.29592C21.7096 9.26746 21.7096 9.26746 21.6861 9.23845C21.242 8.67629 21.1147 7.97316 21.1833 7.26247C21.2678 6.62603 21.6084 6.02567 22.0897 5.62295C22.1085 5.60712 22.1272 5.5913 22.1465 5.575C23.2672 4.64644 24.862 4.50545 26.216 4.86372Z" fill="#B4B4B4"/>
<path d="M54.4647 1.88843C55.2569 1.88843 56.0491 1.88843 56.8651 1.88843C56.8651 2.88382 56.8651 3.87922 56.8651 4.90479C57.5853 4.90479 58.3053 4.90479 59.0473 4.90479C59.0473 5.67673 59.0473 6.44867 59.0473 7.24399C58.3271 7.24399 57.6071 7.24399 56.8651 7.24399C56.8651 9.83068 56.8651 12.4173 56.8651 15.0824C56.0729 15.0824 55.281 15.0824 54.4647 15.0824C54.4647 12.4957 54.4647 9.90906 54.4647 7.24399C53.9606 7.24399 53.4566 7.24399 52.9373 7.24399C52.9373 6.47205 52.9373 5.70011 52.9373 4.90479C53.4414 4.90479 53.9454 4.90479 54.4647 4.90479C54.4647 3.90939 54.4647 2.914 54.4647 1.88843Z" fill="#B4B4B4"/>
<path d="M31.7299 1.88843C32.5221 1.88843 33.3143 1.88843 34.1303 1.88843C34.1303 2.88382 34.1303 3.87922 34.1303 4.90479C34.8505 4.90479 35.5705 4.90479 36.3125 4.90479C36.3125 5.67673 36.3125 6.44867 36.3125 7.24399C35.5926 7.24399 34.8723 7.24399 34.1303 7.24399C34.1303 9.83068 34.1303 12.4173 34.1303 15.0824C33.3384 15.0824 32.5462 15.0824 31.7299 15.0824C31.7299 12.4957 31.7299 9.90906 31.7299 7.24399C31.2258 7.24399 30.7218 7.24399 30.2025 7.24399C30.2025 6.47205 30.2025 5.70011 30.2025 4.90479C30.7066 4.90479 31.2106 4.90479 31.7299 4.90479C31.7299 3.90939 31.7299 2.914 31.7299 1.88843Z" fill="#B4B4B4"/>
<path d="M12.6473 -6.10352e-05C13.4395 -6.10352e-05 14.2316 -6.10352e-05 15.0478 -6.10352e-05C15.0478 4.97692 15.0478 9.95389 15.0478 15.0817C14.2556 15.0817 13.4635 15.0817 12.6473 15.0817C12.6473 10.1047 12.6473 5.12774 12.6473 -6.10352e-05Z" fill="#B4B4B4"/>
<path d="M16.9711 4.90387C17.7697 4.90387 18.5684 4.90387 19.3913 4.90387C19.3913 8.26247 19.3913 11.6211 19.3913 15.0815C18.5926 15.0815 17.7939 15.0815 16.9711 15.0815C16.9711 11.7229 16.9711 8.36426 16.9711 4.90387Z" fill="#B4B4B4"/>
<path d="M49.1672 4.90387C49.9594 4.90387 50.7516 4.90387 51.5676 4.90387C51.5676 8.26247 51.5676 11.6211 51.5676 15.0815C50.7754 15.0815 49.9834 15.0815 49.1672 15.0815C49.1672 11.7229 49.1672 8.36426 49.1672 4.90387Z" fill="#B4B4B4"/>
<path d="M4.15625 8.68011C6.22499 8.68011 8.2937 8.68011 10.4251 8.68011C10.4251 9.57393 10.4251 10.4678 10.4251 11.3887C8.35637 11.3887 6.28766 11.3887 4.15625 11.3887C4.15625 10.4949 4.15625 9.60102 4.15625 8.68011Z" fill="#B4B4B4"/>
<path d="M4.15625 12.4356C6.22499 12.4356 8.2937 12.4356 10.4251 12.4356C10.4251 14.8028 10.4251 14.8028 10.2825 14.985C10.1715 15.0963 10.0402 15.1468 9.8878 15.1467C9.86733 15.1467 9.84687 15.1468 9.82576 15.1468C9.80331 15.1468 9.78083 15.1467 9.75769 15.1466C9.73382 15.1467 9.70992 15.1467 9.68532 15.1467C9.619 15.1467 9.55268 15.1467 9.48636 15.1466C9.41487 15.1465 9.34335 15.1465 9.27183 15.1465C9.14794 15.1465 9.02404 15.1464 8.90014 15.1463C8.72099 15.1462 8.54185 15.1461 8.36271 15.1461C8.07208 15.1461 7.78143 15.1459 7.49081 15.1457C7.20847 15.1455 6.92611 15.1454 6.64377 15.1453C6.62621 15.1453 6.60862 15.1453 6.5905 15.1453C6.45304 15.1453 6.31556 15.1452 6.1781 15.1451C5.50415 15.145 4.8302 15.1446 4.15625 15.1442C4.15625 14.2503 4.15625 13.3565 4.15625 12.4356Z" fill="#B4B4B4"/>
<path d="M4.15625 4.90436C5.60195 4.9019 5.60195 4.9019 6.2057 4.90135C6.34389 4.90125 6.48208 4.90112 6.62028 4.90099C6.63761 4.90096 6.65492 4.90096 6.67276 4.90094C6.95223 4.90068 7.23171 4.90019 7.51118 4.89961C7.79808 4.89904 8.08498 4.89871 8.37188 4.89858C8.54887 4.8985 8.72584 4.89824 8.90283 4.89772C9.02424 4.89741 9.14565 4.89731 9.2671 4.89738C9.33709 4.89744 9.40711 4.89736 9.47713 4.89705C9.55316 4.89668 9.62918 4.89681 9.70521 4.89697C9.72718 4.89679 9.74913 4.8966 9.77176 4.89642C9.96804 4.89759 10.1287 4.92873 10.2726 5.07221C10.8303 5.69449 10.4251 6.76438 10.4251 7.61292C8.35637 7.61292 6.28766 7.61292 4.15625 7.61292C4.15625 6.7191 4.15625 5.82529 4.15625 4.90436Z" fill="#B4B4B4"/>
<path d="M0.0101929 8.68011C1.04455 8.68011 2.07891 8.68011 3.14461 8.68011C3.14461 9.57393 3.14461 10.4678 3.14461 11.3887C2.11025 11.3887 1.0759 11.3887 0.0101929 11.3887C0.0101929 10.4949 0.0101929 9.60102 0.0101929 8.68011Z" fill="#B4B4B4"/>
<path d="M0.0093684 12.4356C1.04373 12.4356 2.07809 12.4356 3.14379 12.4356C3.14379 13.3294 3.14379 14.2233 3.14379 15.1442C2.47022 15.1475 2.47022 15.1475 2.18738 15.1482C1.99229 15.1487 1.7972 15.1493 1.60211 15.1504C1.46001 15.1512 1.31792 15.1517 1.17582 15.1519C1.10063 15.152 1.02546 15.1523 0.950273 15.1529C0.879376 15.1534 0.808486 15.1536 0.737586 15.1535C0.699434 15.1535 0.661281 15.1539 0.623128 15.1544C0.422042 15.1534 0.265139 15.1141 0.119873 14.965C0.0200342 14.8158 -0.00208765 14.6807 0.000359879 14.5019C0.000350314 14.479 0.00034075 14.4563 0.000330895 14.4328C0.000389762 14.3595 0.000992374 14.2863 0.00161914 14.213C0.00173592 14.1676 0.0018168 14.1221 0.0018613 14.0767C0.00227604 13.9088 0.0033839 13.741 0.00440887 13.5732C0.00604552 13.1978 0.00768215 12.8224 0.0093684 12.4356Z" fill="#B4B4B4"/>
<path d="M0.579663 4.90218C0.602334 4.90215 0.625005 4.90213 0.648363 4.9021C0.685391 4.9022 0.685391 4.9022 0.723168 4.90231C0.749304 4.90231 0.775439 4.90231 0.802368 4.90231C0.873884 4.90231 0.9454 4.90241 1.01692 4.90257C1.09171 4.9027 1.16651 4.9027 1.2413 4.90272C1.38287 4.9028 1.52444 4.90296 1.66601 4.90316C1.85735 4.90345 2.0487 4.90355 2.24005 4.90366C2.54144 4.90386 2.84283 4.90428 3.1442 4.90464C3.1442 5.79846 3.1442 6.6923 3.1442 7.6132C2.10985 7.6132 1.07549 7.6132 0.00978564 7.6132C0.00855816 7.24078 0.00733069 6.86834 0.00606601 6.48464C0.00552419 6.36721 0.00498237 6.2498 0.00442414 6.12884C0.00415533 5.98499 0.00415533 5.98499 0.00410538 5.91758C0.00401423 5.87067 0.00380543 5.82378 0.00350239 5.77689C0.0030654 5.70567 0.00300665 5.63447 0.00302926 5.56327C0.00281512 5.54252 0.002601 5.52176 0.00238037 5.50041C0.00316612 5.31494 0.0454561 5.1811 0.169188 5.04338C0.288387 4.93285 0.422741 4.90202 0.579663 4.90218Z" fill="#B4B4B4"/>
<path d="M2.02637 2.56198C2.04167 2.56191 2.05698 2.56183 2.07275 2.56176C2.12408 2.56153 2.17541 2.56145 2.22675 2.56137C2.26354 2.56125 2.30033 2.56111 2.33713 2.56097C2.45802 2.56053 2.5789 2.56032 2.69981 2.56012C2.74144 2.56003 2.78311 2.55995 2.82477 2.55986C3.02051 2.55947 3.21628 2.55918 3.41202 2.55901C3.63777 2.55881 3.86352 2.55827 4.08924 2.55744C4.26385 2.55682 4.43846 2.55652 4.61309 2.55645C4.7173 2.5564 4.82153 2.55622 4.92574 2.5557C5.02389 2.55522 5.12202 2.55514 5.22017 2.55535C5.25605 2.55536 5.29196 2.55523 5.32785 2.55495C5.62843 2.55271 5.84713 2.59959 6.08089 2.81123C6.28865 3.0413 6.32635 3.30378 6.32628 3.60855C6.32638 3.65245 6.32709 3.69633 6.32785 3.74023C6.32924 3.91371 6.32473 4.07165 6.20486 4.2038C6.08849 4.31596 5.97972 4.3394 5.82306 4.336C5.68383 4.32121 5.59863 4.2525 5.51006 4.14451C5.38347 3.93351 5.44607 3.69099 5.44607 3.44735C4.33314 3.44735 3.22023 3.44735 2.07358 3.44735C2.07358 3.60985 2.07358 3.77235 2.07358 3.93981C1.98724 4.20772 1.98724 4.20772 1.84544 4.29632C1.71727 4.35535 1.57247 4.35722 1.44109 4.30844C1.31831 4.24038 1.24458 4.15997 1.2007 4.02188C1.18537 3.91395 1.18725 3.80479 1.18886 3.69597C1.18954 3.64509 1.18927 3.59426 1.18888 3.54337C1.18914 3.25633 1.24537 3.024 1.43876 2.80794C1.60721 2.64149 1.7957 2.56193 2.02637 2.56198Z" fill="#B4B4B4"/>
<path d="M51.1522 1.21434C51.417 1.44955 51.5661 1.77241 51.5949 2.1305C51.6051 2.48699 51.5118 2.81051 51.285 3.08578C51.0498 3.33972 50.7379 3.48588 50.3983 3.49572C50.0161 3.49909 49.7222 3.36889 49.4431 3.09821C49.2044 2.84276 49.1182 2.51363 49.1205 2.16648C49.1299 1.82994 49.25 1.54528 49.4746 1.30075C49.9492 0.845021 50.6327 0.82486 51.1522 1.21434Z" fill="#B4B4B4"/>
<path d="M18.876 1.14923C18.9463 1.20691 19.0109 1.2685 19.0744 1.3339C19.0871 1.34628 19.0997 1.35866 19.1128 1.37141C19.3191 1.59007 19.4072 1.91803 19.4191 2.21624C19.4039 2.58409 19.2728 2.90561 19.0149 3.16013C19.0042 3.17157 18.9935 3.18304 18.9825 3.19484C18.7553 3.42094 18.4317 3.49907 18.1265 3.4971C17.7831 3.48633 17.5102 3.34751 17.2691 3.09858C17.2563 3.08548 17.2434 3.07237 17.2301 3.05888C17.0113 2.8202 16.9242 2.49106 16.929 2.16886C16.9488 1.79606 17.0967 1.4909 17.3566 1.23403C17.7807 0.873286 18.4175 0.822669 18.876 1.14923Z" fill="#B4B4B4"/>
</g>
<defs>
<clipPath id="clip0_3267_2066">
<rect width="59.0474" height="15.3086" fill="white"/>
</clipPath>
</defs>
</svg>
