<svg  viewBox="0 0 84 20" fill="none" xmlns="http://www.w3.org/2000/svg">
<path d="M15.4227 12.1483C15.2058 12.0887 15.0569 11.893 15.0569 11.6717C15.0569 11.4505 15.2058 11.2505 15.4227 11.1909C16.6309 10.8377 17.4818 9.64207 17.2903 8.28044C17.1329 7.12306 16.18 6.18694 15.0186 6.04227C13.6785 5.87632 12.5001 6.72308 12.1512 7.91876C12.0874 8.13151 11.896 8.28044 11.6705 8.28044H11.6663C11.4408 8.28044 11.2493 8.13152 11.1855 7.91451C10.8665 6.82095 9.85396 6.021 8.65853 6.021C7.09298 6.021 5.8465 7.38688 6.0422 8.98679C6.18258 10.1484 7.11426 11.1058 8.2714 11.2718C9.637 11.4675 10.8409 10.6165 11.194 9.40378C11.2578 9.18678 11.4493 9.03359 11.6748 9.03359C11.9002 9.03359 12.0917 9.18252 12.1555 9.39527C12.4022 10.2591 13.0829 10.9441 13.9465 11.1952C14.1592 11.2547 14.3124 11.4505 14.3124 11.676C14.3124 11.9015 14.1592 12.093 13.9465 12.1526C13.5338 12.276 13.1425 12.4972 12.8234 12.8206C12.632 13.0121 12.4746 13.2248 12.3554 13.4504C12.1597 13.8291 11.7684 14.0631 11.3472 14.0205L11.2621 14.012C10.8792 13.9737 10.5729 13.7014 10.4496 13.3355C10.1986 12.5866 9.49236 12.0504 8.66279 12.0504C7.83322 12.0504 7.08873 12.6164 6.85475 13.3908C6.75265 13.7184 6.47187 13.961 6.13153 14.0035L5.90181 14.0291C5.53169 14.0759 5.17434 13.8801 5.01693 13.5397C4.88931 13.2802 4.72339 13.0376 4.50643 12.8206C4.1746 12.4887 3.77045 12.2632 3.34929 12.1441C3.13657 12.0845 2.98768 11.8973 2.98768 11.676C2.98768 11.4547 3.13657 11.2633 3.34929 11.2037C4.45963 10.8973 5.27644 9.8761 5.27644 8.6634C5.27644 7.4507 4.45963 6.43374 3.34929 6.12312C3.13657 6.06355 2.98768 5.87207 2.98768 5.6508C2.98768 5.42954 3.13657 5.24232 3.34929 5.18274C3.77045 5.0636 4.1746 4.83808 4.50643 4.50619C4.70638 4.3062 4.86804 4.07642 4.99566 3.82963C5.18285 3.46369 5.56998 3.25094 5.97413 3.30625L6.06347 3.31902C6.44635 3.37434 6.74839 3.65092 6.87602 4.0126C7.13553 4.74873 7.83747 5.27636 8.66279 5.27636C9.4881 5.27636 10.19 4.74873 10.4453 4.00834C10.5729 3.64241 10.875 3.37008 11.2578 3.31902L11.3514 3.30625C11.7556 3.25094 12.1427 3.45944 12.3257 3.82537C12.5086 4.19131 12.7681 4.50619 13.1212 4.76575C14.0571 5.46783 15.3887 5.44656 16.3033 4.7232C17.0053 4.17004 17.3414 3.36157 17.3201 2.56162C17.3201 2.39567 17.2988 2.22972 17.2605 2.06803C17.1542 1.59571 16.9202 1.14467 16.5501 0.774482C15.5206 -0.255247 13.8529 -0.255247 12.8234 0.774482C12.4448 1.14893 12.2108 1.59997 12.1087 2.08079C12.0236 2.47651 11.6918 2.77437 11.2876 2.81267L11.1898 2.82118C10.8026 2.85947 10.441 2.65523 10.2241 2.33184C9.888 1.82549 9.30943 1.49785 8.66279 1.49785C8.01615 1.49785 7.43758 1.82549 7.09724 2.33184C6.87602 2.65523 6.51867 2.85947 6.12728 2.82118L6.03369 2.81267C5.63379 2.77437 5.30196 2.48502 5.21688 2.09356C5.08075 1.43402 4.6851 0.817033 4.03847 0.40429C3.20464 -0.127594 2.10706 -0.136105 1.26473 0.38727C0.60107 0.791503 0.209683 1.40849 0.0607858 2.06377C0.0224979 2.22546 0.00122693 2.39141 0.00122693 2.55736C-0.0200441 3.25945 0.235208 3.96579 0.771238 4.50193C1.09456 4.82532 1.47744 5.04658 1.89009 5.16572C2.0943 5.2253 2.23468 5.41677 2.23468 5.63378V5.66357C2.23468 5.88058 2.0943 6.07206 1.89009 6.13163C0.792509 6.45076 0.00122693 7.46347 0.00122693 8.65915C0.00122693 9.85482 0.792509 10.8675 1.89009 11.1867C2.0943 11.2462 2.23468 11.4377 2.23468 11.6547V11.6845C2.23468 11.9015 2.0943 12.093 1.89009 12.1526C1.47744 12.2717 1.09456 12.493 0.771238 12.8164C0.235208 13.3525 -0.0200441 14.0588 0.00122693 14.7609C0.00122693 14.9269 0.0224979 15.0928 0.0607858 15.2545C0.188412 15.8502 0.533002 16.4119 1.08605 16.8204C2.02623 17.514 3.36205 17.4842 4.2767 16.7481C4.79146 16.3353 5.10627 15.7864 5.22114 15.2035C5.2892 14.8418 5.5955 14.5695 5.96137 14.5226L6.19535 14.4929C6.53568 14.4503 6.86326 14.6163 7.04193 14.9141C7.37376 15.463 7.96935 15.8247 8.65853 15.8247C9.34771 15.8247 9.89225 15.4885 10.2283 14.9779C10.4453 14.6546 10.8026 14.4546 11.1898 14.5014L11.2791 14.5141C11.6918 14.5737 12.0194 14.8843 12.1129 15.2886C12.2406 15.8375 12.5511 16.3523 13.0404 16.7481C13.9508 17.4799 15.2866 17.514 16.2268 16.8204C16.7798 16.4119 17.1244 15.8502 17.2563 15.2545C17.2946 15.0928 17.3158 14.9269 17.3158 14.7609C17.3371 14.0588 17.0819 13.3525 16.5458 12.8164C16.2225 12.493 15.8311 12.2717 15.4227 12.1483ZM12.9851 2.59566C13.0063 1.67656 13.7551 0.936175 14.6825 0.936175C15.461 0.936175 16.1204 1.46381 16.3161 2.18291C16.3586 2.32759 16.3799 2.47651 16.3799 2.63395V2.6765C16.3586 3.5956 15.6056 4.33173 14.6825 4.33173C13.8997 4.33173 13.2446 3.80835 13.0489 3.08925C13.0063 2.94457 12.9851 2.79139 12.9851 2.63395V2.59566ZM0.937152 2.6765V2.63395C0.937152 2.47651 0.958423 2.32759 1.00096 2.18291C1.19666 1.46381 1.85606 0.936175 2.63458 0.936175C3.562 0.936175 4.31074 1.67656 4.33201 2.59566V2.63395C4.33201 2.79139 4.31074 2.94457 4.26819 3.08925C4.0725 3.80835 3.41735 4.33173 2.63458 4.33173C1.71142 4.33173 0.958423 3.5956 0.937152 2.6765ZM4.33201 14.7269C4.31074 15.6417 3.562 16.3821 2.63458 16.3821C1.85606 16.3821 1.19666 15.8545 1.00096 15.1396C0.958423 14.995 0.937152 14.8418 0.937152 14.6843V14.6418C0.958423 13.7227 1.71142 12.9866 2.63458 12.9866C3.41735 12.9866 4.0725 13.5099 4.26819 14.229C4.31074 14.3737 4.33201 14.5269 4.33201 14.6843V14.7269ZM16.3799 14.6843C16.3799 14.8418 16.3586 14.995 16.3161 15.1396C16.1204 15.8545 15.461 16.3821 14.6825 16.3821C13.7551 16.3821 13.0063 15.6417 12.9851 14.7269V14.6843C12.9851 14.5269 13.0063 14.3737 13.0489 14.229C13.2446 13.5099 13.8997 12.9866 14.6825 12.9866C15.6056 12.9866 16.3586 13.7227 16.3799 14.6418V14.6843Z" fill="#B4B4B4"/>
<path d="M83.7327 5.52962V7.30792C82.7197 7.21344 81.6374 7.07382 80.8501 7.63019C79.7835 8.38182 79.6093 10.0289 79.6082 11.3495V15.3963H77.79V5.52857H79.0519L79.2828 7.75092C79.7961 6.30225 80.8816 5.33332 82.4342 5.34907C82.9517 5.34907 83.3454 5.4026 83.7317 5.52962H83.7327Z" fill="#B4B4B4"/>
<path d="M76.0316 7.55453C75.1928 6.05337 73.6276 5.33848 71.8567 5.34793C69.9944 5.34478 68.3494 6.07752 67.4645 7.68155C67.0141 8.49616 66.8357 9.56902 66.8693 10.6251C66.8693 11.6202 67.0656 12.4936 67.4645 13.2411C67.876 13.9896 68.4554 14.569 69.2018 14.9805H69.2039C70.5287 15.7322 72.8088 15.7647 74.1577 15.1296H74.1588C75.4783 14.5291 76.2394 13.4017 76.4767 12.0391H74.6301L74.5462 12.2921C74.3268 12.8117 74.0118 13.2159 73.6014 13.5119C72.6597 14.1848 70.4101 14.0536 69.6186 13.1991C69.1346 12.7246 68.8344 12.016 68.7357 11.0534H76.5323C76.7527 9.91964 76.6005 8.50351 76.0305 7.55243L76.0316 7.55453ZM69.6868 7.67525H69.6879C70.6075 6.7819 73.024 6.73257 73.932 7.67105H73.9331L73.9341 7.6721C74.4013 8.08781 74.6879 8.70401 74.7781 9.54382H68.7609C68.8837 8.70821 69.1966 8.08991 69.6868 7.67525Z" fill="#B4B4B4"/>
<path d="M65.8268 9.88295V15.3952H64.0086V10.1002C64.0086 9.4431 63.9551 8.90037 63.8501 8.46892C63.7493 8.04272 63.5205 7.68895 63.1583 7.40656H63.1573C62.8192 7.13258 62.2849 6.98456 61.527 6.98456C60.5854 6.98456 59.8684 7.30264 59.3561 7.9283C58.8554 8.54345 58.5919 9.51763 58.5919 10.8781V15.3952H56.7737V1.91107H58.5919V7.2365C58.891 6.70428 59.2763 6.28017 59.7487 5.96839C60.8908 5.17163 62.8644 5.14958 64.037 5.85502C64.6206 6.18464 65.0615 6.69798 65.3607 7.38347C65.6725 8.05847 65.8258 8.89407 65.8258 9.884L65.8268 9.88295Z" fill="#B4B4B4"/>
<path d="M54.9293 7.70258C54.5451 6.94571 54.0097 6.36519 53.3221 5.96523C51.2257 4.68452 48.1017 5.42565 47.1044 7.74352L46.8629 5.52853H45.6022V19.0137H47.4204V13.6915C47.7384 14.2111 48.1552 14.6341 48.6706 14.9585H48.6717V14.9606C49.9818 15.7668 51.9921 15.7941 53.3211 14.9785C54.8201 14.0778 55.5151 12.4192 55.5046 10.6251C55.5371 9.57955 55.3649 8.5172 54.9282 7.70258H54.9293ZM48.2318 7.8632C49.1871 6.69796 51.8997 6.69061 52.855 7.8443H52.856V7.8464C53.9583 8.85627 53.9152 12.0633 52.8718 13.0816C52.3511 13.6474 51.5858 13.9392 50.5518 13.9392C49.5178 13.9392 48.7651 13.6421 48.2318 13.0616C47.1663 12.0444 47.1296 8.89196 48.2308 7.8632H48.2318Z" fill="#B4B4B4"/>
<path d="M44.2901 8.89822C44.0014 7.64481 43.2424 6.55096 42.0898 5.961C39.8548 4.75902 36.3402 5.28495 35.0994 7.68155C34.6491 8.49617 34.4706 9.56902 34.5042 10.6251C34.5042 11.6203 34.7005 12.4937 35.0994 13.2411C35.5109 13.9896 36.0904 14.5701 36.8368 14.9805C36.8368 14.9805 36.8389 14.9816 36.8399 14.9816C38.2896 15.7721 40.6463 15.7804 42.0898 14.9816C43.6991 14.1071 44.4444 12.4832 44.4423 10.6251C44.4528 10.0456 44.4192 9.421 44.289 8.89822H44.2901ZM41.7948 13.0805C40.8479 14.2331 38.0912 14.2205 37.1349 13.0805C36.6132 12.5125 36.3402 11.6486 36.3402 10.4624C36.3402 9.27614 36.6142 8.41114 37.136 7.84426C38.0923 6.70423 40.8479 6.69163 41.7948 7.84426C42.8781 8.85938 42.8781 12.0643 41.7948 13.0794V13.0805Z" fill="#B4B4B4"/>
<path d="M33.3368 7.80653V15.3952H32.0172L31.7999 12.4664C31.3968 13.3713 30.8111 14.0935 30.0395 14.6289H30.0384C28.2811 15.8834 25.4898 15.8498 23.6853 14.7801C21.6456 13.576 20.7869 11.381 20.7932 8.92452C20.684 6.30642 21.4976 3.7849 23.7777 2.52519C25.5066 1.52057 28.4733 1.46808 30.2536 2.35723C32.0256 3.15609 33.0859 4.75698 33.3242 6.64025H31.3989C31.2898 5.9894 31.0494 5.38998 30.6788 4.90184H30.6777C30.345 4.441 29.8841 4.08198 29.2889 3.82479H29.2858C28.0733 3.24217 25.9118 3.28731 24.7644 3.9812C23.214 4.8798 22.708 6.48383 22.7017 8.38075C22.6345 10.3711 23.0323 12.3604 24.7456 13.323C25.9517 14.0327 28.0617 14.0956 29.2931 13.3598C29.9188 13.0112 30.4132 12.5011 30.7754 11.824C31.1302 11.1794 31.3506 10.4068 31.4325 9.49874H27.013V7.80653H33.3347H33.3368Z" fill="#B4B4B4"/>
</svg>
