<svg viewBox="0 0 91 91" fill="none" xmlns="http://www.w3.org/2000/svg">
<g clip-path="url(#clip0_3265_35646)">
<rect width="90.72" height="90.72" rx="24" transform="matrix(-1 0 0 1 90.72 0)" fill="white"/>
<path d="M33.8427 64.767L29.5962 69.8489C32.9609 71.8678 40.0942 76.5877 41.7092 79.3166C43.3243 82.0455 43.4496 86.0229 43.3104 87.6704L47.8354 89.2716C49.4133 85.6284 53.1818 78.1888 55.6323 77.5762C58.0827 76.9636 59.5771 75.0933 60.018 74.2347L56.955 71.102L56.6069 61.4255C60.0041 58.7523 61.4567 53.8607 61.7584 51.749C65.6568 50.2175 65.0999 43.4648 64.6126 41.0979C64.2228 39.2043 62.5474 39.5663 61.7584 39.984L62.1065 27.871V22.3018C58.8346 21.6753 52.1097 20.4083 51.3857 20.3526C50.6617 20.2969 38.9246 19.9581 33.1466 19.7957L29.5962 38.3133C28.3431 37.0602 26.0458 38.731 25.6281 39.984C25.2104 41.2371 25.28 45.7621 26.8115 48.4771C28.0368 50.6491 30.0138 49.8462 30.8492 49.1732C31.4618 51.8465 33.1001 55.485 33.8427 56.9701V64.767Z" fill="white"/>
<path d="M28.7706 67.0885C29.3081 64.9925 32.2639 64.782 33.6747 64.9388L30.4501 69.5741C31.7937 70.1339 34.8436 71.5492 36.2947 72.7315C38.1085 74.2094 41.6018 76.4935 43.1469 79.8525C44.383 82.5396 43.6619 83.8832 43.1469 84.2191L45.6325 85.1596L46.4708 89.7499L48.1181 84.7565C47.9614 84.1071 47.836 82.4052 48.5884 80.793C49.5289 78.7776 51.2755 78.3073 54.7016 77.2325C57.4425 76.3726 59.2922 74.7245 59.8744 74.0079L56.7842 71.2536V68.0962C57.4784 68.4097 58.9608 69.1442 59.337 69.5741C59.8072 70.1115 61.6882 73.7392 62.6287 74.7469C63.5692 75.7545 70.4886 78.5761 76.0645 82.8083C80.5251 86.1941 82.7599 91.8775 83.3198 94.2959L-6.90126 95.3036C-7.03561 94.0944 -6.90125 90.8026 -5.28896 87.3093C-3.2736 82.9427 4.51907 78.5761 6.06418 77.9043C7.30027 77.3668 19.8806 73.0674 26.0163 70.9849C26.7105 70.5594 28.2332 69.1845 28.7706 67.0885Z" fill="#232323"/>
<path d="M48.0314 53.6649C46.624 53.1448 44.3599 52.8184 43.3503 52.8082L46.2874 52.1351L48.2762 51.4314L52.5596 53.8485V54.2768C52.1823 54.0729 51.6418 53.8485 50.5097 53.6649C49.7848 53.5474 48.47 53.6649 48.0314 53.6649Z" fill="#FED1D0"/>
<path d="M45.9555 54.6989C45.1122 54.3616 42.1814 53.1546 41.426 52.8032L41.0518 53.0526C41.2451 54.0013 42.9005 56.1855 44.1233 56.9022C45.6517 57.7982 49.2992 57.981 50.5641 57.085C51.576 56.3683 52.6996 54.9324 53.2267 54.1067L52.9104 53.6851C52.3307 53.9662 51.2292 54.9897 49.276 55.0678C47.9583 55.1205 47.0097 55.1205 45.9555 54.6989Z" fill="#FED1D0"/>
<path d="M30.9565 46.1055C31.2103 46.1056 31.4366 46.2663 31.5107 46.5091C31.8598 47.6529 32.2736 49.3834 32.4232 49.9446C32.6341 50.7356 33.4035 53.8858 34.4048 54.7818C35.2059 55.4986 37.3597 56.6231 37.7989 57.0272C38.0442 55.593 37.8172 52.8984 38.5529 51.5737C39.0799 50.625 40.3563 49.9396 42.8861 49.9396C44.5577 49.9396 46.2191 49.5924 47.1327 49.3726C47.4312 49.3009 47.7462 49.3635 47.991 49.5488L48.5137 49.9446L49.2431 49.6453C49.4443 49.5629 49.6674 49.5468 49.8761 49.6079C51.5168 50.0885 54.3266 51.2582 54.8393 51.5737C55.5243 51.9953 56.1567 52.5224 56.4202 53.8398C56.6309 54.8939 56.0287 57.4233 56.1564 59.3208C59.4597 57.9291 60.7366 52.5217 60.7366 52.5217C60.7366 54.7371 59.3404 59.1668 58.7079 59.9055C58.0755 60.6433 55.809 63.2257 53.6482 64.5961C51.4874 65.9664 49.0275 67.4534 46.4977 67.1899C43.9679 66.9264 38.2865 63.2196 35.9571 61.6026C33.5565 59.9361 30.8657 54.4859 30.6021 52.1141C30.4097 50.3829 30.3704 48.7222 30.3649 46.6981C30.364 46.371 30.6294 46.1055 30.9565 46.1055ZM48.4773 51.8808C48.3585 51.7083 48.1041 51.7056 47.9822 51.8759L47.7056 52.2638L47.4959 52.5571C47.2979 52.8341 46.9739 52.9915 46.6336 52.9814C45.6686 52.9523 44.1577 52.9319 43.1204 53.0011C41.5399 53.1064 41.5908 53.0665 41.1979 53.3938C40.6629 53.8396 40.0777 54.97 39.1238 57.2162C39.0712 57.3401 39.0435 57.4743 39.0451 57.609C39.0582 58.6878 39.1936 59.1903 39.9192 59.9016C40.6088 60.5774 42.5197 61.3288 43.7002 61.3289C45.1756 61.3289 46.8094 60.6965 48.2322 60.7491C49.3703 60.7913 51.3883 61.241 52.2317 61.3289C53.2772 61.3289 54.7634 60.0402 54.8481 59.2391C54.9535 58.2379 54.8388 55.758 54.2595 55.1775C53.6798 54.5978 53.185 54.6212 51.7621 54.1469C50.9029 53.8604 50.2372 53.5177 49.7737 53.3289C49.531 53.23 49.3032 53.0801 49.1546 52.8642L48.4773 51.8808Z" fill="#232323"/>
<path d="M28.7885 42.3899C29.2031 42.3404 29.5797 42.6368 29.6292 43.0514L29.6774 43.4619L29.8211 43.4806C30.2354 43.5329 30.529 43.911 30.4767 44.3252C30.4342 44.6621 30.1753 44.9149 29.8576 44.971L29.893 45.2604C29.9425 45.6748 29.6468 46.0513 29.2325 46.101C28.8179 46.1505 28.4413 45.8541 28.3918 45.4395L28.317 44.8135L28.0296 44.778C27.6153 44.7257 27.3217 44.3477 27.374 43.9334C27.4227 43.5481 27.7535 43.267 28.1329 43.2719L28.128 43.2306C28.0785 42.8161 28.3741 42.4396 28.7885 42.3899Z" fill="#232323"/>
<path d="M33.052 64.6281V59.4641C32.4795 58.4872 31.3994 56.4231 30.9395 54.6672C30.5941 53.3483 30.4095 51.5135 30.2987 50.1558C29.6699 50.43 28.9671 50.5151 28.3102 50.4098C27.1247 50.2197 26.0189 49.4004 25.7085 47.9262C25.4616 46.7531 25.1583 44.5489 25.1277 42.526C25.1125 41.5175 25.1638 40.5125 25.3413 39.69C25.4301 39.2788 25.5572 38.8805 25.744 38.5412C25.9305 38.2025 26.2046 37.8742 26.6063 37.6878C27.0822 37.4669 27.5588 37.4174 28.008 37.5214C28.4449 37.6225 28.8036 37.8553 29.083 38.114C29.6283 38.6191 29.9747 39.3156 30.1382 39.7943C30.273 40.1894 30.0617 40.6192 29.6667 40.7541C29.2716 40.889 28.8418 40.6777 28.7069 40.2826C28.5928 39.9485 28.3564 39.5023 28.0553 39.2234C27.9115 39.0902 27.7804 39.0212 27.6674 38.995C27.5667 38.9717 27.4324 38.9707 27.2422 39.059C27.2269 39.0662 27.1586 39.106 27.0679 39.2706C26.9769 39.436 26.89 39.6797 26.8189 40.0089C26.6767 40.6679 26.6242 41.5416 26.6388 42.5033C26.6677 44.4205 26.9591 46.528 27.188 47.6152C27.3535 48.4009 27.902 48.8126 28.5494 48.9165C29.233 49.026 29.9534 48.7767 30.3567 48.2727C30.5503 48.0308 30.8725 47.9311 31.1688 48.0217C31.4652 48.1124 31.6764 48.3753 31.7014 48.6842C31.8007 49.9095 31.9602 52.5963 32.4023 54.2843C32.8232 55.8915 33.8722 57.8873 34.4006 58.776C38.5383 62.5746 41.6234 64.4152 43.9638 65.266C46.2919 66.1123 47.9251 65.9954 49.2115 65.7976C50.4294 65.6102 51.7595 64.9891 53.0643 64.1123C54.1391 63.3901 55.1642 62.514 56.0568 61.6248C56.1308 61.4156 56.2928 61.2496 56.4998 61.171C56.531 61.1381 56.5635 61.1064 56.5943 61.0735C58.5587 58.9774 59.6858 56.3619 60.2443 54.2804C60.6909 52.6158 61.0761 49.564 61.0761 48.0887C61.0761 47.6711 61.4146 47.3327 61.8321 47.3327C62.2495 47.3328 62.5881 47.6712 62.5881 48.0887C62.5881 48.7272 62.5225 49.6143 62.4159 50.5644C62.4251 50.5567 62.4354 50.5499 62.4444 50.5417C62.6475 50.3587 62.8719 49.9819 63.0764 49.3004C63.4833 47.9436 63.6889 45.8228 63.8806 43.0428C63.9502 42.0341 63.8615 41.4223 63.7339 41.0779C63.6172 40.7629 63.5035 40.7467 63.4957 40.7452C63.4413 40.7323 63.2929 40.7355 63.0528 40.8722C62.8245 41.0022 62.5985 41.2066 62.4375 41.4225C62.188 41.757 61.715 41.8263 61.3803 41.577C61.0456 41.3274 60.9762 40.8535 61.2258 40.5188C61.5008 40.15 61.8801 39.7998 62.3046 39.5581C62.7174 39.3231 63.2705 39.1376 63.8442 39.2736C64.4677 39.4214 64.9079 39.8959 65.1514 40.5533C65.3857 41.186 65.4658 42.0423 65.3897 43.1461C65.2008 45.8847 64.9891 48.185 64.5244 49.7345C64.2931 50.5055 63.9686 51.2033 63.4563 51.6649C63.0887 51.996 62.6612 52.1721 62.1973 52.2043C62.0556 53.1185 61.8869 53.9949 61.7051 54.6722C61.1041 56.9122 59.882 59.7774 57.6978 62.1081C57.6408 62.1689 57.5818 62.2284 57.5235 62.2893V70.7234C57.5235 70.809 57.5619 70.8902 57.6279 70.9449L60.3428 73.1902C60.6641 73.4564 60.7091 73.9327 60.4432 74.2543C60.1771 74.576 59.7008 74.6207 59.3791 74.3547L56.6642 72.1104C56.2508 71.7685 56.0115 71.2598 56.0115 70.7234V63.7373C55.3501 64.3173 54.6426 64.8737 53.9079 65.3674C52.5068 66.3089 50.9645 67.0586 49.4418 67.2928C47.9875 67.5166 46.0823 67.6445 43.447 66.6865C41.1031 65.8343 38.2189 64.135 34.564 60.9495V64.6281C34.564 65.0099 34.4427 65.3821 34.2175 65.6903L31.5035 69.4004C31.2571 69.7374 30.7843 69.8112 30.4473 69.5648C30.1103 69.3183 30.0374 68.8455 30.2839 68.5085L32.9968 64.7984C33.0329 64.7492 33.052 64.6892 33.052 64.6281Z" fill="#232323"/>
<path d="M33.4885 64.2275C33.8988 64.1502 34.2942 64.4207 34.3715 64.831C34.4486 65.2411 34.179 65.6365 33.769 65.714C33.0886 65.8421 31.9661 66.073 31.0138 66.4394C30.5351 66.6236 30.1447 66.825 29.8817 67.034C29.6145 67.2464 29.5691 67.3911 29.5648 67.4583C29.564 67.4709 29.5647 67.5475 29.6721 67.7112C29.7805 67.8767 29.9661 68.0802 30.2459 68.3216C30.807 68.8054 31.6295 69.3424 32.6281 69.9438C34.5807 71.1197 37.1656 72.5145 39.2018 74.0644C41.2233 75.6031 42.9206 77.2608 43.8382 79.0227C44.6298 80.5428 44.8368 82.1484 44.1945 83.7625C44.3774 83.8173 44.5593 83.8814 44.732 83.9574C45.1819 84.1552 45.8367 84.5442 45.991 85.2636C46.0203 85.4005 46.1708 86.1511 46.37 87.0148C46.4068 87.1742 46.4457 87.335 46.4842 87.4942L48.1123 84.2163C47.9439 83.5005 47.8052 82.4502 48.0306 81.3527C48.2961 80.0603 49.0637 78.7364 50.7613 77.8602C51.7313 77.3595 52.6718 77.0076 53.549 76.7104C54.4488 76.4056 55.2216 76.1771 55.9745 75.8924C57.4226 75.3448 58.5512 74.6728 59.3815 73.2198C59.7426 72.5876 59.7617 72.0376 59.5842 71.5355C59.5067 71.3778 59.4365 71.2297 59.3746 71.0945C58.7858 70.1072 57.5293 69.3213 56.6843 68.9269C56.3063 68.7503 56.1429 68.3011 56.3191 67.9229C56.4956 67.5445 56.9458 67.3801 57.3241 67.5567C58.2432 67.9856 59.8646 68.94 60.6897 70.3454C60.8004 70.534 60.8958 70.7311 60.9742 70.9351C61.2643 71.5195 61.6567 72.2371 62.0875 72.8871C62.3729 73.3177 62.6633 73.702 62.94 73.9945C63.2303 74.3015 63.4463 74.4427 63.571 74.4857C64.0075 74.6363 64.7293 74.9891 65.5761 75.4356C66.4408 75.8916 67.4849 76.4722 68.5893 77.1051C70.7977 78.3708 73.2655 79.8567 75.0527 80.9964C76.9487 82.2054 78.8083 84.2662 80.2148 86.4321C81.6127 88.5847 82.6457 90.9681 82.7604 92.8581C82.7856 93.2747 82.4682 93.6329 82.0516 93.6584C81.6349 93.6836 81.2766 93.3664 81.2513 92.9496C81.1599 91.4431 80.2883 89.3231 78.9459 87.256C77.612 85.202 75.8945 83.3264 74.2396 82.2711C72.4759 81.1465 70.0289 79.6733 67.8372 78.4173C66.7417 77.7895 65.7146 77.2181 64.8713 76.7734C64.0104 76.3194 63.3875 76.0218 63.0778 75.915C62.6055 75.7522 62.1858 75.3971 61.8414 75.033C61.4836 74.6547 61.1396 74.1937 60.8275 73.7228L60.8265 73.7209C60.7859 73.8037 60.7414 73.8874 60.6936 73.9709C59.6206 75.8484 58.1279 76.6938 56.5091 77.3059C55.7287 77.601 54.857 77.864 54.0343 78.1427C53.1889 78.4291 52.3281 78.7528 51.4543 79.2038C50.2019 79.8503 49.6948 80.7674 49.5121 81.6569C49.3218 82.5833 49.4805 83.5132 49.643 84.1001C49.6928 84.2797 49.6748 84.4717 49.5919 84.6386L47.129 89.5949C47.4194 90.2079 47.7906 90.6466 48.2029 91.1059C48.6713 91.6278 49.2439 92.2265 49.6125 93.1111C49.7731 93.4964 49.5913 93.9397 49.206 94.1004C48.8206 94.261 48.3773 94.0782 48.2167 93.6928C47.965 93.0888 47.5853 92.6813 47.0778 92.1159C46.5775 91.5584 45.9999 90.8903 45.5914 89.8508C45.3544 89.2477 45.0963 88.2169 44.8974 87.3544C44.796 86.9151 44.7053 86.4997 44.6375 86.1801L44.5154 85.5924C44.5167 85.6056 44.4677 85.4928 44.1237 85.3414C43.7913 85.1952 43.3623 85.0955 42.9965 85.052C42.7413 85.0216 42.5185 84.8638 42.4059 84.6326C42.2935 84.4016 42.306 84.1288 42.4394 83.9091C43.2936 82.5022 43.2341 81.1363 42.4975 79.7216C41.7347 78.2569 40.2498 76.7619 38.2863 75.2673C36.3374 73.7838 33.8959 72.4723 31.8485 71.2392C30.8473 70.6363 29.9261 70.0429 29.2586 69.4674C29.0645 69.3 28.8835 69.1239 28.7221 68.9427C28.5404 69.2145 28.3494 69.4973 28.1551 69.7676C27.9049 70.1157 27.6456 70.4549 27.404 70.7372C27.1799 70.9991 26.9139 71.281 26.649 71.444C26.4928 71.54 26.2301 71.6569 25.9423 71.7767C25.6335 71.9052 25.2346 72.0617 24.7659 72.2404C23.8276 72.5981 22.5916 73.0498 21.1995 73.5486C18.4144 74.5465 14.9906 75.7371 12.0448 76.7488C9.03431 77.7827 6.65289 78.4195 4.47993 79.5385C2.35965 80.6303 0.463429 82.178 -1.43026 85.0185C-4.49259 89.612 -5.80242 94.876 -6.06864 96.8911C-6.12331 97.305 -6.50323 97.5964 -6.91717 97.5417C-7.33086 97.4868 -7.6215 97.107 -7.56685 96.6932C-7.27771 94.5045 -5.90668 89.0074 -2.68829 84.1798C-0.656347 81.1319 1.43234 79.4078 3.78791 78.1948C6.09068 77.009 8.67593 76.3078 11.5536 75.3195C14.4964 74.3088 17.9134 73.1199 20.6896 72.1252C22.0782 71.6277 23.3033 71.1801 24.2275 70.8278C24.69 70.6515 25.0731 70.5009 25.3615 70.3809C25.5057 70.3208 25.622 70.2694 25.7109 70.2283C25.7552 70.2078 25.7898 70.1906 25.8163 70.1771C25.8293 70.1704 25.8395 70.1653 25.8468 70.1614C25.8532 70.1578 25.8561 70.1557 25.8566 70.1554C25.901 70.1281 26.035 70.0122 26.2553 69.7548C26.4583 69.5176 26.6891 69.2151 26.9266 68.8846C27.3593 68.2826 27.7912 67.6164 28.0843 67.1442C28.1912 66.5823 28.5573 66.1556 28.9407 65.8508C29.3761 65.5046 29.9277 65.2367 30.4704 65.0278C31.5611 64.6082 32.8008 64.3571 33.4885 64.2275Z" fill="#232323"/>
<path d="M48.3792 39.1769C48.3792 38.7594 48.7178 38.421 49.1352 38.4209C49.5527 38.4209 49.8912 38.7594 49.8912 39.1769C49.8912 40.0616 50.1177 40.8073 50.4533 41.5965C50.6248 41.9998 50.8162 42.3936 51.0232 42.8388C51.2264 43.2757 51.4377 43.7461 51.6277 44.2602C51.8449 44.8481 52.1126 45.5558 52.2458 46.227C52.3762 46.8837 52.4168 47.6839 51.984 48.3591C51.5311 49.0656 50.7118 49.4119 49.651 49.4971C48.5894 49.5823 47.1442 49.4225 45.2066 48.9744C44.7998 48.8803 44.5465 48.4736 44.6406 48.0668C44.7348 47.6602 45.1405 47.4068 45.5472 47.5008C47.4278 47.9358 48.6966 48.0569 49.53 47.99C50.3641 47.923 50.6214 47.6832 50.7112 47.5431C50.8208 47.3719 50.8701 47.064 50.7624 46.5213C50.6574 45.9927 50.4398 45.409 50.2092 44.7849C50.0408 44.3294 49.8502 43.9029 49.652 43.4766C49.4576 43.0586 49.2469 42.6221 49.0624 42.1881C48.6857 41.3025 48.3792 40.3445 48.3792 39.1769Z" fill="#232323"/>
<path d="M37.8535 33.3802C37.3289 33.4458 35.3294 34.7537 34.1356 35.5398C33.9447 35.6656 33.8965 35.9248 34.0294 36.1109C34.1489 36.2781 34.3783 36.3337 34.5756 36.2764C35.1138 36.1202 36.0345 35.9871 36.8032 35.8914C38.569 35.6716 39.5952 35.9195 40.7113 36.0767C41.9492 36.251 43.6782 36.3154 44.8742 36.4994C45.1989 36.5494 45.5063 36.3041 45.4727 35.9772C45.3948 35.2204 45.1757 34.2269 44.6597 34.0643C43.0727 33.5642 38.5787 33.2895 37.8535 33.3802Z" fill="#232323"/>
<path d="M57.9839 34.6159C58.5017 34.6159 59.1847 35.6696 60.0658 36.4631C60.2547 36.6333 60.2989 36.9201 60.1502 37.1264C60.0043 37.3287 59.718 37.3872 59.4741 37.3355C59.1486 37.2664 58.7458 37.2329 58.2911 36.9994C57.4502 36.5676 56.5833 36.7829 55.5822 36.7829C54.6147 36.7829 53.1115 36.7083 51.9715 36.8054C51.6442 36.8333 51.3596 36.5689 51.4464 36.252C51.6211 35.6138 51.9779 34.8679 52.4586 34.703C53.8929 34.2112 56.6667 34.6159 57.9839 34.6159Z" fill="#232323"/>
<path d="M27.7382 30.5082C28.4385 32.5482 29.1192 38.1562 29.2081 39.4375L29.7371 40.9075C29.8672 38.1484 30.8206 33.6935 31.3895 32.8868C31.9585 32.08 32.6933 31.5233 32.9897 31.3459C32.8316 29.186 32.6815 24.7082 33.3453 24.076C34.175 23.2858 37.1415 24.1404 40.3418 22.9723C43.5421 21.8042 45.6164 23.7848 48.5204 22.9723C51.4244 22.1598 54.2099 23.5624 56.8175 24.076C59.4252 24.5896 59.84 23.429 60.729 27.6537C61.618 31.8783 60.9068 32.709 61.2031 34.724C61.4402 36.336 61.7772 40.0974 61.916 41.7765V38.4627C62.5504 36.75 64.5685 32.2056 65.2993 31.0486C66.6048 28.9815 66.1993 27.4442 67.5987 25.9499C68.4288 24.7877 68.9952 23.7719 68.6907 21.9451C68.3862 20.1182 66.9399 18.2152 66.2549 17.4921C66.0417 15.7565 63.2735 14.1809 61.916 13.61C61.4593 13.1025 60.896 12.7799 58.7951 11.4402C56.6942 10.1005 55.1287 8.34463 54.6086 7.63417C53.2891 7.92597 49.8891 8.4182 46.8443 8.05283C43.0384 7.59611 39.45 6.91104 34.8828 8.05283C31.229 8.96627 28.0825 11.77 26.3445 12.6581V14.6372C24.5557 15.8551 25.0778 24.5289 25.3549 25.2939C26.1543 27.5014 26.8629 27.9581 27.7382 30.5082Z" fill="#232323"/>
<path d="M34.6961 7.32102C39.4278 6.13812 43.1735 6.85241 46.9309 7.3033C49.8613 7.65495 53.17 7.17896 54.4417 6.89774C54.7344 6.83299 55.0383 6.94719 55.2154 7.18911C55.6901 7.83731 57.1894 9.5228 59.1982 10.8037C60.2369 11.4661 60.9205 11.8932 61.3923 12.2124C61.807 12.4929 62.0942 12.717 62.3501 12.9772C63.07 13.2935 64.0823 13.8329 64.9715 14.5158C65.4477 14.8815 65.909 15.3038 66.2719 15.7719C66.5824 16.1724 66.8423 16.6357 66.957 17.149C67.3247 17.5619 67.8118 18.1826 68.2574 18.912C68.7669 19.7464 69.258 20.7737 69.4327 21.8218C69.6026 22.8412 69.5343 23.6777 69.2841 24.4354C69.0392 25.1767 68.6332 25.798 68.2101 26.3903C68.1907 26.4175 68.1699 26.4437 68.1471 26.4681C67.5775 27.0763 67.3679 27.6846 67.1372 28.493C66.9051 29.3061 66.6553 30.3139 65.9352 31.454C65.6034 31.9794 64.9376 33.3529 64.2569 34.8599C63.6149 36.2812 62.9916 37.7532 62.6681 38.6074V41.7781C62.668 42.1834 62.3486 42.5164 61.9436 42.5331C61.5386 42.5498 61.1925 42.2441 61.159 41.8401C61.0197 40.1544 60.6842 36.4188 60.4513 34.8353C60.2902 33.74 60.4024 32.9029 60.4296 31.9963C60.4574 31.0692 60.4179 29.865 59.9857 27.8108C59.7644 26.7594 59.5835 26.0991 59.4078 25.6757C59.2366 25.2628 59.1086 25.1695 59.0456 25.1343C58.9443 25.0777 58.7886 25.0441 58.3477 25.0132C57.9419 24.9847 57.3757 24.9585 56.6683 24.8193C55.9823 24.6841 55.2912 24.492 54.6198 24.3015C53.9391 24.1083 53.2779 23.9171 52.6098 23.766C51.2778 23.4648 49.9982 23.3445 48.7205 23.702C47.0654 24.165 45.6358 23.8226 44.3951 23.5829C43.1379 23.34 41.9933 23.1738 40.5974 23.6833C38.8744 24.3122 37.2276 24.3911 35.9699 24.4226C35.3205 24.4388 34.8213 24.4429 34.4185 24.4875C34.223 24.5092 34.0827 24.5371 33.9844 24.5692C33.9388 24.5841 33.9086 24.5977 33.8899 24.6076C33.8813 24.6267 33.8667 24.6589 33.8505 24.71C33.8088 24.8419 33.7678 25.0322 33.7324 25.2819C33.662 25.7794 33.6239 26.4306 33.6113 27.1522C33.5862 28.5907 33.6623 30.2261 33.7403 31.2915C33.7611 31.5761 33.6197 31.8486 33.3751 31.9954C33.1543 32.1276 32.5027 32.6168 32.0038 33.3243C31.9429 33.4109 31.8058 33.7234 31.6308 34.3096C31.4672 34.8576 31.2956 35.5549 31.1356 36.3207C30.8147 37.8572 30.5514 39.6185 30.4889 40.9443C30.4719 41.3045 30.2027 41.6023 29.8461 41.656C29.4894 41.7096 29.1443 41.5042 29.0222 41.1648L28.4936 39.6951C28.47 39.6296 28.4551 39.5609 28.4502 39.4914C28.4078 38.8787 28.2187 37.1775 27.9512 35.3688C27.6809 33.5422 27.3439 31.6988 27.0199 30.755C26.6016 29.5364 26.2269 28.826 25.8505 28.1356C25.4646 27.4278 25.0621 26.7162 24.6407 25.5526C24.5713 25.3609 24.5253 25.0525 24.4901 24.7572C24.4507 24.4271 24.4134 24.0062 24.3828 23.5268C24.3216 22.5677 24.2861 21.3515 24.3159 20.1189C24.3455 18.8915 24.4411 17.6198 24.6515 16.5623C24.7566 16.0344 24.8951 15.5344 25.0817 15.1104C25.2061 14.8277 25.3685 14.5428 25.5847 14.3052V12.6593C25.5848 12.3754 25.7443 12.1152 25.9972 11.986C26.3846 11.788 26.8701 11.472 27.4718 11.0666C28.06 10.6701 28.7448 10.1983 29.4868 9.72782C30.97 8.78733 32.7515 7.80716 34.6961 7.32102ZM46.7508 8.80447C42.8963 8.34193 39.4649 7.68709 35.0623 8.78774C33.3534 9.21503 31.7347 10.0929 30.2969 11.0045C29.5784 11.4601 28.922 11.9131 28.3173 12.3207C27.8881 12.61 27.4748 12.8822 27.0967 13.1042V14.6389C27.0966 14.8889 26.9727 15.1222 26.766 15.263C26.7114 15.3001 26.5972 15.4211 26.4657 15.7197C26.3397 16.0061 26.2272 16.3894 26.134 16.8576C25.9479 17.7929 25.8556 18.9665 25.8269 20.1553C25.7983 21.3386 25.8331 22.5101 25.8918 23.4303C25.9212 23.8906 25.9561 24.2828 25.9913 24.5781C26.0301 24.9041 26.0615 25.035 26.0621 25.0378C26.4401 26.0815 26.7914 26.7023 27.1784 27.4121C27.575 28.1394 27.9932 28.9326 28.4502 30.2638C28.8265 31.3601 29.179 33.3408 29.4464 35.1483C29.5026 35.5278 29.5539 35.904 29.6029 36.2675C29.6203 36.1816 29.6375 36.0961 29.6551 36.0116C29.8208 35.2181 30.0025 34.4778 30.1818 33.8775C30.3493 33.3162 30.5448 32.7693 30.7684 32.4521C31.2324 31.7943 31.7911 31.2847 32.2046 30.9696C32.1362 29.8935 32.0774 28.4391 32.1003 27.1266C32.1134 26.38 32.152 25.6576 32.2352 25.0703C32.2766 24.7778 32.3319 24.4975 32.4084 24.2552C32.4774 24.0368 32.5942 23.7448 32.8199 23.5297C33.2227 23.1461 33.7914 23.0354 34.2521 22.9844C34.7388 22.9305 35.3368 22.9264 35.9325 22.9115C37.1653 22.8807 38.6017 22.8028 40.0787 22.2638C41.8831 21.6052 43.3767 21.8462 44.6826 22.0985C46.0048 22.3539 47.0643 22.5945 48.313 22.2451C49.9392 21.7901 51.5048 21.965 52.9435 22.2904C53.6606 22.4526 54.3666 22.6577 55.0323 22.8466C55.7071 23.038 56.3422 23.2142 56.9597 23.3358C57.5559 23.4532 58.02 23.4748 58.453 23.5051C58.8506 23.533 59.3434 23.5688 59.7829 23.8142C60.2606 24.0811 60.5667 24.5222 60.8047 25.0959C61.0383 25.659 61.242 26.4389 61.4652 27.4997C61.9218 29.6699 61.9721 30.9936 61.9406 32.0416C61.9086 33.1101 61.8123 33.6962 61.9475 34.6158C62.0007 34.9775 62.0574 35.4436 62.1168 35.9683C62.3573 35.4093 62.6171 34.817 62.8788 34.2378C63.5484 32.7553 64.2576 31.2775 64.6565 30.6458C65.2418 29.719 65.4419 28.9242 65.6832 28.0785C65.9215 27.2436 66.204 26.3543 66.9993 25.4837C67.396 24.9265 67.682 24.4662 67.8489 23.9609C68.0132 23.4634 68.0759 22.8783 67.9414 22.0709C67.8117 21.2925 67.4276 20.455 66.9669 19.7005C66.5098 18.9521 66.0096 18.3371 65.7029 18.0133C65.5917 17.8959 65.5208 17.7456 65.5011 17.5851C65.4699 17.3321 65.3374 17.0342 65.0769 16.6982C64.8184 16.3648 64.4623 16.0313 64.0502 15.7148C63.2243 15.0806 62.2528 14.5744 61.6197 14.3081C61.5173 14.265 61.4254 14.1997 61.351 14.1171C61.182 13.9294 60.9838 13.7615 60.5448 13.4645C60.0956 13.1606 59.4471 12.7557 58.3851 12.0785C56.5014 10.8773 55.0325 9.36043 54.297 8.46683C52.7064 8.76613 49.5942 9.14569 46.7508 8.80447Z" fill="#232323"/>
<path d="M41.3198 39.0308C41.3198 40.0445 40.6841 40.8662 39.9 40.8662C39.1158 40.8662 38.4801 40.0445 38.4801 39.0308C38.4801 38.0171 39.1158 37.1953 39.9 37.1953C40.6841 37.1953 41.3198 38.0171 41.3198 39.0308Z" fill="#232323"/>
<path d="M56.8668 40.064C56.8668 41.0777 56.2311 41.8994 55.447 41.8994C54.6628 41.8994 54.0271 41.0777 54.0271 40.064C54.0271 39.0503 54.6628 38.2285 55.447 38.2285C56.2311 38.2285 56.8668 39.0503 56.8668 40.064Z" fill="#232323"/>
<path opacity="0.2" d="M48.62 71.3004L56.3137 63.4983V62.6504C55.071 64.1932 51.3204 67.1042 46.2593 66.4056C41.1982 65.7071 35.9131 61.4306 33.9032 59.3796V64.8309L30.3902 69.6764L37.2951 73.5528L39.7793 70.7136C40.3266 70.0882 41.2015 69.8627 41.9829 70.1456L46.4982 71.7805C47.2385 72.0485 48.0671 71.861 48.62 71.3004Z" fill="#232323"/>
<path d="M47.1372 57.9416C46.3139 57.8365 45.3141 57.6235 44.647 57.4662C44.469 57.4242 44.3272 57.621 44.4251 57.7754L45.1856 58.9754C45.3418 59.2217 45.5966 59.3902 45.8867 59.4198C46.7299 59.5057 47.8256 59.5323 48.5762 59.5354C48.8884 59.5367 49.1806 59.3878 49.3684 59.1385L50.2007 58.0342C50.3156 57.8817 50.1724 57.6634 49.9854 57.7023C49.1744 57.8709 47.9765 58.0488 47.1372 57.9416Z" fill="#232323"/>
<path opacity="0.3" d="M35.514 46.6847C36.1951 47.5222 37.7897 47.4236 39.0757 46.4644C40.3616 45.5052 40.8519 44.0486 40.1708 43.211C39.4897 42.3735 37.9862 41.789 36.7003 42.7482C35.4143 43.7074 34.8328 45.8471 35.514 46.6847Z" fill="#FED1D0"/>
<path opacity="0.3" d="M59.5826 47.7505C58.8874 48.435 57.4648 48.1877 56.4052 47.1981C55.3456 46.2085 55.0502 44.8513 55.7453 44.1668C56.4405 43.4823 57.8491 43.1068 58.9088 44.0964C59.9684 45.086 60.2777 47.0659 59.5826 47.7505Z" fill="#FED1D0"/>
</g>
<defs>
<clipPath id="clip0_3265_35646">
<rect width="90.72" height="90.72" rx="24" transform="matrix(-1 0 0 1 90.72 0)" fill="white"/>
</clipPath>
</defs>
</svg>
