<svg viewBox="0 0 91 91" fill="none" xmlns="http://www.w3.org/2000/svg">
<g clip-path="url(#clip0_3265_35723)">
<rect width="90.72" height="90.72" rx="24" transform="matrix(-1 0 0 1 90.72 0)" fill="white"/>
<path d="M26.9592 34.2151V28.294C28.4651 27.0217 31.5498 24.4562 31.8408 24.373C32.1318 24.2899 39.1687 23.5069 42.6508 23.1257L57.9303 26.0361L62.7116 38.6131C66.0378 39.2367 65.3621 44.9016 63.0234 48.1238C61.1525 50.7016 59.8185 50.6877 59.3855 50.3585C58.8657 53.2343 57.9511 59.4639 58.45 61.3764C58.9489 63.2889 63.5778 66.4003 65.8299 67.7169V68.4964C64.2361 69.9516 60.5288 73.1219 58.45 74.1613C55.8514 75.4606 48.8353 79.2025 44.6257 79.4623C40.416 79.7222 36.882 79.7222 36.2583 77.3315C35.7594 75.419 36.4662 73.2085 36.882 72.3423L35.2189 63.975C34.7165 63.6805 33.3272 62.6965 31.7888 61.1165C29.8659 59.1417 26.9592 49.6829 26.5917 47.3442C26.2977 45.4733 27.0582 40.3281 27.4752 37.9894L26.9592 34.2151Z" fill="white"/>
<path d="M62.3047 38.1191C63.0398 38.0374 63.7793 38.2173 64.3827 38.7638C64.9674 39.2936 65.3479 40.0988 65.5423 41.1263C65.9852 43.4675 65.2283 46.2625 64.0008 48.2276C63.3847 49.2138 62.6042 50.0661 61.7131 50.538C61.1163 50.8539 60.4633 50.9965 59.8073 50.8913L59.446 55.6764C59.4446 55.6962 59.4422 55.7159 59.4392 55.7355L58.6733 60.6465C58.6219 60.9772 58.7042 61.2741 58.879 61.4773C59.9615 62.7343 62.1346 64.7641 64.4664 66.2978C64.7316 66.2694 65.0113 66.2564 65.2785 66.2712C65.588 66.2884 66.0019 66.3487 66.3406 66.5675C71.0365 69.0115 81.0581 74.3161 83.3969 75.9004C86.4851 77.9924 92.0865 84.6444 90.8525 96.4148C90.809 96.83 90.437 97.1316 90.0217 97.0881C89.6067 97.0443 89.3059 96.6724 89.3494 96.2573C90.5221 85.0709 85.2004 78.9486 82.5493 77.1525C80.4498 75.7303 71.6457 71.0472 66.63 68.425C66.3158 68.9515 65.6975 69.5659 64.7489 70.3042C62.6371 71.9478 59.3598 74.4018 55.4977 76.4772C51.6433 78.5486 47.1499 80.2742 42.6103 80.4049C40.3637 80.4695 38.7183 80.1904 37.5486 79.643C36.3505 79.0821 35.6611 78.2415 35.3771 77.2726C35.103 76.3376 35.2322 75.3716 35.4785 74.5636C35.684 73.8894 35.9856 73.2781 36.2729 72.8085L34.4656 64.3714C34.3781 63.9632 34.6382 63.5612 35.0463 63.4736C35.4546 63.3862 35.8566 63.6462 35.9441 64.0544L37.9168 73.2613C37.9279 73.3133 37.9335 73.3666 37.9335 73.4198V75.2448C37.9334 75.6621 37.5948 76.0006 37.1775 76.0008C37.019 76.0008 36.8718 75.9513 36.7503 75.8679C36.719 76.2134 36.7394 76.5449 36.8281 76.8474C36.9789 77.3619 37.3469 77.8793 38.1895 78.2737C39.0605 78.6814 40.4409 78.9551 42.567 78.8939C46.7733 78.7728 51.026 77.1639 54.7821 75.1454C58.5306 73.1309 61.7284 70.7395 63.8206 69.1112C64.2451 68.7808 64.5637 68.5012 64.801 68.2705C64.4866 68.0943 64.1769 67.9126 63.8767 67.7202C61.3285 66.0873 58.9399 63.8659 57.7332 62.4647C57.2269 61.8766 57.0707 61.1141 57.18 60.4132L57.9409 55.5327L58.3435 50.1944C58.1 49.9899 57.8695 49.7462 57.6545 49.464C57.4017 49.1319 57.4662 48.6578 57.7982 48.4048C58.1302 48.152 58.6044 48.2157 58.8574 48.5476C59.0946 48.8588 59.3235 49.0652 59.5327 49.1972C59.9949 49.489 60.4702 49.4845 61.0053 49.2012C61.5761 48.8989 62.1816 48.2853 62.7181 47.4263C63.7957 45.7013 64.413 43.2891 64.0569 41.4069C63.8989 40.5725 63.6252 40.1184 63.3678 39.885C63.1291 39.6688 62.8386 39.5816 62.472 39.6222C61.6672 39.7116 60.5863 40.4248 59.7148 41.5959C59.4656 41.9306 58.9924 42.0004 58.6576 41.7514C58.3226 41.5022 58.2528 41.0282 58.502 40.6932C59.4924 39.3625 60.9055 38.2745 62.3047 38.1191Z" fill="#232323"/>
<path d="M36.1517 70.4214C36.4844 70.1692 36.9587 70.2344 37.2109 70.5671C37.4631 70.8998 37.3978 71.374 37.0652 71.6263C35.762 72.6142 32.5339 74.8582 30.211 75.7557C27.5158 76.7971 22.1587 79.7204 18.0382 82.5922C17.3613 83.064 16.6553 84.0034 15.9641 85.3327C15.2835 86.6419 14.6591 88.2455 14.1056 89.9485C12.999 93.3532 12.202 97.0781 11.8081 99.4625C11.7399 99.8742 11.3507 100.153 10.9389 100.085C10.527 100.017 10.2477 99.6273 10.3158 99.2154C10.7189 96.7757 11.532 92.9744 12.6675 89.4809C13.235 87.7347 13.8902 86.0461 14.6234 84.6358C15.3462 83.2456 16.1897 82.0379 17.1739 81.3519C21.3588 78.4352 26.8237 75.4443 29.6656 74.3461C31.7725 73.5321 34.8541 71.4051 36.1517 70.4214Z" fill="#232323"/>
<path d="M42.5888 79.6474C51.335 79.3957 60.0812 72.9777 64.2851 69.7057C66.1543 68.251 66.3786 67.536 65.9685 67.2249C70.6804 69.6768 80.6779 74.9694 82.9736 76.5246C85.8432 78.4685 91.3048 84.8558 90.1014 96.3343L11.0648 99.3421C11.8619 94.518 14.2865 84.2911 17.6087 81.9756C21.7616 79.0811 27.1729 76.1238 29.9415 75.0541C32.1563 74.1984 35.3108 72.0129 36.6112 71.0271L37.0742 72.9585C35.8787 74.7203 33.8426 79.8991 42.5888 79.6474Z" fill="#232323"/>
<path d="M65.3264 66.8223C65.5365 66.4905 65.9663 66.3752 66.3147 66.5565C71.0009 68.9951 81.0522 74.3134 83.3946 75.9002C86.4829 77.9923 92.0843 84.6451 90.8503 96.4156C90.8109 96.7894 90.5024 97.0775 90.1268 97.0918L11.0903 100.099C10.8635 100.108 10.6449 100.014 10.4948 99.8442C10.3447 99.6739 10.2787 99.445 10.3156 99.2211C10.7187 96.7815 11.5318 92.9801 12.6673 89.4866C13.2349 87.7403 13.89 86.0508 14.6233 84.6405C15.346 83.2505 16.1897 82.0435 17.1738 81.3576C21.3587 78.4408 26.8236 75.4489 29.6655 74.3508C31.7722 73.5368 34.8538 71.4108 36.1515 70.4271L36.2303 70.3739C36.4209 70.264 36.6521 70.2419 36.8622 70.3168C37.1026 70.4028 37.2841 70.6051 37.3436 70.8533L37.8063 72.7847C37.8557 72.9913 37.8163 73.2093 37.697 73.3851C37.4331 73.774 37.1179 74.3596 36.9213 75.0044C36.723 75.6551 36.6652 76.2988 36.8258 76.8472C36.9766 77.3617 37.3439 77.8791 38.1862 78.2735C39.0573 78.6813 40.4376 78.9549 42.5638 78.8937C46.7702 78.7726 51.0237 77.1638 54.7798 75.1452C58.5281 73.1308 61.7253 70.7393 63.8174 69.111C64.7377 68.3947 65.1666 67.9237 65.3294 67.6511C65.3316 67.6475 65.3323 67.6428 65.3343 67.6393C65.1765 67.3978 65.164 67.0789 65.3264 66.8223ZM66.6268 68.4259C66.3125 68.9522 65.695 69.5659 64.7466 70.304C62.6349 71.9476 59.3575 74.4016 55.4955 76.4771C51.641 78.5484 47.1468 80.2741 42.6071 80.4047C40.3605 80.4693 38.715 80.1903 37.5454 79.6428C36.3474 79.0819 35.6588 78.2413 35.3749 77.2724C35.1009 76.3375 35.229 75.3713 35.4753 74.5634C35.6785 73.897 35.9765 73.2924 36.2608 72.825L36.1368 72.3072C34.5718 73.4182 32.0944 75.0336 30.2108 75.7614C27.5156 76.8028 22.1586 79.726 18.038 82.5979C17.3611 83.0697 16.6551 84.009 15.964 85.3384C15.2834 86.6475 14.6589 88.2513 14.1055 89.9541C13.1319 92.9497 12.3971 96.1926 11.9664 98.5527L89.4062 95.6054C90.3099 84.8324 85.1451 78.913 82.5461 77.1523C80.4459 75.7298 71.6421 71.0478 66.6268 68.4259Z" fill="#232323"/>
<path d="M60.6511 43.8696C60.8297 43.4921 61.2807 43.3307 61.6581 43.5093C62.0354 43.6878 62.1967 44.138 62.0184 44.5153L61.8609 44.8461L61.8757 44.85C62.2828 44.9427 62.5383 45.3476 62.4456 45.7546C62.3529 46.1617 61.9471 46.4163 61.54 46.3236L61.1994 46.2458L60.912 46.8542C60.7334 47.2316 60.2824 47.393 59.905 47.2145C59.5276 47.0359 59.3661 46.5848 59.5447 46.2075L59.6904 45.9013C59.293 45.8016 59.0459 45.4031 59.1372 45.0016C59.2299 44.5945 59.6357 44.3389 60.0428 44.4316L60.3509 44.5015L60.6511 43.8696Z" fill="#232323"/>
<path d="M61.9452 64.7311C62.2077 64.4064 62.6836 64.3565 63.0084 64.6189C63.3331 64.8814 63.384 65.3573 63.1216 65.682C61.4909 67.6996 58.8124 71.08 56.2772 74.4194C53.7304 77.7739 51.3627 81.0412 50.3276 82.8525C49.0258 85.1307 45.4696 91.969 41.8886 96.4349C40.9887 97.5571 40.0673 98.5557 39.1599 99.3034C38.2663 100.04 37.3108 100.596 36.3456 100.713C35.3087 100.838 34.3723 100.443 33.6376 99.5268C32.9389 98.6558 32.421 97.3202 32.0586 95.5086C30.9076 89.7537 31.1489 84.6871 32.0714 80.679C32.9887 76.6936 34.5956 73.6905 36.2403 72.1218C36.5424 71.8337 37.0211 71.8453 37.3093 72.1474C37.5975 72.4495 37.5858 72.9283 37.2837 73.2164C35.9283 74.5095 34.4238 77.2003 33.545 81.0186C32.6714 84.8146 32.4325 89.6633 33.5421 95.2113C33.8861 96.9316 34.3416 97.9883 34.8168 98.5808C35.2561 99.1284 35.6949 99.2685 36.1645 99.2118C36.7053 99.1464 37.3885 98.8039 38.1982 98.1369C38.9944 97.4808 39.8422 96.5699 40.7083 95.4899C44.1916 91.1461 47.6578 84.4782 49.0155 82.1024C50.1081 80.1904 52.5376 76.8446 55.0723 73.5059C57.6187 70.1518 60.3069 66.7582 61.9452 64.7311Z" fill="#929292"/>
<path d="M61.0762 53.1284C61.3234 54.4353 59.6781 55.0269 58.8245 55.1593L59.35 49.9612C60.8821 50.6929 61.9633 49.7874 62.3124 49.2432C63.5133 51.1858 61.9886 52.6428 61.0762 53.1284Z" fill="#232323"/>
<path d="M63.6466 34.9761C61.9388 36.3507 62.5205 37.9998 62.285 38.8438C60.0708 38.5611 59.0162 41.16 58.9966 42.4948H58.6929C58.8499 39.7271 58.8931 33.7089 57.8096 31.7774C56.7261 29.8459 54.9241 28.46 54.1586 28.0086C51.3791 29.4218 49.4672 27.4197 48.8587 26.242C45.4433 28.303 42.97 24.2987 41.7922 24.1809C40.85 24.0867 40.2612 24.9661 40.0845 25.4175C39.001 27.7259 36.0998 26.929 34.7847 26.242C33.9602 27.1253 31.911 28.9508 30.3092 29.1863C28.7074 29.4219 27.6397 29.0882 27.306 28.8919C22.0061 30.6585 21.535 27.2234 21.7706 25.4175C20.5928 24.4282 20.1806 21.7469 20.1217 20.5299H21.2995C21.5821 18.7397 23.4979 17.7033 24.4205 17.4089C24.4009 16.7807 24.5971 15.2654 25.5393 14.229C26.4815 13.1925 29.1118 12.4623 30.3092 12.2268C30.4662 11.7361 31.0865 10.6251 32.3114 10.1069C33.5362 9.58865 35.4913 9.65539 36.3157 9.75353C37.0813 8.9291 40.0256 6.57362 41.4389 8.10469C42.5695 9.32954 44.0692 9.16466 44.6777 8.92911C47.3629 7.32738 51.489 8.81133 53.2163 9.75353L52.6275 11.4024C55.7367 10.6015 58.7125 14.0915 59.8117 15.9367C64.0987 15.3714 65.0919 18.9988 65.0527 20.8832C65.406 21.1776 66.1127 22.0727 66.1127 23.2976C66.1127 24.5224 67.0156 26.0456 67.4671 26.6542L66.1127 28.0086C65.7397 29.9518 64.6381 34.178 63.6466 34.9761Z" fill="#232323"/>
<path d="M65.3582 23.2997C65.3582 22.3541 64.7979 21.6559 64.5697 21.4658C64.3933 21.3186 64.2932 21.0989 64.298 20.8692C64.3154 20.0347 64.0976 18.8359 63.4446 17.9378C62.8354 17.0999 61.7925 16.4406 59.9116 16.6886C59.6123 16.7279 59.3181 16.5848 59.1635 16.3254C58.6493 15.4623 57.6879 14.2058 56.5067 13.2728C55.3119 12.3292 54.035 11.8232 52.8173 12.1369C52.5466 12.2064 52.2597 12.1206 52.0711 11.9144C51.8826 11.7079 51.8227 11.4139 51.9166 11.1505L52.2798 10.1317C51.4674 9.75459 50.3528 9.34873 49.1721 9.13352C47.664 8.85863 46.1795 8.9164 45.0663 9.58043C45.0298 9.60216 44.9917 9.62122 44.9521 9.63654C44.1627 9.94206 42.2949 10.1474 40.8847 8.61968C40.7093 8.42966 40.4908 8.34608 40.1799 8.35784C39.8429 8.37057 39.4282 8.49857 38.972 8.72501C38.0591 9.17814 37.2032 9.91223 36.8714 10.2695C36.707 10.4465 36.4675 10.5343 36.2276 10.5057C35.8547 10.4614 35.2023 10.4229 34.502 10.4565C33.7886 10.4908 33.0975 10.5975 32.6071 10.805C31.6416 11.2136 31.1422 12.112 31.0311 12.4587C30.9471 12.721 30.7264 12.9175 30.4562 12.9706C29.8903 13.082 28.973 13.3136 28.0917 13.639C27.1741 13.9778 26.4376 14.3685 26.1003 14.7395C25.7322 15.1445 25.4921 15.6643 25.3483 16.1777C25.2042 16.6922 25.1706 17.1519 25.178 17.3875C25.1884 17.7249 24.973 18.0281 24.6513 18.1307C24.2703 18.2524 23.6491 18.5423 23.1029 18.993C22.5564 19.4441 22.1502 20.0007 22.0477 20.6497C21.9897 21.0172 21.6725 21.2876 21.3005 21.2876H20.954C21.0147 21.7656 21.1097 22.3208 21.2572 22.8626C21.5081 23.7841 21.8577 24.5035 22.2583 24.8402C22.4558 25.0061 22.5555 25.2617 22.5221 25.5175C22.4123 26.3594 22.5031 27.3882 23.035 28.0001C23.4875 28.5205 24.5338 29.0209 27.068 28.1763C27.2752 28.1072 27.5028 28.1315 27.6911 28.2422C27.8421 28.3309 28.7256 28.6569 30.2003 28.4401C30.8104 28.3503 31.5987 27.9294 32.3935 27.3484C33.1658 26.7838 33.8492 26.1396 34.2332 25.7281L34.3268 25.6435C34.5569 25.4673 34.8724 25.4361 35.1359 25.5736C35.7234 25.8804 36.6551 26.2015 37.5201 26.1986C38.3469 26.1959 39.0191 25.9122 39.4012 25.0981H39.4022C39.5307 24.7891 39.774 24.3787 40.1405 24.0409C40.5359 23.6766 41.1231 23.356 41.869 23.4306C42.1932 23.463 42.4816 23.6148 42.6959 23.7485C42.9232 23.8904 43.1592 24.0726 43.386 24.2535C43.8605 24.6322 44.3413 25.0416 44.893 25.3924C45.4377 25.7387 45.9946 25.988 46.5704 26.0569C47.1284 26.1237 47.7548 26.0273 48.4693 25.5962C48.6484 25.4881 48.8645 25.4596 49.0658 25.5165C49.2669 25.5733 49.4354 25.7109 49.5314 25.8964C49.7815 26.3804 50.3126 27.0456 51.0464 27.4291C51.7383 27.7906 52.6529 27.9287 53.8174 27.3366C54.0475 27.2196 54.3214 27.2282 54.5439 27.3592C55.3869 27.8564 57.3032 29.3291 58.4705 31.4099C58.8081 32.012 59.0254 32.8578 59.1744 33.7557C59.3266 34.6735 59.4193 35.7246 59.4726 36.7866C59.5133 37.597 59.5307 38.4218 59.5327 39.2101C60.0424 38.6409 60.7324 38.1847 61.6018 38.0869C61.602 38.0798 61.6027 38.0726 61.6028 38.0653C61.6079 37.7824 61.6103 37.4047 61.6668 37.0051C61.7858 36.1634 62.1431 35.2183 63.1739 34.3886C63.2715 34.31 63.4654 34.0448 63.7123 33.5096C63.9426 33.0104 64.1744 32.3788 64.3925 31.6944C64.8284 30.3267 65.1905 28.8135 65.372 27.8681L65.4015 27.7589C65.4389 27.653 65.4996 27.5565 65.5797 27.4764L66.4951 26.5599C66.3111 26.2626 66.1129 25.9087 65.936 25.5263C65.6367 24.8792 65.3582 24.0742 65.3582 23.2997ZM66.8702 23.2997C66.8702 23.7499 67.0433 24.3187 67.3082 24.8914C67.5672 25.4512 67.879 25.9399 68.0761 26.2055C68.2993 26.5065 68.2682 26.9259 68.0032 27.1909L66.8072 28.3859C66.605 29.3849 66.2554 30.8297 65.8336 32.1531C65.6059 32.8678 65.3523 33.5643 65.0855 34.1426C64.8356 34.6845 64.5199 35.2465 64.1218 35.5669C63.445 36.1118 63.24 36.6793 63.164 37.2168C63.123 37.5066 63.1193 37.7854 63.1138 38.0919C63.109 38.3639 63.104 38.7273 63.0144 39.0487C62.9135 39.4101 62.5627 39.6435 62.1905 39.596C61.4531 39.5019 60.8815 39.8608 60.4403 40.4957C59.9846 41.1515 59.7618 41.9885 59.7542 42.5078C59.7481 42.9209 59.4113 43.2529 58.9981 43.2529H58.694C58.4862 43.2528 58.2874 43.1668 58.1447 43.0157C58.002 42.8646 57.9282 42.6611 57.9399 42.4536C58.0173 41.0902 58.066 38.9215 57.9626 36.8624C57.9109 35.8325 57.8214 34.844 57.682 34.0038C57.5393 33.1437 57.3555 32.5129 57.1515 32.1492C56.2839 30.6027 54.8978 29.4202 54.0969 28.8693C52.6476 29.4737 51.3627 29.3005 50.3455 28.7689C49.583 28.3703 48.995 27.7838 48.5894 27.2293C47.8296 27.5533 47.0926 27.6429 46.3913 27.5591C45.506 27.4531 44.7297 27.08 44.0819 26.6682C43.4415 26.261 42.8699 25.7765 42.4429 25.4358C42.2189 25.2569 42.0414 25.1228 41.8946 25.0312C41.7353 24.9318 41.6889 24.9317 41.7184 24.9347C41.5223 24.9151 41.3439 24.9877 41.1652 25.1523C40.9766 25.3261 40.8442 25.5566 40.7902 25.6946C40.7841 25.7101 40.7775 25.7259 40.7705 25.7409C40.0691 27.2351 38.7484 27.7065 37.525 27.7106C36.5894 27.7137 35.66 27.4508 34.9518 27.1535C34.514 27.5814 33.9299 28.0985 33.2863 28.569C32.4499 29.1805 31.4123 29.7905 30.4208 29.9363C28.9922 30.1464 27.8904 29.9463 27.259 29.7001C24.6526 30.5054 22.9056 30.157 21.8931 28.9923C21.0425 28.0136 20.9166 26.6686 20.9836 25.7025C20.3901 25.0398 20.0262 24.096 19.7984 23.2593C19.5241 22.2519 19.3998 21.2217 19.3682 20.568C19.3583 20.3617 19.4335 20.1605 19.5759 20.0109C19.7186 19.8611 19.9164 19.7756 20.1232 19.7756H20.7158C21.0071 18.9473 21.5673 18.3005 22.1402 17.8275C22.6551 17.4025 23.2147 17.0893 23.6896 16.8825C23.7197 16.5552 23.7801 16.1711 23.8924 15.7702C24.0773 15.1099 24.4073 14.354 24.9811 13.7227C25.586 13.0574 26.6358 12.5647 27.568 12.2205C28.3513 11.9313 29.1532 11.713 29.7652 11.5738C30.1008 10.8879 30.8154 9.92108 32.0184 9.4121C32.7528 9.10147 33.6528 8.98284 34.4291 8.94551C35.0294 8.91665 35.5995 8.93421 36.0366 8.96815C36.5457 8.48784 37.3867 7.8237 38.2997 7.37051C38.8519 7.0964 39.4863 6.87088 40.1228 6.84682C40.7853 6.82178 41.4648 7.01846 41.996 7.59396C42.829 8.49619 43.9299 8.39369 44.3772 8.2338C45.9331 7.34563 47.8146 7.34843 49.4428 7.64515C51.1168 7.95026 52.6569 8.5886 53.5802 9.09218C53.9065 9.27044 54.0546 9.65938 53.9296 10.0096L53.7416 10.5353C55.134 10.5905 56.4128 11.2714 57.4438 12.0857C58.622 13.0162 59.5869 14.2015 60.204 15.1402C62.3392 14.9952 63.7838 15.8339 64.6672 17.0489C65.4811 18.1683 65.7704 19.5396 65.8051 20.568C66.2788 21.0877 66.8702 22.0505 66.8702 23.2997Z" fill="#232323"/>
<path d="M36.4215 75.2414V73.4962L34.4656 64.368C34.3781 63.9598 34.6381 63.5578 35.0463 63.4703C35.4546 63.3828 35.8566 63.6429 35.9441 64.0511L37.9168 73.2579C37.9279 73.3099 37.9335 73.3633 37.9335 73.4164V75.2414C37.9335 75.6588 37.5948 75.9972 37.1775 75.9974C36.76 75.9974 36.4215 75.659 36.4215 75.2414Z" fill="#232323"/>
<path opacity="0.5" d="M27.2853 40.804C26.9451 42.5801 26.6256 44.6579 26.4496 46.7367C28.0374 47.3711 29.6643 47.162 30.325 46.1481C31.0957 44.965 30.0455 42.2619 28.2411 41.1908C27.9226 41.0017 27.6018 40.876 27.2853 40.804Z" fill="#FED1D0"/>
<path d="M26.4145 46.4171C26.4145 44.7381 26.5638 42.902 26.7137 41.3613C26.8675 39.7805 27.0129 38.5782 27.0248 38.0558C27.0439 37.2126 26.9306 35.8769 26.8692 35.3044C26.8664 35.2777 26.8653 35.2506 26.8653 35.2237V28.9542C26.8653 28.5367 27.2038 28.1982 27.6213 28.1982C28.0386 28.1985 28.3773 28.5369 28.3773 28.9542V35.1932C28.441 35.8021 28.5577 37.1687 28.5368 38.0902C28.5232 38.6871 28.3639 40.0162 28.2188 41.507C28.0698 43.0379 27.9265 44.8145 27.9265 46.4171C27.9265 47.0973 28.122 47.9878 28.4629 49.0896C28.8014 50.1834 29.2566 51.4064 29.7387 52.7535C30.2426 54.1614 30.7567 55.624 31.3245 56.9656C31.8947 58.3129 32.4972 59.4847 33.1574 60.3233C33.8001 61.1397 34.2852 61.7809 34.7186 62.3167C35.2787 62.8752 35.8799 63.2809 36.5053 63.3946C38.6153 63.7782 41.6421 63.2953 43.5534 62.6917C45.0625 62.2151 47.897 61.124 49.4754 60.4887L50.3761 59.7268C50.6949 59.4575 51.1716 59.4978 51.4412 59.8164C51.7107 60.1351 51.6712 60.6118 51.3526 60.8815L50.3574 61.7231C50.3429 61.7354 50.3276 61.7474 50.3121 61.7585C49.4384 62.391 47.6538 63.3904 45.6885 64.2401C43.7373 65.0837 41.4866 65.8336 39.7055 65.8781C37.6394 65.9298 36.3518 65.7531 35.2226 64.9578C34.6806 64.5759 34.2092 64.0758 33.7136 63.4773C33.6739 63.4293 33.6343 63.3797 33.5935 63.3296C33.5548 63.2902 33.5156 63.2518 33.4783 63.2125C32.7876 62.483 32.2551 61.6721 31.9427 61.222H31.9417C31.1677 60.2276 30.5116 58.9232 29.9326 57.5553C29.3442 56.165 28.8132 54.6547 28.3153 53.2634C27.8437 51.9455 27.3701 50.6727 27.0189 49.5375C26.6701 48.4106 26.4145 47.3373 26.4145 46.4171Z" fill="#232323"/>
<path opacity="0.5" d="M53.044 46.6724C52.2731 47.8555 50.1853 47.9463 48.3808 46.8752C46.5763 45.8041 45.7384 43.9768 46.5093 42.7937C47.2803 41.6107 49.1556 40.6438 50.9601 41.7149C52.7646 42.786 53.815 45.4894 53.044 46.6724Z" fill="#FED1D0"/>
<path d="M34.106 51.6721C33.6109 52.1122 33.1662 53.0474 33.0058 53.46V53.6353L34.106 53.8382C34.2435 54.3883 34.8486 55.5023 35.6188 55.6948C36.5815 55.9355 38.9883 55.9355 39.6415 55.6948C40.1641 55.5023 42.4036 54.1361 43.5267 53.46C42.9995 53.1047 41.8489 52.3253 41.4638 52.0503C41.0787 51.7752 39.3779 50.9959 38.5757 50.6406L37.2004 50.9501L36.3064 50.6406C35.7793 50.8011 34.6011 51.232 34.106 51.6721Z" fill="#FED1D0"/>
<path opacity="0.2" d="M42.1596 74.5072L35.537 64.9174V64.2955C39.5792 66.2129 45.176 63.3627 48.5964 62.0153C51.1155 61.0229 53.3594 58.8415 54.3736 57.6389C54.509 57.4784 54.7429 57.4413 54.9176 57.5577C55.0933 57.6749 55.1482 57.9081 55.0432 58.0913L52.7895 62.0242C52.6557 62.2577 52.4764 62.4621 52.2624 62.6252L45.7847 67.5628C45.3926 67.8617 45.1236 68.2939 45.0286 68.7777L43.9781 74.1286C43.8063 75.0037 42.6663 75.241 42.1596 74.5072Z" fill="#232323"/>
<path d="M37.0192 33.1324L40.6781 33.154L43.7346 33.1875C44.6883 33.2013 45.5656 33.2182 46.3324 33.2377C47.8292 33.2758 48.9866 33.3263 49.4253 33.406C50.9412 33.6817 51.7552 34.9167 52.0792 36.2371H52.6727L52.7889 36.246C53.7434 36.3938 55.2978 36.6743 56.876 37.0403C58.4387 37.4028 60.0864 37.8621 61.1905 38.3771C61.5687 38.5537 61.7322 39.0039 61.5557 39.3822C61.3792 39.7604 60.929 39.9239 60.5507 39.7474C59.601 39.3044 58.0877 38.8742 56.5344 38.514C55.0293 38.1649 53.5437 37.8944 52.6166 37.7491H52.2534C52.2523 38.2403 52.2 38.737 52.0988 39.2178C51.8532 40.3846 51.6369 41.5925 51.0613 42.5243C50.4297 43.5467 49.4224 44.1798 47.8119 44.4202C44.8726 44.8589 41.778 44.6977 39.7843 42.2556C39.0602 41.3686 38.6508 40.2358 38.4219 39.1774C38.2417 38.3435 38.1658 37.5177 38.1493 36.8218C37.8157 36.7404 37.4449 36.7191 37.0704 36.744C36.7704 36.7641 36.4901 36.8129 36.2573 36.8671C36.2348 37.1092 36.2053 37.3637 36.1658 37.626C36.4462 37.7896 36.6005 38.1199 36.5211 38.4519C36.393 38.9876 36.1577 39.9185 35.8832 40.841C35.6168 41.7364 35.2886 42.7129 34.9638 43.2813C34.7807 43.6018 34.5751 43.9534 34.4628 44.3159C34.3512 44.6761 34.3792 44.8973 34.4766 45.0472C34.5836 45.2119 34.9125 45.5053 35.9 45.6812C36.8744 45.8547 38.3653 45.8894 40.5945 45.6605C41.0098 45.6179 41.3816 45.9205 41.4243 46.3358C41.4668 46.7511 41.1643 47.122 40.749 47.1646C38.4589 47.3998 36.8088 47.3795 35.6352 47.1705C34.4751 46.964 33.6479 46.548 33.2077 45.8702C32.7584 45.1779 32.8468 44.423 33.0187 43.868C33.0534 43.7562 33.0938 43.6465 33.1368 43.5402C32.1129 44.1003 30.856 44.4009 29.7319 44.5324C28.4661 44.6805 27.2011 44.6331 26.4706 44.3897C25.7963 44.1649 25.0657 43.7784 24.4615 42.9791C23.8685 42.1943 23.4466 41.0766 23.2468 39.4786C23.1694 38.8597 23.1177 38.3296 23.0903 37.8712L22.5617 37.7196C22.1607 37.6039 21.9294 37.1845 22.0449 36.7834C22.1605 36.3822 22.5798 36.151 22.981 36.2666L23.1139 36.305C23.116 36.2888 23.1176 36.2727 23.1198 36.2568C23.2265 35.4895 23.4875 35.0691 23.7695 34.6897C24.4161 33.82 25.3188 33.4068 27.1174 33.1432L27.2237 33.1353C28.9121 33.1281 31.0477 33.1231 33.3239 33.1245C34.5311 33.1252 35.7784 33.1277 37.0192 33.1324ZM27.2887 34.6463C25.6686 34.8888 25.2664 35.21 24.9823 35.5923C24.7977 35.8406 24.6791 36.0258 24.6181 36.4645C24.607 36.5443 24.5981 36.6326 24.5915 36.7303L27.4363 37.5503C27.8372 37.666 28.0686 38.0844 27.9531 38.4854C27.8375 38.8866 27.4182 39.1178 27.017 39.0022L24.6407 38.3181C24.6667 38.6061 24.7018 38.9286 24.747 39.2906C24.9265 40.7265 25.2868 41.5626 25.6684 42.0675C26.0386 42.5573 26.4749 42.7977 26.9481 42.9555C27.3655 43.0946 28.3696 43.1701 29.5567 43.0312C30.7284 42.8941 31.9124 42.5662 32.7136 42.0321C32.9588 41.8685 33.2217 41.5719 33.4804 41.1334C33.7353 40.7013 33.962 40.1727 34.1527 39.5958C34.5355 38.4376 34.7486 37.1641 34.7857 36.2578C34.8054 35.7757 34.7712 35.4829 34.7355 35.3699C34.6714 35.1678 34.4953 34.9867 34.1803 34.8432C33.8658 34.7 33.5107 34.643 33.3002 34.6365C31.0613 34.6352 28.9597 34.6393 27.2887 34.6463ZM40.563 34.669C40.3377 34.687 40.193 34.7726 40.0816 34.8777C39.9376 35.0135 39.8267 35.2067 39.7371 35.4191C39.7434 35.4023 39.739 35.4084 39.7302 35.4516C39.7213 35.495 39.7116 35.5581 39.7016 35.6415C39.6816 35.8088 39.6651 36.0347 39.6593 36.305C39.6445 36.9967 39.6986 37.9294 39.8995 38.8585C40.1022 39.7958 40.4418 40.6691 40.9557 41.2987C42.4093 43.0794 44.7536 43.348 47.5884 42.9249C48.8649 42.7344 49.4283 42.2905 49.7747 41.7299C50.1771 41.0785 50.3469 40.1961 50.6183 38.9067C50.7459 38.301 50.7751 37.6684 50.702 37.0866C50.5417 35.8116 49.9582 35.0395 49.1546 34.8934C48.8604 34.84 47.8512 34.7884 46.294 34.7487C44.7731 34.71 42.8064 34.6836 40.6653 34.666L40.563 34.669ZM36.0693 34.6414C36.1098 34.7269 36.1464 34.8168 36.1766 34.9121C36.2157 35.0354 36.2421 35.1738 36.2622 35.3216C36.4836 35.2825 36.7217 35.2515 36.969 35.235C37.3561 35.2092 37.7883 35.2191 38.2261 35.295C38.2501 35.1412 38.282 34.9804 38.3363 34.8501L38.4249 34.6523C37.6454 34.6481 36.8563 34.6437 36.0693 34.6414Z" fill="#232323"/>
<path d="M31.4613 51.5356C31.2746 51.9712 31.504 52.6298 31.633 53.1042C31.6914 53.3188 31.8864 53.4954 32.1088 53.4954C32.3135 53.4954 32.4847 53.3436 32.5382 53.146C32.6828 52.6124 32.9545 52.1637 33.0944 51.9812C33.7889 51.191 35.1999 50.4745 35.8186 50.2151L37.2255 50.5444L38.393 50.2151C39.6702 50.7339 42.3804 51.8974 43.003 52.4003C43.3104 52.6486 43.5526 52.8807 43.731 53.0708C43.966 53.3211 44.2883 53.4954 44.6315 53.4954H45.2883C45.553 53.4954 45.7768 53.2896 45.7567 53.0256C45.6833 52.0627 45.2005 51.307 44.9332 51.02C44.1768 50.6762 38.6413 47.9943 38.2287 48.0286C37.8986 48.0562 37.1514 48.5444 36.819 48.7851C36.521 48.4985 35.8082 47.9874 35.3406 48.2349C34.7561 48.5444 31.7707 50.8136 31.4613 51.5356Z" fill="#929292"/>
<path d="M39.0405 52.4141L42.1846 52.9575H43.0174C43.2956 52.9577 43.5214 53.1832 43.5214 53.4615C43.5213 53.7397 43.2956 53.9653 43.0174 53.9655H42.1384C42.1097 53.9655 42.0809 53.9625 42.0527 53.9576L38.9391 53.4201L37.2155 53.618C37.169 53.6233 37.1219 53.6227 37.0757 53.6151L35.9831 53.432L34.3864 54.1299C34.2864 54.1735 34.1746 54.1836 34.0685 54.1584L33.2012 53.9517C32.9304 53.8873 32.7627 53.6151 32.8272 53.3444C32.8917 53.0739 33.163 52.9071 33.4335 52.9713L34.1374 53.1376L35.7183 52.4496L35.7862 52.4249C35.8561 52.4058 35.9297 52.4022 36.0018 52.4141L37.1692 52.609L38.8978 52.4102L38.9697 52.4072C38.9934 52.4079 39.0171 52.4101 39.0405 52.4141Z" fill="#FF9D9D"/>
<path d="M32.7967 37.4047C32.7967 38.4491 32.1579 39.2957 31.3699 39.2957C30.5818 39.2957 29.943 38.4491 29.943 37.4047C29.943 36.3603 30.5818 35.5137 31.3699 35.5137C32.1579 35.5137 32.7967 36.3603 32.7967 37.4047Z" fill="#232323"/>
<path d="M48.9562 37.4047C48.9562 38.4491 48.3173 39.2957 47.5293 39.2957C46.7413 39.2957 46.1024 38.4491 46.1024 37.4047C46.1024 36.3603 46.7413 35.5137 47.5293 35.5137C48.3173 35.5137 48.9562 36.3603 48.9562 37.4047Z" fill="#232323"/>
<path d="M28.637 31.9744C28.1419 32.1944 27.4451 33.0517 27.1586 33.4528V33.9342H35.3072C34.929 33.3497 33.7256 32.1394 33.1755 31.9744C32.4878 31.7681 29.2559 31.6993 28.637 31.9744Z" fill="#232323"/>
<path d="M43.4246 31.8575C42.8681 32.0676 41.8898 33.0176 41.4702 33.4664C43.2811 33.543 47.1743 33.6962 48.2608 33.6962H51.4233C51.6525 33.6962 51.8382 33.512 51.8382 33.2849C51.8382 33.1337 51.7553 32.9945 51.619 32.9266C50.982 32.6094 49.8246 32.1147 48.9564 32.0217C47.7308 31.8903 44.1202 31.5948 43.4246 31.8575Z" fill="#232323"/>
</g>
<defs>
<clipPath id="clip0_3265_35723">
<rect width="90.72" height="90.72" rx="24" transform="matrix(-1 0 0 1 90.72 0)" fill="white"/>
</clipPath>
</defs>
</svg>
